<svg id="Group_21" data-name="Group 21" xmlns="http://www.w3.org/2000/svg" xmlns:xlink="http://www.w3.org/1999/xlink" width="102" height="102" viewBox="0 0 102 102">
  <defs>
    <clipPath id="clip-path">
      <path id="Clip_79" data-name="Clip 79" d="M0,0H42V71H0Z" fill="none"/>
    </clipPath>
  </defs>
  <rect id="Rectangle" width="102" height="102" rx="26" fill="#fff"/>
  <g id="Group_81" data-name="Group 81" transform="translate(30 14)">
    <path id="Clip_79-2" data-name="Clip 79" d="M0,0H42V71H0Z" fill="none"/>
    <g id="Group_81-2" data-name="Group 81" clip-path="url(#clip-path)">
      <path id="Fill_78" data-name="Fill 78" d="M0,33.2C0,46.362,10.978,49.183,14.343,49.732a6.1,6.1,0,0,1,3.6,1.975,6.1,6.1,0,0,1,3.6-1.975c3.365-.549,14.343-3.37,14.343-16.531,0-10.076-13.825-28.066-17.945-33.2C13.825,5.135,0,23.124,0,33.2" transform="translate(3.055 3.859)" fill="#b9cd95"/>
      <path id="Fill_80" data-name="Fill 80" d="M21,69.457a1.5,1.5,0,0,1-1.5-1.5v-8.32a3.037,3.037,0,0,0-2.6-2.975C8.732,55.324,0,49.49,0,37.129,0,34.181,1.005,30.47,2.988,26.1A89.385,89.385,0,0,1,9.622,14.341,157.754,157.754,0,0,1,19.852.507a1.552,1.552,0,0,1,2.3,0,157.791,157.791,0,0,1,10.23,13.835A89.384,89.384,0,0,1,39.012,26.1C40.995,30.47,42,34.181,42,37.129c0,12.362-8.732,18.2-16.9,19.533a3.037,3.037,0,0,0-2.6,2.975v8.32A1.5,1.5,0,0,1,21,69.457ZM34.5,34.488a1.5,1.5,0,0,1,.925,2.686L24.951,45.319A6.313,6.313,0,0,0,22.5,50.333v4.129a6.188,6.188,0,0,1,2.113-.763C27.988,53.149,39,50.326,39,37.129,39,27.05,25.224,9.11,21,3.849c-4.224,5.26-18,23.2-18,33.279,0,13.2,11.012,16.02,14.386,16.571a6.183,6.183,0,0,1,2.114.763V50.333a6.312,6.312,0,0,0-2.452-5.015L6.579,37.174A1.5,1.5,0,0,1,8.421,34.8L19.5,43.423v-4.9a6.362,6.362,0,0,0-2.659-5.168L9.628,28.206a1.5,1.5,0,0,1,1.743-2.444L19.5,31.571V27.909a6.38,6.38,0,0,0-2.54-5.081L14.1,20.682a1.5,1.5,0,0,1,.9-2.7,1.487,1.487,0,0,1,.9.3l3.6,2.7v-6a1.5,1.5,0,1,1,3,0v6l3.6-2.7a1.5,1.5,0,0,1,1.8,2.4l-2.86,2.146a6.384,6.384,0,0,0-2.54,5.081v3.662l8.129-5.809a1.485,1.485,0,0,1,.869-.279,1.507,1.507,0,0,1,1.224.629,1.5,1.5,0,0,1-.35,2.093L25.16,33.36a6.361,6.361,0,0,0-2.66,5.168v4.9L33.579,34.8A1.482,1.482,0,0,1,34.5,34.488Z" transform="translate(0 0)" fill="#003c51"/>
    </g>
  </g>
  <circle id="Oval" cx="1.5" cy="1.5" r="1.5" transform="translate(50 87)" fill="#003c51"/>
</svg>
