<?xml version="1.0" encoding="utf-8"?>
<!-- Generator: Adobe Illustrator 24.0.3, SVG Export Plug-In . SVG Version: 6.00 Build 0)  -->
<svg version="1.1" id="Layer_1" xmlns="http://www.w3.org/2000/svg" xmlns:xlink="http://www.w3.org/1999/xlink" x="0px" y="0px"
	 viewBox="0 0 212 210" style="enable-background:new 0 0 212 210;" xml:space="preserve">
<style type="text/css">
	.st0{clip-path:url(#SVGID_2_);}
	.st1{opacity:0.2;fill:#85B345;}
	.st2{fill:#85B345;}
	.st3{fill:#A1A468;}
	.st4{fill:#CC9F53;}
	.st5{fill:#D9C79E;}
	.st6{opacity:0.8;}
	.st7{opacity:0.5;fill:#85B345;}
	.st8{fill:#422919;}
	.st9{clip-path:url(#SVGID_4_);fill:#E7BA90;}
	.st10{fill:#693C16;}
	.st11{clip-path:url(#SVGID_6_);fill:#E7BA90;}
	.st12{clip-path:url(#SVGID_8_);fill:#E7BA90;}
	.st13{clip-path:url(#SVGID_10_);fill:#E7BA90;}
	.st14{clip-path:url(#SVGID_12_);fill:#E7BA90;}
	.st15{fill:#FBD7A7;}
	.st16{clip-path:url(#SVGID_14_);fill:#693C16;}
	.st17{clip-path:url(#SVGID_16_);fill:#5B3513;}
	.st18{clip-path:url(#SVGID_18_);fill:#5B3513;}
	.st19{clip-path:url(#SVGID_20_);fill:#E7BA90;}
	.st20{clip-path:url(#SVGID_22_);fill:#5B3513;}
	.st21{clip-path:url(#SVGID_24_);fill:#422919;}
	.st22{clip-path:url(#SVGID_26_);fill:#422919;}
	.st23{clip-path:url(#SVGID_28_);fill:#422919;}
	.st24{fill:#905F36;}
	.st25{fill:#E7BA90;}
	.st26{fill:#FCE4C8;}
	.st27{clip-path:url(#SVGID_30_);fill:#E7BA90;}
	.st28{clip-path:url(#SVGID_32_);fill:#E7BA90;}
	.st29{clip-path:url(#SVGID_34_);fill:#E7BA90;}
	.st30{clip-path:url(#SVGID_36_);fill:#E7BA90;}
	.st31{clip-path:url(#SVGID_38_);fill:#E7BA90;}
	.st32{clip-path:url(#SVGID_40_);fill:#693C16;}
	.st33{clip-path:url(#SVGID_42_);fill:#5B3513;}
	.st34{clip-path:url(#SVGID_44_);fill:#5B3513;}
	.st35{clip-path:url(#SVGID_46_);fill:#E7BA90;}
	.st36{clip-path:url(#SVGID_48_);fill:#5B3513;}
	.st37{clip-path:url(#SVGID_50_);fill:#422919;}
	.st38{clip-path:url(#SVGID_52_);fill:#422919;}
	.st39{clip-path:url(#SVGID_54_);fill:#422919;}
	.st40{fill:#575756;}
	.st41{fill:#474646;}
	.st42{fill:#3C3C3B;}
	.st43{clip-path:url(#SVGID_56_);fill:#474646;}
	.st44{clip-path:url(#SVGID_58_);fill:#3C3C3B;}
	.st45{fill:#FFFFFF;}
	.st46{fill:#DFEAF2;}
	.st47{clip-path:url(#SVGID_60_);fill:#DFEAF2;}
	.st48{clip-path:url(#SVGID_62_);fill:#DFEAF2;}
	.st49{clip-path:url(#SVGID_64_);fill:#DFEAF2;}
	.st50{fill:#A5BAC6;}
	.st51{clip-path:url(#SVGID_66_);fill:#DFEAF2;}
	.st52{clip-path:url(#SVGID_68_);fill:#DFEAF2;}
	.st53{fill:#DCE5EB;}
	.st54{clip-path:url(#SVGID_74_);fill:#DCE5EB;}
	.st55{clip-path:url(#SVGID_76_);fill:#DCE5EB;}
	.st56{clip-path:url(#SVGID_78_);fill:#BDCFDA;}
	.st57{clip-path:url(#SVGID_80_);fill:#DFEAF2;}
	.st58{fill:#1D1D1B;}
	.st59{fill:#DEBA98;}
	.st60{clip-path:url(#SVGID_82_);fill:#ECCCAB;}
	.st61{fill:#ECCCAB;}
	.st62{fill:none;}
	.st63{fill:#FCDEBC;}
	.st64{opacity:0.2;}
	.st65{fill:#547C8C;}
	.st66{fill:#F1F7FB;}
	.st67{clip-path:url(#SVGID_84_);fill:#DFEAF2;}
	.st68{clip-path:url(#SVGID_86_);fill:#DFEAF2;}
	.st69{clip-path:url(#SVGID_88_);fill:#DFEAF2;}
	.st70{clip-path:url(#SVGID_90_);fill:#DFEAF2;}
	.st71{clip-path:url(#SVGID_92_);fill:#DFEAF2;}
	.st72{clip-path:url(#SVGID_98_);fill:#DCE5EB;}
	.st73{clip-path:url(#SVGID_102_);fill:#DCE5EB;}
	.st74{clip-path:url(#SVGID_104_);fill:#DFEAF2;}
	.st75{clip-path:url(#SVGID_106_);fill:#DFEAF2;}
	.st76{clip-path:url(#SVGID_108_);fill:#DFEAF2;}
	.st77{fill-rule:evenodd;clip-rule:evenodd;fill:#CC9F53;}
	.st78{clip-path:url(#SVGID_110_);fill:#ECCCAB;}
	.st79{clip-path:url(#SVGID_112_);fill:#DEBA98;}
	.st80{clip-path:url(#SVGID_114_);fill:#FFF4EE;}
	.st81{fill:#CBCACA;}
	.st82{fill:#DEDEDE;}
	.st83{fill:#3A3A3A;}
	.st84{fill:#E8E8E8;}
	.st85{fill:#B57E69;}
	.st86{fill:#D3D2D2;}
	.st87{fill:#E3E3E2;}
	.st88{fill:#ECEBEB;}
	.st89{clip-path:url(#SVGID_116_);fill:#ECCCAB;}
	.st90{clip-path:url(#SVGID_118_);fill:#ECCCAB;}
	.st91{clip-path:url(#SVGID_120_);fill:#ECCCAB;}
	.st92{clip-path:url(#SVGID_122_);fill:#ECCCAB;}
	.st93{fill:#FFECCF;}
	.st94{clip-path:url(#SVGID_124_);fill:#FFF4EE;}
	.st95{clip-path:url(#SVGID_126_);fill:#FFF4EE;}
	.st96{clip-path:url(#SVGID_128_);fill:#FFF4EE;}
	.st97{clip-path:url(#SVGID_130_);fill:#FFF4EE;}
</style>
<g>
	<defs>
		<path id="SVGID_1_" d="M105.9-0.2c141.5,2.4,141.4,206,0,208.3C-35.6,205.8-35.6,2.2,105.9-0.2z"/>
	</defs>
	<clipPath id="SVGID_2_">
		<use xlink:href="#SVGID_1_"  style="overflow:visible;"/>
	</clipPath>
	<g class="st0">
		<g>
			<g>
				<g>
					<g>
						<g>
							<g>
								<path class="st1" d="M56.9,211.8C-47.5,162.5-54.4,70.8,2.8,27.3C60.1-16.3,109.1,20.5,171,6
									c61.8-14.6,92.5-16.2,111.8,24.1C332.3,183.7,152.4,243.6,56.9,211.8z"/>
								<path class="st1" d="M38.2,209.8c-166-50.6-75.9-179.5,14.3-152.7c0,0-19.8-71.8,47.2-77.9c61.1-5.6,61.2,61.7,122.6,76.9
									c79.3,19.7,86.7,128.3-10.4,153.7C114.9,235.2,38.2,209.8,38.2,209.8z"/>
							</g>
							<path id="XMLID_2_" class="st2" d="M35.9,83c-0.1-4.3,0.1-14.5-0.4-19.9c0.2,0.1,0.3-0.1,0.4-0.3c0.2,0.5,0.7,0.4,0.8,0
								c4.5,2.3,7.7,6.7,8.5,11.8c0.4-0.7-0.1-2.1-0.3-2.9c0,0,0,0,0,0c0,0,0,0,0,0c0,0,0.1,0,0.2,0l0,0l0,0l0,0
								c0.3,0.6,0.4,1.2,0.6,1.8c0.4-1.8-0.4-6.1-2.6-7.8c0,0,0,0,0,0c0,0,0,0,0,0h0.1l0,1l0,0h0c0-1.7,0.7,0,1.2,0.3
								c-0.7-1.3-1.8-2.7-3.1-3.3c0,0,0,0,0,0c0,0,0,0,0,0c0,0,0,0,0,0c0,0,0,0,0,0c0,0,0,0,0,0c0,0,0,0,0,0l0,0
								c0.4,0.2,0.8,0.5,1.2,0.8c-0.8-0.8-1.5-1.4-2.3-1.8c3.5,1.4,6.5,4.1,8.2,7.6c0.2-0.7-0.7-1.9-1.1-2.6c0,0-0.5,0-0.6,0
								c0,0,0,0,0,0c0,0,0,0,0,0c0,0,0,0,0,0c0,0,0,0,0,0l0,0l0,0c0.4,0.5,0.7,1,1.1,1.5c-0.2-1.7-2.1-5.6-4.6-6.5c0,0,0,0,0,0
								c0,0,0,0,0,0c0,0,0,0,0,0h0c0,0,0,0.3,0,0.3c1.5,0.1,1.2,0.2,2.3,0.8c-1-1-2.4-1.8-3.8-2.3c-0.1,0-0.2-0.1-0.2-0.8h0
								c0,0.8,0,0.7,0,0.8c0,0,0,0,0,0c0,0,0,0,0,0.3h0c0.2-0.6,1,0.1,1.4,0.1c-1-0.5-2-0.9-2.8-1.1c3.9,0.3,7.7,2.1,10.4,5.1
								c-0.1-0.7-1.2-1.8-1.9-2.2c0,0,0,0,0,0c0,0,0,0,0,0l0,0l0,0l0,0c0.5,0.3,1,0.7,1.4,1.1c-0.6-1.6-3.5-4.5-6-4.7l0,0
								c0,0,0,0,0,0c0,0,0.2,0,0.2,0v0c0,0-0.1,0-0.1-1.3h0l0,0c0.1,2.2,0.5,1,1.6,1.6c-0.7-0.4-4.1-1.7-4.1-0.6h-0.1
								c-0.1-0.4-0.2-0.5-0.2-0.4c0,0,0,0,0,0c0,0,0,0,0,0c0,0,0,0,0,0l0,0c0.5-0.2,0.7,0.3,0.7-0.6h0.2c0.1,0.7,0.2,0.5,0.5,0.5
								c-1.1-0.2-2.1-0.3-3.1-0.2c3.9-0.8,8-0.2,11.5,1.9c-0.3-0.7-1.7-1.3-2.4-1.6c0,0,0,0,0,0c0-0.1,0,0.4,0,0.4c0,0,0,0,0,0
								c0.1-0.9,1.2,0.1,1.6,0.2c-0.8-0.9-3.4-2.8-5.6-2.8c0,0-0.1,0-0.1-0.4h-0.1c-0.1,0.6-0.3,0.6-0.5,0h-0.1
								c0,0.7-0.3,0.3-0.7,0.5c0,0,0,0,0,0c0,0,1,0,1,0v0c0,0-1,0-1,0c0,0,0,0,0,0l0,0l0,0c0.5-0.1,1.1-0.2,1.7-0.2
								c-1.5-0.3-3.1-0.2-4.6,0.3c0,0-0.1,0-0.1,0v0c0,0,0.1,0,1,0c0,0,0,0,0,0c-0.9,0-0.9,0-0.9,0l0,0l0,0c0.5-0.2,0.9-0.3,1.4-0.4
								c-1.1,0.1-2.1,0.3-3,0.6c3.4-1.9,7.6-2.5,11.5-1.5c-0.5-0.6-2-0.8-2.8-0.8c0,0,0-0.4,0-0.4c0,0,0,0,0,0
								c0.1,0.4,0.2,0.4,0.2,0.4c0,0,0.1,0,0.1-0.4h0.1c0,0.8,0.8,0.3,1.3,0.5c-2-1.3-5.2-1.5-8-0.6v0c0.4,0,0.5,0,0.5,0
								c-0.1-0.1,0.6,0,0.5,0c0,0,0,0.1,0,0.1c0,0,0,0,0,0l0,0l0,0c0.5-0.3,1.1-0.5,1.6-0.6c-1.6,0.1-3.3,0.7-4.6,1.6c0,0,0,0,0,0
								c0,0,0,0,0,0c0,0,0,0,0,0c0,0,0,0,0,0c0,0,0,0,0,0h-0.6l0,0c0.4-0.3,0.8-0.5,1.3-0.8c-1.1,0.4-2,0.9-2.8,1.4
								C40,53.6,44,52,48.3,51.8c-0.7-0.4-2.3-0.2-3.1,0c0,0,0,0,0,0c0,0,0,0,0,0l0,0c0.6-0.2,1.2-0.3,1.8-0.3
								c-1.6-0.4-5.9-0.2-7.8,1.5c0,0,0,0,0,0c0,0,0,0,0,0c0,0,0,0,0,0c0,0,0-0.3,0-0.3l1,0v0c-1.6,0,0.2-0.7,0.5-1.1
								c-1.4,0.6-2.7,1.6-3.7,2.8c0,0,0,0,0,0c0,0,0,0,0,0c0,0,0,0,0,0c0,0,0,0,0,0c0,0,0,0,0,0l0,0l0,0c0.3-0.4,0.6-0.8,0.9-1.2
								c-1,0.8-1.8,1.7-2.3,2.5c0,0,0,0,0,0c0.8-3.1,2.4-6.1,4.6-8.4c0,0,0,0,0,0c-0.8,0.2-1.2,1.4-1.9,1.7c0,0,0-0.4,0-0.3
								c0,0,0,0,0,0c0,0,0,0,0,0c0,0,0,0,0,0c0,0,0,0,0,0s0,0,0,0l0,0l0,0c0.3-0.4,0.6-0.8,0.9-1.2c-1.2,0.6-3.5,3.3-3.9,5.3
								c0,0,0,0,0,0c0,0,0,0,0,0l0,0c0,0,0,0,0,0l0,0l0,0c0.1-0.5,0.3-1,0.4-1.4c-0.4,0.8-0.8,1.6-1,2.5c-0.1-0.1-0.2-0.3-0.2-0.4
								c0.1,0.2,0.1,0.4,0.2,0.6c0,0,0,0,0,0.1c-0.2-0.4-0.4-0.9-0.6-1.3c-0.9-1.2-1.9-1.9-2.6-2.2c0.3,0.3,0.5,0.6,0.8,0.9v0.4l0,0
								c0,0,0,0,0,0c0.3,0,0.3,0,0.3,0c0,0,0,0,0,0c0,0,0,0-0.3,0v0c0.7,0-1-1.2-1.2-1.2c0,0,0,0,0,0c1.5,1.4,3,3.2,3.4,5.3
								c-0.6-0.9-1.4-1.7-2.4-2.6c0.3,0.4,0.6,0.7,0.9,1.2l0,0l0,0c0,0,0,0,0,0c0,0,0,0,0,0c0,0,0,0,0,0c-1-1.2-2.2-2.2-3.7-2.8
								c0.6,0.4,1.2,1.1,1.9,1.1v0.5l0,0c0,0,0,0,0,0c0,0,0,0,0,0c-1.9-1.9-6.2-2.2-7.8-1.7c0.6,0.1,1.2,0.2,1.8,0.4l0,0
								c0,0,0,0,0,0c0,0,0,0,0,0c0,0,0,0,0,0c-1.1-0.2-2.8-0.5-3.8,0c4.4,0.2,8.4,2,11.3,4.8c-0.8-0.5-1.7-1.1-2.9-1.5
								c0.5,0.2,0.9,0.5,1.3,0.8l0,0l0,0c0,0,0,0,0,0c0,0,0,0,0,0c0,0,0,0,0,0c0,0,0,0,0,0c0,0,0,0,0,0c-1.3-0.9-3-1.5-4.6-1.6
								c0.6,0.2,1.1,0.4,1.6,0.6l0,0c0,0,0-0.5,0-0.5v0c0.1,0,0.1,0,0.1,0c0-0.1,0,0,0.9,0v0c-1.2-0.1-0.9,0-1.3-0.2
								c-2.2-1.1-5.9-0.1-7.1,0.7c0.5-0.2,1.3,0.1,1.3-0.5c-0.2,0-0.8,0-0.1,0l0,0c0,0,0,0,0,0s0,0,0,0c0,0,0,0,0,0
								c-0.8,0-2.4,0.2-2.9,0.8c4-1,8.2-0.4,11.7,1.5c-0.9-0.3-1.9-0.5-3-0.6c0.5,0.1,1,0.3,1.4,0.4l0,0c0,0,0,0,0,0c0,0,0,0,0,0
								c0,0,0,0,0,0c0,0,0,0,0,0c-1.5-0.5-3.2-0.6-4.7-0.3c0.6,0,1.1,0.1,1.7,0.2l0,0c0,0,0,0,0,0c0,0,0,0,0,0c0,0,0,0.4,0,0.4
								s0.5,0,1,0c0,0,0,0,0,0c-0.8-0.1-1,0.3-1.1-0.5H26c-0.1,0.6-0.3,0.6-0.5,0h-0.1c0,0.4-0.1,0.4-0.1,0.4
								c-2.2,0-4.8,1.9-5.6,2.8c0.6-0.4,1.6-0.4,1.6-1.2h0h0c0,0,0,0.5,0,0.6c0,0,0,0,0,0c0,0,0,0,0,0c-0.7,0.3-2.1,0.9-2.4,1.6
								c3.5-2.1,7.6-2.7,11.5-1.9c-0.9,0-1.9,0-3,0.2c0,0,0,0,0,0c0.3,0.1,0.4-0.4,0.5-0.5H28c0,0.5,0.2,0.6,0.7,0.6l0,0
								c0,0,0,0,0,0.4h-0.6v-0.4c0,0,0.6,0,0.6,0c0,0,0,0,0.4,0v0.4h-0.4c-0.1-0.4-0.2-0.4-0.2-1h-0.8c0,0.6-0.1,0.6-0.1,0.6
								c-1.4,0.1-2.8,0.4-4,1.1c0.5-0.3,1.4,0,1.6-0.6l0,0c0,0,0,0,0,0c0,0.3,0,0.3,0,0.3c0,0,0.7,0,0.7,0c0,0,0,0,0,0
								c-2.5,0.1-5.3,3.1-6,4.7c0.4-0.4,0.9-0.8,1.4-1.1l0,0l0,0c0,0,0,0,0,0c0,0,0,0,0,0c0,0,0,0,0,0c0,0,0,0,0,0c0,0,0,0,0,0
								c-0.6,0.5-1.8,1.5-1.8,2.2c2.8-3,6.5-4.8,10.4-5.1C29,60.9,28,61.2,27,61.8c0,0,0,0,0,0c0.7-0.2,1.4-0.3,1.4-1.1h0
								c0,0.7,0,0.7,0,0.7c0,0,0,0,0,0c0,0,0,0,0,0c0,0,0,0,0,0.3h0c-0.8-0.6-3.3,1.4-4,2.1c0.5-0.3,1.1-0.7,1.7-0.8v-0.3l0,0h0
								c0,0,0,0,0,0c0,0,0,0,0,0c0,0,0,0,0,0c0,0,0,0,0,0l0,0c-2.5,0.9-4.4,4.8-4.6,6.5c0.3-0.5,0.6-1.1,1.1-1.5l0,0l0,0
								c0,0,0,0,0,0c0,0,0,0,0,0c0,0,0,0,0,0c0,0,0,0,0,0h0h0c-0.4,0.7-1.2,1.8-1.1,2.6c1.7-3.6,4.6-6.2,8.2-7.6
								c-0.8,0.5-1.5,1.1-2.3,1.8c0,0,0,0,0,0c0.4-0.3,0.8-0.5,1.2-0.8l0,0c0,0,0,0,0,0h0.1c0,0,0-0.2,0-0.1c0,0,0,0,0,0.1h0
								c-1.3,0.6-2.4,2-3.1,3.3c0.4-0.4,0.8-0.8,1.2-1.2l0,0l0,0c0,0,0-0.1,0-0.1h0.3c0,0,0,0,0,0c0,0,0,0,0,0c0,0,0,0,0,0
								c0,0,0,0,0,0c-2.2,1.7-2.9,6-2.6,7.8c0.1-0.6,0.3-1.2,0.6-1.8l0,0l0,0c0,0,0,0,0,0c0,0,0,0,0,0c0,0,0,0,0,0c0,0-0.2,0-0.2,0
								c0,0,0,0,0,0c0,0,0,0,0,0c-0.2,0.8-0.7,2.2-0.3,2.9c0.8-5.1,3.9-9.4,8.3-11.7c0.1,0.4,0.5,0.4,0.6,0c0.1,0.4,0.5,0.5,0.7,0.2
								c-0.5,5-0.2,15.3-0.4,20"/>
						</g>
						<g>
							<path class="st3" d="M9.9,116.5c-7.1-9.5-0.3-12.2,3.4-9.2c-5.6-18.1,11.9-22.7,11.6-10c1-4.2,5.5-6.5,5.3,0
								c5.4-8.2,5.2,10.5,3.3,12.4C31.9,111,9.9,116.5,9.9,116.5z"/>
							<path class="st3" d="M38.5,104.7c-3.1-15,8.1-13.8,8.1-13.8c1.6-3.8,9.8-15.6,14.4-5.1c0.4-5.6,9-5.7,8.8,0.3
								c0,0,11.6-5.8,8.4,10.2C74.9,112.4,38.5,104.7,38.5,104.7z"/>
							<path class="st3" d="M94.3,96.4c-12.3-9.6-3.9-18.6,1-5.9c0,0,2.1-16.4,9.2-15.7c7.1,0.7,6.1,11.7,6.1,11.7
								c8.3-26.7,29.1-23.5,19.4-1c2.9-3.6,7.7-4.1,6.1,2.2c0.2-3.5,7.2-4.5,7.1,0c2.2-4.4,6.3-1.5,6.3,2.2c1.2-2,8.4-5.6,9,0
								c0,0,4.7-6.3,8,0.2c3.2,6.5-24.1,20.6-44.6,18.1C101.5,105.6,94.3,96.4,94.3,96.4z"/>
						</g>
						<path class="st4" d="M12.6,115.4c40.3-25.3,87.6-24,116.9-16.7C168.6,114.9,70.1,182.6,12.6,115.4z"/>
						<path class="st5" d="M247.1,150.2c-2.6,12.7-33.5,12.3-36.1,30.4c-2,5.7-4.5,12.4-13.4,19.8L54.5,155.6
							c8.3-7.6,33.2-32.7,46.6-41.2C150.3,76.7,233.1,79.2,247.1,150.2z"/>
						<path class="st4" d="M247.1,147.6c-51-28.1-109.6-39.6-151.8-29c42.7-24.6,106.2-15.1,135.1-3.2
							C241.1,128,246.3,141.7,247.1,147.6z"/>
						<path class="st4" d="M227.4,164.2c-9.2,2.7-14.7,9-16.4,16.3C177.1,153,126,141.1,65.8,144.9c3.4-3.2,8.9-8.5,13.2-12.5
							C111.8,127.6,172.4,126.1,227.4,164.2z"/>
						<g>
							<path class="st4" d="M197.9,200.5c0,0-18,15.4-78.8,3.7c-10.4-1.9-24-5.6-35.6-8.5h0.3c-21.5-6-43.2-7.3-63.8,0
								c-6.3,1.9-13.5,2.4-20.3,0.5c-31.4-7.6,0.2-23-5.7-34c-3.7-5.5-18-9.3-19.9-15c-10.4-31.8,52.9-36.6,82.8-30.8
								C111.5,125.1,160.6,159.3,197.9,200.5z"/>
							<path class="st5" d="M93.3,126.3c-38.1,2.6-79.9,24.6-99.6,36.2c-3.7-5.5-18.1-9.3-19.9-15c27.1-17.4,57.9-26.9,83.1-30.9
								C68.1,118.3,80.4,121.4,93.3,126.3z"/>
							<path class="st5" d="M132.5,145.4c-29.3,10-61.5,28.5-87.8,45.3c-15.6,0.1-29.3,10-45,5.5c25.7-21.8,54.7-40.1,85.6-53.1
								C111.9,132.4,108.9,130.7,132.5,145.4z"/>
							<path class="st5" d="M171.2,174.3c-23.4,7.8-41.4,20.8-52,29.8c-10.4-1.8-23.9-5.6-35.4-8.5c24.4-21,51.8-30.6,70.7-35
								C160,164.8,165.6,169.3,171.2,174.3z"/>
						</g>
						<g>
							<path class="st3" d="M39.6,143c-1.3-4.6-0.2-11.8,2.7-11.3C45.3,132.2,39.6,143,39.6,143z"/>
							<path class="st3" d="M40,148.2c0.8-4.7,6.4-8.4,7.2-6.7C48.1,143.2,40,148.2,40,148.2z"/>
							<path class="st3" d="M39.6,153.8c1.1-4.6,7-7.8,7.7-6.1C48.1,149.4,39.6,153.8,39.6,153.8z"/>
							<path class="st3" d="M38.5,159.5c1.4-4.6,7.4-7.5,8-5.7C47.2,155.6,38.5,159.5,38.5,159.5z"/>
							<path class="st3" d="M37.8,164.8c1.4-4.6,7.4-7.5,8-5.7C46.5,160.9,37.8,164.8,37.8,164.8z"/>
							<path class="st3" d="M37.2,170.3c1.2-4.6,7.2-7.6,7.9-5.9C45.7,166.2,37.2,170.3,37.2,170.3z"/>
							<path class="st3" d="M36.9,175.1c1-3.3,5.4-5.4,5.9-4.1C43.3,172.3,36.9,175.1,36.9,175.1z"/>
							<g>
								<path class="st3" d="M37.3,147.5c0.3-4.7-4.3-9.6-5.5-8.2C30.6,140.8,37.3,147.5,37.3,147.5z"/>
								<path class="st3" d="M36.4,153c0-4.8-5-9.2-6.1-7.7C29.2,146.8,36.4,153,36.4,153z"/>
								<path class="st3" d="M36.2,158.9c-0.3-4.7-5.5-8.9-6.5-7.4C28.6,153,36.2,158.9,36.2,158.9z"/>
								<path class="st3" d="M35.7,164.2c-0.3-4.7-5.5-8.9-6.5-7.4C28.1,158.4,35.7,164.2,35.7,164.2z"/>
								<path class="st3" d="M35,169.7c-0.2-4.7-5.3-9.1-6.3-7.5C27.6,163.7,35,169.7,35,169.7z"/>
								<path class="st3" d="M34.2,174.4c-0.2-3.5-4.1-6.5-4.8-5.4C28.7,170.2,34.2,174.4,34.2,174.4z"/>
							</g>
							<g>
								<path class="st3" d="M36.7,191.9c-0.2,0-0.4,0.1-0.6,0.1c-1.4-14.3-0.8-32.2,3.3-48.5C37,159.9,34.7,177.6,36.7,191.9z"/>
							</g>
							<g>
								<path class="st3" d="M32.9,138c-1-6.8,2.8-17.7,3.2-17.6C36.3,120.7,32.6,130.9,32.9,138z"/>
							</g>
							<g>
								<path class="st3" d="M36.1,138.7c-0.9-4.1,1.1-16,4.7-21.5C37.7,123.3,36,134.1,36.1,138.7z"/>
							</g>
							<g>
								<path class="st3" d="M41.9,130.3c0.5-9.7,5.1-20,5.5-19.7C47.6,111,43.1,120.1,41.9,130.3z"/>
							</g>
							<g>
								<path class="st3" d="M44.9,139.8c-0.4-9,4.1-20.5,4.5-20.4C49.7,119.7,45.2,130.4,44.9,139.8z"/>
							</g>
							<g>
								<path class="st3" d="M47.6,140c-0.4-5.9,3.2-16.3,3.6-16.2C51.4,124.2,47.9,133.7,47.6,140z"/>
							</g>
						</g>
						<g>
							<path class="st3" d="M1.2,158.9c-2.8-2.7-5-8.2-2.8-9.1C0.6,148.9,1.2,158.9,1.2,158.9z"/>
							<path class="st3" d="M3.6,162.4c-1.4-3.6,1-8.5,2.3-7.7C7.2,155.5,3.6,162.4,3.6,162.4z"/>
							<path class="st3" d="M5.6,166.5c-1.1-3.7,1.7-8.4,2.9-7.5C9.8,159.9,5.6,166.5,5.6,166.5z"/>
							<path class="st3" d="M7.3,171c-0.9-3.8,2.1-8.3,3.3-7.4C11.7,164.6,7.3,171,7.3,171z"/>
							<path class="st3" d="M9,175c-0.9-3.8,2.1-8.3,3.3-7.3C13.4,168.6,9,175,9,175z"/>
							<path class="st3" d="M10.8,179.2c-1-3.7,1.9-8.4,3.1-7.4C15.1,172.7,10.8,179.2,10.8,179.2z"/>
							<path class="st3" d="M12.6,182.6c-0.7-2.8,1.6-6.1,2.4-5.4C15.9,178,12.6,182.6,12.6,182.6z"/>
							<g>
								<path class="st3" d="M1.4,163c-1.7-3.5-7-5-7.3-3.4C-6.1,161.1,1.4,163,1.4,163z"/>
								<path class="st3" d="M3.1,167.3c-2-3.3-7.4-4.4-7.5-2.9C-4.6,165.9,3.1,167.3,3.1,167.3z"/>
								<path class="st3" d="M5.3,171.5c-2.2-3.2-7.6-4-7.6-2.5C-2.4,170.5,5.3,171.5,5.3,171.5z"/>
								<path class="st3" d="M7.2,175.5c-2.2-3.2-7.6-4-7.7-2.5C-0.6,174.5,7.2,175.5,7.2,175.5z"/>
								<path class="st3" d="M9,179.6c-2.1-3.3-7.5-4.2-7.6-2.7C1.3,178.4,9,179.6,9,179.6z"/>
								<path class="st3" d="M10.4,183.3c-1.6-2.3-5.6-2.9-5.6-1.8C4.7,182.6,10.4,183.3,10.4,183.3z"/>
							</g>
							<g>
								<path class="st3" d="M20.4,195.9c-0.2,0-0.3,0.1-0.5,0.1c-8.2-11.2-13.6-20.8-18.7-36.7C7.6,174.7,11.7,184.9,20.4,195.9z"
									/>
							</g>
							<g>
								<path class="st3" d="M-5.6,158.2c-3.5-4.3-5.4-13.7-5.1-13.7C-10.4,144.6-8.8,153.3-5.6,158.2z"/>
							</g>
							<g>
								<path class="st3" d="M-3.1,157.3c-2.3-2.5-5.9-11.7-5.6-17.1C-8.3,145.9-5.1,154.2-3.1,157.3z"/>
							</g>
							<g>
								<path class="st3" d="M-2.5,149.1c-3.7-7.1-4.7-16.1-4.3-16.1C-6.5,133.1-5.9,141.3-2.5,149.1z"/>
							</g>
							<g>
								<path class="st3" d="M3.5,154.4c-4-6.1-5.6-16.2-5.3-16.2C-1.4,138.4-0.2,147.7,3.5,154.4z"/>
							</g>
							<g>
								<path class="st3" d="M5.5,153.5c-2.7-4-4.5-12.8-4.2-12.9C1.6,140.7,3.2,148.9,5.5,153.5z"/>
							</g>
						</g>
						<g>
							<path class="st3" d="M77.4,156.9c2.5-2.6,4.2-7.8,2.1-8.5C77.4,147.7,77.4,156.9,77.4,156.9z"/>
							<path class="st3" d="M75.3,160.2c1.1-3.4-1.3-7.8-2.5-7C71.7,154,75.3,160.2,75.3,160.2z"/>
							<path class="st3" d="M73.6,164.1c0.9-3.5-1.9-7.7-3-6.8C69.5,158.2,73.6,164.1,73.6,164.1z"/>
							<path class="st3" d="M72.3,168.3c0.7-3.5-2.3-7.6-3.4-6.6C67.9,162.6,72.3,168.3,72.3,168.3z"/>
							<path class="st3" d="M71,172.1c0.7-3.5-2.3-7.6-3.4-6.6C66.6,166.4,71,172.1,71,172.1z"/>
							<path class="st3" d="M69.5,176c0.8-3.5-2.1-7.6-3.2-6.7C65.2,170.2,69.5,176,69.5,176z"/>
							<path class="st3" d="M68,179.3c0.5-2.6-1.7-5.5-2.5-4.8C64.7,175.1,68,179.3,68,179.3z"/>
							<g>
								<path class="st3" d="M77.3,160.7c1.4-3.3,6.2-4.9,6.5-3.5C84.2,158.5,77.3,160.7,77.3,160.7z"/>
								<path class="st3" d="M76,164.7c1.7-3.2,6.6-4.4,6.8-3C83,163.1,76,164.7,76,164.7z"/>
								<path class="st3" d="M74.1,168.7c1.8-3.1,6.8-4.1,6.9-2.7C81.2,167.4,74.1,168.7,74.1,168.7z"/>
								<path class="st3" d="M72.6,172.4c1.8-3.1,6.8-4,6.9-2.6C79.7,171.2,72.6,172.4,72.6,172.4z"/>
								<path class="st3" d="M71.1,176.3c1.8-3.1,6.7-4.2,6.9-2.8C78.1,174.9,71.1,176.3,71.1,176.3z"/>
								<path class="st3" d="M70,179.7c1.4-2.2,5-2.9,5.1-1.9C75.2,178.9,70,179.7,70,179.7z"/>
							</g>
							<g>
								<path class="st3" d="M77.5,157.5c-3.6,12.3-9.3,25.5-15.4,34.1c-0.2,0-0.3,0-0.5-0.1C68.1,183.5,73.2,167.8,77.5,157.5z"/>
							</g>
							<g>
								<path class="st3" d="M83.6,155.9c3-4.2,4.3-12.8,4-12.9C87.3,143.2,86.3,151.2,83.6,155.9z"/>
							</g>
							<g>
								<path class="st3" d="M81.2,155.2c2-2.4,4.8-11,4.4-16C85.5,144.4,82.9,152.3,81.2,155.2z"/>
							</g>
							<g>
								<path class="st3" d="M80.3,147.6c3.1-6.7,3.6-15,3.2-15C83.2,132.8,83,140.4,80.3,147.6z"/>
							</g>
							<g>
								<path class="st3" d="M75,152.9c3.4-5.9,4.4-15.1,4.1-15.2C78.8,137.9,78.1,146.5,75,152.9z"/>
							</g>
							<g>
								<path class="st3" d="M73.1,152.1c2.3-3.8,3.5-12,3.2-12C76.1,140.2,75.1,147.8,73.1,152.1z"/>
							</g>
						</g>
						<path class="st3" d="M68.4,150.7C64,163.8,48.5,181.9,45,190.6c-0.9,0.1-1.8,0.1-2.6,0.2c-0.2-23.1,24-44.1,25-64.5
							C69.5,132.6,71,140.5,68.4,150.7z"/>
						<path class="st3" d="M112.7,169.1c-1.2,2.3-21,23.1-29.1,26.4c-2.9-0.7-5.6-1.3-8.2-1.8C85.6,178.4,99,168.2,112.7,169.1z"/>
						<path class="st3" d="M33.4,192.5c-0.8,0.2-1.5,0.3-2.3,0.5C17.8,184.6,9,150.8,12.6,138C16.4,151.2,24.4,179.9,33.4,192.5z"/>
						<path class="st3" d="M25,194.6c-15.5,6.3-27.6,2.1-35.8-8.9C-7.1,187.7,16.3,195.3,25,194.6z"/>
						<g class="st6">
							<path class="st2" d="M112.3,20.1c-2-2-3.5-6-1.9-6.6C112.1,12.9,112.3,20.1,112.3,20.1z"/>
							<path class="st2" d="M114,22.7c-1-2.6,0.8-6.1,1.8-5.5C116.7,17.7,114,22.7,114,22.7z"/>
							<path class="st2" d="M115.4,25.7c-0.8-2.7,1.3-6.1,2.2-5.4C118.5,20.9,115.4,25.7,115.4,25.7z"/>
							<path class="st2" d="M116.5,28.9c-0.6-2.7,1.6-6,2.5-5.3C119.8,24.4,116.5,28.9,116.5,28.9z"/>
							<path class="st2" d="M117.7,31.9c-0.6-2.7,1.6-6,2.5-5.3C121,27.3,117.7,31.9,117.7,31.9z"/>
							<path class="st2" d="M119,34.9c-0.7-2.7,1.5-6,2.3-5.3C122.2,30.3,119,34.9,119,34.9z"/>
							<path class="st2" d="M120.2,37.4c-0.4-2,1.2-4.4,1.8-3.8C122.7,34.1,120.2,37.4,120.2,37.4z"/>
							<g>
								<path class="st2" d="M112.4,23.1c-1.2-2.5-5-3.7-5.2-2.6C107,21.6,112.4,23.1,112.4,23.1z"/>
								<path class="st2" d="M113.5,26.2c-1.4-2.4-5.3-3.3-5.4-2.2C108,25.1,113.5,26.2,113.5,26.2z"/>
								<path class="st2" d="M115.1,29.3c-1.5-2.4-5.4-3-5.5-1.9C109.5,28.5,115.1,29.3,115.1,29.3z"/>
								<path class="st2" d="M116.4,32.2c-1.5-2.4-5.4-3-5.5-1.9C110.8,31.4,116.4,32.2,116.4,32.2z"/>
								<path class="st2" d="M117.7,35.2c-1.5-2.4-5.3-3.1-5.4-2C112.1,34.2,117.7,35.2,117.7,35.2z"/>
								<path class="st2" d="M118.6,37.8c-1.1-1.7-4-2.2-4-1.4C114.5,37.3,118.6,37.8,118.6,37.8z"/>
							</g>
							<g>
								<path class="st2" d="M125,46.1c-0.1,0.1-0.2,0.1-0.3,0.2c-4.9-6.9-9.7-16.3-12.4-25.9C115.9,29.6,119.8,39.4,125,46.1z"/>
							</g>
							<g>
								<path class="st2" d="M107.4,19.5c-2.5-3.2-3.7-9.9-3.5-10C104.1,9.6,105.2,15.9,107.4,19.5z"/>
							</g>
							<g>
								<path class="st2" d="M109.2,18.9c-1.6-1.8-4.1-8.5-3.8-12.4C105.6,10.5,107.8,16.6,109.2,18.9z"/>
							</g>
							<g>
								<path class="st2" d="M109.8,12.9c-2.6-5.2-3.1-11.7-2.9-11.7C107,1.3,107.5,7.3,109.8,12.9z"/>
							</g>
							<g>
								<path class="st2" d="M114.1,16.9c-2.9-4.5-3.8-11.8-3.6-11.8C110.7,5.2,111.5,12,114.1,16.9z"/>
							</g>
							<g>
								<path class="st2" d="M115.5,16.2c-1.9-3-3.1-9.3-2.9-9.4C112.9,7,113.9,12.9,115.5,16.2z"/>
							</g>
						</g>
						<g class="st6">
							<path class="st2" d="M73.4,27.7c0.9,2.1-0.7,4.2-0.1,6.3c0.3,2.1-0.9,4.2,0,6.2c0.3,1.4-0.5,2.8-0.3,4.2
								c-0.2-0.6,0.1-1.5,0.2-2.1c0.4-2.1-0.9-4.1-0.2-6.2c0.2-1.4-0.4-2.8-0.3-4.2c0.2-1.4,0.8-2.6,0.1-4L73.4,27.7z"/>
							<path class="st2" d="M73.3,28.6c-1.2-2,1.8-5.2,3.6-3.1L73.3,28.6z"/>
							<path class="st2" d="M73.3,28.6c1.3-2,0.1-2.5,0-3.7c0.6-3.3-3.5-7.1-6.2-6.6c0.6,0.7,0.6,7.5,2.9,7.6
								C71.9,26.2,72.2,28.3,73.3,28.6z"/>
							<path class="st2" d="M73.3,28.6c-0.1-1.5,1-0.9,2.2-3.1c0.9-3.3,6.3-4.5,8-3.3c0,0-3.6,1.2-4.7,2.7
								C76.3,28.2,73.3,28.6,73.3,28.6z"/>
							<g>
								<path class="st2" d="M73.1,28.2c-0.1-0.1-2.1-6.5-5.6-9.7C71.1,21.5,73.2,28.1,73.1,28.2z"/>
							</g>
							<path class="st2" d="M73,38.5c0.1,1.1,1.4,1.4,1.7,2.4c-0.4-1-1.8-1.2-1.9-2.4L73,38.5z"/>
							<path class="st2" d="M73,38.2c-0.5,0.3-0.4,1.1-0.7,1.5c-0.3,0.4-1,0.9-0.7,1.5c-0.3-0.6,0.4-1.1,0.7-1.5
								c0.4-0.5,0.2-1.3,0.7-1.6L73,38.2z"/>
							<path class="st2" d="M73.2,39.3c-0.7,0.9-0.7,2.2-1.1,3.2c0.3-1.1,0.2-2.4,0.9-3.4L73.2,39.3z"/>
							<path class="st2" d="M73.4,40.9c0.8,0.4,1.4,1.2,1.4,2.1c0-0.9-0.7-1.6-1.5-1.9L73.4,40.9z"/>
							<g>
								<path class="st2" d="M63.5,44.8c-0.5-1.7,3.4-3.6,4.5-3.8c0.2-0.2,0.9-1.9,2.6-2.8c3.9-1.9,4.7,0,6.6,2.4
									c1,0.3,2.7,0.2,3.6,1.5c1,1.5,1.8,1,2.2,2.1c1.4,1.2-1.1,2.7-1.9,1.8c0,0-1.7,1.3-4.6,1.4c-2.9,0.1-2.8-0.2-3.4,0
									c-0.4,0.5-5.7,0.7-5-1.2C68,46.2,64.1,46.8,63.5,44.8z"/>
							</g>
							<g>
								<g>
									<path class="st2" d="M74.8,46.3c-0.6-1.2,1.7-2,2.5-1.5c-0.6-1.2,0.2-4.4,2.3-3.3c-2.6,0-2.3,2.6-1.8,3.8
										C76.9,44.8,75.4,44.8,74.8,46.3z"/>
								</g>
								<g>
									<path class="st2" d="M70.9,43.9c-0.2-0.8-0.9-2.8-2.6-1.9c0.7-1.6,2.7,0.4,2.7,1.4c0.4-0.5,2.2-0.9,1.6,0.2
										c-0.2,0-0.2-0.4-0.3-0.4C72.1,43.1,71.3,43.6,70.9,43.9z"/>
								</g>
							</g>
						</g>
						<g class="st6">
							
								<rect x="142.5" y="43.9" transform="matrix(0.5499 -0.8353 0.8353 0.5499 27.4455 140.3299)" class="st2" width="2.9" height="1.7"/>
							<path class="st7" d="M154.6,40.7c-4.7,7.4-16.2-0.2-11.3-7.4C148.1,25.9,159.6,33.5,154.6,40.7z"/>
							<path class="st2" d="M156,41.7c6.2-9.1-8.2-18.5-14.1-9.3C135.8,41.4,150.1,50.9,156,41.7z M145.3,42.7
								c-7.4-4.7,0.2-16.2,7.4-11.3C160.1,36.1,152.5,47.6,145.3,42.7z"/>
							<g>
								<path class="st2" d="M143.4,45.4c-0.3-0.1-0.9-0.8-1.2-0.5c-1.1,1.1-6.5,6.7-7.4,9c-0.8,1.9,0.7,3.1,1.4,3.3
									C136.6,57.3,143.3,47.3,143.4,45.4z"/>
								<path class="st2" d="M143.5,45.5c0.2,0.2,1.1,0.5,0.9,0.9c-0.6,1.4-3.6,8.6-5.3,10.3c-1.5,1.5-3.1,0.6-3.6,0
									C135.2,56.4,141.8,46.3,143.5,45.5z"/>
							</g>
						</g>
					</g>
					<g>
						<g>
							<g>
								<path class="st8" d="M156.4,308.2c-6.2,2.9-22.9,20-31.6,12c-9.1-6.2,6.7-11.4,8.7-12.3c1.9-1.6,6-4.6,8.1-5.7l14.1,3.3
									L156.4,308.2z"/>
								<g>
									<defs>
										<path id="SVGID_3_" d="M140.8,313.7c3.6,0.6,9.5-7.4,10.5-9.2c0,0-4.1-5.5-4.2-5.3c-0.1,0.2-6.9,3-7,3.4
											c-1.7,1.7-5.7,4.6-7.3,6c0,0,1.5,3.1,1.8,3.1C134.8,311.7,140.8,313.7,140.8,313.7z"/>
									</defs>
									<use xlink:href="#SVGID_3_"  style="overflow:visible;fill:#FBD7A7;"/>
									<clipPath id="SVGID_4_">
										<use xlink:href="#SVGID_3_"  style="overflow:visible;"/>
									</clipPath>
									<path class="st9" d="M142.6,308.9c3.6,2.5,0.3,3.3-1.2,3.8l0.5,1.4c4.1-0.8,2.9,0.1,5.2-3.5c-1.1-2-1.9-4.4-4.6-4.8
										c-1.7-0.5-3.8,0.7-5.2,1.4c0,0-1.3,1.8-1.3,1.8l-0.4,1.8l0.6,0.7l1.9-0.6C138.4,310.3,141.5,307.5,142.6,308.9z"/>
								</g>
								<path class="st10" d="M153.3,308.1c-0.1-0.3-5.6,5.3-7.3,3.8c0,0-3-7.1-7-3.3C142.3,302.6,149.7,303.3,153.3,308.1z"/>
								<g>
									<defs>
										<path id="SVGID_5_" d="M127.4,309.5c0,0-3.2,1.7-4.7,1.9c-1.5,0.2,0.2,3.5,2.1,2.9c2.8-1.3,2.4-3.4,3.7-4.2L127.4,309.5z"
											/>
									</defs>
									<use xlink:href="#SVGID_5_"  style="overflow:visible;fill:#FBD7A7;"/>
									<clipPath id="SVGID_6_">
										<use xlink:href="#SVGID_5_"  style="overflow:visible;"/>
									</clipPath>
									<path class="st11" d="M126.2,310.1c1.4,1-2.1,1.4-2.6,2.1c-0.5,0.5-0.7,1.1-1,0.9c-0.4-0.1-0.4,0.1-0.4,0.2
										c0.4,0.4,1.2,1.8,1.3,0.3c0.2-0.8,3.6-2.7,4.2-2.9c0.3-2-0.8-1.5-2.1-0.8L126.2,310.1z"/>
								</g>
								<g>
									<defs>
										<path id="SVGID_7_" d="M127.5,310.7c0,0-1.5,1.1-3.1,1.7c-1.6,0.6-1.2,4,1.2,3.5C128.7,315.1,130,309.7,127.5,310.7z"/>
									</defs>
									<use xlink:href="#SVGID_7_"  style="overflow:visible;fill:#FBD7A7;"/>
									<clipPath id="SVGID_8_">
										<use xlink:href="#SVGID_7_"  style="overflow:visible;"/>
									</clipPath>
									<path class="st12" d="M126.7,311c2.1,1.4-2.2,1.6-2.5,3c-0.3,1-0.8,0.7-0.8,0.7l-0.1,0.6c0.6,1.7,1.3-0.2,1.5-0.9
										c0,0,1.2-0.8,1.3-0.8c1-0.4,2.3-1.2,2.6-2.2c-0.4-0.1-1.2-0.5-1.5-0.7L126.7,311z"/>
								</g>
								<g>
									<defs>
										<path id="SVGID_9_" d="M128.3,311.8c0,0-0.8,0.9-2.9,2.1c-2.1,1.2-0.4,3.7,1.5,3.2c2.7-1.2,3.7-3.1,3.5-4.8
											c-0.2-0.1-1.6-1-1.6-1L128.3,311.8z"/>
									</defs>
									<use xlink:href="#SVGID_9_"  style="overflow:visible;fill:#FBD7A7;"/>
									<clipPath id="SVGID_10_">
										<use xlink:href="#SVGID_9_"  style="overflow:visible;"/>
									</clipPath>
									<path class="st13" d="M127.7,312.1c2.9,1.7-1.2,1-1.8,2.7c-0.9,1.9-2.3,0.9-0.7,2.6c1.9,0,1.1-2.5,2.7-3.2
										c0.9-0.2,2.2-0.8,2.3-1.9c-0.5-0.2-1.3-0.7-1.8-0.8L127.7,312.1z"/>
								</g>
								<g>
									<defs>
										<path id="SVGID_11_" d="M129.8,313.3c-8.6,3.4-0.6,7.4,2.4,2.5l-0.1-2.2l-1.2-1L129.8,313.3z"/>
									</defs>
									<use xlink:href="#SVGID_11_"  style="overflow:visible;fill:#FBD7A7;"/>
									<clipPath id="SVGID_12_">
										<use xlink:href="#SVGID_11_"  style="overflow:visible;"/>
									</clipPath>
									<path class="st14" d="M129.3,313.5c2.6,0.9-2.1,0.9-2.1,2.3c-0.2,2.5-2,0.1-0.8,2.4c4.2,0.4,0.9-2.4,6.1-3.9
										c-0.2-0.7-1.5-1.5-2.1-1.6c-0.4,0-1.1,0.5-1.3,0.7L129.3,313.5z"/>
								</g>
								<path class="st15" d="M132,313.7c-13,5.3,7.4,9.6,5.5,0.2L132,313.7z"/>
								<g>
									<defs>
										<path id="SVGID_13_" d="M156.4,308.2c-5.9,3.3-22.9,20.7-31.6,12c-9.1-6.2,6.7-11.4,8.7-12.3c1.9-1.6,6-4.6,8.1-5.7
											l14.1,3.3L156.4,308.2z"/>
									</defs>
									<clipPath id="SVGID_14_">
										<use xlink:href="#SVGID_13_"  style="overflow:visible;"/>
									</clipPath>
									<path class="st16" d="M155.9,306.1c-9.3,5.9-18.8,16.2-27.4,14.5c-2.6-0.8-5.8-3.5-6.1-5.9c-0.2-2.4-2.3-0.4-2.5-0.2
										c-0.2,0.1-0.3,4.4-0.3,4.4l3.2,4.2l8.3,2.5l11.6-1.5c0,0,8.7-5.5,11.3-8.1c3.4-3.8,8.1-7.6,7.2-11.1
										C161,304.7,155.9,306.1,155.9,306.1z"/>
								</g>
								<path class="st10" d="M131.3,314.1c-10.1-5.1,0.3-6.2,5.5-11.6c3.4-3.8,7.8,1.8,7.8,1.8l-4.1,2.5
									C139.3,308.8,135.2,312.2,131.3,314.1z"/>
								<path class="st10" d="M143.3,315c0.4-6.3-10.5-5.4-12-0.9c1.4-0.7,6.2,2.2,5.6,4.3l1.1,0.4C138,318.8,142.7,316.6,143.3,315
									z"/>
								<g>
									<defs>
										<path id="SVGID_15_" d="M131.3,314.1c-10.1-5.1,0.3-6.2,5.5-11.6c3.4-3.8,7.8,1.8,7.8,1.8l-4.1,2.5
											C139.3,308.8,135.2,312.2,131.3,314.1z"/>
									</defs>
									<clipPath id="SVGID_16_">
										<use xlink:href="#SVGID_15_"  style="overflow:visible;"/>
									</clipPath>
									<path class="st17" d="M141.8,301.9c0,0,0.9,1.7-1.9,3.2c-3.4,1.8-7.1,7.8-10.1,6.9c1.1,2.3,4,1.2,5.7,0.5
										c2.6-1.3,5.3-4.2,7.3-6.3c0.4-0.2,2.4-1.7,2.8-2c0,0-1-1.5-1-1.5L141.8,301.9z"/>
								</g>
								<g>
									<defs>
										<path id="SVGID_17_" d="M143.3,315c0.4-6.3-10.5-5.4-12-0.9c1.4-0.7,6.2,2.2,5.6,4.3l1.1,0.4
											C138,318.8,142.7,316.6,143.3,315z"/>
									</defs>
									<clipPath id="SVGID_18_">
										<use xlink:href="#SVGID_17_"  style="overflow:visible;"/>
									</clipPath>
									<path class="st18" d="M142.1,311.2c1.4,1.9-5.6,5.8-6.6,4.3l-0.4,2l1.1,1.4c3,1.1,6-1.6,8.1-3.5l-0.2-2.8
										C143.6,312.2,142.8,311.3,142.1,311.2z"/>
								</g>
								<g>
									<defs>
										<path id="SVGID_19_" d="M132,313.7c-13,5.3,7.4,9.6,5.5,0.2L132,313.7z"/>
									</defs>
									<clipPath id="SVGID_20_">
										<use xlink:href="#SVGID_19_"  style="overflow:visible;"/>
									</clipPath>
									<path class="st19" d="M130.7,314.2c0,0,4.3,1.3,3.5,2.6c-0.8,1.2-5,2.1-6.3,1.5c-1.3-0.6,1.5,1.9,1.5,1.9
										c0.1,0,3.5,0.7,3.6,0.6c0,0,2.8-1,2.8-1l1.7-1.8c0.2-2.8,0-2.8-2.7-3.7C132.9,313.1,131.8,311.5,130.7,314.2z"/>
								</g>
								<g>
									<defs>
										<path id="SVGID_21_" d="M153.3,308.1c-0.1-0.3-5.6,5.3-7.3,3.8c0,0-3-7.1-7-3.3C142.3,302.6,149.7,303.3,153.3,308.1z"/>
									</defs>
									<clipPath id="SVGID_22_">
										<use xlink:href="#SVGID_21_"  style="overflow:visible;"/>
									</clipPath>
									<path class="st20" d="M150.8,305.3c0,0-1.4,3.3-5.4,3.4c-4,0.1,0.5,2.1,0.5,2.1l1.1,1.4c2.8-0.1,5.6-2.6,7.5-4.4
										c0,0,0.6-1.4,0.5-1.4C154.7,306.4,150.8,305.3,150.8,305.3z"/>
								</g>
								<g>
									<defs>
										<path id="SVGID_23_" d="M143.3,315c0.4-6.3-10.5-5.4-12-0.9c1.4-0.7,6.2,2.2,5.6,4.3l1.1,0.4
											C138,318.8,142.7,316.6,143.3,315z"/>
									</defs>
									<clipPath id="SVGID_24_">
										<use xlink:href="#SVGID_23_"  style="overflow:visible;"/>
									</clipPath>
									<path class="st21" d="M137.9,318.9c2.1-9.2-14.8-4.9-4.4-2.9c1.1,0.7,2.1,1,2,2.6l1.2,1l0.8,0.1L137.9,318.9z"/>
								</g>
								<g>
									<defs>
										<path id="SVGID_25_" d="M153.3,308.1c-0.1-0.3-5.6,5.3-7.3,3.8c0,0-3-7.1-7-3.3C142.3,302.6,149.7,303.3,153.3,308.1z"/>
									</defs>
									<clipPath id="SVGID_26_">
										<use xlink:href="#SVGID_25_"  style="overflow:visible;"/>
									</clipPath>
									<path class="st22" d="M147.2,313c-1.3,0.5-2.3-1.5-2.8-2.2c0,0-3.1-1.6-3.1-1.6l-3.2-0.5c0,0-0.5-0.9,1.6-1.8
										c3.9-2.4,8,2.8,7.9,5.3"/>
								</g>
								<g>
									<defs>
										<path id="SVGID_27_" d="M131.3,314.1c-10.1-5.1,0.3-6.2,5.5-11.6c3.4-3.8,7.8,1.8,7.8,1.8
											C140.3,307.3,137.4,311,131.3,314.1z"/>
									</defs>
									<clipPath id="SVGID_28_">
										<use xlink:href="#SVGID_27_"  style="overflow:visible;"/>
									</clipPath>
									<path class="st23" d="M132.4,313c-0.3,0.3-7.2-3.8-4-5.3c0,0-1.1-0.2-1.1-0.2c0,0-1.8,0.8-1.9,0.9c-0.1,0.2-1,1.6-0.8,1.9
										c0.2,0.3,2.2,2.1,2.7,2.7c1.7,1.4,3.3,1.7,4.9,1.6L132.4,313z"/>
								</g>
								<path class="st24" d="M138.5,303c0.4,0.2,2.2,0.9,0.3,1.3c-3.1,0.6-4.7,6-7.9,5.1c-1.6-0.9-0.6-1.2,0.8-1.6
									C134.3,307.2,136.5,303.4,138.5,303z"/>
								<path class="st24" d="M139.5,312.6c-0.5,0.5-1.1,1.5-2.2,0.7c-1.2-0.8-1.8-0.7-1.2-1.1C136.8,311.8,139.8,312.4,139.5,312.6
									z"/>
								<path class="st24" d="M147.8,306.1c-0.5,0.6-0.9,1.2-2.1,0.5c-1.2-0.7-2.2-0.6-1.8-0.9C144.3,305.1,147.8,305.9,147.8,306.1
									z"/>
								<path class="st25" d="M129.6,315.1c-3.7,1.1-0.3,3.3,1.6,2.2C133.9,316.2,130.3,314.8,129.6,315.1z"/>
								<path class="st25" d="M127.4,314.6c-1.6,0.2-0.3,1.5,0.6,1.1C129.2,315.2,127.8,314.4,127.4,314.6z"/>
								<path class="st26" d="M127.4,314.7c-2.3,0.7,1.7,1.7,0.7,0.3C127.8,314.8,127.5,314.6,127.4,314.7z"/>
								<path class="st25" d="M125.8,313.9c-1.4,0.2-0.2,1.3,0.5,0.9C127.5,314.4,126.3,313.7,125.8,313.9z"/>
								<path class="st26" d="M125.8,313.9c-2,0.5,1.5,1.5,0.6,0.3C126.2,314,125.9,313.9,125.8,313.9z"/>
								<path class="st25" d="M124.8,312.5c-1.5-0.2-0.6,1.3,0.3,1.1C126.3,313.6,125.3,312.4,124.8,312.5z"/>
								<path class="st26" d="M124.8,312.6c-2.2,0,1.1,1.9,0.6,0.5C125.2,312.8,125,312.6,124.8,312.6z"/>
								<path class="st25" d="M123.5,311.4c-1.3-0.2-0.5,1.1,0.2,1C124.8,312.3,124,311.3,123.5,311.4z"/>
								<path class="st26" d="M123.5,311.4c-1.9-0.1,0.9,1.7,0.5,0.4C123.8,311.6,123.6,311.4,123.5,311.4z"/>
								<path class="st26" d="M129.5,315.3c-3.2,0.9-0.1,3,1.5,2c1-0.5,1.1-1,0.3-1.5C130.5,315.4,129.7,315.2,129.5,315.3z"/>
							</g>
							<g>
								<path class="st8" d="M165.4,310.8c6.5,2,25.6,16.4,33,7.3c8.1-7.5-8.3-10.3-10.5-10.9c-2.1-1.3-6.6-3.6-8.9-4.4l-13.4,5.4
									L165.4,310.8z"/>
								<g>
									<defs>
										<path id="SVGID_29_" d="M181.6,313.9c-3.5,1.1-10.5-5.9-11.8-7.6c0,0,3.3-6,3.4-5.9c0.1,0.2,7.3,2,7.5,2.3
											c1.9,1.4,6.3,3.7,8.1,4.9c0,0-1.1,3.3-1.3,3.3C187.4,311.1,181.6,313.9,181.6,313.9z"/>
									</defs>
									<use xlink:href="#SVGID_29_"  style="overflow:visible;fill:#FBD7A7;"/>
									<clipPath id="SVGID_30_">
										<use xlink:href="#SVGID_29_"  style="overflow:visible;"/>
									</clipPath>
									<path class="st27" d="M179.1,309.4c-3.2,3,0.2,3.3,1.8,3.5l-0.3,1.5c-4.1-0.2-2.9,0.6-5.7-2.7c0.8-2.1,1.3-4.6,3.8-5.4
										c1.6-0.7,3.9,0.1,5.3,0.6c0,0,1.6,1.6,1.6,1.6l0.6,1.7l-0.5,0.7l-2-0.3C183.6,310.2,180,307.9,179.1,309.4z"/>
								</g>
								<path class="st10" d="M168.5,310.2c0-0.3,6.3,4.4,7.8,2.6c0,0,1.9-7.5,6.5-4.3C178.6,303.2,171.4,304.9,168.5,310.2z"/>
								<g>
									<defs>
										<path id="SVGID_31_" d="M194.3,307.8c0,0,3.4,1.2,4.9,1.2c1.5,0,0.3,3.5-1.7,3.2c-2.9-0.9-2.9-3-4.2-3.6L194.3,307.8z"/>
									</defs>
									<use xlink:href="#SVGID_31_"  style="overflow:visible;fill:#FBD7A7;"/>
									<clipPath id="SVGID_32_">
										<use xlink:href="#SVGID_31_"  style="overflow:visible;"/>
									</clipPath>
									<path class="st28" d="M195.6,308.2c-1.2,1.2,2.3,1,2.9,1.7c0.6,0.4,0.8,1,1.2,0.8c0.3-0.2,0.4,0,0.4,0.1
										c-0.3,0.4-0.9,2-1.2,0.5c-0.3-0.8-3.9-2.2-4.6-2.2c-0.5-1.9,0.6-1.6,1.9-1.1L195.6,308.2z"/>
								</g>
								<g>
									<defs>
										<path id="SVGID_33_" d="M194.4,308.9c0,0,1.7,0.8,3.3,1.2c1.7,0.3,1.8,3.7-0.7,3.6C193.8,313.5,191.7,308.3,194.4,308.9z"
											/>
									</defs>
									<use xlink:href="#SVGID_33_"  style="overflow:visible;fill:#FBD7A7;"/>
									<clipPath id="SVGID_34_">
										<use xlink:href="#SVGID_33_"  style="overflow:visible;"/>
									</clipPath>
									<path class="st29" d="M195.2,309.1c-1.9,1.7,2.4,1.2,2.9,2.6c0.5,0.9,0.9,0.6,0.9,0.6l0.2,0.5c-0.3,1.8-1.3,0-1.6-0.7
										c0,0-1.3-0.6-1.4-0.7c-1-0.3-2.4-0.9-2.9-1.8c0.4-0.2,1.1-0.7,1.4-0.9L195.2,309.1z"/>
								</g>
								<g>
									<defs>
										<path id="SVGID_35_" d="M193.8,310.2c0,0,0.9,0.8,3.2,1.7c2.2,0.8,1,3.6-1,3.3c-2.9-0.8-4.1-2.5-4.2-4.3
											c0.2-0.2,1.4-1.2,1.4-1.2L193.8,310.2z"/>
									</defs>
									<use xlink:href="#SVGID_35_"  style="overflow:visible;fill:#FBD7A7;"/>
									<clipPath id="SVGID_36_">
										<use xlink:href="#SVGID_35_"  style="overflow:visible;"/>
									</clipPath>
									<path class="st30" d="M194.4,310.4c-2.6,2.1,1.3,0.8,2.2,2.4c1.2,1.8,2.4,0.6,1.1,2.5c-1.8,0.3-1.5-2.3-3.1-2.8
										c-0.9,0-2.3-0.5-2.6-1.5c0.4-0.3,1.2-0.9,1.6-1L194.4,310.4z"/>
								</g>
								<g>
									<defs>
										<path id="SVGID_37_" d="M192.5,311.8c9,2.1,1.7,7.2-2,2.9l-0.2-2.2l1-1.2L192.5,311.8z"/>
									</defs>
									<use xlink:href="#SVGID_37_"  style="overflow:visible;fill:#FBD7A7;"/>
									<clipPath id="SVGID_38_">
										<use xlink:href="#SVGID_37_"  style="overflow:visible;"/>
									</clipPath>
									<path class="st31" d="M193,312c-2.5,1.3,2.2,0.6,2.4,2c0.6,2.5,2-0.2,1.1,2.3c-4.1,1-1.2-2.2-6.6-3
										c0.1-0.7,1.3-1.7,1.8-1.9c0.4,0,1.1,0.3,1.4,0.5L193,312z"/>
								</g>
								<path class="st15" d="M190.4,312.6c13.7,3.4-6,10.5-5.4,1L190.4,312.6z"/>
								<g>
									<defs>
										<path id="SVGID_39_" d="M165.4,310.8c6.4,2.4,25.7,17.1,33,7.3c8.1-7.5-8.3-10.3-10.5-10.9c-2.1-1.3-6.6-3.6-8.9-4.4
											l-13.4,5.4L165.4,310.8z"/>
									</defs>
									<clipPath id="SVGID_40_">
										<use xlink:href="#SVGID_39_"  style="overflow:visible;"/>
									</clipPath>
									<path class="st32" d="M165.6,308.6c10,4.4,20.9,13.2,29.2,10.3c2.4-1.2,5.3-4.4,5.2-6.8c-0.1-2.4,2.2-0.7,2.4-0.6
										c0.2,0.1,1,4.3,1,4.3l-2.5,4.6l-7.9,3.7l-11.7,0.2c0,0-9.4-4.2-12.4-6.4c-3.9-3.2-9.2-6.3-8.7-9.9
										C160.4,308,165.6,308.6,165.6,308.6z"/>
								</g>
								<path class="st10" d="M191.1,312.9c9.3-6.6-1.3-6.1-7.2-10.6c-3.9-3.3-7.4,2.9-7.4,2.9l4.4,1.9
									C182.4,308.8,186.9,311.6,191.1,312.9z"/>
								<path class="st10" d="M179.4,315.5c-1.3-6.1,9.6-6.9,11.7-2.7c-1.5-0.5-5.8,3-4.9,5l-1,0.6
									C185.2,318.5,180.2,317.1,179.4,315.5z"/>
								<g>
									<defs>
										<path id="SVGID_41_" d="M191.1,312.9c9.3-6.6-1.3-6.1-7.2-10.6c-3.9-3.3-7.4,2.9-7.4,2.9l4.4,1.9
											C182.4,308.8,186.9,311.6,191.1,312.9z"/>
									</defs>
									<clipPath id="SVGID_42_">
										<use xlink:href="#SVGID_41_"  style="overflow:visible;"/>
									</clipPath>
									<path class="st33" d="M178.9,302.4c0,0-0.6,1.8,2.3,2.9c3.6,1.3,8.1,6.6,11,5.4c-0.8,2.4-3.8,1.7-5.6,1.3
										c-2.8-0.9-5.8-3.4-8.1-5.1c-0.4-0.2-2.7-1.3-3.1-1.5c0,0,0.7-1.7,0.7-1.7L178.9,302.4z"/>
								</g>
								<g>
									<defs>
										<path id="SVGID_43_" d="M179.4,315.5c-1.3-6.1,9.6-6.9,11.7-2.7c-1.5-0.5-5.8,3-4.9,5l-1,0.6
											C185.2,318.5,180.2,317.1,179.4,315.5z"/>
									</defs>
									<clipPath id="SVGID_44_">
										<use xlink:href="#SVGID_43_"  style="overflow:visible;"/>
									</clipPath>
									<path class="st34" d="M180,311.7c-1.1,2.1,6.5,4.9,7.2,3.3l0.7,1.9l-0.9,1.5c-2.8,1.6-6.2-0.6-8.5-2.2l-0.2-2.8
										C178.6,312.8,179.4,311.8,180,311.7z"/>
								</g>
								<g>
									<defs>
										<path id="SVGID_45_" d="M190.4,312.6c13.7,3.4-6,10.5-5.4,1L190.4,312.6z"/>
									</defs>
									<clipPath id="SVGID_46_">
										<use xlink:href="#SVGID_45_"  style="overflow:visible;"/>
									</clipPath>
									<path class="st35" d="M191.8,312.9c0,0-4,2-3.1,3c0.9,1.1,5.2,1.4,6.4,0.6c1.2-0.8-1.2,2.1-1.2,2.1c-0.1,0-3.3,1.2-3.4,1.1
										c0,0-2.9-0.6-2.9-0.6l-1.9-1.6c-0.6-2.8-0.4-2.8,2.1-4.1C189.4,312.1,190.3,310.4,191.8,312.9z"/>
								</g>
								<g>
									<defs>
										<path id="SVGID_47_" d="M168.5,310.2c0-0.3,6.3,4.4,7.8,2.6c0,0,1.9-7.5,6.5-4.3C178.6,303.2,171.4,304.9,168.5,310.2z"/>
									</defs>
									<clipPath id="SVGID_48_">
										<use xlink:href="#SVGID_47_"  style="overflow:visible;"/>
									</clipPath>
									<path class="st36" d="M170.6,307.1c0,0,1.9,3,5.9,2.5c4-0.5-0.2,2.1-0.2,2.1l-0.8,1.6c-2.8,0.3-5.9-1.8-8-3.3
										c0,0-0.8-1.3-0.7-1.3C166.8,308.7,170.6,307.1,170.6,307.1z"/>
								</g>
								<g>
									<defs>
										<path id="SVGID_49_" d="M179.4,315.5c-1.3-6.1,9.6-6.9,11.7-2.7c-1.5-0.5-5.8,3-4.9,5l-1,0.6
											C185.2,318.5,180.2,317.1,179.4,315.5z"/>
									</defs>
									<clipPath id="SVGID_50_">
										<use xlink:href="#SVGID_49_"  style="overflow:visible;"/>
									</clipPath>
									<path class="st37" d="M185.3,318.6c-3.4-8.8,13.9-7,3.9-3.5c-1,0.8-1.9,1.3-1.6,2.8l-1,1.1l-0.8,0.2L185.3,318.6z"/>
								</g>
								<g>
									<defs>
										<path id="SVGID_51_" d="M168.5,310.2c0-0.3,6.3,4.4,7.8,2.6c0,0,1.9-7.5,6.5-4.3C178.6,303.2,171.4,304.9,168.5,310.2z"/>
									</defs>
									<clipPath id="SVGID_52_">
										<use xlink:href="#SVGID_51_"  style="overflow:visible;"/>
									</clipPath>
									<path class="st38" d="M175.2,314.2c1.4,0.3,2-1.9,2.4-2.6c0,0,2.9-2,2.9-2l3.1-1c0,0,0.4-1-1.8-1.5c-4.2-1.8-7.5,3.9-7,6.4
										"/>
								</g>
								<g>
									<defs>
										<path id="SVGID_53_" d="M191.1,312.9c9.3-6.6-1.3-6.1-7.2-10.6c-3.9-3.3-7.4,2.9-7.4,2.9
											C181.2,307.5,184.6,310.7,191.1,312.9z"/>
									</defs>
									<clipPath id="SVGID_54_">
										<use xlink:href="#SVGID_53_"  style="overflow:visible;"/>
									</clipPath>
									<path class="st39" d="M189.9,312.1c0.3,0.2,6.5-4.8,3.2-5.9c0,0,1.1-0.3,1.1-0.3c0,0,1.9,0.5,2,0.7
										c0.1,0.1,1.2,1.5,1.1,1.8c-0.2,0.3-1.8,2.4-2.2,3.1c-1.4,1.6-3,2.1-4.6,2.3L189.9,312.1z"/>
								</g>
								<path class="st24" d="M182.4,303c-0.4,0.3-2,1.2-0.1,1.3c3.1,0.1,5.5,5.3,8.6,3.9c1.4-1.1,0.4-1.3-1.1-1.5
									C187.2,306.5,184.4,303.1,182.4,303z"/>
								<path class="st24" d="M182.8,312.7c0.6,0.4,1.3,1.3,2.3,0.3c1.1-1,1.7-0.9,1-1.3C185.3,311.4,182.5,312.5,182.8,312.7z"/>
								<path class="st24" d="M173.6,307.5c0.6,0.5,1.1,1.1,2.2,0.2c1-0.9,2-1,1.7-1.2C176.9,305.9,173.6,307.2,173.6,307.5z"/>
								<path class="st25" d="M193,313.7c3.8,0.6,0.7,3.2-1.3,2.5C188.9,315.3,192.2,313.5,193,313.7z"/>
								<path class="st25" d="M195.1,312.8c1.6,0,0.5,1.4-0.4,1.1C193.3,313.7,194.6,312.7,195.1,312.8z"/>
								<path class="st26" d="M195.1,312.9c2.4,0.3-1.5,1.9-0.7,0.4C194.7,313,195,312.9,195.1,312.9z"/>
								<path class="st25" d="M196.5,311.9c1.4,0,0.4,1.3-0.4,1C195,312.6,196.1,311.7,196.5,311.9z"/>
								<path class="st26" d="M196.5,311.9c2.1,0.2-1.3,1.7-0.6,0.4C196.2,312.1,196.4,311.9,196.5,311.9z"/>
								<path class="st25" d="M197.3,310.4c1.4-0.4,0.8,1.2-0.1,1.1C196,311.6,196.8,310.4,197.3,310.4z"/>
								<path class="st26" d="M197.3,310.5c2.2-0.4-0.8,2.1-0.5,0.6C197,310.7,197.2,310.5,197.3,310.5z"/>
								<path class="st25" d="M198.4,309.1c1.2-0.4,0.7,1-0.1,1C197.2,310.1,197.9,309,198.4,309.1z"/>
								<path class="st26" d="M198.4,309.1c1.9-0.3-0.7,1.8-0.4,0.5C198.2,309.3,198.3,309.1,198.4,309.1z"/>
								<path class="st26" d="M193.1,313.8c3.3,0.4,0.6,3-1.2,2.2c-1.1-0.4-1.2-0.9-0.5-1.4C192.2,314,192.8,313.7,193.1,313.8z"/>
							</g>
							<g>
								<path class="st40" d="M139.6,189.2c-1.7,27,0.1,84.6-5.7,111.8c0,0,9.8,9.8,19.4-1.3c0,0-1.6-9.5-0.7-12.9
									c1.2-3,2-8.5,1.7-14.7c-1.3-13.9,4.4-49.9,6.1-60c2.1,5.5,8.3,42.4,9.9,50.6c2.3,7.7,1.1,37.6,1.8,43.4
									c0,0,7.8,9.4,18.1-0.9c-6-33.9-5.1-83.5-10.7-117.3C158.5,188.8,139.6,189.2,139.6,189.2z"/>
								<g>
									<path class="st41" d="M156.3,201.8c-1.8,0-3.7-1.2-3.8-1.3c0,0,3.4,1.1,5.5-0.1l0.3,1C157.7,201.8,156.9,201.8,156.3,201.8
										z"/>
								</g>
								<path class="st42" d="M148.7,294.6c0,0,3.1-5.2,4.3-9"/>
								<g>
									<defs>
										<path id="SVGID_55_" d="M139.6,189.2c-1.7,27,0.1,84.6-5.7,111.8c0,0,9.8,9.8,19.4-1.3c0,0-1.6-9.5-0.7-12.9
											c1.2-3,2-8.5,1.7-14.7c-1.3-13.9,4.4-49.9,6.1-60c2.1,5.5,8.3,42.4,9.9,50.6c2.3,7.7,1.1,37.6,1.8,43.4
											c0,0,7.8,9.4,18.1-0.9c-6-33.9-5.1-83.5-10.7-117.3C158.5,188.8,139.6,189.2,139.6,189.2z"/>
									</defs>
									<clipPath id="SVGID_56_">
										<use xlink:href="#SVGID_55_"  style="overflow:visible;"/>
									</clipPath>
									<path class="st43" d="M160.8,213.7c-0.9-4.4-2.7-12.6-2.7-12.6c-3.4-0.3-5.9-4.2-5.9-4.2s3.9,3,5.6,3.1
										c1.7,0.1,6.4,10.3,8.7,22.8c4.7,19.6,6.9,30.8,11,44.8c1.2,3.5,4.1,10.8-1,5.9c-4.9-2,4.2,38.1,4.5,39.3l-11-0.6
										c-1.4-2.6-2.5-12.9-2.5-16.2c0.2-1.2-7-77.1-7-77.1L160.8,213.7z"/>
									<path class="st43" d="M180.5,191.1c0,0-17.1,8.9-34.3,6.5c-4.7,11.5,0.1,48.9-2.9,62c-1.4,10-3.1,15.1-1.6,25.2
										c1.6,10.2,1.2,11.5-2,7.2c-3.1-4.3-2.5,6.7-0.4,11.5c2.2,4.9-5.3,4.1-5.3,4.1c-6.1-6.3-4.3-12.9-5.9-22.7
										c0-22.7-2.8-71.3,1.2-92c1.2-3.1,14.3-9,14.3-9l33.5,1C187.2,183.3,197.3,179.1,180.5,191.1z"/>
									<path class="st43" d="M175.9,191.7c0,0-1.5,0.8-1.3,2c4.2,3,3.9,16.3,5,23.2c1,15.4,3,45.1,4.5,57.7c0.6,3.5,0,2.2,0,8.2
										c0,6.1,3.5,26.2,4.3,26.2c0.8,0,5.1,0.2,5.1,0.2s2.7-2.9,3.1-4.3c4.2-31.9,0.6-78.9-3.9-110.6l-6.3-4.7l-6.1-0.4
										L175.9,191.7z"/>
									<path class="st43" d="M158.1,201.1c-2,6-6.3,49.7-6.9,56.9c-0.4,7.4,2.2,14.3,0,22.5c-2.2,8.2-4.1,18.2-1,13.3
										c0.6,2,0.6,9.4,0.6,9.4l5.3-3.9c1.9-10.6,2.3-59.8,2.9-68.9c0,0,2.5-18,2.5-18L158.1,201.1z"/>
								</g>
								<path class="st41" d="M172.8,251.6c0,0,5.7,2.2,7.4-1.2c1.2-2.5,2.5,1.4-1,3.9C174.3,258.3,171.7,254.5,172.8,251.6z"/>
								<path class="st41" d="M143.1,249.2c0,0,0.8,5.3,4.5,5.9c3.7,0.6-2.4,4.5-5.1,0.8C139.8,252.2,143.1,249.2,143.1,249.2z"/>
								<path class="st42" d="M145,194.7c0,0-0.5,3.3-4.6,3.3C140.4,198,145.6,199.6,145,194.7z"/>
								<path class="st42" d="M174.4,192.5c0,0,1,3.2,5,2.6C179.4,195.2,174.5,197.5,174.4,192.5z"/>
								<g>
									<defs>
										<path id="SVGID_57_" d="M139.6,189.2c-1.7,27,0.1,84.6-5.7,111.8c0,0,9.8,9.8,19.4-1.3c0,0-1.6-9.5-0.7-12.9
											c1.2-3,2-8.5,1.7-14.7c-1.3-13.9,4.4-49.9,6.1-60c2.1,5.5,8.3,42.4,9.9,50.6c2.3,7.7,1.1,37.6,1.8,43.4
											c0,0,7.8,9.4,18.1-0.9c-6-33.9-5.1-83.5-10.7-117.3C158.5,188.8,139.6,189.2,139.6,189.2z"/>
									</defs>
									<clipPath id="SVGID_58_">
										<use xlink:href="#SVGID_57_"  style="overflow:visible;"/>
									</clipPath>
									<path class="st44" d="M181.3,188.7c0,0-16.3,12.5-41.9,4.6c-4.8-3.8-1.2-4.6-1.2-4.6l8.9-1.7c2.9-0.3,30.6-2.8,32.6-3
										l2.3,2.5L181.3,188.7z"/>
								</g>
								<path class="st42" d="M158.3,201.4c2.2,9.5,2.4,10.9,0.5,21C158.8,222.4,158.8,207.8,158.3,201.4z"/>
							</g>
							<path class="st45" d="M176.7,105.8c0,0,15,6.1,18.8,10.5c3.5,1.7,12.1,32.4,12.5,42.4c-0.1,4.7-1,7-14.1,6.4
								c-6.7-6.5-4.8-14.4-4.8-14.4s-3.4-9.7-5.3-12.8c-6.9,28.7,7.3,137.9,8.3,165.9c-9.1,14.4-58.2,5.8-61.6-2.3
								c0-8,7.7-123.7,7-133.6c-0.4-1.6-18-32.9-15.8-34c4.2-14.9,9.5-22.1,26.1-28c2,7.4,7.7,8.7,7.7,8.7l13.3-3.5L176.7,105.8z"/>
							<g>
								<path class="st46" d="M183.6,128.6c-0.1-3.3,1.3-10,9.5-11.5C193.1,117,185,120.2,183.6,128.6z"/>
							</g>
							<g>
								<defs>
									<path id="SVGID_59_" d="M178.9,106.7c13.7,5.5,21.1,9.3,25.6,34c1.1,12.2,12.6,26.5-10.6,24.4c-6.7-6.5-4.8-14.4-4.8-14.4
										s-3.4-9.7-5.3-12.8c0,0-2.1,11-4.6,16.4c2,19.1,11.7,131.5,12.8,149.4c-8.8,13.6-52.9,6.9-61.6-2.3
										c0.1-8.1,7.7-123.6,7-133.6c-0.5-1.7-18-32.8-15.8-34c3.8-13.5,9-22.1,24.7-27.5c2,7.4,7.2,11.5,7.2,11.5l17.2-3
										L178.9,106.7z"/>
								</defs>
								<clipPath id="SVGID_60_">
									<use xlink:href="#SVGID_59_"  style="overflow:visible;"/>
								</clipPath>
								<path class="st47" d="M137,133.6c-1.3,42.7-6.5,131.7-9,175.1c0,0,48,1.3,25.3,3.7c-21.7,2.3-9.6-122.2-11.2-135.1
									C140.6,165.2,135.5,131.2,137,133.6z"/>
							</g>
							<g>
								<defs>
									<path id="SVGID_61_" d="M178.9,106.7c13.7,5.5,21.1,9.3,25.6,34c1.1,12.2,12.6,26.5-10.6,24.4c-6.7-6.5-4.8-14.4-4.8-14.4
										s-3.4-9.7-5.3-12.8c-5.6,21.4-5.3,18.3-1.8,42.5c0.5,4,0.5,6.1-6.4,9c-6.9,2.9-28,28.3-40,21c-2.2-1.7,1.2-24.3,1.8-29.2
										c0.5-5,0.1-13.3,0.1-13.3c-0.5-1.6-18-32.8-15.8-34c3.8-13.7,9-22.1,24.9-27.5c2,7.4,7,11.5,7,11.5l17.2-3L178.9,106.7z"/>
								</defs>
								<clipPath id="SVGID_62_">
									<use xlink:href="#SVGID_61_"  style="overflow:visible;"/>
								</clipPath>
								<path class="st48" d="M120.3,132.6c10.1-2.7,16.4-5.2,9.3-17.8c4,8,17.2,21.9-6.6,20.2L120.3,132.6z"/>
							</g>
							<g>
								<defs>
									<path id="SVGID_63_" d="M178.9,106.7c13.7,5.5,21.1,9.3,25.6,34c1.1,12.2,12.6,26.5-10.6,24.4c-6.7-6.5-4.8-14.4-4.8-14.4
										s-3.4-9.7-5.3-12.8c0,0,0.1,10.7-2.4,16.1c-1.4,19.5,9.9,131.7,10.7,149.7c-3.7,8-38.9,14.2-50.9,6.9
										c-2.2-1.7-4.3-124.5-3.8-129.4c0.5-5,0.1-13.3,0.1-13.3l-15.7-30.7c-0.7-4.3,2.5-12.4,7.6-20.6c3.5-4.2,14.6-9.7,17.2-10.3
										c2,7.4,7,11.5,7,11.5l17.2-3L178.9,106.7z"/>
								</defs>
								<clipPath id="SVGID_64_">
									<use xlink:href="#SVGID_63_"  style="overflow:visible;"/>
								</clipPath>
								<path class="st49" d="M184,312.8c1.2-9.9-2.7-136.7-7.1-148.2c-1.4-0.3-2.3,0-4,0.5c-4.5,1.2-1.1-1.8-7.6,1.4
									c-7.1,3.6-18.5,3-13-5.9c0,0,6-1.4,6-1.4s10.3,1.4,10.7,1.4c0.4,0,8.5,0,8.9-0.1c3.4-0.6,4.1-1.1,6.3,2
									c0,0,3.9,17.2,3.9,17.2l-0.3,8.2c0,0,5.4,120.2,5.2,120.7C192.8,309.2,184,312.8,184,312.8z"/>
								<path class="st49" d="M177.9,132c0,0,2.2,8.9-2.9,23.7c9.4,0.6,10-10.8,23.2-0.3c1-0.3-3.9-3.7-4.4-4.6
									c-0.5-0.9,6.4,1.2,8.1,3.3c1.5-3.2-12.9-7.2-7.8-9c1.7-0.9,2.4-0.5-2.6-3.7c-5-3.1-7.2-6.3-7.6-7
									C183.5,133.7,179.5,134.4,177.9,132z"/>
								<path class="st49" d="M202.7,132.7c1.3,5.3,0.5,14.4,0,16.8s2.2-2.1,3.1-5.9C206.6,137.1,205.1,136.3,202.7,132.7z"/>
							</g>
							<path class="st46" d="M140.7,174.6c0,0,11.2-3.6,14.2-4.7c4.5-2.2,2-2.9,0.8-4.7c-4.5-0.8-10.8,2.4-14.7,4.4l-1.3,2.3
								L140.7,174.6z"/>
							<path class="st50" d="M179,137.1c-0.3-0.1,1.5,0.2,3.7-1.2l1.1,2C183.8,137.9,182.1,138.4,179,137.1z"/>
							<path class="st50" d="M182.7,135.9c0,0-2.9-0.7-4.8-3.9c0,0,1.5,3.7,4.2,4.8C182.6,136.6,182.7,135.9,182.7,135.9z"/>
							<path class="st46" d="M182.2,236.9c0,0-10.1,19.9-25.8,29.9C156.4,266.8,183,249,182.2,236.9z"/>
							<path class="st46" d="M183.9,243.3c-8.6,24.2-16.7,19.8-20.8,26.5C163.2,269.8,180.8,252.1,183.9,243.3z"/>
							<g>
								<defs>
									<path id="SVGID_65_" d="M178.9,106.7c13.7,5.5,21.1,9.3,25.6,34c1.1,12.2,12.6,26.5-10.6,24.4c-6.7-6.5-4.8-14.4-4.8-14.4
										s-3.4-9.7-5.3-12.8c0,0,0.1,10.7-2.4,16.1c-0.4,4.4,0.1,22.3,0.6,26.4c0.5,4,3.5,21.3-3.4,24.2
										c-40.5,32.2-41.6,28.4-41.2-23.4c0.5-5,0.1-13.3,0.1-13.3c-0.5-1.6-18-32.8-15.8-34c4.2-15.1,9.5-22.1,26.1-28
										c2,7.4,5.8,12,5.8,12l17.2-3L178.9,106.7z"/>
								</defs>
								<clipPath id="SVGID_66_">
									<use xlink:href="#SVGID_65_"  style="overflow:visible;"/>
								</clipPath>
								<path class="st51" d="M148,107.2c-11.7,4.5-21.4,11.8-25.7,24.9c0,0-2.3-1.2-2.2-2c0.9-5.6,1.3-16.3,4.6-22
									c4.5-5.9,13.1-7,18.8-6.5c0.3,0.1,4.5,4,4.5,4L148,107.2z"/>
							</g>
							<g>
								<defs>
									<path id="SVGID_67_" d="M176.3,105.5c0,0,15.4,6.4,19.2,10.8c3.5,1.7,12.1,32.4,12.5,42.4c-0.1,4.7-1,7-14.1,6.4
										c-6.7-6.5-4.8-14.4-4.8-14.4s-3.4-9.7-5.3-12.8c0,0,0.1,10.7-2.4,16.1c-1.4,19.4,9.9,131.7,10.7,149.7
										c-8.4,13.3-55.6,7.6-61.6-2.3c0.1-8.1,7.7-123.6,7-133.6c0,0-15.7-30.7-15.7-30.7c-0.6-4.2,2.4-12.5,7.6-20.6
										c3.5-4.2,15.8-10.2,18.4-10.8c5,13.2,11.5,7,19.4,6.2C167.2,112,176.3,105.5,176.3,105.5z"/>
								</defs>
								<clipPath id="SVGID_68_">
									<use xlink:href="#SVGID_67_"  style="overflow:visible;"/>
								</clipPath>
								<path class="st52" d="M178.9,109.1c9.9,3.4,20.4,7.7,24.5,28.8c6.2-5.4,2.9-26.8,2.9-26.8c-7.4-0.9-23.2-3.5-30.1-5.8
									l-3,1.6L178.9,109.1z"/>
							</g>
							<g>
								<defs>
									<path id="SVGID_69_" d="M171.9,98.6c2.3-0.5,4.5,6.5,4.8,7.2c0,0-0.9,8.7-10.2,15.7c0,0-1-5-8-9.2c0,0,9.9-3.7,13-7.8
										L171.9,98.6z"/>
								</defs>
								<clipPath id="SVGID_70_">
									<use xlink:href="#SVGID_69_"  style="overflow:visible;"/>
								</clipPath>
							</g>
							<g>
								<defs>
									<path id="SVGID_71_" d="M150.3,101.2c-5.1,2.5-3.2,14.1,0.6,19.6c0,0,3.1-6,7.6-8.6c0,0-4.2-1.6-7.4-5.2l-0.4-5.6
										L150.3,101.2z"/>
								</defs>
								<clipPath id="SVGID_72_">
									<use xlink:href="#SVGID_71_"  style="overflow:visible;"/>
								</clipPath>
							</g>
							<g>
								<path class="st46" d="M155.7,134.8c11.7-12.4,33.4-22.3,33.6-22.3l-0.3-0.7c-0.2,0.1-20.9,9.4-33.2,21.8
									c-1.7-2.5-10.2-15.1-19.8-21.6l-0.4,0.6C146.4,120.2,155.1,133.9,155.7,134.8z"/>
							</g>
							<g>
								<g>
									<g>
										<path class="st53" d="M156.1,173.9l0.3,0c-1.2-13.2-0.1-32.1-0.1-32.2l-0.3,0C156,141.8,154.9,160.6,156.1,173.9z"/>
									</g>
									<g>
										<path class="st46" d="M157.2,173.8c0.5-12.6-0.6-32.9-0.7-33.1l-0.3,0c0,0.2,1.1,20.5,0.7,33L157.2,173.8z"/>
									</g>
									<g>
										<path class="st46" d="M156.9,173.6c0.1-6.4-0.7-32.8-0.7-33.1l-0.3,0c0,0.3,0.8,26.6,0.7,33L156.9,173.6z"/>
									</g>
									<g>
										<path class="st46" d="M156.7,174.1c0-0.2-1.2-23.1-0.5-33.8l-0.3,0c-0.7,10.8,0.4,33.6,0.5,33.9L156.7,174.1z"/>
									</g>
								</g>
								<g>
									<g>
										<path class="st46" d="M158.7,183.9c-0.2-5.1-1.3-8.6-1.3-8.6l-0.3,0.1c0,0,1.1,3.5,1.3,8.6L158.7,183.9z"/>
									</g>
									<g>
										<path class="st46" d="M154.8,184l0.3,0c-0.3-4.8,0.9-8.6,1-8.6l-0.3-0.1C155.7,175.3,154.5,179.2,154.8,184z"/>
									</g>
									<g>
										<path class="st46" d="M157.6,185c0.4-3.2-0.6-9.6-0.6-9.7l-0.3,0c0,0.1,1,6.4,0.6,9.6L157.6,185z"/>
									</g>
									<g>
										<path class="st46" d="M155.8,184.7l0.3,0c-0.3-2.9,0.6-9.3,0.6-9.4l-0.3,0C156.4,175.5,155.5,181.8,155.8,184.7z"/>
									</g>
									<g>
										<path class="st46" d="M156.9,185.4c0.6-3.8-0.2-10.7-0.2-10.8l-0.3,0c0,0.1,0.7,7,0.2,10.7L156.9,185.4z"/>
									</g>
									<g>
										<path class="st46" d="M155.4,184l0.3-0.1c-0.5-2.9,0.7-8.6,0.7-8.6l-0.3-0.1C156.1,175.5,154.9,181.1,155.4,184z"/>
									</g>
									<g>
										<path class="st46" d="M156.6,184.6c0-1.4,0.3-9.5,0.3-9.6l-0.3,0c0,0.1-0.3,8.2-0.3,9.6L156.6,184.6z"/>
									</g>
									<g>
										<path class="st46" d="M158.2,184.2c0.2-3.2-1-9.1-1-9.2l-0.3,0.1c0,0.1,1.2,5.9,1,9.1L158.2,184.2z"/>
									</g>
								</g>
								<g>
									<path class="st53" d="M155.5,174.4c0,1.7,2.2,1.6,2.1-0.1C157.6,172.7,155.4,172.8,155.5,174.4z"/>
									<path class="st45" d="M155.7,174.6c0,1.2,1.3,1.1,1.3,0C156.9,173.4,155.7,173.4,155.7,174.6z"/>
								</g>
							</g>
							<g>
								<g>
									<defs>
										<path id="SVGID_73_" d="M177.5,80.8c14.3-0.6,8.4,12.4,16.5,11.8c-13.1,8.2-11.2-10.3-18.1,0.5l-3.7-9.6L177.5,80.8z"/>
									</defs>
									<use xlink:href="#SVGID_73_"  style="overflow:visible;fill:#FFFFFF;"/>
									<clipPath id="SVGID_74_">
										<use xlink:href="#SVGID_73_"  style="overflow:visible;"/>
									</clipPath>
									<path class="st54" d="M182.6,80.9c0,0-1.6,2.4-0.4,3.3c1.2,0.9,5.2,4.8,5.1,7.3c-0.1,2.5-1.1,0.6-2,0
										c-0.9-0.7-0.8,2.7-0.2,3.6c0.6,0.9-1.1-0.8-1.5-1c-0.4-0.2-0.7-2.8-1.5-3.8c-0.7-1.1-3.9-3.8-3.9-3.8l-1.5-4.1
										c0,0,2.1-2.5,2.3-2.7c0.2-0.2,2.6-1,2.6-1L182.6,80.9z"/>
								</g>
								<g>
									<defs>
										<path id="SVGID_75_" d="M175.4,83.6c14.5,4.9,3.6,14.5,11.4,17.3c-11,3.3-9.2-6.3-16.8-6.7l0.4-10.3L175.4,83.6z"/>
									</defs>
									<use xlink:href="#SVGID_75_"  style="overflow:visible;fill:#FFFFFF;"/>
									<clipPath id="SVGID_76_">
										<use xlink:href="#SVGID_75_"  style="overflow:visible;"/>
									</clipPath>
									<path class="st55" d="M179.5,85.5c0,0-2.8,0.8-0.9,4.1c2.1,2.1,3.8,12.3,0.1,7.8c-1.6-2.2-1.9-5.2-2.8-3.2
										c-1,2-0.5,3.5-0.5,3.5l-2.9-1.3l-1.4-2.8c0,0,1.4-5.3,1.6-5.9c0.2-0.6,2.2-2.6,2.5-3.3c0.9-1.6,3.2-0.8,4.3-0.4L179.5,85.5
										z"/>
								</g>
							</g>
							<g>
								<g>
									<defs>
										<path id="SVGID_77_" d="M181.3,151.5c0,0-2.8,7,2.3,15.9l3-0.2l0.3-14.4L181.3,151.5z"/>
									</defs>
									<use xlink:href="#SVGID_77_"  style="overflow:visible;fill:#DFEAF2;"/>
									<clipPath id="SVGID_78_">
										<use xlink:href="#SVGID_77_"  style="overflow:visible;"/>
									</clipPath>
									<path class="st56" d="M181.4,163.9l2.9,0.7c0.9,2.7-2.1,6.4,3.3,1.6c-0.6-3.3,0.1-4.7-3.9-5.8l-3,1.5L181.4,163.9z"/>
								</g>
							</g>
							<g>
								<defs>
									<path id="SVGID_79_" d="M176.7,105.8c0,0,15,6.1,18.8,10.5c3.5,1.7,12.1,32.4,12.5,42.4c-0.1,4.7-1,7-14.1,6.4
										c-6.7-6.5-4.8-14.4-4.8-14.4s-3.4-9.7-5.3-12.8c-6.9,28.7,7.3,137.9,8.3,165.9c-9.1,14.4-58.2,5.8-61.6-2.3
										c0-8,7.7-123.7,7-133.6c-0.4-1.6-18-32.9-15.8-34c4.2-14.9,9.5-22.1,26.1-28c2,7.4,7.7,8.7,7.7,8.7l13.3-3.5L176.7,105.8z"
										/>
								</defs>
								<clipPath id="SVGID_80_">
									<use xlink:href="#SVGID_79_"  style="overflow:visible;"/>
								</clipPath>
								<path class="st57" d="M193.8,152c0,0,4,6.3,3.7,15.2c0.1,0.4-7.2-1.2-7.2-1.2c-0.2-3.7-1-12.3-2.1-15.8L193.8,152z"/>
							</g>
							<g>
								<path class="st58" d="M175.8,88.6c0,0,0.9,1.9-0.8,2.3c0,0-0.4,1.4-1.4,0.9c0,0-0.1,2.2-1.7,1.4c-1.1-3.7-0.5-3.2,0.3-5.1
									l2.4-0.3L175.8,88.6z"/>
								<path class="st59" d="M172.5,89.8l-1.2,17.4c0,0-12,10.8-13.2,10.5c-4.8-1.2-8.1-12.1-7.4-16.1l10.8-5c0,0,9.5-8.7,9.7-8.5
									C171.4,88.1,172.5,89.8,172.5,89.8z"/>
								<g>
									<defs>
										<path id="SVGID_81_" d="M145.9,69.6c0.6,6.1-4.1,28.9,6.5,32.9c2,0.6,13-1.9,17-5.4c1.1-1.1,1.9-6.7,2.1-7.5
											c0.2-0.9,0.3,0.1,1.6,0.2c8.8-0.3,7.4-12.9-0.6-7.2c1.7-7.3,1.9-13.8,1.9-13.8l-5.3-5.7l-8.5-1.2l-8,1.4l-4.9,2.5
											L145.9,69.6z"/>
									</defs>
									<use xlink:href="#SVGID_81_"  style="overflow:visible;fill:#FCDEBC;"/>
									<clipPath id="SVGID_82_">
										<use xlink:href="#SVGID_81_"  style="overflow:visible;"/>
									</clipPath>
									<path class="st60" d="M177.4,81.4c-3.8-1.7-8.3,6.7-3,8.2c2.5,0.8-1.7,0.5-1.7,0.5c-3.4-1.1-1.2-8.2,0.2-9.4
										c1,0.1,4.3-0.5,5,0.8L177.4,81.4z"/>
								</g>
								<path class="st61" d="M177.4,84.7c-0.3-3.4-5.9,0.4-3.8,1.9c2.9-0.2,0.5,2.5,2.5,0.9C177.3,86.3,177.6,85.4,177.4,84.7z"/>
								<g>
									<path class="st59" d="M173.6,86.6c0,0-0.4-0.1-0.5-0.3c0-0.1,1-1.9,3-1.5C176.2,84.8,174,85.5,173.6,86.6z"/>
								</g>
								<path class="st62" d="M150.8,92c0.7,4.3,5.5,3.8,7.7,0.4C154.7,93.1,152.1,92.5,150.8,92z"/>
								<path class="st63" d="M170.1,100.7c0.1-1.8,0.1-3.1-0.3-2.5c-1.2,1.7-6.1,5.1-10.3,6c-3.7,0.8-3.8,1.6-3.8,2.7
									c0,0.9-0.5,3.2,1.8,3.4c0.3,0,0.2,4.2,0.5,7.4c0.6-0.1,1.6-5.5,1.5-6.6c4.8-1.5,10.2-6.8,10.2-6.8
									C170.1,102.2,170.1,100.7,170.1,100.7z"/>
								<path class="st59" d="M162.4,102.4c0,0,0.4,3.3-0.2,5.2c-0.6,1.8,1.2,0.1,2.1-2.7c0.9-2.8,0.6-3.7,0.6-3.7L162.4,102.4z"/>
								<path class="st59" d="M170.9,88.2c0,0,0.4,1,1.4,1.5C171.5,91.2,171.2,90,170.9,88.2z"/>
								<path class="st63" d="M149,84.2c0,0-0.1,2.5,3.3,3l-0.3,0.4C151,87.5,148.7,86.5,149,84.2z"/>
								<g>
									<path class="st58" d="M169.8,86.6h1c0.1-2.8,3.4-8.1,7.4-4.8c0,0,1.2-0.3,0.9-1.2c0,0,1.7-0.7,0.7-2c0,0,1.6-0.8,0.3-2.2
										c0,0,0.5-0.8-0.1-1.4c1.2,0.3,1.8-2.4,0.6-2.4c0,0,0.8-1.2-0.2-1.8c0,0,1.8-1.2,0.7-2.3c0,0,0.3-1.8-1.2-2
										c0.6-1,0.3-2.3-0.9-2.9c0,0,0.1-1.4-1.2-1.4c0-1.5-1.1-1.1-3.2-1.1c0,0-0.1-2-1.7-1.6c0,0,0.1-0.9-0.9-0.7
										c0,0-0.1-1.7-1.6-1.1c0,0-1.4-1.2-2-0.5c0,0-0.4-0.7-1.3,0c0,0-1.5-2.1-2.7-0.8c0,0,0.1-1.9-0.1-1c0,0-0.7,0.2-1.5,0.8
										c0,0-1.3-0.7-2,0.3c0,0-0.4-2.5-1.5-1.5c0,0-0.9-0.7-1.7,0.1c0,0-1.3-1.5-1.9,0.2c0,0-1-0.7-1.2,0.3c0,0-1.1-0.9-1.7,0.3
										c0,0-1.2-0.5-2.5,1c0,0-1.5-0.6-1.9,0.8c0,0-1.3,0.3-1.2,1c0,0-1.1-0.2-0.9,1.5c0,0-1.7-0.1-1.6,1.8c0,0-2.1,0.8-1.2,3
										c0,0-1.4,0.5-0.4,1.1c0,0-2.1,0.3-0.7,1.7c0,0-1.2,1.6,0.5,1.9c0,0-0.9,0.7,0.1,1.4c0,0-1.7,0.7-0.4,1.4
										c0,0,0.1,1.5,1.4,1.2c0,0-0.3,2.1,1.9,1.2l0.1-4.8c0,0,1-0.1,1.2-1.2c0,0,1,0.3,1.3-0.8c0,0,1.2,0.9,2-0.8
										c0,0-0.1,0.9,0.9,0.5c0,0,0.8,1.6,1.9,0.1c0,0,1.4,0.5,1.6-0.7c0,0,1.6,0.5,2-1.4c0,0,0.7,0.9,1.6,0.2c0,0,0.9,2,2.7,0.2
										c0,0,0.9,0.7,1.4-0.6c0,0,1.2,1.7,2.4,0.4c0,0-0.4,1.4,1.2,0.8c0,0-0.5,2.5,2,1.8c0,0-1.4,2.5,1.1,2.5c0,0-1.1,1.9,1,2.1
										L169.8,86.6z"/>
									<g class="st64">
										<g>
											<path class="st65" d="M151.4,64.9c-0.5,1.9,2.7,0.4,1.4,0.3C151.4,66.2,152,64.2,151.4,64.9L151.4,64.9z"/>
										</g>
										<g>
											<path class="st65" d="M153.4,63.5c0.2-1,1.5-1,1.5,0.1c0,0.3,0.4,0.3,0.4,0c0.1-1.5-2.1-1.6-2.3-0.2
												C153,63.6,153.3,63.7,153.4,63.5L153.4,63.5z"/>
										</g>
										<g>
											<path class="st65" d="M155.9,60.6c0.5-0.2,1.4-0.4,1.4,0.3c0,0.2,0.4,0.3,0.4,0C158,59.6,154.9,60,155.9,60.6z"/>
										</g>
										<g>
											<path class="st65" d="M149.9,61.8c-1.2-0.1-1.1,2.2-0.5,1.2C148.9,62.2,150.7,62.2,149.9,61.8L149.9,61.8z"/>
										</g>
										<g>
											<path class="st65" d="M146.9,65.3c-0.8,0.4,0.1,2.2,0.2,1.1C146.6,66.1,147.7,65.1,146.9,65.3L146.9,65.3z"/>
										</g>
										<g>
											<path class="st65" d="M152.9,58.2c0.4-0.6,1.7,0.6,1.5-0.2C154.1,57.3,151.9,57.9,152.9,58.2L152.9,58.2z"/>
										</g>
										<g>
											<path class="st65" d="M161.7,59.7c0.4-0.7,1.2-0.6,1.6,0.1c1.3,0.1-1.3-1.9-1.9-0.3C161.2,59.7,161.6,59.9,161.7,59.7
												L161.7,59.7z"/>
										</g>
										<g>
											<path class="st65" d="M159.6,63.5c-1.1,0.9,0.9,2,0.4,1C159.2,64.4,160.4,63.2,159.6,63.5L159.6,63.5z"/>
										</g>
										<g>
											<path class="st65" d="M162.9,62.9c-0.2,0.4,0.4,1.6,0.5,0.7C163.2,63.4,163.3,62.4,162.9,62.9L162.9,62.9z"/>
										</g>
										<g>
											<path class="st65" d="M166.1,61.8c0.7-0.3,1.4,0.1,1.7,0.7c1.3,0.4-0.9-2-1.9-1.1C165.7,61.6,165.8,61.9,166.1,61.8z"/>
										</g>
										<g>
											<path class="st65" d="M168.8,60.5c0.6,0.1,1,0.6,1.1,1.2c1,0.6-0.2-1.9-1.1-1.6C168.6,60.1,168.6,60.5,168.8,60.5z"/>
										</g>
										<g>
											<path class="st65" d="M171.2,69c0.4-0.1,0.6,1,0.8,0.3C172.1,68.6,170.5,68.3,171.2,69z"/>
										</g>
										<g>
											<path class="st65" d="M172.1,65.7c0.2-0.9,1.4-0.5,1.2,0.4c-0.1,0.2,0.3,0.3,0.4,0.1c0.4-1.3-1.7-2-1.9-0.6
												C171.7,65.9,172.1,66,172.1,65.7L172.1,65.7z"/>
										</g>
										<g>
											<path class="st65" d="M175.5,66.6c0.3,0.2,0.2,1.2,0.6,0.6C176.3,66.7,175.4,65.7,175.5,66.6L175.5,66.6z"/>
										</g>
										<g>
											<path class="st65" d="M167.9,65.8c-0.5,0.6,1.1,2.3,0.9,1.2C167.9,66.9,168.5,65.3,167.9,65.8L167.9,65.8z"/>
										</g>
										<g>
											<path class="st65" d="M174.1,72.5c0.8-0.6,0.6,0.8,0.3,1.2c0.2,0.9,0.9-0.8,0.7-1.2C175,71.5,173.1,72.4,174.1,72.5
												L174.1,72.5z"/>
										</g>
										<g>
											<path class="st65" d="M172.1,74c-1,1.4,2.5,1.4,0.3,0.6C172.2,74.5,172.9,73.7,172.1,74L172.1,74z"/>
										</g>
										<g>
											<path class="st65" d="M177.8,71.9c1.3-0.4,0.6,1.5,1.2,0.8C179.7,71.4,176.8,71.2,177.8,71.9z"/>
										</g>
										<g>
											<path class="st65" d="M177.1,76.9c0.1,0.2,0.1,0.4,0,0.5c-0.1,0.2,0.2,0.4,0.3,0.2C177.8,77.3,177.2,76,177.1,76.9
												L177.1,76.9z"/>
										</g>
										<g>
											<path class="st65" d="M174.6,77.7c-0.3,0.9,1.7,1.1,1,0.5C174.9,78.4,175,77,174.6,77.7L174.6,77.7z"/>
										</g>
										<g>
											<path class="st65" d="M178.3,67.1c0.5,0,0.3,1.3,0.7,0.7C179.4,67.2,178,66.2,178.3,67.1z"/>
										</g>
										<g>
											<path class="st65" d="M173.8,61.6c0.2-0.1,0.8,0.6,0.7-0.1C174.4,60.9,172.9,61.4,173.8,61.6z"/>
										</g>
										<g>
											<path class="st65" d="M159,57c0.2-0.2,1,0.3,0.6-0.3C159.2,56.2,158.1,57,159,57L159,57z"/>
										</g>
										<g>
											<path class="st65" d="M145.2,63c-0.9,0.3,0.2,2,0.2,0.9C144.8,63.6,146,62.9,145.2,63L145.2,63z"/>
										</g>
										<g>
											<path class="st65" d="M143.2,69.7c-0.3,0.9,1.7,1.2,1,0.5C143.5,70.5,143.7,69,143.2,69.7L143.2,69.7z"/>
										</g>
										<g>
											<path class="st65" d="M171.7,78.4c-1,1.3,2.2,1.1,0.3,0.5c-0.1-0.1,0-0.3,0.1-0.3C172.2,78.4,171.9,78.2,171.7,78.4
												L171.7,78.4z"/>
										</g>
									</g>
								</g>
							</g>
							<g>
								<path class="st66" d="M171.9,98.6c2.3-0.5,4.5,6.5,4.8,7.2c0,0-8,9.9-18.7,11.8c0,0,1.3-3,1.3-5.7c0,0,9-3.4,12.2-7.5
									L171.9,98.6z"/>
								<g>
									<defs>
										<path id="SVGID_83_" d="M171.9,98.6c2.3-0.5,4.5,6.5,4.8,7.2c0,0-0.9,8.7-10.2,15.7c0,0-8.4-0.9-7.2-9.5
											c0,0,9-3.4,12.2-7.5L171.9,98.6z"/>
									</defs>
									<clipPath id="SVGID_84_">
										<use xlink:href="#SVGID_83_"  style="overflow:visible;"/>
									</clipPath>
									<path class="st67" d="M172.8,101.6c3.2,4.4-8.2,9.2-14.3,10.6c1.9-2.4,3.8-3.1,4.1-3.5c0.3-0.3,7-6.9,7-6.9L172.8,101.6z"
										/>
								</g>
								<g>
									<defs>
										<path id="SVGID_85_" d="M171.9,98.6c2.3-0.5,4.5,6.5,4.8,7.2c0,0-0.9,8.7-10.2,15.7c0,0-0.1-5.4-7.2-9.5
											c0,0,9-3.4,12.2-7.5L171.9,98.6z"/>
									</defs>
									<clipPath id="SVGID_86_">
										<use xlink:href="#SVGID_85_"  style="overflow:visible;"/>
									</clipPath>
									<path class="st68" d="M172.8,101.6c0.2-0.9,0.5-2,1.1-1.1c0.6,0.8,2.3,5,2.5,6.3c0.3,1.3,0.7-1.3,0.8-1.5
										c0.1-0.2-0.3-2.2-0.3-2.4c-0.6-3.2-2.4-5.8-5.9-6c-1.7,0.8-1.2,2.5-1,3.8c0.1,1.1,0.6,1.7,1.6,2.2
										C172.6,102.8,172.9,102.6,172.8,101.6z"/>
								</g>
							</g>
							<g>
								<path class="st66" d="M150.3,101.2c-2.5,0.5-3.1,5.9-3.1,7.2c0,0,5.7,7.6,11,9.2c0,0-1.1-3.9-0.9-6c0,0-2.9-1-6.1-4.6
									l-0.4-5.6L150.3,101.2z"/>
								<g>
									<defs>
										<path id="SVGID_87_" d="M150.3,101.2c-2.5,0.5-3.1,5.9-3.1,7.2c0,0,6.1,7.9,11,9.2c0,0-0.9-2.6-0.9-6c0,0-2.9-1-6.1-4.6
											l-0.4-5.6L150.3,101.2z"/>
									</defs>
									<clipPath id="SVGID_88_">
										<use xlink:href="#SVGID_87_"  style="overflow:visible;"/>
									</clipPath>
									<path class="st69" d="M150.1,103.7c-3.8,6.7,15.8,12.4,7,5.5C155.8,107.9,152,103.7,150.1,103.7z"/>
								</g>
								<g>
									<defs>
										<path id="SVGID_89_" d="M150.3,101.2c-2.5,0.5-3.1,5.9-3.1,7.2c0,0,7.3,6.8,9.9,9.2c0,0-1.3-3.1,0.1-6c0,0-2.9-1-6.1-4.6
											l-0.4-5.6L150.3,101.2z"/>
									</defs>
									<clipPath id="SVGID_90_">
										<use xlink:href="#SVGID_89_"  style="overflow:visible;"/>
									</clipPath>
									<path class="st70" d="M150,104.1c-0.1-3.8-2.7,0.6-2.3,3.7c0.1,2.7-1.5,0.5-1.6,0.3c-0.1-2.3-0.3-6,1.4-7.8
										c1.4-0.1,3.3-0.8,4.5-0.1c1,2,0.9,3-0.9,4.4L150,104.1z"/>
								</g>
							</g>
							<g>
								<defs>
									<path id="SVGID_91_" d="M176.7,105.8c0,0,15,6.1,18.8,10.5c3.5,1.7,12.1,32.4,12.5,42.4c-0.1,4.7-1,7-14.1,6.4
										c-6.7-6.5-4.8-14.4-4.8-14.4s-3.4-9.7-5.3-12.8c-6.9,28.7,7.3,137.9,8.3,165.9c-9.1,14.4-58.2,5.8-61.6-2.3
										c0-8,7.7-123.7,7-133.6c-0.4-1.6-18-32.9-15.8-34c4.2-14.9,9.5-22.1,26.1-28c2,7.4,7.7,8.7,7.7,8.7l13.3-3.5L176.7,105.8z"
										/>
								</defs>
								<clipPath id="SVGID_92_">
									<use xlink:href="#SVGID_91_"  style="overflow:visible;"/>
								</clipPath>
								<path class="st71" d="M204.7,145.4c2.3,8.8,7.1,21.2-7.9,18.9l0.3,2.2l3.1,0.6c2.2-0.6,6.9-2.1,9-2.8l1.5-3.9l-0.8-8
									c-0.7-2-2.6-8-4.3-9.3L204.7,145.4z"/>
							</g>
							<g>
								<g>
									<defs>
										<path id="SVGID_93_" d="M178.3,77.8c0,0,2.5-11.7-14.7-14.3c-10.1-1.8-13.8-1.4-16.2,2.9c0,0-2.4,0.4,0.3-2.3
											c0,0-6.9-1.8-3.3-4.3c6.2-6.5,21.6-7.3,34.3,3c3.4,2.6,3.8,4.6,2.7,6.2c0,0,1.6,3.6-1.2,4.7
											C180.3,73.7,182.6,77.4,178.3,77.8z"/>
									</defs>
									<use xlink:href="#SVGID_93_"  style="overflow:visible;fill:#FFFFFF;"/>
									<clipPath id="SVGID_94_">
										<use xlink:href="#SVGID_93_"  style="overflow:visible;"/>
									</clipPath>
								</g>
								<g>
									<defs>
										<path id="SVGID_95_" d="M178.3,77.8c0,0,2.5-11.7-14.7-14.3c-10.1-1.8-13.8-1.4-16.2,2.9c0,0-2.4,0.4,0.3-2.3
											c0,0-6.9-1.8-3.3-4.3c6.2-6.5,21.6-7.3,34.3,3c3.4,2.6,3.8,4.6,2.7,6.2c0,0,1.6,3.6-1.2,4.7
											C180.3,73.7,182.6,77.4,178.3,77.8z"/>
									</defs>
									<clipPath id="SVGID_96_">
										<use xlink:href="#SVGID_95_"  style="overflow:visible;"/>
									</clipPath>
								</g>
								<g>
									<defs>
										<path id="SVGID_97_" d="M178.3,77.8c0,0,2.5-11.7-14.7-14.3c-10.1-1.8-13.8-1.4-16.2,2.9c0,0-2.4,0.4,0.3-2.3
											c0,0-6.9-1.8-3.3-4.3c6.2-6.5,21.6-7.3,34.3,3c3.4,2.6,3.8,4.6,2.7,6.2c0,0,1.6,3.6-1.2,4.7
											C180.3,73.7,182.6,77.4,178.3,77.8z"/>
									</defs>
									<clipPath id="SVGID_98_">
										<use xlink:href="#SVGID_97_"  style="overflow:visible;"/>
									</clipPath>
									<path class="st72" d="M179.6,63.4c1.9,5.1-3.4-1.7-6.8-1.4c0,0,5.1,2.3,5.8,4.5c-5.6-6.1-25.5-9.7-32.5-6.4
										c-0.7,0.2-0.5-1.2,4.3-1.5c-1.1-1.1-7.1,2-3.4-1.8c0.3-0.3-3.7,0-3.9,0.3c-1.6,1.5-3.7,3.5-4.7,5.5
										c0.1,0.2,3.2,1.6,3.2,1.6l11.6,0.6l12.5,2.6c0.9,0.4,13,6.2,14.9,5.7l1.8-0.7l1.7-3.7l-3-5.6L179.6,63.4z"/>
								</g>
								<path class="st45" d="M176.8,81.3c-1-2-2.2-10.2-14.8-12.4c-10.4-1.9-15.5-1-17.9,3.4c0,0-4.3-1.2-1.5-4
									c0,0-4.2-0.3-0.6-3.4c-1.1-7.4,25.7-6.3,36,2.6c4.7,4.3,5.6,5.9,3.5,7.6c0,0,2.7,3.4-0.2,4.6c0,0,0.3,2.6-2.3,3.7
									C179,82.6,178,81.5,176.8,81.3z"/>
								<g>
									<defs>
										<path id="SVGID_99_" d="M176.7,81.1c-0.6-1.7-2.5-10-14.7-12.1c-10.4-1.9-15.5-1-17.9,3.4c0,0-4.3-1.2-1.5-4
											c0,0-4.2-0.3-0.6-3.4c-1.1-7.4,25.7-6.3,36,2.6c4.7,4.3,5.6,5.9,3.5,7.6c0,0,2.7,3.4-0.2,4.6c0,0,0.1,2.9-2.3,3.7
											C179.1,83.3,179.1,82,176.7,81.1z"/>
									</defs>
									<clipPath id="SVGID_100_">
										<use xlink:href="#SVGID_99_"  style="overflow:visible;"/>
									</clipPath>
								</g>
								<g>
									<defs>
										<path id="SVGID_101_" d="M176.7,81.1c-1-11.2-27.1-18.3-32.6-8.7c0,0-4.3-1.2-1.5-4c0,0-4.2-0.3-0.6-3.4
											c-1.1-7.4,25.7-6.3,36,2.6c4.7,4.3,5.6,5.9,3.5,7.6c0,0,2.7,3.4-0.2,4.6c0,0,0.2,2.6-2.3,3.7
											C179.1,83.3,178.9,81.9,176.7,81.1z"/>
									</defs>
									<clipPath id="SVGID_102_">
										<use xlink:href="#SVGID_101_"  style="overflow:visible;"/>
									</clipPath>
									<path class="st73" d="M180.4,70.1c0.3,1.5,1.4,3.7-5.6-0.8c0,0,6.3,4.7,5.3,7.9c-0.4,0.9-1.5-1.8-4.4-3.9
										c0,0,6.8,7.4,1,9.3c-5.8,1.9-1.4,4.4-1.1,4.3c0.3-0.2,7.1-0.8,7.1-0.8c3.7-5.2,3.2-5.6,3.7-11.6c-1.7-3.1-3.1-6-6.6-7.3
										L180.4,70.1z"/>
									<path class="st73" d="M146.1,60.9c0,0-2.9,1.9-2.9,3c0,1.1,1.4-0.4,3.1-0.2c0,0-3.6,1.3-4.2,2.6c-0.6,1.3,0.1,2,1.2,1.5
										c1.1-0.5,1.8-0.9,3.9-1.4c-1.7,0.5-6.8,4.2-1.7,5.4l-1.2,1.6l-3.2-0.1l-3-3.7l0.6-5.8l3.1-2.4c0,0,3.3-1,3.4-1
										C145.2,60.1,146.1,60.9,146.1,60.9z"/>
								</g>
							</g>
							<g>
								<path class="st45" d="M155.5,135.2c-0.7-0.4-0.7-1.7,0-2.2c-0.5-0.5-0.6-1.6,0-2c-1.7-3,3.3-2.7,1.4,0.1
									c0.5,0.5,0.4,1.6-0.1,2c0.6,0.5,0.6,1.6,0,2.1c0.6,0.4,0.7,1.6,0.1,2.1c0.6,0.4,0.6,1.6,0.1,2c2.1,2.9-3.2,3.1-1.3,0.1
									c-0.6-0.4-0.6-1.6-0.1-2C154.9,136.8,154.9,135.6,155.5,135.2z"/>
							</g>
							<g>
								<defs>
									<path id="SVGID_103_" d="M155.5,135.2c-0.7-0.4-0.7-1.7,0-2.2c-0.5-0.5-0.6-1.6,0-2c-1.7-3,3.3-2.7,1.4,0.1
										c0.5,0.5,0.4,1.6-0.1,2c0.6,0.5,0.6,1.6,0,2.1c0.6,0.4,0.7,1.6,0.1,2.1c0.6,0.4,0.6,1.6,0.1,2c2.1,2.9-3.2,3.1-1.3,0.1
										c-0.6-0.4-0.6-1.6-0.1-2C154.9,136.8,154.9,135.6,155.5,135.2z"/>
								</defs>
								<clipPath id="SVGID_104_">
									<use xlink:href="#SVGID_103_"  style="overflow:visible;"/>
								</clipPath>
								<path class="st74" d="M155.7,128.7c0,0,1.4,0.8,0.1,2.3c0,0,1.1,1-0.1,2c0,0,0.9,0.8,0.1,2.1c0,0,0.8,1.3,0.1,2
									c0,0,0.9,1.1-0.1,2.1c2,1.7-3,3.8,1.8,3c0,0,1.5-1.2,1.5-1.2l-0.1-10.8l-1.2-2.2l-2.5,0.4L155.7,128.7z"/>
								<path class="st74" d="M156.3,129c-0.8-0.5-1.3,1.8-0.6,1.9c-0.6,0.2-0.2,1.9,0.1,2.1c-0.7,0.2-0.7,2,0.1,2.1
									c0,0-1,1.1,0,2.1c-0.3,0.4-0.6,1.1,0.1,2.1c-0.2,0.4-0.9,1.2,0,2.2c-2-0.4-2.3-1.1-2.3-1.1l-0.8-9.7l1.1-2.4l1.8-0.1
									L156.3,129z"/>
							</g>
							<path class="st45" d="M162.2,110.9c0.1-2-9.2-2.5-8.7-0.4c0.1,1.1,0.9,18.6,2.7,18.7c1.8,0,3.3-13.4,4.5-18.1L162.2,110.9z"
								/>
							<g>
								<defs>
									<path id="SVGID_105_" d="M162.2,110.9c0.1-2-9.2-2.5-8.7-0.4c0.1,1.1,0.9,18.6,2.7,18.7c1.8,0,3.6-13,4.7-17.6L162.2,110.9
										z"/>
								</defs>
								<clipPath id="SVGID_106_">
									<use xlink:href="#SVGID_105_"  style="overflow:visible;"/>
								</clipPath>
								<path class="st75" d="M162.1,109.8c0,0-2-1.1-2.4,1.8c-0.4,3-2.5,16-3.3,16.1c-0.8,0.1-1.6-11.5-2-14.8
									c-0.4-3.3-0.5-3.1,0.3-3.7c0.8-0.6-2.4-0.2-2.4-0.2l-1.1,2.2c0.1,2.7,0.3,8.2,0.4,10.9c0,2.5,0.4,7.7,2.8,9.9
									c0.2,0.3,3.9-0.2,3.9-0.2l1.9-1.8c1.6-6.2,2.6-13.8,3.7-20.4L162.1,109.8z"/>
							</g>
						</g>
						<g>
							<path class="st45" d="M182.3,150.6c7.6-2.9,13.7-4.5,14.8,15.7c0,0-7.2,2.4-10.8,1.9C186.3,168.2,187.8,156.6,182.3,150.6z"
								/>
							<g>
								<defs>
									<path id="SVGID_107_" d="M182.3,150.6c7.6-2.9,13.7-4.5,14.8,15.7c0,0-7.2,2.4-10.8,1.9
										C186.3,168.2,187.8,156.6,182.3,150.6z"/>
								</defs>
								<clipPath id="SVGID_108_">
									<use xlink:href="#SVGID_107_"  style="overflow:visible;"/>
								</clipPath>
								<path class="st76" d="M183.8,153.5c6-4.3,18.5,3.2,10.8-5.2l-6.8-1.9c0,0-6.9,1.2-6.9,1.5c-0.1,0.3-0.2,3-0.2,3L183.8,153.5
									z"/>
								<path class="st76" d="M186.2,164.3c0,0,6.1,3.4,11.5-0.2c5.5-3.6,1.9,3,1.6,3.2c-4.2,1.5-11.8,3.1-16,3.2L186.2,164.3z"/>
							</g>
						</g>
					</g>
				</g>
				<path class="st77" d="M98.3,44.1c-0.8-0.2-0.1-1-0.3-1.7c-0.1-0.8-0.3-1.2-0.7-1.8c0.1-0.2,0.2-0.6,0.2-0.8
					c-0.5,0.4-5.2,0.2-4.2,1.4c-0.2,0.4,1.6,0.8,1.8,1c-0.1,1.3,0.3,2.1,0.8,2.5c0.8,0.8,0.6,1.5,1.9,2.2c3.1,1,4.1-0.4,3.8,3.9
					c-0.2,1.1-0.1,2.6-0.5,3.7c-0.1,0.9-1,0.4-1,1c0.2,0.3,0.8,0.2,1.1,0.1c0.2,0,0.1-0.4,0.3-0.5c0.5-0.1,0.2-1,0.4-1.3
					c0-0.6,0.3-1.4,0.5-1.8c0-0.7,0-1.8,0.3-2.3c0.3,0.1,0.4,1.7,0.8,1.9c0.2,0.5,1.2,3.4-0.2,3.5c-0.2,0.2,0.2,0.3,0.3,0.3
					c1.4,0.1,1-0.3,1.4-1.2c-0.7-1.2-0.5-2.5-0.8-3.9c-0.1-0.4-0.7-2-0.1-2.4c1.2,0.1,2.5-0.5,3.6-0.9c0.3,0.8,0.6,2.6,1.1,3.3
					c0.4,1.4-0.6,4.5-2,4.8c-0.2,0.6,1.1,0.5,1.4,0.4c0.3-0.2,0.1-0.4,0.2-0.6c0.6,0.1,0.6-1,0.7-1.5c0.2-1,1.7-2.3,0.9-3.2l0,0
					c-0.1-0.3-0.3-1.1-0.3-1.6c1.3,1.5,2.8,6,0.2,6.5c-0.5,0.6,1.2,0.8,1.5,0.5c0.1-0.4,0-0.6,0.5-0.7c0.3-0.6,0-1.6,0.2-2.2
					c0.1-0.8,0.7-1.9-0.1-2.5c0,0,0,0,0,0c-0.1-0.5-0.3-2.5-0.1-2.5c0.1,0,0.4,0.3,0.5,0c-0.6-4.2-2-4.1-4.6-6.9
					c-1.6-1.9-4.6,0.8-5.1,1.4c-1.6,0.5-1.7,0.9-1.9,1.3C100.2,44.2,99.2,44.8,98.3,44.1z"/>
				<path class="st2" d="M82.3,67.6c-1.1,1.3-0.2,3.4,0.5,4.6c-0.3,0-0.9,0.1-1-0.3c0.1-1.5-2.2-3.3-0.9-4.4c-1.5,0.6-1,3.4-0.6,4.7
					c-1.6,0.3-0.8-2.3-1.3-3.3c-0.2-1.4,0.7-2.8-0.2-4.1c0,0,0,0-0.1,0c-0.3,1.3,0.5,3.9-0.8,4.6c1.2-2.2-1.1-6.7,1.9-7.5
					c4.3,0.1,8.6,0.1,12.7,0c0.4-0.1,0.9-0.8,1.3-0.3c0.8,0.1,1.8-0.5,0.8,0.8c-0.1,0.9,0.8,1.4,1.1,2.1c0,0.6-0.8,0.8-1.1,0.4
					c-3.1-1.6-1.9,3.1-4.4,3.4c0-0.4,0.1-0.8,0.1-1.1c0,0,0,0,0,0c-0.4,1.6-1.7,3.5-0.6,5.1c-0.4-0.1-1,0.2-1-0.3c0-1-0.3-2-0.3-2.9
					c-0.2,1.2-1.5,2-0.6,3.2c-2.1,0.2,0.2-3.1-0.2-4.4C85.8,68,84,68.4,82.3,67.6z"/>
				<path class="st4" d="M59.9,65.5c-0.8,0-0.4-0.6,0-0.6c0.1-0.2,0.5,0.1,0.8,0.1c0.2,0,0.3,0.1,0.3,0.3c-0.1,0.4,0.2,0.4,0.4,0.7
					c-0.2,0.1-0.4,0.1-0.5,0.1c0.2,0.5,0.1,0.7-0.4,0.8c0.4,2,0.2,4.8-2.3,5c0.1,0,0.2,0,0.2,0c-0.3,0.4-0.7,1.5,0,1.6
					c0.2,0,0.5,0,0.7,0.2c0,0,0,0,0,0.1c-0.6,0-1.2,0-1.8-0.1c1.1-1.7-1.4-1.9-2-3.2c-0.5-1-2.3-1.7-1.7-2.9
					c-0.4-1.7,1.4-1.3,2.1-0.2C57.6,69.1,59.1,67.4,59.9,65.5z"/>
				<g>
					<g>
						<g>
							<defs>
								<path id="SVGID_109_" d="M185.1,156c0,0-5.6,1.1-9,1.9c-2.3,0.6-3,0.1-4.8-1.9c-1.9-3.2-9.6-4.7-11.7-1.5
									c0.5,0.4-13.4-4.2-14-1.7c-0.2,0.4-1.1,1.9,3,2.7c4.1,0.8,7.2,1.7,7.2,1.7s-2.6,1.5-0.4,3.3c0,0-2.3,1.9,0.7,3.4
									c0,0-1.4,1.7,1.7,3.3c3.6,3.6,12.2-0.9,14.7-1.4c1,0.1,2.1,0.2,2.9-0.4c-0.4-0.8,13.5,0.4,12.5,0.1l0.7-6.1L185.1,156z"/>
							</defs>
							<use xlink:href="#SVGID_109_"  style="overflow:visible;fill:#FCDEBC;"/>
							<clipPath id="SVGID_110_">
								<use xlink:href="#SVGID_109_"  style="overflow:visible;"/>
							</clipPath>
							<path class="st78" d="M183.1,156.5c0,0,2.1,3,1.3,6.2c-1.5,0.4-5.1,0.1-8.4,0.5c-2.3,0.2-17.2,7.2-13.7,1.3
								c0.2-0.9-0.4-1.3-0.3-1.9c0.1-1,1.2-0.9,0.8-2.1c-0.4-1.2-0.6-1.7,0.3-3.1c-2.3-3.5,1.6-2.5,3.1-3.2
								c-6.6,0.6-4.6-3.8-7.3-0.6l0.6,0.7c0,0-6.2-3.7-6.4-3.8c-3-0.1-9.1-2.3-9.3,2.9c0.6,2.9,2.1,7.9,4,10.2
								c-0.3,3.2,3.1,6.3,7.1,6.6c5.6,0.4,8.4,1.6,14,0.9c4.5-1.7,12.2-2.7,17.2-3.2c6.1-1.4,3.5-6.3,1.9-8.9c0,0-1.2-2.6-1.2-2.6
								l-2.9-2.2l-1.6,1.2L183.1,156.5z"/>
						</g>
						<g>
							<defs>
								<path id="SVGID_111_" d="M185.1,156c0,0-5.6,1.1-9,1.9c-2.3,0.6-3,0.1-4.8-1.9c-1.9-3.2-9.6-4.7-11.7-1.5
									c0.5,0.4-13.4-4.2-14-1.7c-0.2,0.4-1.1,1.9,3,2.7c4.1,0.8,7.2,1.7,7.2,1.7s-2.6,1.5-0.4,3.3c0,0-2.3,1.9,0.7,3.4
									c0,0-1.4,1.7,1.7,3.3c3.6,3.6,12.2-0.9,14.7-1.4c1,0.1,2.1,0.2,2.9-0.4c-0.4-0.8,13.5,0.4,12.5,0.1l0.7-6.1L185.1,156z"/>
							</defs>
							<clipPath id="SVGID_112_">
								<use xlink:href="#SVGID_111_"  style="overflow:visible;"/>
							</clipPath>
							<path class="st79" d="M145.7,152.1c0,0-0.7,1.3,2.9,2c6.2,1.1,12.1,4.2,12.1,4.2l-4.9-1.1l-4.9,0.5c0,0-6.7-1-6.5-1.1
								c0.2-0.1-1.1-3.4-1.1-3.4L145.7,152.1z"/>
							<path class="st79" d="M155.3,157.3c0,0,1.9,3.2,5.7,4.8c-0.9-0.2-7.2-1.7-7.9-3C153.6,158.5,154.6,157.5,155.3,157.3z"/>
							<path class="st79" d="M154.8,160.7c0,0,1.6,2.6,5.5,4.7c-0.8-0.4-6.2-2.1-7.2-2.7C153,161,153.3,161,154.8,160.7z"/>
							<path class="st79" d="M159.6,154.5c0.4,0.7,5.9,0.5,6.4-0.1c-5.4,0.7-5.4-4-6.6-0.5L159.6,154.5z"/>
						</g>
						<polygon class="st61" points="162.4,160.1 168.4,161.9 162,161.8 						"/>
						<path class="st61" d="M162,163.9c0.2,0,6.6,0.2,6.6,0.2l-6.7,0.9L162,163.9z"/>
						<polygon class="st61" points="162.8,157.4 168.8,159.3 162.4,158.4 						"/>
						<path class="st59" d="M146.1,152.7c-0.1,0.6-0.6,1.3,0.3,1.5c0.8,0.2,1.5,0.4,1.7-0.5c0.2-1,0.2-1.4-0.5-1.5
							C146.8,152.1,146.2,152.1,146.1,152.7z"/>
						<path class="st59" d="M148.8,153.3c0,0,0.4,0.5-0.3,1.1C148.5,154.3,149.6,154.1,148.8,153.3z"/>
						<path class="st59" d="M149.2,153.4c0,0,0.4,0.5-0.3,1.1C149,154.5,150.1,154.2,149.2,153.4z"/>
						<path class="st59" d="M153.1,154.2c0,0,0.4,0.5-0.3,1.1C152.9,155.3,154,155,153.1,154.2z"/>
						<path class="st59" d="M153.6,154.4c0,0,0.4,0.5-0.3,1.1C153.3,155.4,154.4,155.2,153.6,154.4z"/>
						<g>
							<g>
								<defs>
									<path id="SVGID_113_" d="M146.2,152.8c-0.9,1.3,1.1,2.5,1.6,0.9C148.5,152.3,146.6,151.7,146.2,152.8z"/>
								</defs>
								<use xlink:href="#SVGID_113_"  style="overflow:visible;fill:#FFECCF;"/>
								<clipPath id="SVGID_114_">
									<use xlink:href="#SVGID_113_"  style="overflow:visible;"/>
								</clipPath>
								<polygon class="st80" points="146,152.4 148.4,153.1 148.1,153.3 145.7,152.8 								"/>
								<polygon class="st80" points="145.7,153.3 148.2,153.8 148.1,154.3 145.3,153.7 								"/>
							</g>
						</g>
					</g>
				</g>
			</g>
		</g>
		<g>
			<path class="st81" d="M114.9,138.7c-1.1,0.1-2,3.1,0.8,1.8L114.9,138.7z"/>
			<path class="st81" d="M158.6,175l-21.2-1.1c-0.5,0-1.1-0.3-1.4-0.8l-21.7-33.2c-2.7-2.8,21.4,0.4,21.4-0.2
				c2.1-1.5,22.2,33.4,23.5,34C159.6,174.3,159.2,175,158.6,175"/>
			<path class="st81" d="M159.3,173.7c1.5,3.8-4.6,2-2.3-0.1L159.3,173.7z"/>
			<path class="st82" d="M158.2,176l-21.2-1.1c-0.5,0-1.1-0.3-1.4-0.8L114,141c-2.7-2.8,21.4,0.4,21.4-0.2
				c1.9-1.7,22.4,33.5,23.5,34C159.2,175.3,158.8,176,158.2,176"/>
			<path class="st83" d="M135.7,143.3c0.4,1.8-3.3-0.1-1.2-0.6C135,142.7,135.5,142.9,135.7,143.3z"/>
			<path class="st84" d="M137.5,156.6c1.4,3.6-5,2.8-5.8,0.5C130.3,153.5,136.7,154.2,137.5,156.6"/>
			<path class="st85" d="M134.2,172.6C134.2,172.6,134.2,172.6,134.2,172.6C134.2,172.6,134.2,172.6,134.2,172.6v-0.1"/>
			<polyline class="st86" points="144.7,153.1 150.6,162.2 150.7,162.2 144.7,153.1 144.7,153.1 			"/>
			<path class="st87" d="M115.3,143.1l6.1,9.3l10.1,3.4c1.1-2.6,6.6-0.6,6.1,2.1l13,4.3l-5.9-9.1L115.3,143.1"/>
			<path class="st88" d="M133.7,154.5c-1,0-2,0.5-2.2,1.2l6.1,2.1C138,155.9,135.6,154.6,133.7,154.5"/>
		</g>
		<g>
			<g>
				<defs>
					<path id="SVGID_115_" d="M120.4,153.9c-0.2,0.6,0.3,2.6,6,2.1c3.4-0.4,3.3-1.1,3.4-2c0-1-0.5-2.2-3.4-2
						C123.3,152.2,120.8,152.4,120.4,153.9z"/>
				</defs>
				<use xlink:href="#SVGID_115_"  style="overflow:visible;fill:#FCDEBC;"/>
				<clipPath id="SVGID_116_">
					<use xlink:href="#SVGID_115_"  style="overflow:visible;"/>
				</clipPath>
				<path class="st89" d="M120.2,153c0,0,0.2,2,5.1,1.6c4.8-0.4,4-2.1,4-2.1l1.2,0.3c1.4,2.6,0.2,2.4-1.8,3.6c-0.2,0-5,0.6-5,0.6
					l-4.9-0.6l0.2-2.4L120.2,153z"/>
			</g>
			<path class="st63" d="M124.1,160.4c-5.2-1.4,1.5-5.5,4.2-5.1c1.6-0.1,2.7,1.3,2.4,2.5c-0.2,1.1-1.9,1.4-1.9,1.4l-3.7,1.5
				L124.1,160.4z"/>
			<g>
				<defs>
					<path id="SVGID_117_" d="M124.1,160.4c-6.9-2.4,7-8.6,6.6-2.6c-0.2,1.1-1.9,1.4-1.9,1.4l-3.7,1.5L124.1,160.4z"/>
				</defs>
				<clipPath id="SVGID_118_">
					<use xlink:href="#SVGID_117_"  style="overflow:visible;"/>
				</clipPath>
				<path class="st90" d="M122.3,158c-0.1,2,9-1.2,8.2-1.9c0-0.3,0.6-0.1,0.8,0c1.6,1.9-0.3,2.6-1.9,3.8c-0.5,0.2-4.9,1-5.4,1.1
					c-0.5,0-3.4,0-3.4-0.2c0-0.1,0.5-2.1,0.5-2.1L122.3,158z"/>
			</g>
			<path class="st63" d="M125,163.7c-6.9-2,7.3-8.9,6.4-2.5c-0.9,2-3.9,1.9-5.4,2.8L125,163.7z"/>
			<g>
				<defs>
					<path id="SVGID_119_" d="M125,163.7c-6.9-2.3,7.2-8.8,6.4-2.5c-0.9,2-3.9,1.9-5.4,2.8L125,163.7z"/>
				</defs>
				<clipPath id="SVGID_120_">
					<use xlink:href="#SVGID_119_"  style="overflow:visible;"/>
				</clipPath>
				<path class="st91" d="M123.1,161.4c0,0,0.4,1.7,4,0.7c3.6-1,4.4-2.5,4.4-2.5l0.7,0.3c1.2,1.7-0.5,2.6-1.7,3.7
					c-1.9,0.5-5.6,0.7-7.3,0.8C122.7,163.7,122.9,162.1,123.1,161.4z"/>
			</g>
			<g>
				<defs>
					<path id="SVGID_121_" d="M124.6,165.5c0,1.9,8.1-0.1,6.7-2.3C130.8,160.9,124,163.6,124.6,165.5z"/>
				</defs>
				<use xlink:href="#SVGID_121_"  style="overflow:visible;fill:#FCDEBC;"/>
				<clipPath id="SVGID_122_">
					<use xlink:href="#SVGID_121_"  style="overflow:visible;"/>
				</clipPath>
				<path class="st92" d="M124.4,165c0.9,1.5,7.1-1.3,7.2-2l0.6,0.3c1,1.2-1.6,2.6-2.5,3.3c-0.4,0.1-4.7,1.2-4.7,1.2l-1.3-0.5
					L124.4,165z"/>
			</g>
			<path class="st61" d="M129.1,153.8c0.3-1.8-2.5-1.7-2.4,0C126.5,155.6,129,155,129.1,153.8z"/>
			<path class="st61" d="M130.1,156.7c-0.1-1.6-3-1-2.2,0.6C128.3,159.1,130.4,157.8,130.1,156.7z"/>
			<path class="st61" d="M131,160.2c0-1.6-2.9-1.3-2.3,0.5C129,162.5,131.3,161.4,131,160.2z"/>
			<path class="st61" d="M131,163.7c-0.1-1.8-2.4-1.4-2.1,0.2C128.9,165.3,131.2,165,131,163.7z"/>
			<path class="st93" d="M128.9,154.3c0.4-1.7-2-2.1-1.9-0.3C126.8,155.6,128.9,155.5,128.9,154.3z"/>
			<path class="st93" d="M130,157c-0.2-1.7-2.6-1.2-1.9,0.4C128.5,159,130.5,158.2,130,157z"/>
			<path class="st93" d="M130.9,160.5c-0.1-1.7-2.5-1.5-1.9,0.2C129.2,162.4,131.3,161.7,130.9,160.5z"/>
			<path class="st93" d="M130.8,163.8c0-1.5-2.1-1.4-1.7,0.1C129.3,165.4,131.1,164.9,130.8,163.8z"/>
			<path class="st59" d="M125.5,153.6c0,0-0.4,0.9,0.3,1.3C125.8,154.8,124.5,154.5,125.5,153.6z"/>
			<path class="st59" d="M125,153.6c0,0-0.4,0.9,0.3,1.3C125.3,154.8,124,154.5,125,153.6z"/>
			<path class="st59" d="M124.5,153.6c0,0-0.4,0.9,0.3,1.3C124.8,154.9,123.5,154.6,124.5,153.6z"/>
			<path class="st59" d="M126.8,157c0,0-0.2,1,0.5,1.2C127.3,158.2,126,158.2,126.8,157z"/>
			<path class="st59" d="M126.3,157.1c0,0-0.2,1,0.5,1.2C126.9,158.3,125.6,158.3,126.3,157.1z"/>
			<path class="st59" d="M127.8,160.5c0,0-0.2,1,0.5,1.2C128.3,161.7,127,161.7,127.8,160.5z"/>
			<path class="st59" d="M127.3,160.6c0,0-0.2,1,0.5,1.2C127.8,161.8,126.5,161.8,127.3,160.6z"/>
			<path class="st59" d="M128.3,163.9c0,0-0.1,0.8,0.5,1C128.8,164.9,127.7,164.9,128.3,163.9z"/>
			<path class="st59" d="M127.9,164c0,0-0.1,0.8,0.5,1C128.4,165,127.3,165,127.9,164z"/>
			<g>
				<defs>
					<path id="SVGID_123_" d="M128.9,154.3c0.4-1.7-2-2.1-1.9-0.3C126.8,155.6,128.9,155.5,128.9,154.3z"/>
				</defs>
				<clipPath id="SVGID_124_">
					<use xlink:href="#SVGID_123_"  style="overflow:visible;"/>
				</clipPath>
				<path class="st94" d="M126.7,153.4c0.1,0,2.4-0.3,2.4-0.3l0,0.3l-2.4,0.4L126.7,153.4z"/>
				<polygon class="st94" points="126.5,154.3 129.2,153.9 129.2,154.3 126.5,154.7 				"/>
			</g>
			<g>
				<defs>
					<path id="SVGID_125_" d="M130,157c-0.2-1.7-2.6-1.2-1.9,0.4C128.5,159,130.5,158.2,130,157z"/>
				</defs>
				<clipPath id="SVGID_126_">
					<use xlink:href="#SVGID_125_"  style="overflow:visible;"/>
				</clipPath>
				<path class="st95" d="M127.7,157c0.1,0,2.2-1.1,2.2-1.1l0.1,0.3l-2.1,1.2L127.7,157z"/>
				<polygon class="st95" points="127.9,157.9 130.3,156.6 130.4,157 128.1,158.3 				"/>
			</g>
			<g>
				<defs>
					<path id="SVGID_127_" d="M130.9,160.5c-0.1-1.7-2.5-1.5-1.9,0.2C129.2,162.4,131.3,161.7,130.9,160.5z"/>
				</defs>
				<clipPath id="SVGID_128_">
					<use xlink:href="#SVGID_127_"  style="overflow:visible;"/>
				</clipPath>
				<path class="st96" d="M128.6,160.2c0.1,0,2.3-0.8,2.3-0.8l0,0.3l-2.3,0.8L128.6,160.2z"/>
				<polygon class="st96" points="128.7,161.1 131.3,160.2 131.3,160.6 128.8,161.6 				"/>
			</g>
			<g>
				<defs>
					<path id="SVGID_129_" d="M130.8,163.8c0-1.5-2.1-1.4-1.7,0.1C129.3,165.4,131.1,164.9,130.8,163.8z"/>
				</defs>
				<clipPath id="SVGID_130_">
					<use xlink:href="#SVGID_129_"  style="overflow:visible;"/>
				</clipPath>
				<path class="st97" d="M128.8,163.5c0.1,0,2.1-0.7,2.1-0.7l0,0.3l-2,0.7L128.8,163.5z"/>
				<polygon class="st97" points="128.9,164.3 131.2,163.5 131.2,163.9 129,164.7 				"/>
			</g>
		</g>
	</g>
</g>
</svg>
