<svg id="Group" xmlns="http://www.w3.org/2000/svg" xmlns:xlink="http://www.w3.org/1999/xlink" width="266" height="480" viewBox="0 0 266 480">
  <defs>
    <clipPath id="clip-path">
      <path id="Clip_79" data-name="Clip 79" d="M0,0H266V447H0Z" fill="none"/>
    </clipPath>
  </defs>
  <g id="Group_81" data-name="Group 81" opacity="0.202">
    <path id="Clip_79-2" data-name="Clip 79" d="M0,0H266V447H0Z" fill="none"/>
    <g id="Group_81-2" data-name="Group 81" clip-path="url(#clip-path)">
      <path id="Fill_78" data-name="Fill 78" d="M0,209.469c0,83.04,69.5,100.834,90.8,104.3A38.68,38.68,0,0,1,113.6,326.227a38.68,38.68,0,0,1,22.806-12.458c21.3-3.466,90.8-21.26,90.8-104.3C227.208,145.9,139.686,32.4,113.6,0,87.523,32.4,0,145.9,0,209.469" transform="translate(19.396 23.599)" fill="none"/>
      <path id="Fill_80" data-name="Fill 80" d="M133,437.283a9.485,9.485,0,0,1-9.5-9.447V375.461a19.155,19.155,0,0,0-16.444-18.734C55.3,348.309,0,311.583,0,233.751c0-9.692,1.747-20.786,5.192-32.974a258.565,258.565,0,0,1,13.732-36.458c10.109-22.15,24.246-47.056,42.018-74.028a995.431,995.431,0,0,1,64.79-87.1,9.876,9.876,0,0,1,14.535,0,995.455,995.455,0,0,1,64.79,87.1c17.772,26.972,31.909,51.878,42.018,74.028a258.561,258.561,0,0,1,13.732,36.458c3.445,12.188,5.192,23.283,5.192,32.974,0,77.832-55.3,114.559-107.056,122.976A19.155,19.155,0,0,0,142.5,375.461v52.375A9.484,9.484,0,0,1,133,437.283Zm85.483-220.156a9.51,9.51,0,0,1,7.522,3.643,9.423,9.423,0,0,1-1.672,13.264l-66.31,51.28A39.661,39.661,0,0,0,142.5,316.887v26a39.23,39.23,0,0,1,13.386-4.809C177.26,334.61,247,316.839,247,233.751c0-27.159-15.875-66.341-47.185-116.456C174.99,77.559,147.3,41.93,133,24.228c-14.293,17.7-41.981,53.316-66.815,93.066C34.875,167.41,19,206.592,19,233.751c0,83.088,69.74,100.859,91.114,104.327a39.182,39.182,0,0,1,13.386,4.809v-26a39.661,39.661,0,0,0-15.523-31.573l-66.309-51.28a9.472,9.472,0,0,1,11.666-14.926L123.5,273.382V242.565a39.987,39.987,0,0,0-16.834-32.537L60.98,177.577a9.411,9.411,0,0,1-2.213-13.18,9.541,9.541,0,0,1,13.252-2.2l51.48,36.571V175.706a40.089,40.089,0,0,0-16.083-31.989L89.3,130.208a9.435,9.435,0,0,1,1.519-16.045,9.623,9.623,0,0,1,4.187-.963,9.447,9.447,0,0,1,5.694,1.893L123.5,132.1V94.308a9.5,9.5,0,0,1,19,0V132.1l22.8-17.005A9.472,9.472,0,0,1,171,113.2a9.613,9.613,0,0,1,4.186.963,9.427,9.427,0,0,1,1.513,16.046l-18.116,13.51A40.109,40.109,0,0,0,142.5,175.706v23.061L193.981,162.2a9.434,9.434,0,0,1,5.5-1.756,9.565,9.565,0,0,1,7.751,3.957,9.412,9.412,0,0,1-2.214,13.18l-45.676,32.451A39.974,39.974,0,0,0,142.5,242.565v30.817l70.168-54.275A9.431,9.431,0,0,1,218.483,217.127Z" transform="translate(0 0)" fill="#003c51"/>
    </g>
  </g>
  <circle id="Oval" cx="9.5" cy="9.5" r="9.5" transform="translate(124 461)" fill="#003c51" opacity="0.202"/>
</svg>
