<svg xmlns="http://www.w3.org/2000/svg" width="169.726" height="25.152" viewBox="0 0 169.726 25.152">
  <path id="دليلالمزارعين" d="M143.166,24.512a2.069,2.069,0,0,1-.64-1.569,2.185,2.185,0,0,1,2.176-2.175,2.167,2.167,0,0,1,1.536.64,2.114,2.114,0,0,1,.671,1.535,2.195,2.195,0,0,1-3.744,1.569Zm-4.9,0a2.069,2.069,0,0,1-.64-1.569,2.1,2.1,0,0,1,.64-1.535,2.2,2.2,0,0,1,1.569-.64,2.185,2.185,0,0,1,2.175,2.175,2.069,2.069,0,0,1-.64,1.569,2.1,2.1,0,0,1-1.535.64A2.133,2.133,0,0,1,138.27,24.512Zm-111.646,0a2.069,2.069,0,0,1-.64-1.569,2.185,2.185,0,0,1,2.176-2.175,2.167,2.167,0,0,1,1.536.64,2.114,2.114,0,0,1,.671,1.535,2.195,2.195,0,0,1-3.744,1.569Zm-4.9,0a2.069,2.069,0,0,1-.64-1.569,2.1,2.1,0,0,1,.64-1.535,2.2,2.2,0,0,1,1.568-.64,2.185,2.185,0,0,1,2.176,2.175,2.069,2.069,0,0,1-.64,1.569,2.1,2.1,0,0,1-1.536.64A2.132,2.132,0,0,1,21.728,24.512ZM119.07,22.24a9.456,9.456,0,0,1-2.528-6.688,6.2,6.2,0,0,1,.928-3.584,3.1,3.1,0,0,1,2.72-1.409h2.3a7.077,7.077,0,0,0-1.887,2.592,5.937,5.937,0,0,0-.544,2.368,5.73,5.73,0,0,0,1.376,3.809,4.515,4.515,0,0,0,3.584,1.7,4.742,4.742,0,0,0,3.968-1.664q1.5-1.887,1.5-6.208V0h1.569q2.815,0,2.815,2.848V14.88a4.373,4.373,0,0,0,2.176.384h2.176q1.536-.1,1.536-1.792V8.032H142.3a2.489,2.489,0,0,1,2.816,2.816V12.64a2.673,2.673,0,0,0,.736,1.984,3.632,3.632,0,0,0,2.4.64h.288q1.5-.1,1.5-1.792V.032h1.568q2.849,0,2.848,2.815V13.632a5.41,5.41,0,0,1-1.408,3.9A5.805,5.805,0,0,1,148.83,19.2h-1.536v-.007a6.386,6.386,0,0,1-3.968-1.273,6.222,6.222,0,0,1-3.808,1.28H136.03l-.607-.032a4.3,4.3,0,0,1-1.248-.288,8.942,8.942,0,0,1-2.687,4.192,9.022,9.022,0,0,1-5.984,1.951A8.368,8.368,0,0,1,119.07,22.24Zm-116.542,0A9.456,9.456,0,0,1,0,15.552a6.2,6.2,0,0,1,.928-3.584,3.1,3.1,0,0,1,2.72-1.409h2.3a7.077,7.077,0,0,0-1.887,2.592A5.937,5.937,0,0,0,3.52,15.52,5.73,5.73,0,0,0,4.9,19.328a4.515,4.515,0,0,0,3.584,1.7,4.742,4.742,0,0,0,3.968-1.664q1.5-1.887,1.5-6.208V8.032H15.52q2.816,0,2.816,2.849v4a4.373,4.373,0,0,0,2.176.384h2.176q1.536-.1,1.536-1.792V8.032H25.76a2.489,2.489,0,0,1,2.816,2.816V12.64a2.672,2.672,0,0,0,.736,1.984,3.632,3.632,0,0,0,2.4.64h2.432a7.345,7.345,0,0,1-.481-2.72A7.474,7.474,0,0,1,35.328,7.52,6.089,6.089,0,0,1,40.192,5.44a6.223,6.223,0,0,1,3.392.929,4.273,4.273,0,0,1,2.048,3.039,3.647,3.647,0,0,1-.319,1.633l-.928,2.144a6.732,6.732,0,0,0-2.3-3.552,4.533,4.533,0,0,0-1.217-.576A3.237,3.237,0,0,0,39.9,8.9q-2.3,0-2.3,3.233,0,2.336,1.056,3.136h8.033v1.824A2.005,2.005,0,0,1,46.08,18.5a2.036,2.036,0,0,1-1.568.7H31.072a6.6,6.6,0,0,1-4.288-1.279,6.222,6.222,0,0,1-3.808,1.28H19.488l-.608-.032a4.3,4.3,0,0,1-1.248-.288,8.936,8.936,0,0,1-2.688,4.192A9.018,9.018,0,0,1,8.96,25.024,8.368,8.368,0,0,1,2.528,22.24Zm61.6,1.632a1.976,1.976,0,0,1-.8-1.663V20.48l.864.1.224.032c.342.042.523.064.545.064A1.5,1.5,0,0,0,66.432,20a4.555,4.555,0,0,0,.288-1.984V8.032h1.7a2.785,2.785,0,0,1,2.08.641,3.382,3.382,0,0,1,.544,2.175v4.416h2.881a3.379,3.379,0,0,0,2.463-.7,3.854,3.854,0,0,0,.64-2.463,6.741,6.741,0,0,1,1.665-4.608A5.949,5.949,0,0,1,83.3,5.5a6.021,6.021,0,0,1,4.833,2.08,7.375,7.375,0,0,1,1.663,4.991,2.636,2.636,0,0,0,.7,2.08,3.639,3.639,0,0,0,2.367.608h.865q1.5-.1,1.5-1.792V.032H96.8q2.847,0,2.848,2.815V13.632a5.41,5.41,0,0,1-1.408,3.9A5.808,5.808,0,0,1,94.016,19.2H92.353a6.651,6.651,0,0,1-4.7-1.5,6.312,6.312,0,0,1-4.1,1.5A6.4,6.4,0,0,1,79.2,17.631,7.126,7.126,0,0,1,74.4,19.2H70.88v.736A4.432,4.432,0,0,1,69.632,23.1,4.544,4.544,0,0,1,66.24,24.48,3.4,3.4,0,0,1,64.128,23.872ZM80.9,12.576c0,2.123.807,3.2,2.4,3.2,1.72,0,2.592-1.217,2.592-3.617,0-2.122-.786-3.2-2.336-3.2C81.789,8.96,80.9,10.177,80.9,12.576Zm-30.687,11.3a1.974,1.974,0,0,1-.8-1.663V20.48a8.507,8.507,0,0,0,1.088.128l.383.064h.16a1.559,1.559,0,0,0,1.44-.576,3.239,3.239,0,0,0,.288-1.664V8.032H54.5a2.672,2.672,0,0,1,2.048.641,3.246,3.246,0,0,1,.576,2.175v9.088A4.332,4.332,0,0,1,55.776,23.1,4.756,4.756,0,0,1,52.32,24.48,3.394,3.394,0,0,1,50.208,23.872ZM159.454,19.2a1.916,1.916,0,0,1-1.568-.7,2.339,2.339,0,0,1-.545-1.568V15.264h8.321a6.327,6.327,0,0,0-1.536-3.84,4.705,4.705,0,0,0-3.712-1.7,16.116,16.116,0,0,0-2.368.256l1.12-1.792A3.575,3.575,0,0,1,162.3,6.3a6.057,6.057,0,0,1,4.831,2.336l.1.128.16.193a3.939,3.939,0,0,1,.352.48,12.571,12.571,0,0,1,.864,1.471,10.781,10.781,0,0,1,1.12,4.832V19.2Zm-54.558,0a2.449,2.449,0,0,1-1.759-.671,2.854,2.854,0,0,1-.769-2.112V0h1.984a2.457,2.457,0,0,1,1.6.608,2.028,2.028,0,0,1,.769,1.568V19.2Zm-42.368,0a2.45,2.45,0,0,1-1.76-.671A2.854,2.854,0,0,1,60,16.416V0h1.984a2.459,2.459,0,0,1,1.6.608,2.027,2.027,0,0,1,.768,1.568V19.2ZM7.776,7.392a2.131,2.131,0,0,1-.64-1.568,2.132,2.132,0,0,1,.64-1.568,2.083,2.083,0,0,1,1.536-.608,2.193,2.193,0,0,1,1.568.608,2.132,2.132,0,0,1,.64,1.568,2.2,2.2,0,0,1-.64,1.568,2.132,2.132,0,0,1-1.568.64A2.1,2.1,0,0,1,7.776,7.392ZM67.04,5.76a2.132,2.132,0,0,1-.64-1.568,2.043,2.043,0,0,1,.607-1.5,2.031,2.031,0,0,1,1.536-.64,2.1,2.1,0,0,1,1.536.64,1.99,1.99,0,0,1,.64,1.5,2.132,2.132,0,0,1-.64,1.568,2.1,2.1,0,0,1-1.536.64A2.058,2.058,0,0,1,67.04,5.76Z" fill="#003c51"/>
</svg>
