<svg xmlns="http://www.w3.org/2000/svg" width="202.185" height="23.46" viewBox="0 0 202.185 23.46">
  <path id="Agriculture_Guide" data-name="Agriculture Guide" d="M-87.3,0l-6.44-15.41h-3.887L-104.064,0h4.071l1.081-2.806h6.486L-91.345,0Zm-6.394-6.072h-3.933l1.955-5.06Zm19.675-5.474H-77.7v.92a5.2,5.2,0,0,0-3.588-1.265c-3.059,0-5.635,2.484-5.635,6.118,0,3.657,2.576,6.118,5.635,6.118A5.2,5.2,0,0,0-77.7-.92v.782c0,1.817-1.449,2.645-3.105,2.645a3.107,3.107,0,0,1-2.714-1.426l-3.059,1.886C-85.448,4.83-83.447,5.75-80.8,5.75c3.749,0,6.785-1.955,6.785-5.52Zm-6.509,8.763a2.764,2.764,0,0,1-2.783-2.99,2.777,2.777,0,0,1,2.783-2.99A2.88,2.88,0,0,1-77.7-5.773,2.866,2.866,0,0,1-80.526-2.783Zm16.869-8.924a4.459,4.459,0,0,0-3.979,2.369v-2.208h-3.68V0h3.68V-3.611c0-2.99,1.4-4.324,3.979-4.324h.667l.161-3.68A3.151,3.151,0,0,0-63.657-11.707Zm4.449-5.336a2.077,2.077,0,0,0-2.116,2.093A2.012,2.012,0,0,0-59.208-12.9a2.032,2.032,0,0,0,2.139-2.047A2.1,2.1,0,0,0-59.208-17.043ZM-57.368,0V-11.546h-3.68V0Zm8.428-2.875a2.694,2.694,0,0,1-2.76-2.9,2.707,2.707,0,0,1,2.76-2.9A2.382,2.382,0,0,1-46.5-6.624l3.45-.828a5.875,5.875,0,0,0-5.888-4.439,6.072,6.072,0,0,0-6.3,6.118,6.058,6.058,0,0,0,6.3,6.118,5.8,5.8,0,0,0,5.888-4.508L-46.434-4.9A2.476,2.476,0,0,1-48.941-2.875Zm19.376-8.671h-3.68v5.359c0,2.231-.943,3.22-2.392,3.22a2.036,2.036,0,0,1-1.978-2.277v-6.3h-3.657v7.084c0,2.9,1.794,4.807,4.485,4.807A4.761,4.761,0,0,0-33.245-1.1V0h3.68Zm6.22-6.164h-3.68V-3.657a3.773,3.773,0,0,0,3.979,4,5.428,5.428,0,0,0,2.714-.713l-.575-2.875a4.757,4.757,0,0,1-1.334.322,1,1,0,0,1-1.1-1.012ZM-11.905-3.4a3.76,3.76,0,0,1-1.679.46c-.966,0-1.541-.483-1.541-1.679v-4h3.4v-2.921h-3.4V-15.41h-3.68v3.864H-20.9v2.921h2.093v4.37c0,3.036,1.725,4.6,4.6,4.6a6.268,6.268,0,0,0,3.151-.851ZM1.7-11.546h-3.68v5.359c0,2.231-.943,3.22-2.392,3.22A2.036,2.036,0,0,1-6.353-5.244v-6.3H-10.01v7.084c0,2.9,1.794,4.807,4.485,4.807A4.761,4.761,0,0,0-1.983-1.1V0H1.7Zm10.36-.161A4.459,4.459,0,0,0,8.078-9.338v-2.208H4.4V0h3.68V-3.611c0-2.99,1.4-4.324,3.979-4.324h.667l.161-3.68A3.151,3.151,0,0,0,12.057-11.707ZM25.728-5.773a5.855,5.855,0,0,0-5.957-6.118,5.973,5.973,0,0,0-6.118,6.118,5.954,5.954,0,0,0,6.1,6.118,5.739,5.739,0,0,0,5.727-3.611l-3.266-.667A2.564,2.564,0,0,1,19.748-2.6,2.549,2.549,0,0,1,17.264-4.83h8.464ZM19.771-8.9a2.307,2.307,0,0,1,2.323,1.817H17.333A2.529,2.529,0,0,1,19.771-8.9Zm20.443-.184v3.22h4.715a4.042,4.042,0,0,1-4.071,2.76,4.47,4.47,0,0,1-4.531-4.6,4.412,4.412,0,0,1,4.416-4.577,3.968,3.968,0,0,1,3.864,2.208l3.657-1.058c-1.081-3.013-4.094-4.623-7.521-4.623a8.057,8.057,0,0,0-8.234,8.05,8.074,8.074,0,0,0,8.3,8.05,7.719,7.719,0,0,0,7.981-8.027,11.223,11.223,0,0,0-.092-1.4Zm22.3-2.461h-3.68v5.359c0,2.231-.943,3.22-2.392,3.22a2.036,2.036,0,0,1-1.978-2.277v-6.3H50.8v7.084c0,2.9,1.794,4.807,4.485,4.807A4.761,4.761,0,0,0,58.831-1.1V0h3.68Zm4.725-5.5a2.077,2.077,0,0,0-2.116,2.093A2.012,2.012,0,0,0,67.236-12.9a2.032,2.032,0,0,0,2.139-2.047A2.1,2.1,0,0,0,67.236-17.043ZM69.076,0V-11.546H65.4V0ZM84.1-17.71h-3.68v7.084a5.2,5.2,0,0,0-3.588-1.265c-3.059,0-5.635,2.484-5.635,6.118,0,3.657,2.576,6.118,5.635,6.118A5.2,5.2,0,0,0,80.424-.92V0H84.1ZM77.6-2.783a2.764,2.764,0,0,1-2.783-2.99A2.777,2.777,0,0,1,77.6-8.763a2.88,2.88,0,0,1,2.829,2.99A2.866,2.866,0,0,1,77.6-2.783Zm20.526-2.99a5.855,5.855,0,0,0-5.957-6.118,5.973,5.973,0,0,0-6.118,6.118,5.954,5.954,0,0,0,6.1,6.118,5.739,5.739,0,0,0,5.727-3.611L94.6-3.933A2.564,2.564,0,0,1,92.141-2.6,2.549,2.549,0,0,1,89.657-4.83h8.464ZM92.164-8.9a2.307,2.307,0,0,1,2.323,1.817H89.726A2.529,2.529,0,0,1,92.164-8.9Z" transform="translate(104.064 17.71)" fill="#003c51"/>
</svg>
