<svg xmlns="http://www.w3.org/2000/svg" viewBox="0 0 244.28 46.05"><defs><style>.cls-1{fill:#5b6670;}</style></defs><title>Asset 3</title><g id="Layer_2" data-name="Layer 2"><g id="Layer_1-2" data-name="Layer 1"><path class="cls-1" d="M35.52,29.15H32a5.48,5.48,0,0,1-4.21-1.85,7.32,7.32,0,0,1-1.72-3.22q-1.61-7.54-6.32-7.48c-2.41,0-4.09,1.55-5.07,4.51H23V26.4A12,12,0,0,1,19.61,35a10.64,10.64,0,0,1-8,3.57,10.68,10.68,0,0,1-8-3.57,12,12,0,0,1-3.36-8.6c0-1.08-.08-2.8-.17-5.25H4.52c0,.73,0,1.77,0,3s.08,2,.08,2.28A7.16,7.16,0,0,0,7,32a6.54,6.54,0,0,0,4.51,1.85A6.44,6.44,0,0,0,16.12,32a7.32,7.32,0,0,0,2.33-5.67l-.05-1H9.25c0-4.35.94-7.66,2.83-10A9.21,9.21,0,0,1,19.56,12a9.23,9.23,0,0,1,8,4,21.32,21.32,0,0,1,2.58,6.28A3.34,3.34,0,0,0,33.58,25h1.94ZM11.05,46.05H6.92V41.71h4.13Zm6.24,0H13.16V41.71h4.13Z"/><path class="cls-1" d="M55.13,29.15H34.49V25h7a4.73,4.73,0,0,1-.9-1.33,7.7,7.7,0,0,1-1-3.78A6.24,6.24,0,0,1,42,14.58a7.57,7.57,0,0,1,5-1.68A7.46,7.46,0,0,1,53,15.69L50.61,19a4.09,4.09,0,0,0-3.18-1.64,3,3,0,0,0-3.14,3.23c0,2.75,2,4.34,4.94,4.34h4.39Z"/><path class="cls-1" d="M65.45,29.15H60.93L60.72,1.33h4.51Z"/><path class="cls-1" d="M64.71,34.92a9.59,9.59,0,0,0,6.63-2.54,8.8,8.8,0,0,0,2.83-6.75l-.08-12.17h4.6l.08,11.69a13.82,13.82,0,0,1-3.09,9.25,11.15,11.15,0,0,1-8.13,4.08C66.91,37.62,66,36.42,64.71,34.92Z"/><path class="cls-1" d="M78,34.92c5.42-.09,9.42-3.92,9.42-9.29V13.46H92v7.18C92.23,23,94,25,95.76,25h4.77v4.17H96.06a4.5,4.5,0,0,1-4-2.66c-.43,6.71-4.9,11.48-11.18,12C80.24,37.62,79.29,36.42,78,34.92ZM91.72,10H87.55V5.63h4.17Z"/><path class="cls-1" d="M110.08,23.56c0,3.44-2.07,5.59-5.81,5.59H99.72V25h2.92a2.74,2.74,0,0,0,2.92-3c0-2.67,0-6.11-.08-10.32,0-4.78-.09-8.26-.09-10.37h4.52c0,2,0,5.68.08,11.14C110,17.11,110.08,20.81,110.08,23.56Z"/><path class="cls-1" d="M120.4,29.15h-4.52l-.21-27.82h4.51Z"/><path class="cls-1" d="M154,29.15H135L137.17,25h12a9.13,9.13,0,0,0-2.49-5.67,5.06,5.06,0,0,0-3.49-1.77V13.46a9.26,9.26,0,0,1,7.92,3.83C153,20,154,24,154,29.15Z"/><path class="cls-1" d="M169.5,29.15h-5.29a4.21,4.21,0,0,1-3.05-1.24,5.09,5.09,0,0,1-1.46-3.83l-.13-22.75h4.56l.17,20.94c0,1.55.77,2.71,2,2.71h3.22Z"/><path class="cls-1" d="M201.11,22.7c-.05,4.6-2.07,7-6.15,7.05a5.81,5.81,0,0,1-5.72-3.39,5.57,5.57,0,0,1-5.5,3.39,6,6,0,0,1-5-2.23v1.63h-10l0-4.17h5.5c0-5.8-.08-9.2-.13-10.27h4.56v6.4a4.9,4.9,0,0,0,1.25,3.06,3.64,3.64,0,0,0,2.79,1.16c1.77,0,2.63-1,2.63-2.93,0-.6,0-3.18-.05-7.69h4.52c0,1.2,0,3.13.08,5.84a5.14,5.14,0,0,0,1.25,3.62,3.64,3.64,0,0,0,2.79,1.16c1.77,0,2.63-.95,2.63-2.88,0,.12,0-2.84-.05-9h4.56ZM186.44,10h-4.17V5.63h4.17Zm3.1-5.68h-4.13V0h4.13ZM192.68,10h-4.17V5.63h4.17Z"/><path class="cls-1" d="M200.59,34.92a9.57,9.57,0,0,0,6.62-2.54,8.8,8.8,0,0,0,2.84-6.75L210,13.46h4.61l.08,11.69a13.82,13.82,0,0,1-3.09,9.25,11.17,11.17,0,0,1-8.13,4.08C202.78,37.62,201.84,36.42,200.59,34.92Z"/><path class="cls-1" d="M225.87,38.14h-7.65l1-2.11h1.85a2.27,2.27,0,0,1-.39-1.33,2.91,2.91,0,0,1,2.84-3.05,2.78,2.78,0,0,1,2.28,1.2l-1,1.59a1.68,1.68,0,0,0-1.16-.56c-.52,0-.78.35-.78,1s.56,1.16,1.64,1.16h1.41ZM234,20.73a7.28,7.28,0,0,1-3.14,6.1,13,13,0,0,1-8,2.32h-3.65V25h1.89a10.74,10.74,0,0,0,5.25-1.2,5.42,5.42,0,0,0,3.05-5.08c0-.12-.09-5.89-.26-17.37h4.6Zm-8.47-.22c-.86,1.07-2.93,1.51-4.52,1.63l-.21-20.81h4.51Z"/><path class="cls-1" d="M244.28,29.15h-4.52l-.21-27.82h4.51Z"/></g></g></svg>