<svg xmlns="http://www.w3.org/2000/svg" viewBox="0 0 311.88 36.12"><defs><style>.cls-1{fill:#5b6670;}</style></defs><title>Asset 4</title><g id="Layer_2" data-name="Layer 2"><g id="Layer_1-2" data-name="Layer 1"><path class="cls-1" d="M14.56.53l9.3,27.35H18.41l-1.68-5.7H7.09l-1.72,5.7H0L9.23.53Zm-2.67,6L8.4,17.71h7Z"/><path class="cls-1" d="M45.76,12h-4a6.4,6.4,0,0,1,1,3.49,5,5,0,0,1-3,4.88c-1.35.57-1.48.57-5.7,1-1.15.08-1.93.57-1.93,1.15,0,.74.25.82,4.27,1.23,3.36.29,5,.65,6.15,1.31A5.07,5.07,0,0,1,45,29.6c0,4.14-3.57,6.52-9.68,6.52s-9.72-2.21-9.72-5.74c0-2.21,1.19-3.61,3.94-4.55-1.56-.62-2.17-1.27-2.17-2.34,0-1.31.94-2.13,3.44-3.11a5.56,5.56,0,0,1-3.32-5.54c0-4.18,3.16-6.84,8.12-6.84a13.34,13.34,0,0,1,3.73.53l6.44-.13ZM29.89,30c0,1.56,2,2.5,5.45,2.5,3.08,0,4.8-.86,4.8-2.42s-2-2.54-5.45-2.54C31.65,27.51,29.89,28.41,29.89,30ZM31.82,14.8c0,1.72,1.31,2.87,3.36,2.87s3.4-1.15,3.4-2.87a3,3,0,0,0-3.32-3C33.17,11.81,31.82,13,31.82,14.8Z"/><path class="cls-1" d="M53.55,8.4a13.91,13.91,0,0,1,.32,3c0,.2,0,.57,0,1C55.39,9.31,57.07,8,59.45,8A5.09,5.09,0,0,1,61,8.24v5.13a5.5,5.5,0,0,0-3-.95c-2.66,0-3.89,2.05-3.89,6.4v9.06H49V14.39c0-.86,0-2,0-3.44a13.44,13.44,0,0,0-.2-2.55Z"/><path class="cls-1" d="M69.58,2.91a2.75,2.75,0,0,1-2.91,3,2.71,2.71,0,0,1-3-2.87,2.85,2.85,0,0,1,3-3A2.74,2.74,0,0,1,69.58,2.91ZM69.17,8.4V27.88h-5V8.4Z"/><path class="cls-1" d="M85.89,14.84c-.28-1.92-1.35-2.91-3.11-2.91-2.58,0-4.27,2.46-4.27,6.23s1.56,6.19,4.19,6.19c2,0,3.11-1.1,3.4-3.4H91c-.25,4.47-3.57,7.46-8.28,7.46-5.58,0-9.35-4.14-9.35-10.25S77.12,7.87,82.78,7.87c4.63,0,7.46,2.46,8.08,7Z"/><path class="cls-1" d="M100.08,8.4V19.47c0,3.08,1,4.39,3.32,4.39,2.58,0,3.85-1.64,3.85-5V8.4h5V21.85c0,4.31,0,4.31.49,6H108a7.55,7.55,0,0,1-.41-2.26,6.2,6.2,0,0,1-5.45,2.67,7,7,0,0,1-6.11-3.12,11,11,0,0,1-1-5.41V8.4Z"/><path class="cls-1" d="M123,.37V27.88h-5V.37Z"/><path class="cls-1" d="M138.87,8.4v3.94h-4.06l-.13,7.5c0,1,0,1,0,1.32,0,2.09.45,2.7,2,2.7a7.38,7.38,0,0,0,2.91-.65v4.18a11.7,11.7,0,0,1-4.47.9,5.28,5.28,0,0,1-4.84-2.46c-.61-1-.77-1.89-.77-4l0-1.92.28-7.59h-3V8.4H130l.12-5.61H135l-.08,5.61Z"/><path class="cls-1" d="M148.17,8.4V19.47c0,3.08,1,4.39,3.32,4.39,2.59,0,3.86-1.64,3.86-5V8.4h5V21.85c0,4.31,0,4.31.49,6h-4.75a7,7,0,0,1-.41-2.26,6.23,6.23,0,0,1-5.46,2.67,7,7,0,0,1-6.11-3.12,11,11,0,0,1-1-5.41V8.4Z"/><path class="cls-1" d="M170.56,8.4a13.87,13.87,0,0,1,.33,3,8.91,8.91,0,0,1,0,1C172.4,9.31,174.08,8,176.46,8a5,5,0,0,1,1.52.24v5.13a5.47,5.47,0,0,0-3-.95c-2.67,0-3.9,2.05-3.9,6.4v9.06h-5V14.39c0-.86,0-2,0-3.44a13.44,13.44,0,0,0-.21-2.55Z"/><path class="cls-1" d="M185,19.35c.16,3.2,1.89,5,4.72,5a3.71,3.71,0,0,0,3.77-2.17l4.47.21c-.87,3.73-4.06,6-8.37,6-5.9,0-9.63-3.89-9.63-10,0-6.32,3.77-10.5,9.47-10.5,5.49,0,8.89,4,8.89,10.5v1Zm8.24-3.69c-.41-2.62-1.64-3.89-3.85-3.89s-3.61,1.27-4.27,3.89Z"/><path class="cls-1" d="M234.07,13.78V25.13a16.86,16.86,0,0,1-10,3.28c-7.79,0-12.63-5.41-12.63-14.18C211.43,5.66,216.27,0,223.65,0a10.18,10.18,0,0,1,8.24,3.69,9.35,9.35,0,0,1,1.77,5.66h-4.51c-.45-3.2-2.26-4.8-5.41-4.8-4.31,0-6.85,3.61-6.85,9.72s2.58,9.59,7.13,9.59a10.5,10.5,0,0,0,5.7-1.8V17.67h-5.45V13.78Z"/><path class="cls-1" d="M244,8.4V19.47c0,3.08,1,4.39,3.32,4.39,2.58,0,3.85-1.64,3.85-5V8.4h5.05V21.85c0,4.31,0,4.31.49,6H251.9a7.25,7.25,0,0,1-.41-2.26A6.21,6.21,0,0,1,246,28.29a7,7,0,0,1-6.11-3.12,10.83,10.83,0,0,1-1-5.41V8.4Z"/><path class="cls-1" d="M267.28,2.91a2.75,2.75,0,0,1-2.91,3,2.71,2.71,0,0,1-3-2.87,2.85,2.85,0,0,1,3-3A2.74,2.74,0,0,1,267.28,2.91Zm-.41,5.49V27.88h-5.05V8.4Z"/><path class="cls-1" d="M289.33,21.73a30.35,30.35,0,0,0,.37,6.15H285a10.07,10.07,0,0,1-.17-1.72c0-.25,0-.49,0-1a5.66,5.66,0,0,1-5.53,3.12c-4.92,0-8.28-4-8.28-10S274.49,8,279.25,8a5.63,5.63,0,0,1,5,2.54V.37h5Zm-13.16-3.4c0,3.56,1.52,5.74,4,5.74s4.18-2.3,4.18-5.95-1.47-5.9-4-5.9C277.73,12.22,276.17,14.47,276.17,18.33Z"/><path class="cls-1" d="M298.56,19.35c.16,3.2,1.88,5,4.71,5A3.7,3.7,0,0,0,307,22.18l4.47.21c-.86,3.73-4.05,6-8.36,6-5.9,0-9.64-3.89-9.64-10,0-6.32,3.78-10.5,9.48-10.5,5.49,0,8.89,4,8.89,10.5v1Zm8.24-3.69c-.41-2.62-1.64-3.89-3.85-3.89s-3.61,1.27-4.27,3.89Z"/></g></g></svg>