<svg xmlns="http://www.w3.org/2000/svg" width="44.007" height="33.339" viewBox="0 0 44.007 33.339">
  <path id="download_6_" data-name="download (6)" d="M658.334,569.985V571h18a.667.667,0,0,1,0,1.334h-18.67a.667.667,0,0,1-.667-.667v-24a.667.667,0,0,1,.667-.667h36.006a.667.667,0,0,1,.667.667V561a.667.667,0,1,1-1.334,0v-8.638l-9.925,7.72,5.015,4.13a.667.667,0,0,1-.848,1.029L682,560.923l-5.923,4.606a.667.667,0,0,1-.819,0l-5.923-4.606Zm0-17.621v15.894l9.925-8.174Zm0-1.689,17.336,13.484,17.336-13.484v-2.341H658.334Zm34.282,19.663,2.2,2.2a.667.667,0,0,1-.943.943l-3.334-3.334a.667.667,0,0,1,0-.943l3.334-3.334a.667.667,0,0,1,.943.943l-2.2,2.2h2.721a5.668,5.668,0,1,1,0,11.335h-8.663a5.668,5.668,0,0,1-1.137-11.221.667.667,0,1,1,.266,1.307,4.334,4.334,0,0,0,.871,8.581h8.663a4.334,4.334,0,1,0,0-8.668Z" transform="translate(-657 -547)" fill="#653c1c" fill-rule="evenodd"/>
</svg>
