<svg xmlns="http://www.w3.org/2000/svg" width="24" height="24" viewBox="0 0 24 24">
  <g id="Group_7" data-name="Group 7" transform="translate(-941 3720)">
    <rect id="Rectangle_4" data-name="Rectangle 4" width="24" height="24" transform="translate(941 -3720)" fill="none"/>
    <path id="Shape" d="M9,21H9L6,18H2a2,2,0,0,1-2-2V2A2,2,0,0,1,2,0H16a2,2,0,0,1,2,2V16a2,2,0,0,1-2,2H12L9,21ZM9,10a10.694,10.694,0,0,0-3.75.8C4.223,11.231,3,11.98,3,13.1V14H15v-.9c0-1.12-1.224-1.869-2.25-2.3A10.694,10.694,0,0,0,9,10ZM9,3.3A2.7,2.7,0,1,0,11.7,6,2.7,2.7,0,0,0,9,3.3Z" transform="translate(944 -3718)"/>
  </g>
</svg>
