<svg xmlns="http://www.w3.org/2000/svg" viewBox="0 0 19.11 24.82"><defs><style>.cls-1{fill:#fff;stroke:#fff;stroke-miterlimit:10;stroke-width:0.5px;}</style></defs><title>Asset 10</title><g id="Layer_2" data-name="Layer 2"><g id="Layer_1-2" data-name="Layer 1"><path class="cls-1" d="M16.86,24.57H2.25a2,2,0,0,1-2-2V10.05a2,2,0,0,1,2-2H16.86a2,2,0,0,1,2,2V22.58A2,2,0,0,1,16.86,24.57ZM2.25,8.81A1.24,1.24,0,0,0,1,10.05V22.58a1.25,1.25,0,0,0,1.25,1.24H16.86a1.25,1.25,0,0,0,1.24-1.24V10.05a1.24,1.24,0,0,0-1.24-1.24Z"/><path class="cls-1" d="M15.2,8.63a.38.38,0,0,1-.38-.37V6.08a5.08,5.08,0,0,0-10.15,0V8.26a.38.38,0,0,1-.75,0V6.08a5.83,5.83,0,1,1,11.66,0V8.26A.38.38,0,0,1,15.2,8.63Z"/><path class="cls-1" d="M9.55,17.07a1.91,1.91,0,1,1,1.91-1.91A1.92,1.92,0,0,1,9.55,17.07Zm0-3a1.11,1.11,0,1,0,1.11,1.11A1.11,1.11,0,0,0,9.55,14.05Z"/><rect class="cls-1" x="9.04" y="16.26" width="1.02" height="3.77"/></g></g></svg>