<svg xmlns="http://www.w3.org/2000/svg" xmlns:xlink="http://www.w3.org/1999/xlink" width="246" height="444" viewBox="0 0 246 444">
  <defs>
    <clipPath id="clip-path">
      <path id="Clip_79" data-name="Clip 79" d="M0,0H246V413H0Z" fill="none"/>
    </clipPath>
  </defs>
  <g id="Group" opacity="0.25">
    <g id="Group_81" data-name="Group 81" opacity="0.202">
      <path id="Clip_79-2" data-name="Clip 79" d="M0,0H246V413H0Z" fill="none"/>
      <g id="Group_81-2" data-name="Group 81" clip-path="url(#clip-path)">
        <path id="Fill_78" data-name="Fill 78" d="M0,193.536C0,270.259,64.272,286.7,83.971,289.9a35.781,35.781,0,0,1,21.091,11.51,35.781,35.781,0,0,1,21.091-11.51c19.7-3.2,83.971-19.643,83.971-96.367,0-58.738-80.942-163.6-105.062-193.536C80.942,29.932,0,134.8,0,193.536" transform="translate(17.938 21.804)" fill="none"/>
        <path id="Fill_80" data-name="Fill 80" d="M123,404.022a8.768,8.768,0,0,1-8.786-8.729V346.9a17.7,17.7,0,0,0-15.208-17.309C51.144,321.816,0,287.883,0,215.971c0-8.954,1.616-19.2,4.8-30.466A238.745,238.745,0,0,1,17.5,151.82c9.349-20.465,22.423-43.477,38.859-68.4A919.8,919.8,0,0,1,116.279,2.946a9.141,9.141,0,0,1,13.442,0A920.662,920.662,0,0,1,189.64,83.423c16.435,24.92,29.509,47.932,38.859,68.4a238.753,238.753,0,0,1,12.7,33.685c3.186,11.261,4.8,21.512,4.8,30.466,0,71.912-51.144,105.845-99.006,113.622A17.7,17.7,0,0,0,131.786,346.9v48.39A8.768,8.768,0,0,1,123,404.022Zm79.055-203.41a8.8,8.8,0,0,1,6.957,3.366,8.7,8.7,0,0,1-1.546,12.255l-61.324,47.38a36.83,36.83,0,0,0-14.356,29.171v24.022a36.293,36.293,0,0,1,12.379-4.443,121.249,121.249,0,0,0,21.506-5.62,105.746,105.746,0,0,0,28.039-15,84.25,84.25,0,0,0,24.333-28.786,90.486,90.486,0,0,0,7.577-20.943,116.03,116.03,0,0,0,2.81-26.044,94.907,94.907,0,0,0-3.537-23.959,196.159,196.159,0,0,0-9.532-26.865c-7.239-16.813-17.524-35.915-30.568-56.774C174.612,92.094,162.8,74.811,149.685,57c-11-14.93-20.579-27.065-26.684-34.615C116.9,29.924,107.327,42.049,96.316,57,83.2,74.811,71.389,92.094,61.209,108.373c-13.044,20.86-23.329,39.961-30.568,56.774a196.157,196.157,0,0,0-9.532,26.865,94.907,94.907,0,0,0-3.537,23.959,116.035,116.035,0,0,0,2.81,26.044,90.489,90.489,0,0,0,7.576,20.943A84.25,84.25,0,0,0,52.29,291.744a105.744,105.744,0,0,0,28.039,15,121.253,121.253,0,0,0,21.506,5.62,36.261,36.261,0,0,1,12.38,4.443V292.784a36.9,36.9,0,0,0-14.356-29.171l-61.324-47.38a8.726,8.726,0,0,1,5.4-15.622,8.771,8.771,0,0,1,5.388,1.83l64.892,50.146V224.115a36.9,36.9,0,0,0-15.568-30.062L56.4,164.07a8.69,8.69,0,0,1-2.048-12.177A8.829,8.829,0,0,1,66.6,149.86l47.61,33.789V162.342A36.888,36.888,0,0,0,99.34,132.786L82.586,120.3a8.715,8.715,0,0,1,1.4-14.826,8.906,8.906,0,0,1,3.872-.89,8.742,8.742,0,0,1,5.266,1.749l21.086,15.712V87.134a8.786,8.786,0,0,1,17.572,0V122.05l21.085-15.712a8.767,8.767,0,0,1,5.272-1.749,8.9,8.9,0,0,1,3.872.89,8.706,8.706,0,0,1,1.4,14.826L146.66,132.786A36.933,36.933,0,0,0,132.794,153.8a36.736,36.736,0,0,0-1.008,8.543v21.307L179.4,149.86a8.732,8.732,0,0,1,5.089-1.623,8.847,8.847,0,0,1,7.167,3.656A8.69,8.69,0,0,1,189.6,164.07l-42.242,29.984a36.814,36.814,0,0,0-15.576,30.062v28.472l64.891-50.146A8.728,8.728,0,0,1,202.055,200.612Z" transform="translate(0 0)" fill="#003c51"/>
      </g>
    </g>
    <circle id="Oval" cx="9" cy="9" r="9" transform="translate(114 426)" fill="#003c51" opacity="0.202"/>
  </g>
</svg>
