<svg id="Group_81" data-name="Group 81" xmlns="http://www.w3.org/2000/svg" xmlns:xlink="http://www.w3.org/1999/xlink" width="16" height="25" viewBox="0 0 16 25">
  <defs>
    <clipPath id="clip-path">
      <path id="Clip_79" data-name="Clip 79" d="M0,0H16V25H0Z" fill="none"/>
    </clipPath>
  </defs>
  <path id="Clip_79-2" data-name="Clip 79" d="M0,0H16V25H0Z" fill="none"/>
  <g id="Group_81-2" data-name="Group 81" clip-path="url(#clip-path)">
    <path id="Fill_80" data-name="Fill 80" d="M8,23a.555.555,0,0,1-.571-.535V21.28a1.109,1.109,0,0,0-.989-1.062C3.326,19.742,0,17.66,0,13.248,0,11.331,1.233,8.6,3.666,5.117A56.789,56.789,0,0,1,7.563.181a.619.619,0,0,1,.875,0,57.628,57.628,0,0,1,3.9,4.936C14.767,8.6,16,11.331,16,13.248c0,4.412-3.326,6.494-6.439,6.971a1.109,1.109,0,0,0-.989,1.062v1.184A.555.555,0,0,1,8,23Zm5.141-10.694a.587.587,0,0,1,.453.206.508.508,0,0,1,.116.39.526.526,0,0,1-.217.361L9.5,16.171a2.205,2.205,0,0,0-.933,1.789v1.473a2.452,2.452,0,0,1,.8-.273c1.286-.2,5.481-1.2,5.481-5.913,0-3.6-5.247-10-6.856-11.874C6.391,3.25,1.143,9.646,1.143,13.248c0,4.71,4.195,5.717,5.48,5.913a2.449,2.449,0,0,1,.806.273V17.96A2.205,2.205,0,0,0,6.5,16.171L2.507,13.264A.525.525,0,0,1,2.29,12.9a.507.507,0,0,1,.117-.39.582.582,0,0,1,.451-.206.591.591,0,0,1,.35.112l4.221,3.076V13.748A2.229,2.229,0,0,0,6.416,11.9l-2.748-1.84a.528.528,0,0,1-.233-.354.506.506,0,0,1,.1-.393A.583.583,0,0,1,4,9.093a.6.6,0,0,1,.331.1l3.1,2.073V9.958a2.23,2.23,0,0,0-.968-1.813L5.371,7.38a.526.526,0,0,1-.223-.357.508.508,0,0,1,.109-.392.6.6,0,0,1,.8-.107l1.372.964V5.345a.573.573,0,0,1,1.143,0V7.487l1.372-.964a.591.591,0,0,1,.343-.107.58.58,0,0,1,.458.215.508.508,0,0,1,.109.392.526.526,0,0,1-.223.357l-1.09.766a2.231,2.231,0,0,0-.967,1.813v1.307l3.1-2.073a.593.593,0,0,1,.331-.1.586.586,0,0,1,.466.224.506.506,0,0,1,.1.393.528.528,0,0,1-.233.354L9.585,11.9a2.228,2.228,0,0,0-1.013,1.844v1.746l4.22-3.076A.592.592,0,0,1,13.141,12.306Z" transform="translate(0 0)"/>
  </g>
</svg>
