<svg xmlns="http://www.w3.org/2000/svg" width="26" height="26" viewBox="0 0 26 26">
  <path id="Combined_Shape" data-name="Combined Shape" d="M2.784,23.038C.859,21.056,0,17.96,0,13S.859,4.944,2.784,2.962C4.774.914,7.924,0,13,0s8.227.914,10.217,2.962C25.142,4.944,26,8.04,26,13s-.859,8.057-2.784,10.039C21.227,25.087,18.076,26,13,26S4.774,25.087,2.784,23.038ZM4.273,4.3C2.679,5.9,2,8.5,2,13s.679,7.1,2.273,8.7S8.486,24,13,24s7.124-.688,8.727-2.3S24,17.5,24,13s-.68-7.1-2.273-8.7S17.514,2,13,2,5.876,2.687,4.273,4.3ZM12,18V14H8a1,1,0,0,1,0-2h4V8a1,1,0,0,1,2,0v4h4a1,1,0,0,1,0,2H14v4a1,1,0,0,1-2,0Z" fill="#000000"/>
</svg>
