<svg xmlns="http://www.w3.org/2000/svg" width="24" height="24" viewBox="0 0 24 24">
  <g id="Group_6" data-name="Group 6" transform="translate(-898 3720)">
    <rect id="Rectangle_3" data-name="Rectangle 3" width="24" height="24" transform="translate(898 -3720)" fill="none"/>
    <path id="Combined_Shape" data-name="Combined Shape" d="M2,20a2,2,0,0,1-2-2V3A2,2,0,0,1,2,1H5V0A1,1,0,0,1,6-1,1,1,0,0,1,7,0V1h6V0a1,1,0,0,1,1-1,1,1,0,0,1,1,1V1h3a2,2,0,0,1,2,2V18a2,2,0,0,1-2,2Zm0-2H18V8H2ZM18,6V3H2V6Zm-4,9a1,1,0,1,1,1,1A1,1,0,0,1,14,15ZM9,15a1,1,0,1,1,1,1A1,1,0,0,1,9,15ZM4,15a1,1,0,1,1,1,1A1,1,0,0,1,4,15Zm10-4a1,1,0,1,1,1,1A1,1,0,0,1,14,11ZM9,11a1,1,0,1,1,1,1A1,1,0,0,1,9,11ZM4,11a1,1,0,1,1,1,1A1,1,0,0,1,4,11Z" transform="translate(900 -3717)"/>
  </g>
</svg>
