<svg xmlns="http://www.w3.org/2000/svg" xmlns:xlink="http://www.w3.org/1999/xlink" width="24" height="24" viewBox="0 0 24 24">
  <defs>
    <clipPath id="clip-path">
      <rect id="Rectangle_1" data-name="Rectangle 1" width="24" height="24" transform="translate(809 -3717)" fill="#fff"/>
    </clipPath>
  </defs>
  <g id="Mask_Group_4" data-name="Mask Group 4" transform="translate(-809 3717)" clip-path="url(#clip-path)">
    <g id="ic-home" transform="translate(809 -3717)">
      <path id="Path_1" data-name="Path 1" d="M19.969,23.249H4.031a2.159,2.159,0,0,1-2.156-2.156V9.748a.75.75,0,1,1,1.5,0V21.093a.657.657,0,0,0,.656.656H19.969a.657.657,0,0,0,.656-.656V9.748a.75.75,0,1,1,1.5,0V21.093A2.159,2.159,0,0,1,19.969,23.249Z"/>
      <path id="Path_2" data-name="Path 2" d="M23.25,12.373a.747.747,0,0,1-.53-.22L13.392,2.826a1.971,1.971,0,0,0-2.784,0L1.28,12.153A.75.75,0,0,1,.22,11.093L9.547,1.765a3.473,3.473,0,0,1,4.905,0l9.328,9.328a.75.75,0,0,1-.53,1.28Z"/>
      <path id="Path_3" data-name="Path 3" d="M15,23.249H9a.75.75,0,0,1-.75-.75V15.843A2.346,2.346,0,0,1,10.594,13.5h2.813a2.346,2.346,0,0,1,2.344,2.344V22.5A.75.75,0,0,1,15,23.249Zm-5.25-1.5h4.5V15.843A.845.845,0,0,0,13.406,15H10.594a.845.845,0,0,0-.844.844Z"/>
    </g>
  </g>
</svg>
