<svg xmlns="http://www.w3.org/2000/svg" width="24" height="24" viewBox="0 0 24 24">
  <g id="Group_5" data-name="Group 5" transform="translate(-862 3720)">
    <rect id="Rectangle_2" data-name="Rectangle 2" width="24" height="24" transform="translate(862 -3720)" fill="none"/>
    <g id="Combined_Shape_2" data-name="Combined Shape 2" transform="translate(864 -3718)">
      <path id="Combined_Shape" data-name="Combined Shape" d="M1,20a1,1,0,0,1-1-1v-.222a1,1,0,0,1,1-1H19a1,1,0,0,1,1,1V19a1,1,0,0,1-1,1Zm1.222-4.444A2.225,2.225,0,0,1,0,13.333V6.666A2.225,2.225,0,0,1,2.222,4.444H17.778A2.225,2.225,0,0,1,20,6.666v6.667a2.225,2.225,0,0,1-2.222,2.222Zm0-2.222H17.778V6.666H2.222ZM1,2.222a1,1,0,0,1-1-1V1A1,1,0,0,1,1,0H19a1,1,0,0,1,1,1v.222a1,1,0,0,1-1,1Z"/>
    </g>
  </g>
</svg>
