<svg xmlns="http://www.w3.org/2000/svg" width="24" height="24" viewBox="0 0 24 24">
  <g id="Group_8" data-name="Group 8" transform="translate(-984 3721)">
    <rect id="Rectangle_5" data-name="Rectangle 5" width="24" height="24" transform="translate(984 -3721)" fill="none"/>
    <path id="Shape" d="M10,20A10,10,0,1,1,20,10,10.011,10.011,0,0,1,10,20Zm0-9.1c-2.02,0-5.97,1.087-6,3.08a7.2,7.2,0,0,0,12,0c-.017-1.114-1.241-1.858-2.265-2.286A10.7,10.7,0,0,0,10,10.9ZM10,3a3,3,0,1,0,3,3A3,3,0,0,0,10,3Z" transform="translate(986 -3719)"/>
  </g>
</svg>
