<svg xmlns="http://www.w3.org/2000/svg" viewBox="0 0 25.19 24.17"><defs><style>.cls-1{fill:#fff;stroke:#fff;stroke-miterlimit:10;stroke-width:0.5px;}</style></defs><title>Asset 9</title><g id="Layer_2" data-name="Layer 2"><g id="Layer_1-2" data-name="Layer 1"><path class="cls-1" d="M16.37,11.85a6.42,6.42,0,1,0-7.56,0A12.44,12.44,0,0,0,.25,22.71a1.16,1.16,0,0,0,.3.85,1.13,1.13,0,0,0,.83.36H23.8a1.13,1.13,0,0,0,.84-.37,1.08,1.08,0,0,0,.29-.84A12.41,12.41,0,0,0,16.37,11.85Zm7.84,11.3a.58.58,0,0,1-.41.18H1.38a.55.55,0,0,1-.54-.58A11.84,11.84,0,0,1,9.46,12.27a6.34,6.34,0,0,0,6.27,0,11.84,11.84,0,0,1,8.62,10.48A.53.53,0,0,1,24.21,23.15ZM18.43,6.67a5.82,5.82,0,0,1-2.8,5l-.36.21-.43.21a5.79,5.79,0,0,1-2.25.45,5.87,5.87,0,0,1-2.25-.45l-.42-.21a3.47,3.47,0,0,1-.37-.21,5.83,5.83,0,1,1,8.88-5Z"/></g></g></svg>