<svg xmlns="http://www.w3.org/2000/svg" xmlns:xlink="http://www.w3.org/1999/xlink" viewBox="0 0 282.33 74.66"><defs><style>.cls-1{fill:none;}.cls-2{clip-path:url(#clip-path);}.cls-3{fill:#fff;}.cls-4{fill:#df071f;}.cls-5{fill:#191410;}</style><clipPath id="clip-path"><rect class="cls-1" width="282.33" height="74.66"/></clipPath></defs><title>Asset 1</title><g id="Layer_2" data-name="Layer 2"><g id="Layer_1-2" data-name="Layer 1"><g class="cls-2"><path class="cls-3" d="M263.75,25.88a.68.68,0,0,1-.29.27,1.16,1.16,0,0,1-.68.16.77.77,0,0,1-.67-.34,12.24,12.24,0,0,1-1.27-2.51c-.44-1-.36-.87-1-2.43a14.1,14.1,0,0,0-1.17-2.34,5.48,5.48,0,0,0-1.65-1.4,4.7,4.7,0,0,0-1.49-.32,9.06,9.06,0,0,0-2.46.2,2.51,2.51,0,0,0-1.23.65,1.19,1.19,0,0,1-.38.32,4.44,4.44,0,0,0-1.11.62,1.38,1.38,0,0,0-.3,2.14h0c0-.27,0-.51,0-.5a2,2,0,0,0,1.21.23c.52-.07.84.7.84.7l.08-.22a1.92,1.92,0,0,0,.3.6.42.42,0,0,0,.08-.12c.16.2.41.32.43.64a1.26,1.26,0,0,1-.49.89c-.14.12-1,.79-1.82,1.67-.45.46-.67.74-1.12,1.23a1,1,0,0,1-.68.42h-.11a.78.78,0,0,1-.56-.26l-6.59-8.7c3.81-3.72,10.13-4.33,11.71-4.21.37,0,.79.32.32.92a2.76,2.76,0,0,0,2.1-.41,2.76,2.76,0,0,0,2.1.41c-.46-.6,0-.9.33-.92,1.56-.12,7.56.16,11.76,4.31-2,2.71-4.79,6.14-6.27,8.28ZM282.3,37.2c.13-14-3-21.91-5.63-25.77.91-1.21,1.47-1.95,1.51-2a2.7,2.7,0,0,1,1.69-.82,30.16,30.16,0,0,1,.95-4.06,22.13,22.13,0,0,1-3.58,2.08,2.5,2.5,0,0,1-.34,1.85l-1.18,1.56a16.54,16.54,0,0,0-4.54-3.77c-.47-.27-1-.53-1.54-.78a2.61,2.61,0,0,0-.72-2,1.42,1.42,0,0,0-.83-1.15h0a1.8,1.8,0,0,0-1.49.41,3.33,3.33,0,0,0-2,1.09A37.85,37.85,0,0,0,259,3.14,3.33,3.33,0,0,0,257.21.93,1.83,1.83,0,0,0,255.84,0h0a1.85,1.85,0,0,0-1.38.93,3.29,3.29,0,0,0-1.75,2.21,38,38,0,0,0-5.64.74,3.33,3.33,0,0,0-2-1.09,1.78,1.78,0,0,0-1.48-.41h0a1.41,1.41,0,0,0-.82,1.15,2.57,2.57,0,0,0-.72,2c-.56.25-1.07.51-1.55.78A14.74,14.74,0,0,0,236,10c-.64-.86-1-1.37-1.07-1.42a2.52,2.52,0,0,1-.34-1.84A23,23,0,0,1,231,4.66a29.83,29.83,0,0,1,1,4.05,2.7,2.7,0,0,1,1.69.83s.53.68,1.34,1.75c-2.68,3.83-5.82,11.77-5.69,25.91,0,1.31-.54,13.55,3.45,21.81a19.63,19.63,0,0,0,3.83,5.11A14.6,14.6,0,0,0,243,67.66l.29.08a9.57,9.57,0,0,0,6.62-.26l-.15.38c0,.09-.1.25-.13.33-.56,1.52-.19,3.1,1.87,3.33a5.1,5.1,0,0,1,1.85.42A5.61,5.61,0,0,1,255,73.18a7.68,7.68,0,0,1,1,1.48h0a7.68,7.68,0,0,1,1-1.48,5.74,5.74,0,0,1,1.67-1.24,5.1,5.1,0,0,1,1.85-.42c2.06-.23,2.44-1.8,1.88-3.32l-.14-.34-.15-.38c1.42.83,5.8,1.47,10-1.19a17.4,17.4,0,0,0,6.67-7.21c4-8.26,3.45-20.75,3.44-21.88Z"/></g><path class="cls-4" d="M281.45,33.36a36.63,36.63,0,0,1-5.95,4l-.95.52V37.2c0-.08.26-9.36-4.25-17.36l-2.21,2.83a2,2,0,0,1,1.69.6,17.7,17.7,0,0,1,3.34,5.41,14.37,14.37,0,0,1,.75,5h0s-.54,9.45-1.62,18.51c-1,8.22-1.52,9.3-1.52,9.3a5.88,5.88,0,0,1-1-2.27l-.09.08a7,7,0,0,1-.92-2.44,36.8,36.8,0,0,1-.42-6.74h0a3,3,0,0,0-.36-1.26,6,6,0,0,1-.42-1.16h0a7.69,7.69,0,0,0-2.38-4A11.45,11.45,0,0,1,263.43,41a.15.15,0,0,0-.07.05,2.28,2.28,0,0,0-.75,1,9.85,9.85,0,0,1,.06,3.28,3.76,3.76,0,0,1-.31-.25c.1,1-.36,2.11-.07,3l-.57-.07a.64.64,0,0,0,.06.14.89.89,0,0,0,.29.25l.19.09.59.21a1.74,1.74,0,0,0-.25-1.84c-.27-.34.06-.83.63-.57a8,8,0,0,1,2.37,1.58c1.21,1.15,1.57,2.26,1.31,2.47s-.35.14-.59,0a.27.27,0,0,1,0,.13.67.67,0,0,1-.51.45l0,0c-.13.18-.34.24-.7.23a1.7,1.7,0,0,1-.71-.21,1.09,1.09,0,0,1-.24-.17l-.21.17A52.74,52.74,0,0,1,268,56.8a18.48,18.48,0,0,1,1.37,3.06,2.44,2.44,0,0,1-1.15,0,4.15,4.15,0,0,1,.3,1.7,3.49,3.49,0,0,1-1.85-.43,3.06,3.06,0,0,1,0,.32l1.54,1.11c-2.87,1.35-7,.73-7.1.72l-.54-.08a1.72,1.72,0,0,1-.1.26c.28.67.93,2.22,1.08,2.53a9.57,9.57,0,0,0,6.12.94,7.85,7.85,0,0,0,1.56-.42,15.93,15.93,0,0,0,4.92-3.18,18.8,18.8,0,0,0,3.69-4.73c3.18-6.2,3.7-15.39,3.7-19.1V37.59c0-1.25-.08-3.29-.13-4.23Z"/><path class="cls-4" d="M250.53,65.93c.12-.34.7-1.72,1-2.41,0-.13-.08-.25-.11-.37-.4.07-.8.13-1.19.17s-4.22.63-7.09-.71c.35-.25,1-.78,1.89-1.35,0-.06,0-.12,0-.18a3.42,3.42,0,0,1-1.86.43,4.36,4.36,0,0,1,.31-1.7,2.44,2.44,0,0,1-1.15,0,17.25,17.25,0,0,1,1.37-3,34.81,34.81,0,0,1,3.13-4.44,2.45,2.45,0,0,1,.55-1l.18-.19-.34-.27a.94.94,0,0,1-.28.21,1.85,1.85,0,0,1-.71.21c-.37,0-.57-.05-.7-.23l0,0a.69.69,0,0,1-.52-.45.59.59,0,0,1,0-.13.47.47,0,0,1-.52-.07c-.26-.22.1-1.33,1.31-2.47a8,8,0,0,1,2.37-1.59c.57-.25.9.24.63.57a1.76,1.76,0,0,0-.25,1.85c.35-.12.48-.18.53-.2a.9.9,0,0,0,.48-.33.44.44,0,0,0,.05-.13l-.5.06c.26-.63-.14-2.18.12-3.19a1.39,1.39,0,0,1-.34.2,12.39,12.39,0,0,1-.09-3.07,2.1,2.1,0,0,0-.62-.86,10.08,10.08,0,0,1-1.6,2.62,7.54,7.54,0,0,0-2.39,4v0a5,5,0,0,1-.42,1.15,3,3,0,0,0-.36,1.27h0A36.69,36.69,0,0,1,243,57a7.16,7.16,0,0,1-.92,2.45l-.09-.08a5.94,5.94,0,0,1-1,2.27s-.54-1.08-1.52-9.31c-1.08-9.05-1.62-18.5-1.62-18.5h0a14.43,14.43,0,0,1,.75-5.06,17.63,17.63,0,0,1,3.34-5.4,2,2,0,0,1,1.87-.58l-.38-.5c-.62-.82-1.34-1.73-1.95-2.54-4.42,7.79-4.31,17.08-4.31,17.16v1l-.78-.41a37.28,37.28,0,0,1-6.12-4.11c0,1-.15,4.15-.15,4.15v1.94c0,3.72.67,12.84,3.7,19.11a18.65,18.65,0,0,0,3.6,4.79,14,14,0,0,0,5.37,3.15l.47.15A9.57,9.57,0,0,0,250.5,66l0-.06Z"/><path class="cls-4" d="M252.41,68.28a38.93,38.93,0,0,1,.47-4.16,2.32,2.32,0,0,1-.69.51c-.05,0-.12-.06-.19-.15l-1.67,4.1a1.94,1.94,0,0,1,2.08-.3Z"/><path class="cls-4" d="M259.13,69.38a45.44,45.44,0,0,0-.7-6l-.09-.14-.17-.24a7.64,7.64,0,0,1-.4,1.09,2.57,2.57,0,0,1-.57.88,4.09,4.09,0,0,1-1.41-1.74,4.06,4.06,0,0,1-1.4,1.71,2.61,2.61,0,0,1-.57-.88c-.09-.2-.16-.39-.23-.59a47.08,47.08,0,0,0-.63,5.92c-1.72-1.14-2.76,0-2.41.79,0,.06.08.13.12.18a1.1,1.1,0,0,0,.85.45,5.61,5.61,0,0,1,2.12.49,6.8,6.8,0,0,1,2.41,2,6.7,6.7,0,0,1,2.4-2,5.65,5.65,0,0,1,2.12-.49,1.14,1.14,0,0,0,.85-.45,1.13,1.13,0,0,0,.12-.18c.35-.79-.69-1.93-2.41-.79Z"/><path class="cls-4" d="M259.74,64.63a2.34,2.34,0,0,1-.57-.41,33.36,33.36,0,0,1,.51,4.06,1.94,1.94,0,0,1,2.08.3l-1.68-4.32c-.15.21-.3.38-.34.37Z"/><path class="cls-5" d="M253.23,30.32h0"/><g class="cls-2"><polyline class="cls-5" points="252.28 30.73 252.28 30.73 252.28 30.73"/><path class="cls-5" d="M281.58,37.59c0-1.25-.08-3.29-.13-4.23a36.63,36.63,0,0,1-5.95,4l-.95.52V37.2c0-.08.26-9.36-4.25-17.36l-2.21,2.83a2,2,0,0,1,1.69.6,17.7,17.7,0,0,1,3.34,5.41,14.37,14.37,0,0,1,.75,5h0s-.54,9.45-1.62,18.51c-1,8.22-1.52,9.3-1.52,9.3a5.88,5.88,0,0,1-1-2.27l-.09.08a7,7,0,0,1-.92-2.44,36.8,36.8,0,0,1-.42-6.74h0a3,3,0,0,0-.36-1.26,6,6,0,0,1-.42-1.16h0a7.69,7.69,0,0,0-2.38-4A11.45,11.45,0,0,1,263.43,41a.15.15,0,0,0-.07.05,2.28,2.28,0,0,0-.75,1,9.85,9.85,0,0,1,.06,3.28,3.76,3.76,0,0,1-.31-.25c.1,1-.36,2.11-.07,3l-.57-.07a.64.64,0,0,0,.06.14.89.89,0,0,0,.29.25l.19.09.59.21a1.74,1.74,0,0,0-.25-1.84c-.27-.34.06-.83.63-.57a8,8,0,0,1,2.37,1.58c1.21,1.15,1.57,2.26,1.31,2.47s-.35.14-.59,0a.27.27,0,0,1,0,.13.67.67,0,0,1-.51.45l0,0c-.13.18-.34.24-.7.23a1.7,1.7,0,0,1-.71-.21,1.09,1.09,0,0,1-.24-.17l-.21.17A52.74,52.74,0,0,1,268,56.8a18.48,18.48,0,0,1,1.37,3.06,2.44,2.44,0,0,1-1.15,0,4.15,4.15,0,0,1,.3,1.7,3.49,3.49,0,0,1-1.85-.43,3.06,3.06,0,0,1,0,.32l1.54,1.11c-2.87,1.35-7,.73-7.1.72l-.54-.08a1.72,1.72,0,0,1-.1.26c.28.67.93,2.22,1.08,2.53a9.57,9.57,0,0,0,6.12.94,7.85,7.85,0,0,0,1.56-.42,15.93,15.93,0,0,0,4.92-3.18,18.8,18.8,0,0,0,3.69-4.73c3.18-6.2,3.7-15.39,3.7-19.1V37.59Zm-19.82,31-1.68-4.32c-.15.21-.3.38-.34.37a2.34,2.34,0,0,1-.57-.41,33.36,33.36,0,0,1,.51,4.06,1.94,1.94,0,0,1,2.08.3Zm-2.63.8a45.44,45.44,0,0,0-.7-6l-.09-.14-.17-.24a7.64,7.64,0,0,1-.4,1.09,2.57,2.57,0,0,1-.57.88,4.09,4.09,0,0,1-1.41-1.74,4.06,4.06,0,0,1-1.4,1.71,2.61,2.61,0,0,1-.57-.88c-.09-.2-.16-.39-.23-.59a47.08,47.08,0,0,0-.63,5.92c-1.72-1.14-2.76,0-2.41.79,0,.06.08.13.12.18a1.1,1.1,0,0,0,.85.45,5.61,5.61,0,0,1,2.12.49,6.8,6.8,0,0,1,2.41,2,6.7,6.7,0,0,1,2.4-2,5.65,5.65,0,0,1,2.12-.49,1.14,1.14,0,0,0,.85-.45,1.13,1.13,0,0,0,.12-.18c.35-.79-.69-1.93-2.41-.79Zm-8.8-.8a1.94,1.94,0,0,1,2.08-.3,38.93,38.93,0,0,1,.47-4.16,2.32,2.32,0,0,1-.69.51c-.05,0-.12-.06-.19-.15l-1.67,4.1ZM250.5,66l0-.06c.12-.34.7-1.72,1-2.41,0-.13-.08-.25-.11-.37-.4.07-.8.13-1.19.17s-4.22.63-7.09-.71c.35-.25,1-.78,1.89-1.35,0-.06,0-.12,0-.18a3.42,3.42,0,0,1-1.86.43,4.36,4.36,0,0,1,.31-1.7,2.44,2.44,0,0,1-1.15,0,17.25,17.25,0,0,1,1.37-3,34.81,34.81,0,0,1,3.13-4.44,2.45,2.45,0,0,1,.55-1l.18-.19-.34-.27a.94.94,0,0,1-.28.21,1.85,1.85,0,0,1-.71.21c-.37,0-.57-.05-.7-.23l0,0a.69.69,0,0,1-.52-.45.59.59,0,0,1,0-.13.47.47,0,0,1-.52-.07c-.26-.22.1-1.33,1.31-2.47a8,8,0,0,1,2.37-1.59c.57-.25.9.24.63.57a1.76,1.76,0,0,0-.25,1.85c.35-.12.48-.18.53-.2a.9.9,0,0,0,.48-.33.44.44,0,0,0,.05-.13l-.5.06c.26-.63-.14-2.18.12-3.19a1.39,1.39,0,0,1-.34.2,12.39,12.39,0,0,1-.09-3.07,2.1,2.1,0,0,0-.62-.86,10.08,10.08,0,0,1-1.6,2.62,7.54,7.54,0,0,0-2.39,4v0a5,5,0,0,1-.42,1.15,3,3,0,0,0-.36,1.27h0A36.69,36.69,0,0,1,243,57a7.16,7.16,0,0,1-.92,2.45l-.09-.08a5.94,5.94,0,0,1-1,2.27s-.54-1.08-1.52-9.31c-1.08-9.05-1.62-18.5-1.62-18.5h0a14.43,14.43,0,0,1,.75-5.06,17.63,17.63,0,0,1,3.34-5.4,2,2,0,0,1,1.87-.58l-.38-.5c-.62-.82-1.34-1.73-1.95-2.54-4.42,7.79-4.31,17.08-4.31,17.16v1l-.78-.41a37.28,37.28,0,0,1-6.12-4.11c0,1-.15,4.15-.15,4.15v1.94c0,3.72.67,12.84,3.7,19.11a18.65,18.65,0,0,0,3.6,4.79,14,14,0,0,0,5.37,3.15l.47.15A9.57,9.57,0,0,0,250.5,66ZM230.26,32.32a40.14,40.14,0,0,0,6.07,4.19,37.26,37.26,0,0,1,4.58-17.42l-1.21-1.61a3.36,3.36,0,0,1-1.52.86,6.58,6.58,0,0,0-.75-3.36,13,13,0,0,1-3.39-.31c-2.24,4.79-3.37,10.32-3.78,17.65Zm3.8-17.7a4.63,4.63,0,0,0,1.34-1.16,6.49,6.49,0,0,0,.52-.88l-.46-.59c-.51.85-1,1.73-1.4,2.63Zm2.27-2.87a3,3,0,0,1,.21-.32c-1.1-1.45-1.84-2.41-1.91-2.5a2.85,2.85,0,0,1-.5-1.87,16.43,16.43,0,0,1-2.3-1.29l4.5,6Zm.15-1.16q.17.24.36.48A15.89,15.89,0,0,1,244,6a1.42,1.42,0,0,1,.3-1.94h0a1.71,1.71,0,0,1,1.66,1.31,36.15,36.15,0,0,1,8-1.1,2.71,2.71,0,0,1,1.58-2.57.65.65,0,0,1,.34-.53h0a.67.67,0,0,1,.34.53,2.69,2.69,0,0,1,1.57,2.57,36.33,36.33,0,0,1,8,1.1,1.69,1.69,0,0,1,1.65-1.31h0a1.41,1.41,0,0,1,.3,1.94,16.21,16.21,0,0,1,7.22,5.14l.38-.5a17,17,0,0,0-6.6-4.83,1.88,1.88,0,0,0-.48-2,.85.85,0,0,0-.4-.73h0a1.17,1.17,0,0,0-.85.34,2.38,2.38,0,0,0-1.84,1.27,35.55,35.55,0,0,0-6.71-.9,2.78,2.78,0,0,0-1.68-2.45.89.89,0,0,0-1.76,0,2.77,2.77,0,0,0-1.67,2.45,35.55,35.55,0,0,0-6.71.9,2.39,2.39,0,0,0-1.85-1.27,1.12,1.12,0,0,0-.85-.34h0a.87.87,0,0,0-.41.74,1.91,1.91,0,0,0-.48,2,16.17,16.17,0,0,0-6.5,4.78Zm38.7.93.2.34L280,5.67A16,16,0,0,1,277.74,7a2.88,2.88,0,0,1-.5,1.86l-2.06,2.69Zm1,.58-.43.57a4.11,4.11,0,0,0,1.82,1.92,25.16,25.16,0,0,0-1.39-2.49ZM269.27,20l2.26-3a2.35,2.35,0,0,1-.23-.32c-.82,1.1-1.66,2.22-2.46,3.31a21.51,21.51,0,0,0-1.54,2.25c0,.24,1.52-1.61,2-2.22ZM254.06,62.43a6.42,6.42,0,0,0,.49,1.16,3.48,3.48,0,0,0,1-2.09c-.15.12-.4.32-.6.45-.36.2-.68.37-.91.48Zm-9.94,0a18.83,18.83,0,0,0,6.21.32,10.37,10.37,0,0,0,4.9-1.79c-.34-.29-.76-.67-1.19-1.08A8,8,0,0,1,252.36,61a22.44,22.44,0,0,1-5.62,1.23,34,34,0,0,0,5.62-1.74,9.45,9.45,0,0,0,1.3-1l-1.46-1.43c-.27.23-.48.39-.77.6a10.49,10.49,0,0,1-1.94.93,25.71,25.71,0,0,0-5.37,2.81Zm4.79-24.51c.22-.69.47-5.09-1.27-7a34,34,0,0,1,1.27,7ZM245.61,27a4.94,4.94,0,0,0,.06,1.84,6.94,6.94,0,0,0,.41,1,7.35,7.35,0,0,0-.47-2.89Zm.88,1.41a12.5,12.5,0,0,0,.68,3.68,7,7,0,0,0-.68-3.68Zm-6.33-11.59,2.43,3.26a13.49,13.49,0,0,0,2,2.22A20.7,20.7,0,0,0,243,20.05l-2.65-3.55-.22.33Zm-1.14-6h0c-.13-.15-.46-.44-1.28.14-1.45,1.26-1,2.4-2.48,3.41a8.08,8.08,0,0,0,1.32.13,5.92,5.92,0,0,0,.64,0c.27,0,.49-.08.69-.11h0a6.36,6.36,0,0,1,.84,3c1.74-.92,1-3.91,2.66-3.88L239,10.81Zm33.38-.69a14.59,14.59,0,0,0-4.23-2.75c-4.69-2-10.63-2.06-12.33-2.06h0c-1.7,0-7.65,0-12.33,2.06a14.52,14.52,0,0,0-4.24,2.75s2.12,2.38,2.67,3a1,1,0,0,1,.22,1.13C245.4,12.09,249.1,11,255.7,11h.3c6.48.06,10.29,1.16,13.52,3.32a1,1,0,0,1,.21-1.13c.55-.64,2.67-3,2.67-3Zm-.92,5a3.83,3.83,0,0,0,1.07,2.08,1.45,1.45,0,0,0,.29.19h0a6.24,6.24,0,0,1,.85-3h0a6.59,6.59,0,0,0,2.65,0c-1.35-.91-1.05-1.93-2.06-3a3.05,3.05,0,0,0-.36-.36,1.64,1.64,0,0,0-.82-.35.56.56,0,0,0-.46.21c-.13.14-1.54,1.65-2.46,2.69.82,0,1,.74,1.29,1.61Zm-1.15,2.07.43-.56a18.29,18.29,0,0,0-7.89-4.09,21.79,21.79,0,0,0-4.85-.48c-.87,0-1.43.35-1.43.89-.54-.1-.69-.78-.76-.9-.05.28-.32.83-.75.9,0-.54-.56-.88-1.43-.89a21.91,21.91,0,0,0-4.86.48,17.48,17.48,0,0,0-7.84,4l.43.56a16.21,16.21,0,0,1,6.46-3.62,20.67,20.67,0,0,1,5.66-.75c1,.05,1.17.63,1.05.94a1.71,1.71,0,0,0,1.28-.61,1.7,1.7,0,0,0,1.29.61c-.12-.31,0-.89,1-.94a20.78,20.78,0,0,1,5.67.75,17.27,17.27,0,0,1,6.5,3.73Zm-7.55,9.13a1.16,1.16,0,0,0,.68-.16.68.68,0,0,0,.29-.27c1.48-2.14,4.22-5.57,6.27-8.28-4.2-4.15-10.2-4.43-11.76-4.31-.37,0-.79.32-.33.92a2.76,2.76,0,0,1-2.1-.41,2.76,2.76,0,0,1-2.1.41c.47-.6.05-.9-.32-.92-1.58-.12-7.9.49-11.71,4.21l6.59,8.7a.78.78,0,0,0,.56.26H249a1,1,0,0,0,.68-.42c.45-.49.67-.77,1.12-1.23.86-.88,1.68-1.55,1.82-1.67a1.26,1.26,0,0,0,.49-.89c0-.32-.27-.44-.43-.64a.42.42,0,0,1-.08.12,1.92,1.92,0,0,1-.3-.6l-.08.22s-.32-.77-.84-.7a2,2,0,0,1-1.21-.23s-.07.23,0,.5h0a1.38,1.38,0,0,1,.3-2.14,4.44,4.44,0,0,1,1.11-.62,1.19,1.19,0,0,0,.38-.32,2.51,2.51,0,0,1,1.23-.65,9.06,9.06,0,0,1,2.46-.2,4.7,4.7,0,0,1,1.49.32,5.48,5.48,0,0,1,1.65,1.4A14.1,14.1,0,0,1,259.84,21c.64,1.56.56,1.39,1,2.43A12.24,12.24,0,0,0,262.11,26a.77.77,0,0,0,.67.34ZM249.93,37.69a2.29,2.29,0,0,0,1,1.81,6.46,6.46,0,0,0-1-1.81Zm8,6.91a3.16,3.16,0,0,1-.68.8,2.35,2.35,0,0,0,.11-.55,4,4,0,0,1-.66.87,2.12,2.12,0,0,0-.6,1,2.83,2.83,0,0,1,.75-.55,2.55,2.55,0,0,0,1.08-1.57Zm.42,6.44a9.71,9.71,0,0,0-1.06-1.24A10.52,10.52,0,0,1,257.7,51h0l.07,0a.54.54,0,0,1,.22,0l.23,0,.1,0ZM258,56.33c.38.36.79.77,1.11,1.1.2-.21.36-.39.48-.53l-1.12-1-.47.46Zm-2-2c.5.52,1.16,1.22,1.6,1.64l.47-.44-1.71-1.58-.36.38Zm-.18-1c0,.27,0,.48,0,.58l.28-.3a3.21,3.21,0,0,1-.29-.28Zm0-.32s.29-.35.43-.49l0,0a5,5,0,0,0-.42-1.67c0,.29,0,1.36,0,2.18Zm.72-2.89c.08.47.14,1.58.16,1.94h0l.39-.4a3.93,3.93,0,0,0-.55-1.53Zm-.76-.47s.11,0,.36-.2a1.3,1.3,0,0,0,.52-.49.83.83,0,0,0,.08-.55,1.12,1.12,0,0,1-.34.47,3.68,3.68,0,0,0-.39.41,1.53,1.53,0,0,0-.23.36Zm-.41-3.16c0-.79-.87-.88-1.07-1.67-.1,1.11.67,1.12,1.07,1.67Zm.47,1.81v0a1,1,0,0,1,.32-.36,8.62,8.62,0,0,0,1.36-1,1.92,1.92,0,0,0,.27-.62,1.74,1.74,0,0,1-.58.52,5.33,5.33,0,0,0-1.26.92.79.79,0,0,0-.11.3.6.6,0,0,0-.06-.23c-.24-.5-1-.71-1.4-1.21a1.15,1.15,0,0,1-.3-.46,1.21,1.21,0,0,0,.2.78,4.09,4.09,0,0,0,1,.79,1.54,1.54,0,0,1,.59.56Zm-.36,1a1.13,1.13,0,0,0-.55-.81c0,.44.55.81.55.81Zm-.23,3.2c0-.49,0-1-.08-1.24a2.42,2.42,0,0,0-.31.83l.39.41Zm-2.63-1.31a6.88,6.88,0,0,1,.65-.24l.14,0h0a11.66,11.66,0,0,1,.39-1.18,10.65,10.65,0,0,0-1.18,1.45Zm1.42.09.31.3a8.9,8.9,0,0,0,.16-1.69,4.18,4.18,0,0,0-.47,1.39Zm0-6.78a1.22,1.22,0,0,0-.13-.48,4.38,4.38,0,0,0-.42-.46.46.46,0,0,1-.11-.18,1.65,1.65,0,0,0,.07.58.7.7,0,0,0,.31.4.9.9,0,0,0,.28.14Zm-.35,8.33-3.58,3.37c.23.23.46.48.62.65s.11.06.17,0L255,53.14a.06.06,0,0,0,0-.09l-.8-.88c-.33-.34-.74-.78-1-.7s-.3.09-.67.17a3.61,3.61,0,0,1-1.64-.11l-.08,0,0,.25c0,.07,0,.15,0,.24a8.36,8.36,0,0,0,1.49.06c.28,0,.45.1.21.37,0,0-2.34,2.33-2.47,2.47-.49.46-.52.57-.38.73l.16.15.95-.85,1.53-1.35s1.1-1,1.15-1.09a.11.11,0,0,1,.16,0l.21.22a.12.12,0,0,1,0,.15Zm5.5-.75a7.63,7.63,0,0,0,1.43-.06c0-.1,0-.19-.05-.27l0-.21h0a3.76,3.76,0,0,1-1.64.11c-.36-.08-.38-.09-.67-.17s-.67.35-1,.7l-.8.88s0,.06,0,.09l4.08,3.73c.06.05.1.06.17,0l.62-.65-3.58-3.37c-.05-.06-.06-.12,0-.15l.21-.22a.11.11,0,0,1,.16,0c.05.06,1.16,1.09,1.16,1.09L260.71,55l1,.85.16-.16c.14-.15.11-.26-.38-.73L259,52.46c-.24-.28-.06-.37.21-.37Zm-.72-9.59a3.93,3.93,0,0,0,.76-2.28,1.21,1.21,0,0,1,.37.51,12.87,12.87,0,0,0,1.13-3.58c.23.1,0,.05.29.19a12.06,12.06,0,0,0,.77-3.53c.09,0,.24,0,.3.1.12-.84.25-2.2.28-3.15A10.84,10.84,0,0,0,262,27.3,9.84,9.84,0,0,0,261,24.94a.86.86,0,0,0-.3.23c-.15-.47-.58-1.6-.78-2-.54-1-.79-1.7-1.34-2a4.23,4.23,0,0,0,.66.05,8.34,8.34,0,0,0-.9-.88,1.17,1.17,0,0,1,.75,0c-.54-.49-.73-1.25-2.13-1.78a5.53,5.53,0,0,1,.78,0,2.4,2.4,0,0,0-1.31-.94c-1.43-.28-3.42-.33-4.34.77a2,2,0,0,1-.54.21.72.72,0,0,0-.26.13c-.17.12-.2.28.11.72-.4-.06-.51-.44-.58-.4a1.33,1.33,0,0,0-.42.43,1.5,1.5,0,0,0-.22.81.28.28,0,0,0,.45-.21c0-.13.65-.19.87-.19s.6.07,1,0c-.14.06-.59.18-.75.23s-.19.24,0,.25.26-.06.44-.1,0,.25.06.36c1.16-.26,1.24,1,2.48.73-.58-.45-1.08-1.21-1.53-1.44,1.21.19,1.87,1.29,3.19,1.34-.05-.12-.05-.12-.16-.35.45,0,.77.35.9.33a1.82,1.82,0,0,1-1.05.4c.09.17.58.2.75.23a1.2,1.2,0,0,1-1.17.24,5.33,5.33,0,0,1-1.31,1.11,2.46,2.46,0,0,1,0-.4c-.56.32-.94.92-1.36,1.08a7.79,7.79,0,0,0,.32-.76,19.09,19.09,0,0,0-3.43,3.6,7.2,7.2,0,0,0-.7,4.05c0,1,.47,3.79.55,4.34L250,35a23.37,23.37,0,0,0,2,5.88.85.85,0,0,1,.32-.44,2.78,2.78,0,0,0,.83,1.57,1.57,1.57,0,0,1,.19-.71c.12.39.05,1.63.76,2.31a3.37,3.37,0,0,1,.18-1.08,9.12,9.12,0,0,0,.34,1.29,2.46,2.46,0,0,0,.75,1.06,4.06,4.06,0,0,1,.16-1.32,3.83,3.83,0,0,1,.56,1.66c.72-.55,1-2.37,1-2.37a1.62,1.62,0,0,1,.36.69,4.75,4.75,0,0,0,1-2.18,3.44,3.44,0,0,1,0,1.14ZM246.8,34.64a10.68,10.68,0,0,1,1.54,4.87c.64-1.66-.39-4.95-1.39-6.79a1.5,1.5,0,0,1-.26.92c-.19-2.11-1.51-3.64-1.74-5.11a3.35,3.35,0,0,1-.15.64,11.17,11.17,0,0,1-1.19-3,1.63,1.63,0,0,0-.25.87c-.65-1.82,0-2.56.17-2.67.5-.29,1.09.18,1.56.69.69.77,1.42,2.31,3.75,2.35.38,0,.52-.08.33-.12h0c-1.93-.36-2.28-1.13-3.89-2.89-1-1.09-2-1.72-3.19-.32A14.89,14.89,0,0,0,238.63,31a13,13,0,0,0-.11,4.45c.27-.09.29-.17.29-.17s.3,3.1.84,3.87a5.32,5.32,0,0,0,.37-1.87,5.78,5.78,0,0,0,1,1.93,5.73,5.73,0,0,0,.1-2.34,4.06,4.06,0,0,0,1.08,1.75c.19-.49.39-1.29.23-3.83a18.52,18.52,0,0,1,.33,2.28,2.18,2.18,0,0,0,.49.32c.09-.26.34-.63-.08-3.83,1.07,3.46.47,4.4.37,4.65a2.65,2.65,0,0,1-.75-.64,3.68,3.68,0,0,1-.35,1.83,2.48,2.48,0,0,1-.91-.91,4.59,4.59,0,0,1-.24,1.74,5.43,5.43,0,0,1-1-1.54,4.21,4.21,0,0,1-.5,1.88c-.89-1.17-1.19-4.49-1.19-4.49l-.13.1c0,.81.15,2.06.27,3.48h0c.14,1.66.3,3.53.45,5.19q.53,6,1.32,11.9a7,7,0,0,0,.18,1,12,12,0,0,0,.08-2.85A6,6,0,0,0,241,53.1c0-.48-.55-6.59-.74-9,0-.29-.06-.94-.06-.95a1.72,1.72,0,0,1,0,.26c.19.9.33,1.81.47,2.73.08.54.16,1.12.24,1.71a45.33,45.33,0,0,1,.5,5.33,5.66,5.66,0,0,1-.31,1.72,7.75,7.75,0,0,1-.26,3.58.47.47,0,0,1-.24-.22c.19,1.09.44,1.95.44,1.95a8.61,8.61,0,0,0,.59-4.31,7.23,7.23,0,0,0,.42-2c0-.37-.05-1.54-.15-3-.19-2.59-.41-5.19-.62-7.78,0-.12,0-.43,0-.46s.05.24.08.36a63.67,63.67,0,0,1,1.2,10.19,9.55,9.55,0,0,1-.48,2.9,6.63,6.63,0,0,1,.06,1.38,4.19,4.19,0,0,1-.08.92c.26-.59,1.1-2.58.81-8.8,0-.15,0-.3,0-.46-.23-4.32-.57-7.15-.57-7.15a36.81,36.81,0,0,1,1,6.84c0-.05,0-.1.08-.16a8.13,8.13,0,0,0,.43-3.53c-.14-2.27-.41-4.13-.41-4.13s0,.17.06.19a19.1,19.1,0,0,1,.51,2.09,20.14,20.14,0,0,1,.33,2.44c0,.12,0,.23,0,.34h0c.86-1.28.49-3.86.07-6.54a12.2,12.2,0,0,1,.88,5.08c1.29-1.22.59-3.63.1-6.4a10.57,10.57,0,0,1,1.1,5c1.05-1.37.66-3.18-.28-6.72a12.34,12.34,0,0,1,1.4,4.55c.69-1.6-.11-4.28-.79-6.44Zm1.37,12.51c.2-.34-.1-.43-.7,0a8.78,8.78,0,0,0-2.23,1.9c-.15.21-.1.32.16.06C246,48.42,247,47.55,247,48a2.8,2.8,0,0,0,.18,1.1l.29-.07.82-.21a1.89,1.89,0,0,1-.08-1.63Zm-.39,4.3a1.89,1.89,0,0,0-.62,1.29.51.51,0,0,0,.55.56c.47,0,.23-.56.5-.24.11.13.47-.29.57-.39-.21,0-.51.07-.46-.24a1.48,1.48,0,0,1,.34-.58c.13-.16.52-.9.78-.81s.05.78-.16,1.21c-.43.92-.5,1.52-.2,1.69l0,0v0a.77.77,0,0,0,.35.9l0,0a1.1,1.1,0,0,1,0-.67s0-.13-.23-.21h0a3.09,3.09,0,0,0,.43,0,.4.4,0,0,0,.41-.41c0-.11,0-.23,0-.34a13.62,13.62,0,0,1,.22-1.35c.09-.42.2-1.42.2-1.42a.49.49,0,0,1,.2,0,.43.43,0,0,1,.38.31.51.51,0,0,1,0,.34.43.43,0,0,0,.27-.36v0h0a.54.54,0,0,0,.24-.36c.06-.36-.36-.72-.4-.75-.25-.2-.17-.57-.06-.89l.14-.39A2.18,2.18,0,0,0,253,49a2.81,2.81,0,0,1-.18-.74,9.61,9.61,0,0,1,0-1l.45.48a7.2,7.2,0,0,0,.09-2.53,9.26,9.26,0,0,0-.69-2.92,4.7,4.7,0,0,0-.38-.86.9.9,0,0,1-.35.5,7.33,7.33,0,0,1-1.18-2,1.91,1.91,0,0,1-.37.46l-.07.06v-.09a2.41,2.41,0,0,0-.59-1.13,2.54,2.54,0,0,1-.43-.71,6.34,6.34,0,0,0-.21,1.54,3.83,3.83,0,0,1-.19,1.21l.23-.14c.11-.07.16-.1.21-.1h.05a.12.12,0,0,1,0,.08,13.78,13.78,0,0,0-.31,1.86,5.6,5.6,0,0,0,0,1.52s.49-.28.49-.28a7.19,7.19,0,0,0-.14,2.54,4.63,4.63,0,0,1,0,.87,2,2,0,0,0,.7-.27,4.24,4.24,0,0,1-.33,1,3.16,3.16,0,0,1-1.84.83,10.86,10.86,0,0,0-2.22.72c-.23.11-.45.35-.4.52s.32.23.42.23l.06.11c.17.26.72.1.85,0a.74.74,0,0,0,.3-.21c0,.05-.21,0-.32-.07s-.08-.06-.08-.09c0-.32,1.31-.37,1.51-.36s.28,0,.36.18.12.28-.68,1.17Zm.64,4.68a12.16,12.16,0,0,1-1.61,3.23,10.25,10.25,0,0,1-1,1.19l-.07.28-.12.07.67-.38.34-.16a15.81,15.81,0,0,1,1.43-.68c.48-.87,1-1.91,1.24-2.18a10,10,0,0,1-.69,2l.37-.15c.76-.3,1.43-.54,1.75-.69a4.55,4.55,0,0,0,1-.6,1.65,1.65,0,0,0,.21-.2l-.54-.55-.19.16a.46.46,0,0,1-.61,0c-.25-.23-1.38-1.48-1.48-1.6s-.24-.35,0-.75l0,0a1.28,1.28,0,0,1-.4-1,1,1,0,0,1-.19-.77.52.52,0,0,1-.34.08.68.68,0,0,1-.47.23h-.07a.77.77,0,0,1-.5-.16.71.71,0,0,1-.28-.36.08.08,0,0,0,0,0A18.15,18.15,0,0,0,244.75,56a12.93,12.93,0,0,0-1.57,3c.71-.05,1.11-.16,2-1.13.43-.45,1.56-2.12,2.27-3a15.3,15.3,0,0,1-1.8,3.33,8.32,8.32,0,0,1-1.27,1.4s-.27.17-.44,1c.48,0,1.73-.69,2.91-2.27.36-.49.6-.89,1.53-2.29Zm7.72,5.58A3.12,3.12,0,0,0,257,63.6a2.54,2.54,0,0,0,.39-1.18,7.14,7.14,0,0,1-1.28-.71Zm4.91,1a18.56,18.56,0,0,0,6.21-.32,25.37,25.37,0,0,0-5.37-2.8,11.21,11.21,0,0,1-1.94-.94,7.83,7.83,0,0,1-.88-.71c-1-.9-3.55-3.58-4-4.07l-1.71,1.57a64.45,64.45,0,0,0,5.67,5,34.29,34.29,0,0,0,5.63,1.74A22.24,22.24,0,0,1,259,61c-1.46-.6-6.09-5.16-6.09-5.16l-1.12,1a32.4,32.4,0,0,0,3.83,3.66,10.06,10.06,0,0,0,5.41,2.18ZM264.26,55c.71.89,1.83,2.56,2.26,3,.94,1,1.33,1.08,2,1.12a12.72,12.72,0,0,0-1.55-3,29.45,29.45,0,0,0-2.51-3.47,1.71,1.71,0,0,1-.06.5l-.06.11a.84.84,0,0,1-.25.28.9.9,0,0,1-.55.15.78.78,0,0,1-.48-.23.54.54,0,0,1-.34-.08,1,1,0,0,1-.18.77,1.31,1.31,0,0,1-.37.94l.05.08c.24.41.13.62,0,.75s-1.22,1.37-1.47,1.59a.46.46,0,0,1-.62,0l-.19-.16-.52.52.06.06h0a4.48,4.48,0,0,0,1.27.78c.4.17,1.6.62,2.41,1-.19-.6-.42-1.27-.65-1.94.21.28.79,1.31,1.28,2.21,0,0,.07,0,0,0A20.9,20.9,0,0,1,266,61c0-.22-.09-.37-.09-.37a12.16,12.16,0,0,1-1-1.2,12.63,12.63,0,0,1-1.61-3.23c.93,1.4,1.17,1.8,1.54,2.29a5.23,5.23,0,0,0,2.9,2.27c-.17-.87-.48-1.07-.48-1.07a8.68,8.68,0,0,1-1.2-1.32c.15.2.29.39,0,0s-.14-.2,0,0A15.94,15.94,0,0,1,264.26,55Zm-1.12-6.2.75.2.36.09a3,3,0,0,0,.17-1.09c0-.41.94.46,1.56,1.09.27.27.32.15.16,0a8.87,8.87,0,0,0-2.23-1.91c-.6-.37-.9-.28-.7.05a1.86,1.86,0,0,1-.07,1.62ZM262,41.21a.11.11,0,0,1,0-.08h.05a.48.48,0,0,1,.22.1l.22.14a3.86,3.86,0,0,1-.18-1.21,6.51,6.51,0,0,0-.2-1.5l0-.07a2.54,2.54,0,0,1-.43.71,2.61,2.61,0,0,0-.59,1.13v.09l-.07-.06c.13.12-.36-.45-.37-.46a10.81,10.81,0,0,1-1.72,2.62h0a5.65,5.65,0,0,0-.7,2.51,11,11,0,0,0,0,2.67l.44-.48a8.09,8.09,0,0,1,0,1,3.36,3.36,0,0,1-.18.74,1.78,1.78,0,0,0,1.55-.67l.12.32c.1.32.19.69-.06.89,0,0-.46.39-.41.75a.52.52,0,0,0,.25.36h0v0a.43.43,0,0,0,.26.36.56.56,0,0,1,0-.34.41.41,0,0,1,.38-.31.49.49,0,0,1,.2,0s.1,1,.19,1.42a13.33,13.33,0,0,1,.23,1.35l0,.34c0,.35.24.38.42.41a3.12,3.12,0,0,0,.43,0h0c-.26.08-.24.18-.24.21a1,1,0,0,1,0,.67l0,0a.79.79,0,0,0,.35-.9v0l0,0c.3-.17.22-.77-.21-1.69-.2-.43-.28-1.14-.15-1.21h0c.07,0,.16,0,.36.3s.28.38.46.6a1,1,0,0,1,.28.58.2.2,0,0,1-.05.14.33.33,0,0,1-.13,0l-.28,0c.1.1.46.52.57.39.27-.32,0,.19.5.24.31,0,.53-.19.55-.56a3.18,3.18,0,0,0,0-.34,2,2,0,0,0-.47-.84l-.11-.11c-.8-.89-.73-1.08-.68-1.17s.15-.18.36-.18a4.94,4.94,0,0,1,.67,0c.33.06.86.15.84.32s0,.07-.08.09-.3.12-.33.07a.74.74,0,0,0,.3.21c.14.06.69.22.86,0l.06-.11c.09,0,.36,0,.42-.23s-.17-.41-.41-.52a8.27,8.27,0,0,0-1.19-.45c-.18-.06-.4-.1-.57-.15l-1-.25s-.53-.17-.72-.25l-.21-.1a1.24,1.24,0,0,1-.41-.35,3.83,3.83,0,0,1-.32-1,2.09,2.09,0,0,0,.76.31,4.67,4.67,0,0,1,0-.87c.15-1.59.18-2.5.18-2.5l.32.33a9.81,9.81,0,0,0-.1-1.61v0a13.55,13.55,0,0,0-.31-1.84Zm4-12.44a4.93,4.93,0,0,0,.06-1.84,7.44,7.44,0,0,0-.47,2.9,6.67,6.67,0,0,0,.41-1.06ZM264.48,32a12.56,12.56,0,0,0,.68-3.69,7,7,0,0,0-.68,3.69Zm-1.41-1.37c.55-1.66.09-2.49-.23-2.67,0,.76.19,1.12.23,2.67Zm-.33,7.18a34.74,34.74,0,0,1,1.27-7c-1.74,1.89-1.49,6.29-1.27,7Zm7.82-1.09a5.56,5.56,0,0,0,.11,2.34,5.77,5.77,0,0,0,1-1.93A5.39,5.39,0,0,0,272,39c.54-.77.84-3.87.84-3.87s0,.07.29.17a13,13,0,0,0-.11-4.45A14.91,14.91,0,0,0,269.57,24c-1.19-1.4-2.19-.76-3.19.33-1.61,1.75-2,2.53-3.89,2.89h0c-.19,0-.05.12.33.12,2.33,0,3.06-1.58,3.76-2.36.46-.51,1.05-1,1.55-.68.19.11.82.85.17,2.67a1.67,1.67,0,0,0-.24-.87,11.44,11.44,0,0,1-1.2,3,6.36,6.36,0,0,1-.15-.65c-.23,1.48-1.55,3-1.74,5.11a1.45,1.45,0,0,1-.26-.92c-1,1.84-2,5.14-1.39,6.79a10.75,10.75,0,0,1,1.54-4.86c-.68,2.16-1.48,4.83-.79,6.44a12.15,12.15,0,0,1,1.41-4.56c-1,3.55-1.34,5.36-.29,6.72a10.61,10.61,0,0,1,1.1-5c-.49,2.77-1.19,5.19.1,6.4a12.12,12.12,0,0,1,.88-5.07c-.42,2.67-.79,5.25.07,6.54a14.39,14.39,0,0,1,.35-2.78c.23-1.17.58-2.29.58-2.29s-.28,1.87-.42,4.14c0,.38,0,.76,0,1.14a8.2,8.2,0,0,0,.14,1.4,3.52,3.52,0,0,0,.4,1.14,36.66,36.66,0,0,1,1-6.83s-.34,2.82-.57,7.15c0,.15,0,.31,0,.46-.29,6.21.55,8.2.82,8.79a3.28,3.28,0,0,1-.09-.91,6.75,6.75,0,0,1,.06-1.39,9.41,9.41,0,0,1-.48-2.9c.05-.92.12-1.84.19-2.74s.15-1.61.23-2.37.17-1.37.27-2.07c.13-1,.33-2,.51-3,.14-.79.06-.1.05.09-.07.9-.24,2.85-.39,4.87-.11,1.5-.45,4.47-.38,5.91a7.83,7.83,0,0,0,.42,2,8.73,8.73,0,0,0,.59,4.31s.25-.87.44-1.95a.52.52,0,0,1-.24.22,7.78,7.78,0,0,1-.26-3.59,5.48,5.48,0,0,1-.31-1.71,53,53,0,0,1,.5-5.34c.08-.59.16-1.17.24-1.71.06-.35.11-.7.17-1,.07-.56.18-1.12.3-1.68,0-.09,0-.18.05-.25s0,.41-.06.95c-.19,2.39-.73,8.49-.74,9a5.8,5.8,0,0,0,.28,1.77,12,12,0,0,0,.08,2.85,6.91,6.91,0,0,0,.18-1s.34-2.48.73-6l.18-1.63c.05-.51.11-1,.16-1.57l.18-1.89c0-.27.05-.54.07-.82.15-1.66.31-3.53.45-5.18,0,0,.23-2.69.27-3.5l-.13-.09s-.3,3.31-1.19,4.48a4.34,4.34,0,0,1-.5-1.87,5.59,5.59,0,0,1-1,1.54,4.65,4.65,0,0,1-.24-1.74,2.56,2.56,0,0,1-.91.91,3.7,3.7,0,0,1-.35-1.83,2.53,2.53,0,0,1-.75.64c-.1-.25-.7-1.19.37-4.66-.42,3.2-.17,3.58-.08,3.83a2.16,2.16,0,0,0,.49-.31,18.37,18.37,0,0,1,.33-2.29c-.16,2.55,0,3.35.23,3.84a4.2,4.2,0,0,0,1.08-1.76Zm7-22.08a13,13,0,0,1-3.39.31,6.69,6.69,0,0,0-.75,3.36,2.9,2.9,0,0,1-1.41-.8l-1.26,1.67a36.4,36.4,0,0,1,4.52,17.3,40.14,40.14,0,0,0,6.07-4.19C281,25,279.84,19.46,277.6,14.67Zm1.26,44.41a17.4,17.4,0,0,1-6.67,7.21c-4.19,2.66-8.57,2-10,1.19l.15.38.14.34c.56,1.52.18,3.09-1.88,3.32a5.1,5.1,0,0,0-1.85.42,5.74,5.74,0,0,0-1.67,1.24,7.68,7.68,0,0,0-1,1.48h0a7.68,7.68,0,0,0-1-1.48,5.61,5.61,0,0,0-1.67-1.24,5.1,5.1,0,0,0-1.85-.42c-2.06-.23-2.43-1.81-1.87-3.33,0-.08.09-.24.13-.33l.15-.38a9.57,9.57,0,0,1-6.62.26l-.29-.08a14.6,14.6,0,0,1-6.37-3.54A19.63,19.63,0,0,1,232.78,59c-4-8.26-3.43-20.5-3.45-21.81-.13-14.14,3-22.08,5.69-25.91-.81-1.07-1.3-1.72-1.34-1.75A2.7,2.7,0,0,0,232,8.71a29.83,29.83,0,0,0-1-4.05,23,23,0,0,0,3.58,2.08A2.52,2.52,0,0,0,235,8.58c0,.05.43.56,1.07,1.42a14.74,14.74,0,0,1,4.45-3.72c.48-.27,1-.53,1.55-.78a2.57,2.57,0,0,1,.72-2,1.41,1.41,0,0,1,.82-1.15h0a1.78,1.78,0,0,1,1.48.41,3.33,3.33,0,0,1,2,1.09,38,38,0,0,1,5.64-.74A3.29,3.29,0,0,1,254.45.93,1.85,1.85,0,0,1,255.83,0h0a1.83,1.83,0,0,1,1.37.93A3.33,3.33,0,0,1,259,3.14a37.85,37.85,0,0,1,5.63.74,3.33,3.33,0,0,1,2-1.09,1.8,1.8,0,0,1,1.49-.41h0a1.42,1.42,0,0,1,.83,1.15,2.61,2.61,0,0,1,.72,2c.55.25,1.07.51,1.54.78a16.54,16.54,0,0,1,4.54,3.77l1.18-1.56a2.5,2.5,0,0,0,.34-1.85,22.13,22.13,0,0,0,3.58-2.08,30.16,30.16,0,0,0-.95,4.06,2.7,2.7,0,0,0-1.69.82s-.6.78-1.51,2c2.67,3.86,5.76,11.73,5.63,25.77,0,1.13.55,13.62-3.44,21.88ZM247.32,10.91l.72.32.5-.59c-.28-.12-.46-.21-.74-.32a5.68,5.68,0,0,0-.48.59ZM261.09,8.3a.75.75,0,0,0-.33.35c.1.15.3.21.59.25l.16,0c.14-.32-.15-.72-.42-.62Zm6.09,1.64a2.78,2.78,0,0,1-.61.92,24.12,24.12,0,0,0-4.63-1.12,3.19,3.19,0,0,1-1.39,1,6.15,6.15,0,0,1-1.85-.53c.31,0,.4,0,.61,0a4,4,0,0,0,2-.58c-1.11-.17-1.37-.47-.83-1.17.24-.32.65-.9,1.23-.75s.58.77.52,1.26a23.19,23.19,0,0,1,4.2,1c.08-.35-.15-.53-.3-.79a4.16,4.16,0,0,1,.69-.58,1.33,1.33,0,0,1,.38,1.29Zm-5.06.59.53.53.72-.39c-.21-.2-.34-.34-.56-.54-.23.12-.51.29-.69.4Zm5.67-.27a18.07,18.07,0,0,1-.74,1.66c.17.07.4-.07.55-.17a5.42,5.42,0,0,0,1.59-2.48,2.57,2.57,0,0,0-.67.2c-.45.2-.52.31-.73.79Zm.35-1.12c.61-.06,1.16.09,1.42-.19-.38-.11-.76-.21-.89-.4.16-.13.39,0,.51.15l.23-.2a.77.77,0,0,0-1.14.2,1.21,1.21,0,0,1,.34.19,1.92,1.92,0,0,0-.47.25Zm-22.58,2.27-.55-.16a6.66,6.66,0,0,0-.38.64l.75.24.28-.44.54.17c.16-.26.23-.38.41-.64-.29-.09-.48-.16-.78-.24a3.87,3.87,0,0,0-.27.43Zm12.74-3.3c-.38-.63-1.8-.07-2.7.31.53,0,1,0,1.53,0l1.2,0a.31.31,0,0,0,0-.32Zm.63,1.15a48.83,48.83,0,0,0-12,1,4.31,4.31,0,0,0-.58-1c-.78-.84-1.1.07-1.1.18,1,.05,1.15.56,1.15.56a2.37,2.37,0,0,1-.95.94,3.63,3.63,0,0,1-1.67.59c-1.85.08-1.35-1.84-.23-2.63-.14.18-.8,1.19-.39,1.7s2.16.11,2.58-.41a1.59,1.59,0,0,0-1.25-.22,2.69,2.69,0,0,1,1.05-1.84,2.64,2.64,0,0,1,1.54,1.33A46.82,46.82,0,0,1,255,8.44c-.06-.47-.22-2.24-.23-2.34a.55.55,0,0,1,.36-.54,1.34,1.34,0,0,0,.85.69,3,3,0,0,1-.55.46c0,.35.06,1,.07,1.26a10.26,10.26,0,0,1,1.8-.62,2.71,2.71,0,0,1,.82-.08,1.53,1.53,0,0,1,.72.3.81.81,0,0,1,.29.57,2.88,2.88,0,0,1-.2,1.12Zm-5.17,9.11s-.4,0-.43.05.21.18.29.21a.14.14,0,0,0,.16-.08.13.13,0,0,0,0-.18Zm.2,0a.65.65,0,0,1,0,.41.64.64,0,0,1-.53.59.67.67,0,0,1-.84-.59.77.77,0,0,1,.08-.34c-.14,0-.14.11-.27.27s-.21.09-.4.22a1.06,1.06,0,0,1,.58-.78,4.61,4.61,0,0,1,3.12.31,8.33,8.33,0,0,0-1.1-.07l-.69,0Zm4-12.17-.64-.46a7.1,7.1,0,0,0-.62.48l.61.45.65-.47Zm-6.49,12.72c-.07,0-.13.25.11.26a.25.25,0,0,0,.24-.22s-.25-.11-.35,0Zm6.7,1.84A1.52,1.52,0,0,0,257,20a2.62,2.62,0,0,1,.4.66,2.76,2.76,0,0,1-.67.14,1.53,1.53,0,0,0,1.4,0Zm-1.53-1.3a2.24,2.24,0,0,0-1.32-.74,1.54,1.54,0,0,0,1.32.74Zm-.39-.74c.23.24,1,.55,1.39.94-.06-.64-.62-1-1.39-.94Zm-.29,9.1a2.52,2.52,0,0,0,0,2.59s.59-1.77,0-2.59Zm1.41,5.06a4.16,4.16,0,0,0,1-2.74,6.23,6.23,0,0,1-1.13,1.42,5.36,5.36,0,0,1-.94-.86,3.81,3.81,0,0,0,1,2.18ZM256.22,25a1.21,1.21,0,0,0-.3,1.5s.93-1,.3-1.5Zm1.08-3.08c.25.25,1,.43,1.48.85a1.06,1.06,0,0,0-1.48-.85Zm1.18,2a1.35,1.35,0,0,0-1.23-1.46c-.06.56.88.9,1.23,1.46Zm-.43,1.52c-.5.54,0,1.62.26,2.58.26-.47.58-2.07-.26-2.58Zm2.66,2.46a3.37,3.37,0,0,1-.86,1.82,5.23,5.23,0,0,1-.85-.88,3.72,3.72,0,0,0,.88,2.1,3.35,3.35,0,0,0,.83-3Zm-1.41-4.57c-.11.6.85,1.51.85,1.51a1.46,1.46,0,0,0-.85-1.51ZM261,26.13a7.51,7.51,0,0,0,.75,2.43,2.25,2.25,0,0,0-.75-2.43Zm-6.34,8.24a3.86,3.86,0,0,0,.5-2.83,2.23,2.23,0,0,1-.81,1.6,1.87,1.87,0,0,1-.72-.89,2.57,2.57,0,0,0,1,2.12ZM253.91,26a1.55,1.55,0,0,0-.43,2.29,8,8,0,0,0,.43-2.29Zm-.62,2.85c-.84,1.05.46,2.35.45,2.37s.1-2-.45-2.37ZM250.18,33a7,7,0,0,0-.62-2.7,5.18,5.18,0,0,0,.62,2.7Zm1.07-5.46a20.76,20.76,0,0,1,1.29-2.68,2.67,2.67,0,0,0-1.29,2.68Zm.55,3.21a8.09,8.09,0,0,1-.14,1.59,1.75,1.75,0,0,1-.77-.54,6.43,6.43,0,0,0,1.22,1.72,4.27,4.27,0,0,0-.31-2.77ZM250.92,33c-.29,1.24,1,2.43,1,2.45a3.8,3.8,0,0,0-1-2.45Zm.37,3.33a6.38,6.38,0,0,0,1.09,1.38c-.53-.8-.95-2.29-1.48-2.7a2.8,2.8,0,0,0,.39,1.32Zm-1.53-7.26c-.1-.61.66-1.18.4-2.16a1.93,1.93,0,0,0-.4,2.16Zm4.45,8.42a4,4,0,0,1-1.13-1.18,5.22,5.22,0,0,0,1.53,2.36,4,4,0,0,0,.22-3.13,6.21,6.21,0,0,1-.62,2Zm3.3-3.14a3.83,3.83,0,0,1-1.09,1.79,3.39,3.39,0,0,1-.78-1.11,2.34,2.34,0,0,0,1,2.23,3.7,3.7,0,0,0,.89-2.91Zm1.64,3.27a3.35,3.35,0,0,0,.83-3.11,6.9,6.9,0,0,0-.83,3.11Zm-1.83,1.63a4.9,4.9,0,0,0,.66-2.57,4.22,4.22,0,0,0-.66,2.57Zm4-6c.34-.54.81-1.32.42-1.82a13.88,13.88,0,0,0-.42,1.82ZM258.78,35A4.18,4.18,0,0,0,260,32.27a2.77,2.77,0,0,1-1.23,1.47,1.89,1.89,0,0,1-.7-1,2.56,2.56,0,0,0,.7,2.26Zm2.35-3.45s.82-1.44.36-2.23c-.54.12-.34,2.23-.36,2.23Zm0,2.4a9.17,9.17,0,0,0-.78,2.67c.18-.16,1.07-2.29.78-2.67Zm-5.67,7.25a2.71,2.71,0,0,0-.15-2.23,2.83,2.83,0,0,0,.15,2.23Zm.79,2.13a2.38,2.38,0,0,0,0-2,2.53,2.53,0,0,0,0,2Zm1-.68a5.15,5.15,0,0,0,.7-2.86,4.92,4.92,0,0,0-.7,2.86ZM254,41.37a6.73,6.73,0,0,0-.85-2.33,2.74,2.74,0,0,0,.85,2.33Zm6.39,1.17a1.07,1.07,0,0,0-.14-.53,6.45,6.45,0,0,0-.6,2.7c.29-1.06,1.11-1.28,1.33-2.27a1.07,1.07,0,0,0,.52.19A7.31,7.31,0,0,1,261,41a3.62,3.62,0,0,1-.62,1.52Zm-8.63,2.1a6.36,6.36,0,0,0-.61-2.71,1.08,1.08,0,0,0-.13.54,3.62,3.62,0,0,1-.62-1.52,7.69,7.69,0,0,1-.49,1.61,1.1,1.1,0,0,0,.52-.19c.21,1,1,1.2,1.33,2.27Zm-6.47-11.11a1.35,1.35,0,0,1-.63-.39,2,2,0,0,0,.95,1.2s.64-1.52-.81-3.69c.79,2.28.49,2.88.49,2.88Zm-.86,2.28a1.41,1.41,0,0,1-.56-.45,1.73,1.73,0,0,0,.89,1.26c.28-.91.45-1.63-.83-4.32.88,2.64.5,3.51.5,3.51Zm-5.28-1.28a4.77,4.77,0,0,1-.44-2.1A3.74,3.74,0,0,0,239,35a.93.93,0,0,0,.41-.75.93.93,0,0,1-.27.25Zm.8-.78a5.64,5.64,0,0,1-.54-2.34,4.19,4.19,0,0,0,.46,2.94,1.09,1.09,0,0,0,.43-.87c0,.13-.35.27-.35.27Zm3.49-4.63A6.41,6.41,0,0,1,242,26a6.34,6.34,0,0,0,1.62,4,3.41,3.41,0,0,0-.07-2.75,7.24,7.24,0,0,1-.08,1.81Zm-.93,1.47a7.51,7.51,0,0,1-1.27-3.46,6.68,6.68,0,0,0,1.35,4.32,2.41,2.41,0,0,0,.11-2.26,3.74,3.74,0,0,1-.19,1.4Zm-.87,1.11c-.29-.44-.7-1-1.06-3.61a6.4,6.4,0,0,0,1.09,4.4,1.94,1.94,0,0,0,.37-1.58,2.39,2.39,0,0,1-.4.79Zm-.85,1.11c-.25-.4-.44-.87-.67-3.18-.16,2.09.18,3.37.66,4a1.66,1.66,0,0,0,.38-1.4,1.65,1.65,0,0,1-.37.61Zm31.46,1.39a1,1,0,0,0,.41.76,3.76,3.76,0,0,0,.3-2.61,4.61,4.61,0,0,1-.44,2.11,1,1,0,0,1-.27-.26Zm-.88-.79a1.11,1.11,0,0,0,.44.87,4.22,4.22,0,0,0,.45-2.94,5.62,5.62,0,0,1-.54,2.33s-.3-.14-.35-.26ZM268.22,29a7.24,7.24,0,0,1-.08-1.81,3.41,3.41,0,0,0-.07,2.75,6.28,6.28,0,0,0,1.62-4A6.35,6.35,0,0,1,268.22,29Zm.93,1.47a3.68,3.68,0,0,1-.19-1.39,2.38,2.38,0,0,0,.12,2.26,6.78,6.78,0,0,0,1.34-4.32,7.33,7.33,0,0,1-1.27,3.45ZM271.09,28c-.37,2.58-.78,3.17-1.07,3.61a2.34,2.34,0,0,1-.39-.8,1.92,1.92,0,0,0,.36,1.59,6.47,6.47,0,0,0,1.1-4.4Zm.45,1.54c-.23,2.3-.42,2.78-.67,3.18a1.65,1.65,0,0,1-.37-.61,1.67,1.67,0,0,0,.38,1.39c.49-.6.83-1.88.66-4Zm-5.16,3.89s-.31-.59.48-2.88c-1.45,2.18-.81,3.7-.81,3.7a2,2,0,0,0,.95-1.2,1.28,1.28,0,0,1-.62.38Zm1.42,1.84a1.77,1.77,0,0,1-.89,1.26c-.29-.91-.46-1.64.83-4.32-.89,2.63-.5,3.5-.5,3.5a1.4,1.4,0,0,0,.56-.44Z"/></g><path class="cls-5" d="M4.07,35.51H4L2.43,41H5.72l-1.65-5.5Zm-.8-1.21H4.94L8.29,44.6H6.82l-.74-2.45h-4L1.33,44.6H0L3.27,34.3Z"/><path class="cls-5" d="M11.1,43.46H13a1.74,1.74,0,0,0,1.89-1.75c0-1.65-1-1.93-2.35-1.93H11.1v3.68Zm0-4.82H13a1.6,1.6,0,0,0,0-3.2H11.1v3.2Zm-1.31,6V34.3h3.35a2.34,2.34,0,0,1,2.3,1.06,2.8,2.8,0,0,1,.41,1.37,2.14,2.14,0,0,1-1.77,2.44v.07a2.18,2.18,0,0,1,2.11,2.47c0,2.63-1.92,2.89-3.09,2.89Z"/><path class="cls-5" d="M18.33,34.3h1.31v6.59c0,2.26.69,2.83,1.93,2.83s1.93-.57,1.93-2.83V34.3h1.31v6.54c0,2.85-1.06,4-3.24,4s-3.24-1.13-3.24-4V34.3Z"/><path class="cls-5" d="M31.6,43.46h1.24c1.83,0,2.5-.69,2.5-3.08V38.29c0-2.08-.64-2.85-2-2.85H31.6v8ZM30.29,34.3h3.17a2.74,2.74,0,0,1,2.76,1.57,10.43,10.43,0,0,1,.46,3.25c0,2.2-.2,3.47-.63,4.15-.55.89-1.6,1.33-3.39,1.33H30.29V34.3Z"/><polygon class="cls-5" points="39.06 44.6 39.06 34.3 40.37 34.3 40.37 38.75 43.98 38.75 43.98 34.3 45.3 34.3 45.3 44.6 43.98 44.6 43.98 39.89 40.37 39.89 40.37 44.6 39.06 44.6 39.06 44.6"/><path class="cls-5" d="M50.82,35.51h0L49.18,41h3.29l-1.65-5.5ZM50,34.3h1.67L55,44.6H53.57l-.74-2.45h-4l-.77,2.45H46.75L50,34.3Z"/><path class="cls-5" d="M57.85,43.46h1.86a1.74,1.74,0,0,0,1.89-1.75c0-1.65-1-1.93-2.35-1.93h-1.4v3.68Zm0-4.82h1.91a1.6,1.6,0,0,0,0-3.2H57.85v3.2Zm-1.31,6V34.3h3.35a2.34,2.34,0,0,1,2.3,1.06,2.8,2.8,0,0,1,.41,1.37,2.14,2.14,0,0,1-1.77,2.44v.07a2.18,2.18,0,0,1,2.11,2.47c0,2.63-1.92,2.89-3.09,2.89Z"/><polygon class="cls-5" points="66.61 44.6 65.3 44.6 65.3 34.3 66.61 34.3 66.61 44.6 66.61 44.6"/><path class="cls-5" d="M75.39,35.51h0L73.75,41H77l-1.65-5.5Zm-.8-1.21h1.67l3.35,10.3H78.14l-.74-2.45h-4l-.77,2.45H71.32l3.27-10.3Z"/><path class="cls-5" d="M85.91,37.05c0-1.21-.49-1.86-1.82-1.86-.42,0-1.9.07-1.9,2.22v3.48c0,2.26.66,2.83,1.9,2.83a3.25,3.25,0,0,0,1.84-.46V40.18H84V39h3.21v5a6.28,6.28,0,0,1-3.15.78c-2.18,0-3.24-1.13-3.24-4V37.45c0-2.05,1.06-3.36,3.24-3.36s3.28.81,3.19,3Z"/><path class="cls-5" d="M91,38.72h2c.94,0,1.4-.81,1.4-1.71A1.41,1.41,0,0,0,93,35.44H91v3.28Zm0,1.14V44.6H89.67V34.3h3.55a2.33,2.33,0,0,1,2.47,2.57,2.22,2.22,0,0,1-1.89,2.35v0c1.19.19,1.62.59,1.69,2.65a15,15,0,0,0,.35,2.7H94.47a12,12,0,0,1-.4-3.42,1.36,1.36,0,0,0-1.55-1.32Z"/><polygon class="cls-5" points="99.11 44.6 97.8 44.6 97.8 34.3 99.11 34.3 99.11 44.6 99.11 44.6"/><path class="cls-5" d="M106.13,37.14a2.44,2.44,0,0,0-.3-1.5,1.69,1.69,0,0,0-1.15-.44,1.59,1.59,0,0,0-1.56.8c0,.11-.3.37-.3,2.14v2.75c0,2.53.83,2.83,1.84,2.83.4,0,1.61-.15,1.63-2.16h1.35c.06,3.26-2.24,3.26-2.91,3.26-1.28,0-3.25-.09-3.25-4.09V37.82c0-2.91,1.28-3.73,3.31-3.73s2.82,1,2.7,3Z"/><path class="cls-5" d="M109.48,34.3h1.32v6.59c0,2.26.68,2.83,1.92,2.83s1.93-.57,1.93-2.83V34.3H116v6.54c0,2.85-1.06,4-3.24,4s-3.24-1.13-3.24-4V34.3Z"/><polygon class="cls-5" points="118.24 44.6 118.24 34.3 119.56 34.3 119.56 43.46 123.34 43.46 123.34 44.6 118.24 44.6 118.24 44.6"/><polygon class="cls-5" points="129.5 34.3 129.5 35.44 126.79 35.44 126.79 44.6 125.48 44.6 125.48 35.44 122.77 35.44 122.77 34.3 129.5 34.3 129.5 34.3"/><path class="cls-5" d="M130.81,34.3h1.32v6.59c0,2.26.68,2.83,1.92,2.83s1.93-.57,1.93-2.83V34.3h1.31v6.54c0,2.85-1,4-3.24,4s-3.24-1.13-3.24-4V34.3Z"/><path class="cls-5" d="M140.86,38.72h2c.94,0,1.39-.81,1.39-1.71a1.4,1.4,0,0,0-1.38-1.57h-2v3.28Zm0,1.14V44.6h-1.31V34.3h3.55a2.33,2.33,0,0,1,2.47,2.57,2.22,2.22,0,0,1-1.89,2.35v0c1.19.19,1.61.59,1.69,2.65a15,15,0,0,0,.35,2.7h-1.37a12,12,0,0,1-.4-3.42,1.36,1.36,0,0,0-1.55-1.32Z"/><polygon class="cls-5" points="147.51 44.6 147.51 34.3 152.81 34.3 152.81 35.44 148.82 35.44 148.82 38.75 152.53 38.75 152.53 39.89 148.82 39.89 148.82 43.46 152.9 43.46 152.9 44.6 147.51 44.6 147.51 44.6"/><path class="cls-5" d="M160.93,35.51h0L159.29,41h3.3l-1.66-5.5Zm-.8-1.21h1.67l3.35,10.3h-1.46l-.75-2.45h-4l-.77,2.45h-1.32l3.26-10.3Z"/><polygon class="cls-5" points="173.66 34.3 173.66 44.6 171.86 44.6 167.79 35.67 167.77 35.67 167.77 44.6 166.6 44.6 166.6 34.3 168.45 34.3 172.46 43.12 172.49 43.12 172.49 34.3 173.66 34.3 173.66 34.3"/><path class="cls-5" d="M177.38,43.46h1.24c1.83,0,2.5-.69,2.5-3.08V38.29c0-2.08-.64-2.85-2-2.85h-1.73v8Zm-1.31-9.16h3.17A2.74,2.74,0,0,1,182,35.87a10.43,10.43,0,0,1,.46,3.25c0,2.2-.2,3.47-.63,4.15-.55.89-1.59,1.33-3.39,1.33h-2.37V34.3Z"/><polygon class="cls-5" points="187.82 44.6 187.82 34.3 192.93 34.3 192.93 35.44 189.14 35.44 189.14 38.75 192.73 38.75 192.73 39.89 189.14 39.89 189.14 44.6 187.82 44.6 187.82 44.6"/><path class="cls-5" d="M199.35,40.89V37.41c0-2.15-1.48-2.22-1.9-2.22s-1.89.07-1.89,2.22v3.48c0,2.26.65,2.83,1.89,2.83s1.9-.57,1.9-2.83Zm-5.14,0V37.45c0-2.05,1.06-3.36,3.24-3.36s3.24,1.31,3.24,3.36v3.39c0,2.85-1.05,4-3.24,4s-3.24-1.13-3.24-4Z"/><path class="cls-5" d="M208.07,40.89V37.41c0-2.15-1.48-2.22-1.9-2.22s-1.9.07-1.9,2.22v3.48c0,2.26.66,2.83,1.9,2.83s1.9-.57,1.9-2.83Zm-5.14,0V37.45c0-2.05,1.06-3.36,3.24-3.36s3.24,1.31,3.24,3.36v3.39c0,2.85-1.06,4-3.24,4s-3.24-1.13-3.24-4Z"/><path class="cls-5" d="M213,43.46h1.25c1.82,0,2.49-.69,2.49-3.08V38.29c0-2.08-.64-2.85-2-2.85H213v8Zm-1.31-9.16h3.17a2.76,2.76,0,0,1,2.77,1.57,10.67,10.67,0,0,1,.45,3.25c0,2.2-.2,3.47-.63,4.15-.55.89-1.59,1.33-3.39,1.33h-2.37V34.3Z"/><path class="cls-5" d="M105.7,58v.29a1.64,1.64,0,0,0,1.73,1.85c1,0,1.84-.45,1.84-1.67,0-2.29-4.62-2-4.62-5.13a2.72,2.72,0,0,1,3-2.79c1.89,0,2.94.91,2.86,3h-1.37c0-1.13-.35-1.87-1.59-1.87A1.43,1.43,0,0,0,106,53.2c0,2.27,4.62,1.94,4.62,5.21,0,2.17-1.5,2.87-3.19,2.87-3,0-3-2.3-3-3.28Z"/><path class="cls-5" d="M115.75,52h0l-1.61,5.5h3.29L115.75,52Zm-.8-1.21h1.67L120,61.06H118.5l-.74-2.45h-4L113,61.06h-1.33L115,50.76Z"/><polygon class="cls-5" points="121.24 61.06 121.24 50.76 126.35 50.76 126.35 51.9 122.55 51.9 122.55 55.21 126.15 55.21 126.15 56.35 122.55 56.35 122.55 61.06 121.24 61.06 121.24 61.06"/><polygon class="cls-5" points="127.67 61.06 127.67 50.76 132.98 50.76 132.98 51.9 128.99 51.9 128.99 55.21 132.7 55.21 132.7 56.35 128.99 56.35 128.99 59.92 133.07 59.92 133.07 61.06 127.67 61.06 127.67 61.06"/><polygon class="cls-5" points="140.59 50.76 140.59 51.9 137.88 51.9 137.88 61.06 136.56 61.06 136.56 51.9 133.85 51.9 133.85 50.76 140.59 50.76 140.59 50.76"/><polygon class="cls-5" points="146.46 50.76 147.79 50.76 144.98 57.14 144.98 61.06 143.67 61.06 143.67 57.14 140.9 50.76 142.37 50.76 144.38 55.74 146.46 50.76 146.46 50.76"/><path class="cls-5" d="M155.37,52h0l-1.61,5.5H157L155.37,52Zm-.8-1.21h1.67l3.35,10.3h-1.47l-.74-2.45h-4l-.77,2.45H151.3l3.27-10.3Z"/><path class="cls-5" d="M160.92,50.76h1.31v6.59c0,2.26.68,2.83,1.93,2.83s1.92-.57,1.92-2.83V50.76h1.31V57.3c0,2.85-1,4-3.23,4s-3.24-1.13-3.24-4V50.76Z"/><polygon class="cls-5" points="175.46 50.76 175.46 51.9 172.74 51.9 172.74 61.06 171.43 61.06 171.43 51.9 168.72 51.9 168.72 50.76 175.46 50.76 175.46 50.76"/><polygon class="cls-5" points="176.9 61.06 176.9 50.76 178.21 50.76 178.21 55.21 181.82 55.21 181.82 50.76 183.13 50.76 183.13 61.06 181.82 61.06 181.82 56.35 178.21 56.35 178.21 61.06 176.9 61.06 176.9 61.06"/><path class="cls-5" d="M190.62,57.35V53.87c0-2.15-1.48-2.22-1.9-2.22s-1.9.07-1.9,2.22v3.48c0,2.26.66,2.83,1.9,2.83s1.9-.57,1.9-2.83Zm-5.14-.05V53.91c0-2,1.06-3.36,3.24-3.36S192,51.86,192,53.91V57.3c0,2.85-1.05,4-3.24,4s-3.24-1.13-3.24-4Z"/><path class="cls-5" d="M195.53,55.18h2c.94,0,1.39-.81,1.39-1.71a1.4,1.4,0,0,0-1.38-1.57h-2v3.28Zm0,1.15v4.73h-1.32V50.76h3.56a2.33,2.33,0,0,1,2.47,2.57,2.23,2.23,0,0,1-1.89,2.35v0c1.19.19,1.61.59,1.69,2.66a15.06,15.06,0,0,0,.35,2.69H199a12,12,0,0,1-.4-3.42,1.35,1.35,0,0,0-1.55-1.31Z"/><polygon class="cls-5" points="203.66 61.06 202.35 61.06 202.35 50.76 203.66 50.76 203.66 61.06 203.66 61.06"/><polygon class="cls-5" points="211.92 50.76 211.92 51.9 209.21 51.9 209.21 61.06 207.9 61.06 207.9 51.9 205.19 51.9 205.19 50.76 211.92 50.76 211.92 50.76"/><polygon class="cls-5" points="217.8 50.76 219.13 50.76 216.31 57.14 216.31 61.06 215 61.06 215 57.14 212.23 50.76 213.7 50.76 215.72 55.74 217.8 50.76 217.8 50.76"/><path class="cls-5" d="M6.43,13.63a.79.79,0,0,1-.25.58.81.81,0,0,1-.59.24.83.83,0,0,1-.6-.24.79.79,0,0,1-.25-.58A.76.76,0,0,1,5,13.05a.83.83,0,0,1,.6-.24.81.81,0,0,1,.59.24.76.76,0,0,1,.25.58Zm-2.81,0a.79.79,0,0,1-.25.58.81.81,0,0,1-.59.24.81.81,0,0,1-.6-.24.79.79,0,0,1-.25-.58.76.76,0,0,1,.25-.58.81.81,0,0,1,.6-.24.81.81,0,0,1,.59.24.76.76,0,0,1,.25.58Zm2.86,9.15c0,.22.1.34.3.34H7.6v1.25h-1a1.36,1.36,0,0,1-1-.41,1.65,1.65,0,0,1-.39-1.18l0-5.29c-.3.14-.65.33-1,.54A6.57,6.57,0,0,0,3,18.82a4.6,4.6,0,0,0-.9,1.06,2.55,2.55,0,0,0-.37,1.38,1.61,1.61,0,0,0,.67,1.48,4.89,4.89,0,0,0,2.11.54l-.1,1.26a6.33,6.33,0,0,1-2-.41,3.65,3.65,0,0,1-1.21-.81,2.5,2.5,0,0,1-.57-1,4,4,0,0,1-.15-1A3.72,3.72,0,0,1,1.14,19a7,7,0,0,1,1.7-1.65,10,10,0,0,1,2-1.08c.68-.26,1.23-.45,1.64-.57v7.13Z"/><path class="cls-5" d="M11.58,27.8a.85.85,0,0,1-.6-.24.81.81,0,0,1-.25-.58A.79.79,0,0,1,11,26.4a.87.87,0,0,1,1.2,0,.79.79,0,0,1,.25.58.81.81,0,0,1-.25.58.85.85,0,0,1-.6.24ZM9,27.8a.81.81,0,0,1-.59-.24A.77.77,0,0,1,8.2,27a.76.76,0,0,1,.25-.58A.81.81,0,0,1,9,26.16a.85.85,0,0,1,.6.24.76.76,0,0,1,.25.58.77.77,0,0,1-.25.58.85.85,0,0,1-.6.24ZM7.6,24.37A.87.87,0,0,1,7,24.15a.56.56,0,0,1-.25-.41A.58.58,0,0,1,7,23.33a.91.91,0,0,1,.62-.21H11V17h1.29v6.16h1.12v1.25Z"/><path class="cls-5" d="M17.45,14a2.78,2.78,0,0,0-1.07-.24,1,1,0,0,0-.52.12.46.46,0,0,0-.2.44.7.7,0,0,0,.37.67,1.87,1.87,0,0,0,.92.21h.62v.62H14.24v-.62h1.07a.62.62,0,0,1-.2-.32,1.54,1.54,0,0,1-.1-.56,1,1,0,0,1,.42-.93,1.7,1.7,0,0,1,.92-.27,3.61,3.61,0,0,1,1.35.27l-.25.61Zm-1.57,3h1.29v7.44H13.39a.91.91,0,0,1-.62-.22.6.6,0,0,1-.25-.41.62.62,0,0,1,.25-.41,1,1,0,0,1,.62-.21h2.49V16.93Z"/><polygon class="cls-5" points="19.19 11.7 20.48 11.7 20.48 24.37 19.19 24.37 19.19 11.7 19.19 11.7"/><path class="cls-5" d="M26.1,13.84a.82.82,0,0,1-.23.58.81.81,0,0,1-.59.24.85.85,0,0,1-.6-.24.78.78,0,0,1-.24-.58.8.8,0,0,1,.24-.58.85.85,0,0,1,.6-.24.81.81,0,0,1,.59.24.83.83,0,0,1,.23.58Zm-3.93,3.34a5.77,5.77,0,0,1,1.27-.78A4.35,4.35,0,0,1,25.28,16a3.61,3.61,0,0,1,3,1.45A4.65,4.65,0,0,1,29,19a6.19,6.19,0,0,1,.24,1.71A7,7,0,0,1,29.11,22a8.63,8.63,0,0,1-.29,1.12h1.37v1.25H22.1V23.12h5.35c.09-.25.2-.57.32-1a5.6,5.6,0,0,0,.17-1.47,4.64,4.64,0,0,0-.18-1.3,3.57,3.57,0,0,0-.53-1.07,2.5,2.5,0,0,0-.84-.74,2.39,2.39,0,0,0-1.13-.27,3.38,3.38,0,0,0-1.07.18,5.09,5.09,0,0,0-1.25.66l-.77-1Z"/><path class="cls-5" d="M36.5,13.55a.79.79,0,0,1-.25.58.87.87,0,0,1-1.2,0,.78.78,0,0,1-.24-.58.82.82,0,0,1,.24-.58.87.87,0,0,1,1.2,0,.83.83,0,0,1,.25.58Zm-4,5.34q.3.2.72.51a10.46,10.46,0,0,1,.87.71A9.34,9.34,0,0,1,35,21a7.08,7.08,0,0,1,.78,1.08,6.43,6.43,0,0,1,.77-1q.45-.5.9-.9a10.27,10.27,0,0,1,.87-.7l.72-.49-.45-.57a3.26,3.26,0,0,0-.67-.6A4,4,0,0,0,37,17.3a3.41,3.41,0,0,0-1.19-.2,3.93,3.93,0,0,0-2,.49,3.27,3.27,0,0,0-1.33,1.3Zm8.18.54c-.28.15-.61.34-1,.59a12.17,12.17,0,0,0-1.14.86,9.08,9.08,0,0,0-1.09,1.06,4.47,4.47,0,0,0-.78,1.18h4.63v1.25H30.21a.91.91,0,0,1-.63-.22.58.58,0,0,1-.24-.41.6.6,0,0,1,.24-.41,1,1,0,0,1,.63-.21h4.7a4.71,4.71,0,0,0-.85-1.27,10,10,0,0,0-1.13-1.05A12.87,12.87,0,0,0,31.8,20l-.87-.49a4.57,4.57,0,0,1,.72-1.63,4.72,4.72,0,0,1,2.6-1.82,5.3,5.3,0,0,1,1.58-.23,5.23,5.23,0,0,1,1.82.29,4.78,4.78,0,0,1,1.41.77,4.63,4.63,0,0,1,1,1.14,5.39,5.39,0,0,1,.64,1.38Z"/><path class="cls-5" d="M42.46,11.62h1.3V24.37H41.35a.91.91,0,0,1-.63-.22.58.58,0,0,1-.24-.41.6.6,0,0,1,.24-.41,1,1,0,0,1,.63-.21h1.11V11.62Z"/><polygon class="cls-5" points="45.75 11.7 47.04 11.7 47.04 24.37 45.75 24.37 45.75 11.7 45.75 11.7"/><path class="cls-5" d="M58.75,13.63a.79.79,0,0,1-.25.58.81.81,0,0,1-.59.24.83.83,0,0,1-.6-.24.79.79,0,0,1-.25-.58.76.76,0,0,1,.25-.58.83.83,0,0,1,.6-.24.81.81,0,0,1,.59.24.76.76,0,0,1,.25.58Zm-2.81,0a.79.79,0,0,1-.25.58.81.81,0,0,1-.59.24.85.85,0,0,1-.6-.24.83.83,0,0,1-.25-.58.79.79,0,0,1,.25-.58.85.85,0,0,1,.6-.24.81.81,0,0,1,.59.24.76.76,0,0,1,.25.58Zm2.86,9.15c0,.22.1.34.3.34h.82v1.25h-1a1.36,1.36,0,0,1-1-.41,1.65,1.65,0,0,1-.39-1.18l0-5.29c-.31.14-.66.33-1.06.54a6.14,6.14,0,0,0-1.12.79,4.41,4.41,0,0,0-.91,1.06A2.55,2.55,0,0,0,54,21.26a1.61,1.61,0,0,0,.67,1.48,4.89,4.89,0,0,0,2.11.54l-.1,1.26a6.39,6.39,0,0,1-2.05-.41,3.5,3.5,0,0,1-1.2-.81,2.42,2.42,0,0,1-.58-1,4,4,0,0,1-.14-1A3.78,3.78,0,0,1,53.46,19a7,7,0,0,1,1.7-1.65,10,10,0,0,1,2-1.08c.68-.26,1.23-.45,1.64-.57v7.13Z"/><path class="cls-5" d="M65.57,17.71a8.71,8.71,0,0,0-1,.36,6.12,6.12,0,0,0-1.13.6,3.39,3.39,0,0,0-.9.87,2,2,0,0,0-.37,1.18A1.86,1.86,0,0,0,63,22.55a6.1,6.1,0,0,0,2.53.52V17.71Zm1.29-1.52v8.18h-7a.91.91,0,0,1-.63-.22.58.58,0,0,1-.24-.41.6.6,0,0,1,.24-.41,1,1,0,0,1,.63-.21h1.76a3.67,3.67,0,0,1-.6-1,3.87,3.87,0,0,1-.23-1.42,3.13,3.13,0,0,1,.73-2.11,6.08,6.08,0,0,1,1.72-1.39,8.45,8.45,0,0,1,2-.76,12,12,0,0,1,1.57-.27Z"/><path class="cls-5" d="M77.13,23.12v1.25H74.72V23.12a5.14,5.14,0,0,1-1.28.9,7.71,7.71,0,0,1-1.38.51,8.59,8.59,0,0,1-1.36.23c-.44,0-.83,0-1.18,0h-.67V23.55h1a8,8,0,0,0,.93-.08,8.92,8.92,0,0,0,1-.18,4.27,4.27,0,0,0,1-.36,31.06,31.06,0,0,0-1.25-3.29,28.7,28.7,0,0,0-1.41-2.73,20.23,20.23,0,0,0-1.43-2.16c-.47-.63-.91-1.18-1.33-1.65l1-.82c.41.47.86,1,1.34,1.66a24.73,24.73,0,0,1,1.45,2.17,29.6,29.6,0,0,1,1.44,2.72A33,33,0,0,1,73.9,22.1a3.75,3.75,0,0,0,.82-2.53v-8H76v11.5Z"/><path class="cls-5" d="M87.6,23.12v1.25H77.13a.87.87,0,0,1-.62-.22.56.56,0,0,1-.25-.41.58.58,0,0,1,.25-.41.91.91,0,0,1,.62-.21h.35c.55,0,.87-.07,1-.19a.85.85,0,0,0,.16-.59V16.86h1.3v6.26H82V16.86h1.29v6.26h1.87V16.86h1.34v6.26Z"/><path class="cls-5" d="M88.72,11.62H90V24.37H87.6a.87.87,0,0,1-.62-.22.56.56,0,0,1-.25-.41.58.58,0,0,1,.25-.41.91.91,0,0,1,.62-.21h1.12V11.62Z"/><polygon class="cls-5" points="92 11.7 93.29 11.7 93.29 24.37 92 24.37 92 11.7 92 11.7"/><path class="cls-5" d="M99.91,23.12V17.51a5.94,5.94,0,0,0-2.64,1.39,3,3,0,0,0-1,2.23A1.67,1.67,0,0,0,97,22.58a4.12,4.12,0,0,0,2.38.54ZM101.2,25a11.69,11.69,0,0,1-.12,1.69,4.26,4.26,0,0,1-.48,1.46,2.79,2.79,0,0,1-1,1,3.38,3.38,0,0,1-1.75.4V28.33A2,2,0,0,0,99,28a1.82,1.82,0,0,0,.62-.82A4,4,0,0,0,99.9,26c0-.44,0-.91,0-1.39v-.27h-.69a5,5,0,0,1-3.14-.87A2.79,2.79,0,0,1,95,21.18a4.15,4.15,0,0,1,.45-1.9,5.14,5.14,0,0,1,1.29-1.59,7.09,7.09,0,0,1,2-1.12,9.24,9.24,0,0,1,2.5-.55v9Z"/><path class="cls-5" d="M112.94,13.63a.79.79,0,0,1-.25.58.86.86,0,0,1-1.19,0,.79.79,0,0,1-.25-.58.76.76,0,0,1,.25-.58.86.86,0,0,1,1.19,0,.76.76,0,0,1,.25.58Zm-2.81,0a.84.84,0,0,1-.85.82.81.81,0,0,1-.59-.24.79.79,0,0,1-.25-.58.76.76,0,0,1,.25-.58.81.81,0,0,1,.59-.24.83.83,0,0,1,.6.24.79.79,0,0,1,.25.58ZM113,22.78c0,.22.1.34.3.34h.82v1.25h-1a1.36,1.36,0,0,1-1-.41,1.65,1.65,0,0,1-.39-1.18l0-5.29c-.3.14-.65.33-1,.54a6.21,6.21,0,0,0-1.13.79,4.6,4.6,0,0,0-.9,1.06,2.55,2.55,0,0,0-.38,1.38,1.61,1.61,0,0,0,.68,1.48,4.84,4.84,0,0,0,2.11.54l-.1,1.26a6.27,6.27,0,0,1-2.05-.41,3.65,3.65,0,0,1-1.21-.81,2.39,2.39,0,0,1-.57-1,4,4,0,0,1-.15-1,3.78,3.78,0,0,1,.72-2.31,7,7,0,0,1,1.71-1.65,10,10,0,0,1,2-1.08c.68-.26,1.22-.45,1.64-.57v7.13Z"/><path class="cls-5" d="M121.44,23.12v1.25h-7.33a.87.87,0,0,1-.62-.22.56.56,0,0,1-.25-.41.58.58,0,0,1,.25-.41.91.91,0,0,1,.62-.21h2.21a3.52,3.52,0,0,1-.85-.84,2.45,2.45,0,0,1-.44-1.56,3.77,3.77,0,0,1,.41-1.7,4.27,4.27,0,0,1,1.21-1.42,7.15,7.15,0,0,1,2-1,11.12,11.12,0,0,1,2.72-.53v2.73h-1.29V17.49a5.13,5.13,0,0,0-2.72,1.18,2.81,2.81,0,0,0-1,2.13,2.29,2.29,0,0,0,.1.5,1.69,1.69,0,0,0,.57.79,4.56,4.56,0,0,0,1.47.71,9.71,9.71,0,0,0,2.81.32Z"/><polygon class="cls-5" points="123.33 11.7 124.63 11.7 124.63 24.37 123.33 24.37 123.33 11.7 123.33 11.7"/><path class="cls-5" d="M128.16,24.93a14.65,14.65,0,0,1-.1,1.61,4.52,4.52,0,0,1-.45,1.5,2.76,2.76,0,0,1-1,1.1,3.39,3.39,0,0,1-1.81.42V28.31a2,2,0,0,0,1.14-.29,1.86,1.86,0,0,0,.63-.76,3.57,3.57,0,0,0,.27-1.08c0-.4.05-.82.05-1.25v-8h1.29v8Z"/><path class="cls-5" d="M132.11,14.11a.83.83,0,0,1-.23.58.81.81,0,0,1-.59.24.85.85,0,0,1-.6-.24.8.8,0,0,1-.24-.58.78.78,0,0,1,.24-.58.85.85,0,0,1,.6-.24.81.81,0,0,1,.59.24.82.82,0,0,1,.23.58Zm-.17,10.82a14.65,14.65,0,0,1-.1,1.61,4.52,4.52,0,0,1-.45,1.5,2.76,2.76,0,0,1-1,1.1,3.39,3.39,0,0,1-1.81.42V28.31A2,2,0,0,0,129.7,28a1.86,1.86,0,0,0,.63-.76,3.57,3.57,0,0,0,.27-1.08c0-.4,0-.82,0-1.25v-8h1.3v6.19h1.12v1.25h-1.12v.56Z"/><path class="cls-5" d="M134.18,11.62h1.29v11.5h1.12v1.25h-3.53a.91.91,0,0,1-.63-.22.58.58,0,0,1-.24-.41.6.6,0,0,1,.24-.41,1,1,0,0,1,.63-.21h1.12V11.62Z"/><path class="cls-5" d="M137.71,11.62H139V24.37h-2.41a.87.87,0,0,1-.62-.22.56.56,0,0,1-.25-.41.58.58,0,0,1,.25-.41.91.91,0,0,1,.62-.21h1.12V11.62Z"/><path class="cls-5" d="M150.26,30.21a.78.78,0,0,1-.24.58.87.87,0,0,1-1.2,0,.79.79,0,0,1-.25-.58.81.81,0,0,1,.25-.58.87.87,0,0,1,1.2,0,.8.8,0,0,1,.24.58Zm-2.8,0a.79.79,0,0,1-.25.58.87.87,0,0,1-1.2,0,.79.79,0,0,1-.25-.58.81.81,0,0,1,.25-.58.87.87,0,0,1,1.2,0,.81.81,0,0,1,.25.58Zm7.65-7.09v1.25h-1.19l-2.34-7.22a2.82,2.82,0,0,0-.87.48,3.08,3.08,0,0,0-.63.72,3.21,3.21,0,0,0-.39.84,3.39,3.39,0,0,0-.12.88,2.64,2.64,0,0,0,.67,1.79,8.87,8.87,0,0,0,1.54,1.38,3.56,3.56,0,0,1,.36.25,1.19,1.19,0,0,1,.22.23l.32.51a3.74,3.74,0,0,1-.25,1.23,4.05,4.05,0,0,1-2.19,2.29,5,5,0,0,1-2.14.41,4.39,4.39,0,0,1-1.25-.2,3.8,3.8,0,0,1-1.22-.62,3.22,3.22,0,0,1-.92-1.05,3.09,3.09,0,0,1-.36-1.53V23.14h1.29v1.62a1.85,1.85,0,0,0,.24,1,2,2,0,0,0,.61.68,2.89,2.89,0,0,0,1.61.5,3.76,3.76,0,0,0,1.58-.28,2.87,2.87,0,0,0,1-.67,2.22,2.22,0,0,0,.5-.79c.09-.27.15-.48.19-.65l-.08-.09-.86-.62a6.3,6.3,0,0,1-1-.9,6,6,0,0,1-.81-1.23,3.65,3.65,0,0,1-.33-1.57,4.58,4.58,0,0,1,.26-1.57,4,4,0,0,1,.78-1.35,4.24,4.24,0,0,1,1.3-1,6.13,6.13,0,0,1,1.83-.54l2.42,7.49Z"/><path class="cls-5" d="M156.38,27a.81.81,0,0,1,.25-.58.87.87,0,0,1,1.2,0,.8.8,0,0,1,.24.58.78.78,0,0,1-.24.58.87.87,0,0,1-1.2,0,.79.79,0,0,1-.25-.58Zm.23-3.88V17h1.29v6.16H159v1.25h-3.91a.91.91,0,0,1-.62-.22.6.6,0,0,1-.25-.41.62.62,0,0,1,.25-.41,1,1,0,0,1,.62-.21Z"/><path class="cls-5" d="M165.16,14.4a.77.77,0,0,1-.25.58.86.86,0,0,1-1.19,0,.77.77,0,0,1-.25-.58.76.76,0,0,1,.25-.58.86.86,0,0,1,1.19,0,.76.76,0,0,1,.25.58Zm4.4,3.11a10.61,10.61,0,0,0-3.69.9A8.52,8.52,0,0,0,163.53,20a6.24,6.24,0,0,0-1.3,1.75,8.94,8.94,0,0,0-.58,1.39h7.91V17.51ZM159,24.37a.89.89,0,0,1-.62-.22.6.6,0,0,1-.25-.41.62.62,0,0,1,.25-.41.93.93,0,0,1,.62-.21h1.25V11.62h1.29v8.72a8.66,8.66,0,0,1,1.21-1.46,8,8,0,0,1,1.77-1.33,11.18,11.18,0,0,1,2.44-1,11.85,11.85,0,0,1,3.18-.38h.68v8.18Z"/><path class="cls-5" d="M177.47,23.12V17.51a5.94,5.94,0,0,0-2.64,1.39,3,3,0,0,0-1,2.23,1.67,1.67,0,0,0,.75,1.45,4.12,4.12,0,0,0,2.38.54ZM178.76,25a11.69,11.69,0,0,1-.12,1.69,4.47,4.47,0,0,1-.47,1.46,3,3,0,0,1-1,1,3.41,3.41,0,0,1-1.75.4V28.33a2,2,0,0,0,1.19-.3,1.82,1.82,0,0,0,.62-.82,4,4,0,0,0,.24-1.18c0-.44,0-.91,0-1.39v-.27h-.45a5.48,5.48,0,0,1-3.36-.87,2.77,2.77,0,0,1-1.14-2.32,4.15,4.15,0,0,1,.45-1.9,5.14,5.14,0,0,1,1.29-1.59,7.23,7.23,0,0,1,2-1.12,9.32,9.32,0,0,1,2.5-.55v7.1h1.12v1.25h-1.12V25Z"/><path class="cls-5" d="M181.17,27a.81.81,0,0,1,.25-.58.87.87,0,0,1,1.2,0,.81.81,0,0,1,.25.58.79.79,0,0,1-.25.58.87.87,0,0,1-1.2,0,.79.79,0,0,1-.25-.58Zm.23-3.88V17h1.29v7.41h-2.78a.87.87,0,0,1-.62-.22.56.56,0,0,1-.25-.41.58.58,0,0,1,.25-.41.91.91,0,0,1,.62-.21Z"/><path class="cls-5" d="M184.83,12.64h1.29V24.37h-1.29V12.64ZM187,9.77A2.73,2.73,0,0,0,186,9.53a1,1,0,0,0-.53.12.48.48,0,0,0-.2.44.71.71,0,0,0,.38.67,1.84,1.84,0,0,0,.92.21h.62v.63h-3.33V11h1.07c-.07,0-.14-.14-.2-.32a1.5,1.5,0,0,1-.1-.56,1,1,0,0,1,.42-.93,1.68,1.68,0,0,1,.92-.27,3.52,3.52,0,0,1,1.34.27l-.25.61Z"/><path class="cls-5" d="M198,13.63a.83.83,0,0,1-.25.58.87.87,0,0,1-1.2,0,.83.83,0,0,1-.25-.58.79.79,0,0,1,.25-.58.87.87,0,0,1,1.2,0,.79.79,0,0,1,.25.58Zm-2.82,0a.82.82,0,0,1-.24.58.87.87,0,0,1-1.2,0,.83.83,0,0,1-.25-.58.79.79,0,0,1,.25-.58.87.87,0,0,1,1.2,0,.78.78,0,0,1,.24.58ZM198,22.78c0,.22.09.34.29.34h.83v1.25h-1a1.36,1.36,0,0,1-1-.41,1.65,1.65,0,0,1-.39-1.18l0-5.29c-.3.14-.65.33-1.05.54a5.88,5.88,0,0,0-1.13.79,4.6,4.6,0,0,0-.9,1.06,2.47,2.47,0,0,0-.38,1.38,1.61,1.61,0,0,0,.67,1.48,4.93,4.93,0,0,0,2.11.54L196,24.54a6.27,6.27,0,0,1-2-.41,3.55,3.55,0,0,1-1.21-.81,2.42,2.42,0,0,1-.58-1,4.47,4.47,0,0,1-.14-1,3.78,3.78,0,0,1,.72-2.31,7.19,7.19,0,0,1,1.7-1.65,10.28,10.28,0,0,1,2-1.08q1-.39,1.65-.57v7.13Z"/><path class="cls-5" d="M203.26,14a2.78,2.78,0,0,0-1.07-.24,1,1,0,0,0-.52.12.46.46,0,0,0-.2.44.7.7,0,0,0,.37.67,1.87,1.87,0,0,0,.92.21h.62v.62h-3.33v-.62h1.07a.62.62,0,0,1-.2-.32,1.54,1.54,0,0,1-.1-.56,1,1,0,0,1,.42-.93,1.68,1.68,0,0,1,.92-.27,3.61,3.61,0,0,1,1.35.27l-.25.61Zm-4.1,10.42a.91.91,0,0,1-.63-.22.58.58,0,0,1-.24-.41.6.6,0,0,1,.24-.41,1,1,0,0,1,.63-.21h2.48V17H203v6.16h1.12v1.25Z"/><path class="cls-5" d="M208.06,27.8a.85.85,0,0,1-.6-.24.77.77,0,0,1-.25-.58.76.76,0,0,1,.25-.58.85.85,0,0,1,.6-.24.81.81,0,0,1,.59.24.76.76,0,0,1,.25.58.77.77,0,0,1-.25.58.81.81,0,0,1-.59.24Zm-2.54,0a.85.85,0,0,1-.6-.24.81.81,0,0,1-.25-.58.79.79,0,0,1,.25-.58.87.87,0,0,1,1.2,0,.79.79,0,0,1,.25.58.81.81,0,0,1-.25.58.85.85,0,0,1-.6.24Zm-1.44-3.43a.87.87,0,0,1-.62-.22.56.56,0,0,1-.25-.41.58.58,0,0,1,.25-.41.91.91,0,0,1,.62-.21h3.36V17h1.29v6.16h1.12v1.25Z"/><path class="cls-5" d="M212.28,21.3a1.35,1.35,0,0,0,.72,1.33,6.57,6.57,0,0,0,2.39.46V19.66a4,4,0,0,0-.48-.08,3.81,3.81,0,0,0-.59,0,2.16,2.16,0,0,0-1.53.48,1.69,1.69,0,0,0-.51,1.28Zm-2.41,3.07a.89.89,0,0,1-.62-.22.56.56,0,0,1-.25-.41.58.58,0,0,1,.25-.41.93.93,0,0,1,.62-.21h1.79a2.54,2.54,0,0,1-.67-1.86,3.17,3.17,0,0,1,.2-1.11,2.71,2.71,0,0,1,.61-1,2.86,2.86,0,0,1,1-.66,4.16,4.16,0,0,1,1.49-.24l.71,0c.28,0,.53.06.77.11a2.05,2.05,0,0,1,.62.22.42.42,0,0,1,.27.36v4.11h1.11V17c-.23-.05-.5-.09-.83-.13a8.5,8.5,0,0,0-1.05-.06,6.23,6.23,0,0,0-1.9.3,2.53,2.53,0,0,0-1.46,1.22l-1.12-.63a3.94,3.94,0,0,1,.89-1.07,4.73,4.73,0,0,1,1.13-.65,5.63,5.63,0,0,1,1.25-.33,7.46,7.46,0,0,1,1.23-.1c.23,0,.49,0,.77,0s.56.06.85.11l.83.16a6.8,6.8,0,0,1,.71.17v8.36Z"/></g></g></svg>