<svg xmlns="http://www.w3.org/2000/svg" viewBox="0 0 86.83 22.96"><defs><style>.cls-1{fill:#fff;}</style></defs><title>Asset 8</title><g id="Layer_2" data-name="Layer 2"><g id="Layer_1-2" data-name="Layer 1"><polyline class="cls-1" points="77.88 9.32 77.88 9.32 77.88 9.32"/><polyline class="cls-1" points="77.59 9.45 77.59 9.45 77.59 9.45"/><path class="cls-1" d="M86.6,11.56c0-.38,0-1,0-1.3a10.75,10.75,0,0,1-1.83,1.23l-.29.16v-.21A11.52,11.52,0,0,0,83.13,6.1c-.08.12-.38.49-.68.87a.61.61,0,0,1,.52.19,5.29,5.29,0,0,1,1,1.66,4.19,4.19,0,0,1,.23,1.56h0s-.17,2.9-.51,5.69a15,15,0,0,1-.46,2.86,1.64,1.64,0,0,1-.32-.7l0,0a2.07,2.07,0,0,1-.28-.75,11.45,11.45,0,0,1-.13-2.07h0A1.09,1.09,0,0,0,82.4,15a1.48,1.48,0,0,1-.13-.35h0a2.36,2.36,0,0,0-.74-1.24A3.6,3.6,0,0,1,81,12.6l0,0a.66.66,0,0,0-.23.32,3.48,3.48,0,0,1,0,1l-.1-.08c0,.3-.11.65,0,.92l-.18,0,0,0a.23.23,0,0,0,.09.08l.06,0,.18.06a.54.54,0,0,0-.07-.56c-.09-.1,0-.25.19-.18a2.51,2.51,0,0,1,.73.49c.37.35.48.69.4.76a.17.17,0,0,1-.18,0,0,0,0,0,1,0,0,.19.19,0,0,1-.16.14v0a.26.26,0,0,1-.22.07.5.5,0,0,1-.22-.07s0,0-.07,0a.18.18,0,0,1-.07,0,15,15,0,0,1,1.26,1.77,5.12,5.12,0,0,1,.42.94.74.74,0,0,1-.35,0,1.19,1.19,0,0,1,.09.52,1.11,1.11,0,0,1-.57-.13s0,.06,0,.1l.47.34a4.58,4.58,0,0,1-2.18.22l-.17,0,0,.08.33.77a2.94,2.94,0,0,0,1.89.29,2.21,2.21,0,0,0,.47-.13,4.88,4.88,0,0,0,1.52-1A5.71,5.71,0,0,0,85.46,18a14.59,14.59,0,0,0,1.14-5.88v-.59Zm-6.09,9.53s-.33-.83-.52-1.33c0,.07-.09.12-.11.12a.73.73,0,0,1-.17-.13A11.26,11.26,0,0,1,79.87,21a.61.61,0,0,1,.64.09Zm-.81.25a14.75,14.75,0,0,0-.22-1.85l0,0,0-.08a2.3,2.3,0,0,1-.12.34.83.83,0,0,1-.18.27,1.27,1.27,0,0,1-.43-.54,1.28,1.28,0,0,1-.43.53.83.83,0,0,1-.18-.27L78,19.52a14.64,14.64,0,0,0-.19,1.82c-.53-.35-.85,0-.74.24a.21.21,0,0,0,0,.06.34.34,0,0,0,.26.14,1.86,1.86,0,0,1,.65.14,2.19,2.19,0,0,1,.74.62,2.1,2.1,0,0,1,.74-.62,1.81,1.81,0,0,1,.65-.14.39.39,0,0,0,.26-.14s0,0,0-.06c.11-.24-.21-.59-.74-.24ZM77,21.09a.6.6,0,0,1,.64-.09c0-.34.07-.84.14-1.28a1,1,0,0,1-.2.16s0,0-.07-.05c-.21.52-.51,1.25-.51,1.26ZM77,20.3v0c0-.11.22-.53.31-.75a.36.36,0,0,1,0-.11l-.37,0a4.34,4.34,0,0,1-2.17-.21,6.13,6.13,0,0,1,.58-.42.07.07,0,0,1,0-.05,1.22,1.22,0,0,1-.57.13,1.25,1.25,0,0,1,.09-.53.68.68,0,0,1-.35,0,5.12,5.12,0,0,1,.42-.94,10.63,10.63,0,0,1,1-1.36.94.94,0,0,1,.17-.31l.06-.06L76,15.64a.18.18,0,0,1-.08.06.58.58,0,0,1-.22.07c-.12,0-.18,0-.22-.07v0a.19.19,0,0,1-.16-.13.09.09,0,0,1,0-.05.14.14,0,0,1-.16,0c-.08-.07,0-.41.4-.76a2.59,2.59,0,0,1,.73-.49c.18-.07.28.08.19.18a.53.53,0,0,0-.07.57l.16-.06a.31.31,0,0,0,.15-.11v0h-.15c.08-.19,0-.67,0-1l-.11.07a3.88,3.88,0,0,1,0-1c0-.06-.08-.15-.19-.27a2.85,2.85,0,0,1-.49.81,2.3,2.3,0,0,0-.73,1.24h0a1.55,1.55,0,0,1-.13.36,1,1,0,0,0-.11.39h0a10.76,10.76,0,0,1-.13,2.08,2.18,2.18,0,0,1-.28.75l0,0a1.64,1.64,0,0,1-.32.7,15,15,0,0,1-.46-2.86c-.34-2.79-.5-5.69-.5-5.69h0a4.4,4.4,0,0,1,.23-1.56,5.29,5.29,0,0,1,1-1.66A.65.65,0,0,1,75,7l-.11-.15-.61-.78a11.68,11.68,0,0,0-1.32,5.28v.3l-.24-.13a11.16,11.16,0,0,1-1.88-1.26c0,.29,0,1.28,0,1.28v.59A15.57,15.57,0,0,0,71.89,18,5.72,5.72,0,0,0,73,19.48a4.32,4.32,0,0,0,1.65,1l.14.05A3,3,0,0,0,77,20.3ZM70.82,9.94a12.39,12.39,0,0,0,1.87,1.29,11.38,11.38,0,0,1,1.4-5.36l-.37-.49a1,1,0,0,1-.47.26,2,2,0,0,0-.23-1,4.41,4.41,0,0,1-1-.1,14.34,14.34,0,0,0-1.16,5.43ZM72,4.5a1.59,1.59,0,0,0,.41-.36l.16-.27-.14-.18A7.82,7.82,0,0,0,72,4.5Zm.7-.89a.35.35,0,0,1,.06-.09l-.59-.77A.88.88,0,0,1,72,2.17a4.49,4.49,0,0,1-.71-.4l1.39,1.84Zm0-.35a1,1,0,0,1,.11.15A4.9,4.9,0,0,1,75,1.84a.43.43,0,0,1,.09-.59h0c.39.05.49.28.51.4a11.4,11.4,0,0,1,2.45-.34.84.84,0,0,1,.49-.79.18.18,0,0,1,.1-.16h0a.2.2,0,0,1,.11.16.84.84,0,0,1,.48.79,11.5,11.5,0,0,1,2.46.34.51.51,0,0,1,.5-.4h0a.43.43,0,0,1,.09.59,5.05,5.05,0,0,1,2.22,1.59l.11-.16a5.19,5.19,0,0,0-2-1.48.57.57,0,0,0-.14-.62.27.27,0,0,0-.13-.23h0a.33.33,0,0,0-.26.11.72.72,0,0,0-.57.39,10.8,10.8,0,0,0-2.06-.28A.84.84,0,0,0,79,.41a.4.4,0,0,0-.27-.24.42.42,0,0,0-.27.24.85.85,0,0,0-.51.75,10.8,10.8,0,0,0-2.07.28.72.72,0,0,0-.56-.39A.35.35,0,0,0,75,.94h0a.29.29,0,0,0-.12.23.59.59,0,0,0-.15.62,5,5,0,0,0-2,1.47Zm11.9.28.06.11,1.43-1.9a4.55,4.55,0,0,1-.7.39.94.94,0,0,1-.15.58l-.64.82Zm.3.18-.13.18a1.35,1.35,0,0,0,.56.59,7.22,7.22,0,0,0-.43-.77ZM82.81,6.15l.7-.93-.07-.1-.76,1a7.15,7.15,0,0,0-.47.69c0,.07.47-.49.6-.68ZM78.14,19.2a1.5,1.5,0,0,0,.15.36,1.08,1.08,0,0,0,.31-.64l-.18.13a2,2,0,0,1-.28.15Zm-3.06,0a5.69,5.69,0,0,0,1.91.1,3.26,3.26,0,0,0,1.51-.55l-.37-.33a2.92,2.92,0,0,1-.51.35,6.84,6.84,0,0,1-1.74.37,10.74,10.74,0,0,0,1.74-.53,4,4,0,0,0,.4-.3l-.46-.44a2,2,0,0,1-.23.18,3.32,3.32,0,0,1-.6.29,7.74,7.74,0,0,0-1.65.86Zm1.47-7.54a3,3,0,0,0-.39-2.15,10.75,10.75,0,0,1,.39,2.15Zm-1-3.35a1.32,1.32,0,0,0,0,.56,1.61,1.61,0,0,0,.12.33,2.29,2.29,0,0,0-.14-.89Zm.27.43A3.89,3.89,0,0,0,76,9.87a2.24,2.24,0,0,0-.21-1.13Zm-2-3.56.75,1c.14.19.61.75.61.68a8,8,0,0,0-.48-.69l-.81-1.1-.07.11Zm-.35-1.85h0s-.14-.13-.39.05c-.45.38-.31.74-.76,1a2,2,0,0,0,.4,0H73l.21,0h0a2,2,0,0,1,.26.94c.54-.29.32-1.21.82-1.2l-.74-.82Zm10.27-.22a4.56,4.56,0,0,0-1.3-.84,10,10,0,0,0-3.8-.64h0a10,10,0,0,0-3.79.64,4.42,4.42,0,0,0-1.3.84l.82.93a.31.31,0,0,1,.06.35,7,7,0,0,1,4.17-1h.09a7,7,0,0,1,4.16,1A.32.32,0,0,1,83,4l.82-.93Zm-.29,1.54a1.27,1.27,0,0,0,.33.64l.09.06h0a2,2,0,0,1,.25-.94h0a2,2,0,0,0,.81,0c-.41-.28-.32-.6-.63-.94l-.11-.11A.46.46,0,0,0,84,3.26a.23.23,0,0,0-.15.06c0,.05-.47.51-.75.83.25,0,.32.23.39.5Zm-.35.64.13-.18a5.52,5.52,0,0,0-2.42-1.25,5.81,5.81,0,0,0-1.5-.15c-.26,0-.44.1-.44.27-.16,0-.21-.24-.23-.28s-.1.26-.23.28c0-.17-.17-.27-.44-.27a5.74,5.74,0,0,0-1.49.15,5.29,5.29,0,0,0-2.41,1.22l.13.17a5,5,0,0,1,2-1.11A5.94,5.94,0,0,1,78,3.91c.31,0,.35.19.32.29A.52.52,0,0,0,78.68,4a.54.54,0,0,0,.4.19c0-.1,0-.28.32-.29a5.88,5.88,0,0,1,1.74.23,5.17,5.17,0,0,1,2,1.15Zm-2.32,2.8A.33.33,0,0,0,81,8,.24.24,0,0,0,81.12,8c.45-.66,1.29-1.71,1.93-2.55a5.12,5.12,0,0,0-3.62-1.32c-.12,0-.24.1-.1.28a.88.88,0,0,1-.65-.12.86.86,0,0,1-.64.12c.14-.18,0-.28-.1-.28a5.48,5.48,0,0,0-3.6,1.29c.64.86,2,2.64,2,2.68a.25.25,0,0,0,.18.08h0A.35.35,0,0,0,76.78,8l.34-.38c.27-.27.52-.48.56-.52a.36.36,0,0,0,.15-.27c0-.1-.08-.14-.13-.2s0,0,0,0-.1-.18-.1-.18l0,.07s-.1-.24-.26-.22a.62.62,0,0,1-.37-.07s0,.07,0,.15h0a.42.42,0,0,1,.1-.66,1.08,1.08,0,0,1,.34-.19.27.27,0,0,0,.11-.1.83.83,0,0,1,.38-.2,3,3,0,0,1,.76-.06,1.49,1.49,0,0,1,.46.1,1.74,1.74,0,0,1,.51.43,6,6,0,0,1,.36.72l.3.75a4.17,4.17,0,0,0,.39.77.24.24,0,0,0,.21.1Zm-3.95,3.5a.69.69,0,0,0,.31.56,2,2,0,0,0-.31-.56Zm2.45,2.13a.83.83,0,0,1-.21.24.52.52,0,0,0,0-.17,1.11,1.11,0,0,1-.2.27.81.81,0,0,0-.19.31A1,1,0,0,1,79,14.2a.83.83,0,0,0,.33-.48Zm.13,2a2.52,2.52,0,0,0-.33-.38,3.59,3.59,0,0,1,.14.38h0l.07,0,.07,0Zm-.11,1.62.35.34.14-.16-.34-.32-.15.14Zm-.62-.63.49.51.15-.14-.53-.48-.11.11Zm0-.29v.18l.09-.09a.73.73,0,0,1-.09-.09Zm0-.1.14-.15h0a1.51,1.51,0,0,0-.13-.52c0,.09,0,.42,0,.67Zm.22-.89a4.54,4.54,0,0,1,.05.6h0l.12-.12a1,1,0,0,0-.17-.48Zm-.23-.14.11-.06a.39.39,0,0,0,.16-.15.29.29,0,0,0,0-.17.45.45,0,0,1-.11.15.68.68,0,0,0-.12.12.46.46,0,0,0-.07.11Zm-.13-1c0-.25-.26-.27-.32-.51,0,.33.2.34.32.51Zm.15.55h0a.25.25,0,0,1,.1-.1,3.46,3.46,0,0,0,.42-.31.52.52,0,0,0,.08-.19.48.48,0,0,1-.17.16,1.57,1.57,0,0,0-.39.28l0,.1a.13.13,0,0,0,0-.08c-.07-.15-.29-.21-.43-.37a.47.47,0,0,1-.09-.14.43.43,0,0,0,.06.24,1.26,1.26,0,0,0,.3.24.49.49,0,0,1,.18.17Zm-.11.32a.35.35,0,0,0-.17-.25c0,.13.17.25.17.25Zm-.07,1c0-.15,0-.31,0-.38a.88.88,0,0,0-.09.26l.12.12Zm-.81-.4.2-.08h0c0-.11.09-.28.12-.36a2.7,2.7,0,0,0-.36.45Zm.44,0,.09.1a2.87,2.87,0,0,0,.05-.52,1.23,1.23,0,0,0-.14.42Zm0-2.08a.37.37,0,0,0,0-.15s-.1-.1-.13-.14,0-.05,0-.05a.5.5,0,0,0,0,.17.22.22,0,0,0,.09.13l.09,0ZM78,16.25l-1.1,1,.19.2s0,0,0,0l1.26-1.15s0,0,0,0L78.17,16c-.1-.1-.22-.23-.3-.21l-.21.05a1.24,1.24,0,0,1-.51,0h0s0,.06,0,.08,0,.05,0,.07a2.27,2.27,0,0,0,.45,0c.09,0,.14,0,.07.12l-.76.75c-.15.15-.16.18-.12.23s0,0,0,.05l.3-.27.46-.41.36-.34a0,0,0,0,1,0,0s0,.06.06.06a0,0,0,0,1,0,.05ZM79.71,16a2.15,2.15,0,0,0,.44,0s0-.06,0-.08a.13.13,0,0,1,0-.06h0a1.17,1.17,0,0,1-.5,0l-.21-.05c-.08,0-.21.11-.31.21l-.24.28s0,0,0,0l1.26,1.15s0,0,0,0l.19-.2s-1.09-1-1.1-1,0,0,0-.05,0-.05.06-.06a0,0,0,0,1,0,0s.35.34.35.34l.47.41.3.26,0,0c0-.05,0-.08-.11-.23l-.76-.76c-.08-.08,0-.11.06-.11Zm-.22-2.95a1.18,1.18,0,0,0,.23-.7.34.34,0,0,1,.12.16,4.18,4.18,0,0,0,.35-1.1l.08.05a3.33,3.33,0,0,0,.24-1.08s.07,0,.09,0a9.69,9.69,0,0,0,.09-1,3.3,3.3,0,0,0-.11-1.06,2.8,2.8,0,0,0-.32-.73.3.3,0,0,0-.09.07c0-.14-.18-.49-.25-.62-.16-.31-.24-.52-.41-.63a.68.68,0,0,0,.21,0c-.11-.1-.16-.17-.28-.27,0,0,.11,0,.23,0-.17-.16-.22-.39-.66-.55a1,1,0,0,1,.24,0,.66.66,0,0,0-.4-.29,1.46,1.46,0,0,0-1.33.23s-.1,0-.17.07l-.08,0s-.06.09,0,.22c-.12,0-.15-.14-.17-.12A.33.33,0,0,0,77,6a.46.46,0,0,0-.06.25.09.09,0,0,0,.14-.06s.2-.07.26-.07a2.85,2.85,0,0,0,.31,0l-.23.07s-.06.08,0,.08.09,0,.14,0,0,.07,0,.11c.36-.08.38.3.76.22-.18-.14-.33-.37-.47-.44.37.06.58.4,1,.41a.31.31,0,0,0,0-.11c.14,0,.24.11.28.11a.61.61,0,0,1-.32.12s.18.06.23.07a.38.38,0,0,1-.36.07,1.46,1.46,0,0,1-.41.35l0-.13c-.18.1-.29.28-.42.33a2.29,2.29,0,0,0,.1-.23,5.79,5.79,0,0,0-1.06,1.11,2.17,2.17,0,0,0-.21,1.24c0,.31.14,1.17.17,1.34l.09,0a7.18,7.18,0,0,0,.61,1.8.23.23,0,0,1,.1-.13.78.78,0,0,0,.25.48.6.6,0,0,1,.06-.22c0,.12,0,.5.23.71a1.16,1.16,0,0,1,.06-.33,2.92,2.92,0,0,0,.1.4c.07.14.16.29.24.32a1.28,1.28,0,0,1,0-.4,1,1,0,0,1,.18.51c.22-.17.3-.73.3-.73a.57.57,0,0,1,.11.21,1.45,1.45,0,0,0,.31-.67,1.06,1.06,0,0,1,0,.35ZM75.9,10.66a3.15,3.15,0,0,1,.48,1.49A3.2,3.2,0,0,0,76,10.06a.46.46,0,0,1-.08.29,10.88,10.88,0,0,0-.54-1.57,1.06,1.06,0,0,1,0,.19,3.27,3.27,0,0,1-.37-.92.56.56,0,0,0-.07.27c-.2-.56,0-.79.05-.82s.34,0,.48.21a1.39,1.39,0,0,0,1.15.72c.12,0,.16,0,.1,0h0c-.59-.11-.7-.35-1.19-.88-.31-.34-.62-.54-1-.1a4.55,4.55,0,0,0-1.06,2.11,3.94,3.94,0,0,0,0,1.37c.08,0,.09-.05.09-.05A4.49,4.49,0,0,0,73.7,12a1.53,1.53,0,0,0,.12-.58,1.77,1.77,0,0,0,.3.6,1.92,1.92,0,0,0,0-.72,1.29,1.29,0,0,0,.33.54,2.71,2.71,0,0,0,.07-1.18,4.84,4.84,0,0,1,.1.7l.15.1c0-.08.11-.2,0-1.18.33,1.07.14,1.35.11,1.43a.78.78,0,0,1-.23-.2,1.14,1.14,0,0,1-.1.57.86.86,0,0,1-.29-.28,1.22,1.22,0,0,1-.07.53,1.65,1.65,0,0,1-.31-.47,1.23,1.23,0,0,1-.15.57,3.69,3.69,0,0,1-.37-1.38l0,0c0,.24,0,.63.08,1.07h0c0,.51.1,1.08.14,1.6.11,1.22.24,2.44.41,3.66a2.52,2.52,0,0,0,.05.31,4,4,0,0,0,0-.88,2,2,0,0,0,.08-.55c0-.15-.17-2-.22-2.76,0-.09,0-.29,0-.29s0,.05,0,.08c.06.27.11.56.15.84s0,.34.07.52a15.17,15.17,0,0,1,.16,1.64,2.09,2.09,0,0,1-.1.53,2.32,2.32,0,0,1-.08,1.1.1.1,0,0,1-.07-.07c.06.34.13.61.13.61a2.61,2.61,0,0,0,.18-1.33,2.36,2.36,0,0,0,.13-.61c0-.12,0-.47,0-.92-.06-.8-.13-1.6-.19-2.4a.93.93,0,0,1,0-.14l0,.12a19.38,19.38,0,0,1,.37,3.13,3.2,3.2,0,0,1-.15.89,1.59,1.59,0,0,1,0,.43,1,1,0,0,1,0,.28,5.89,5.89,0,0,0,.26-2.71s0-.09,0-.14c-.07-1.33-.18-2.2-.18-2.2a11,11,0,0,1,.31,2.1s0,0,0,0A2.53,2.53,0,0,0,75,13.9c0-.7-.13-1.27-.13-1.27a.21.21,0,0,0,0,.06c0,.07.08.28.15.64a6.46,6.46,0,0,1,.11.75v.11h0a3.36,3.36,0,0,0,0-2,3.72,3.72,0,0,1,.27,1.57c.4-.38.19-1.12,0-2a3.14,3.14,0,0,1,.34,1.53c.33-.42.21-1-.08-2.07a4,4,0,0,1,.43,1.41,3.4,3.4,0,0,0-.25-2Zm.42,3.84c.07-.1,0-.13-.21,0a2.58,2.58,0,0,0-.69.58c0,.06,0,.1,0,0s.49-.47.48-.34a1,1,0,0,0,.06.34l.09,0,.25-.07a.59.59,0,0,1,0-.5Zm-.11,1.32a.56.56,0,0,0-.19.4c0,.11.07.18.16.17s.07-.17.16-.07.14-.09.17-.12-.15,0-.14-.07a.42.42,0,0,1,.11-.18s.16-.28.24-.25a.6.6,0,0,1,0,.37c-.13.28-.16.47-.06.52h0a.25.25,0,0,0,.11.28h0a.31.31,0,0,1,0-.2s0-.05-.07-.07h.12c.06,0,.12,0,.13-.13a.34.34,0,0,0,0-.1c0-.16,0-.31.07-.42s.06-.43.06-.43h.06a.12.12,0,0,1,.12.09.28.28,0,0,1,0,.11.16.16,0,0,0,.08-.11h0a.19.19,0,0,0,.08-.11c0-.11-.11-.23-.12-.24s-.06-.17,0-.27l0-.12a.47.47,0,0,0,.15.13.52.52,0,0,0,.36.1.86.86,0,0,1,0-.23,2.72,2.72,0,0,1,0-.3l.14.15a2.25,2.25,0,0,0,0-.78,3.1,3.1,0,0,0-.21-.9,1.58,1.58,0,0,0-.12-.27.27.27,0,0,1-.11.16,2.18,2.18,0,0,1-.36-.61,1.71,1.71,0,0,1-.11.14l0,0v0a.73.73,0,0,0-.18-.35.71.71,0,0,1-.13-.22,2.06,2.06,0,0,0-.07.48,1.19,1.19,0,0,1-.06.37l.07,0s0,0,.07,0h0v0c0,.2-.08.43-.1.57a1.94,1.94,0,0,0,0,.46l.15-.08a2.14,2.14,0,0,0,0,.78,1.15,1.15,0,0,1,0,.27.46.46,0,0,0,.21-.09.94.94,0,0,1-.1.3,1,1,0,0,1-.56.26,3.46,3.46,0,0,0-.69.22c-.07,0-.13.1-.12.16s.1.07.13.07l0,0c0,.08.22,0,.26,0a.26.26,0,0,0,.09-.06l-.1,0,0,0c0-.1.4-.11.46-.11s.09,0,.12.05,0,.09-.21.36Zm.19,1.44a3.93,3.93,0,0,1-.49,1,3.49,3.49,0,0,1-.31.36l0,.09,0,0,.21-.12.1-.05.44-.2c.15-.27.32-.59.38-.67a3.47,3.47,0,0,1-.21.6l.11-.05.54-.21a1.43,1.43,0,0,0,.3-.19l.07-.06-.17-.17-.06.05a.13.13,0,0,1-.18,0c-.08-.07-.43-.45-.46-.49a.18.18,0,0,1,0-.23h0a.39.39,0,0,1-.12-.3.28.28,0,0,1-.06-.23.12.12,0,0,1-.1,0,.21.21,0,0,1-.14.07h0a.27.27,0,0,1-.25-.16h0a5.7,5.7,0,0,0-.66.91,4.22,4.22,0,0,0-.48.92c.22,0,.34,0,.63-.34.13-.14.48-.65.7-.93a4.89,4.89,0,0,1-.56,1,2.75,2.75,0,0,1-.39.43s-.08,0-.13.32a1.67,1.67,0,0,0,.89-.7c.11-.15.19-.27.47-.71ZM78.78,19a.94.94,0,0,0,.27.58.81.81,0,0,0,.12-.36,2.06,2.06,0,0,1-.39-.22Zm1.51.31a5.71,5.71,0,0,0,1.91-.1,8.17,8.17,0,0,0-1.66-.86A3.23,3.23,0,0,1,80,18a1.74,1.74,0,0,1-.27-.22c-.3-.27-1.09-1.1-1.23-1.25l-.53.48a19.61,19.61,0,0,0,1.74,1.55,10,10,0,0,0,1.73.54,7,7,0,0,1-1.73-.38,12.78,12.78,0,0,1-1.87-1.59l-.34.32a8.58,8.58,0,0,0,1.17,1.13,3.17,3.17,0,0,0,1.67.67Zm1-2.38c.22.28.57.79.7.93.29.3.41.33.63.34a4.2,4.2,0,0,0-.48-.93,9.26,9.26,0,0,0-.77-1.07.78.78,0,0,1,0,.16l0,0a.23.23,0,0,1-.08.09.24.24,0,0,1-.16,0,.18.18,0,0,1-.15-.07.15.15,0,0,1-.11,0,.28.28,0,0,1,0,.23.43.43,0,0,1-.12.3l0,0c.07.13,0,.19,0,.23s-.38.42-.46.49a.15.15,0,0,1-.19,0L80,17.62l-.15.16s0,0,0,0h0a1.58,1.58,0,0,0,.39.24l.74.29c0-.18-.12-.39-.2-.6a7.83,7.83,0,0,1,.4.69s0,0,0,0a6.89,6.89,0,0,1,.66.34l0-.11a4.3,4.3,0,0,1-.31-.37,3.89,3.89,0,0,1-.49-1c.28.43.36.55.47.7a1.62,1.62,0,0,0,.89.7c0-.27-.14-.33-.14-.33a2.81,2.81,0,0,1-.38-.41c0,.06.09.12,0,0s0-.06,0,0a5.08,5.08,0,0,1-.55-1ZM80.93,15l.23.06.11,0a.74.74,0,0,0,0-.33c0-.13.29.14.48.34s.1,0,0,0a2.69,2.69,0,0,0-.68-.59c-.19-.11-.28-.08-.22,0a.59.59,0,0,1,0,.5Zm-.35-2.33v0h0l.07,0s0,0,.06.05a1.22,1.22,0,0,1,0-.37,2.52,2.52,0,0,0-.06-.47v0a.74.74,0,0,1-.14.22.73.73,0,0,0-.18.35v0l0,0s-.12-.14-.12-.14a3.37,3.37,0,0,1-.53.8h0a1.69,1.69,0,0,0-.21.77,3.63,3.63,0,0,0,0,.83l.13-.15a1.72,1.72,0,0,1,0,.3.86.86,0,0,1,0,.23.54.54,0,0,0,.47-.21l0,.1c0,.1.06.21,0,.27s-.14.13-.12.24,0,.07.07.11h0a.14.14,0,0,0,.08.11.38.38,0,0,1,0-.11.13.13,0,0,1,.12-.09h.07s0,.3,0,.43a2.15,2.15,0,0,1,.07.42.34.34,0,0,1,0,.1.14.14,0,0,0,.13.13h.13c-.08,0-.07,0-.07.07a.31.31,0,0,1,0,.2h0a.25.25,0,0,0,.11-.28h0c.09-.05.07-.24-.06-.52-.06-.13-.09-.35,0-.37h0s0,0,.11.09l.14.18a.38.38,0,0,1,.09.18.05.05,0,0,1,0,0h0a.21.21,0,0,1-.08,0s.14.16.17.12,0,.06.16.07.16-.06.16-.17a.31.31,0,0,0,0-.1.57.57,0,0,0-.14-.26l0,0c-.24-.27-.22-.33-.21-.36a.11.11,0,0,1,.11-.05h.21c.1,0,.26.05.26.1l0,0s-.09,0-.1,0l.1.06s.21.07.26,0l0,0s.11,0,.13-.07-.06-.13-.13-.16a2.47,2.47,0,0,0-.36-.14l-.18-.05-.3-.08L80.61,15l-.06,0a.45.45,0,0,1-.13-.11,2,2,0,0,1-.1-.3.81.81,0,0,0,.24.1,1.15,1.15,0,0,1,0-.27c0-.49.06-.77.06-.77l.09.1a2.39,2.39,0,0,0,0-.49h0a4.92,4.92,0,0,0-.09-.56Zm1.23-3.83a1.56,1.56,0,0,0,0-.57,2.37,2.37,0,0,0-.14.89c0-.1.09-.21.13-.32Zm-.47,1a4,4,0,0,0,.21-1.13,2.21,2.21,0,0,0-.21,1.13Zm-.43-.42c.17-.51,0-.77-.07-.82,0,.23.06.34.07.82Zm-.1,2.21a10.61,10.61,0,0,1,.39-2.15,3,3,0,0,0-.39,2.15Zm2.4-.34a1.92,1.92,0,0,0,0,.72,1.62,1.62,0,0,0,.3-.59,1.58,1.58,0,0,0,.12.58,4.49,4.49,0,0,0,.25-1.19s0,0,.09,0A3.94,3.94,0,0,0,84,9.5a4.62,4.62,0,0,0-1.06-2.12c-.37-.43-.67-.23-1,.1-.5.54-.61.78-1.2.89h0c-.06,0,0,0,.1,0A1.39,1.39,0,0,0,82,7.68c.15-.15.33-.3.48-.21s.25.26.05.82A.55.55,0,0,0,82.44,8a3.59,3.59,0,0,1-.37.92c0-.06,0-.12,0-.2a13,13,0,0,0-.53,1.57.42.42,0,0,1-.08-.28A3.26,3.26,0,0,0,81,12.13a3.24,3.24,0,0,1,.48-1.5,3.42,3.42,0,0,0-.25,2,3.78,3.78,0,0,1,.44-1.4c-.29,1.09-.41,1.65-.09,2.07a3.3,3.3,0,0,1,.33-1.54c-.15.85-.36,1.6,0,2a3.64,3.64,0,0,1,.27-1.56,3.33,3.33,0,0,0,0,2,4,4,0,0,1,.11-.85c.07-.36.17-.71.17-.71s-.08.58-.13,1.28v.35a2.09,2.09,0,0,0,0,.43,1.12,1.12,0,0,0,.12.35,11,11,0,0,1,.31-2.1s-.11.87-.18,2.2a.66.66,0,0,1,0,.14,6,6,0,0,0,.26,2.7.89.89,0,0,1,0-.28,1.53,1.53,0,0,1,0-.42,2.86,2.86,0,0,1-.15-.9l.06-.84c0-.25,0-.5.07-.73s.05-.42.08-.64.1-.61.16-.92,0,0,0,0c0,.28-.07.88-.12,1.5,0,.46-.13,1.37-.11,1.82a2.36,2.36,0,0,0,.13.61,2.57,2.57,0,0,0,.18,1.32,4.48,4.48,0,0,0,.13-.6.12.12,0,0,1-.07.07,2.34,2.34,0,0,1-.08-1.1,2.09,2.09,0,0,1-.1-.53c0-.55.09-1.1.16-1.64,0-.18,0-.36.07-.53s0-.21.05-.32.06-.35.1-.52,0-.05,0-.08a2.72,2.72,0,0,1,0,.3c-.06.73-.22,2.61-.22,2.76a1.81,1.81,0,0,0,.08.54,3.92,3.92,0,0,0,0,.88,2.52,2.52,0,0,0,.05-.31s.11-.76.23-1.84c0-.17,0-.34.05-.5s0-.32,0-.49l.06-.58a2.29,2.29,0,0,1,0-.25c0-.51.09-1.08.14-1.59,0,0,.07-.83.08-1.08l0,0a3.69,3.69,0,0,1-.37,1.38,1.31,1.31,0,0,1-.15-.58,1.6,1.6,0,0,1-.31.48,1.46,1.46,0,0,1-.07-.54.78.78,0,0,1-.29.28,1.07,1.07,0,0,1-.1-.56,1,1,0,0,1-.23.2c0-.08-.22-.37.11-1.43-.13,1,0,1.09,0,1.17a.61.61,0,0,0,.16-.09,5.14,5.14,0,0,1,.1-.71,2.68,2.68,0,0,0,.07,1.18,1.21,1.21,0,0,0,.33-.54Zm2.17-6.79a4.44,4.44,0,0,1-1,.1,2.07,2.07,0,0,0-.22,1,.81.81,0,0,1-.44-.25l-.39.52a11,11,0,0,1,1.39,5.32,12.39,12.39,0,0,0,1.87-1.29,14.53,14.53,0,0,0-1.16-5.43Zm.38,13.66a5.32,5.32,0,0,1-2.05,2.22,3.33,3.33,0,0,1-3.07.37.8.8,0,0,0,0,.11l0,.11c.17.46.06.94-.58,1a1.71,1.71,0,0,0-.57.12,1.92,1.92,0,0,0-.51.39,2.18,2.18,0,0,0-.32.45h0a2.19,2.19,0,0,0-.33-.45,1.65,1.65,0,0,0-.51-.39,1.62,1.62,0,0,0-.57-.12c-.63-.08-.74-.56-.57-1l0-.1,0-.11a3,3,0,0,1-2,.07l-.09,0a4.47,4.47,0,0,1-2-1.09,6.08,6.08,0,0,1-1.18-1.57c-1.22-2.54-1-6.31-1.06-6.71,0-4.35.93-6.79,1.75-8l-.41-.54a.83.83,0,0,0-.52-.25,9.59,9.59,0,0,0-.29-1.25,7.08,7.08,0,0,0,1.1.64.8.8,0,0,0,.1.57l.33.44A4.65,4.65,0,0,1,74,1.93l.48-.24a.8.8,0,0,1,.22-.61.43.43,0,0,1,.25-.35h0a.55.55,0,0,1,.46.13,1.05,1.05,0,0,1,.62.33A11.28,11.28,0,0,1,77.72,1a1,1,0,0,1,.54-.68A.56.56,0,0,1,78.68,0h0a.58.58,0,0,1,.43.29,1,1,0,0,1,.54.68,11.45,11.45,0,0,1,1.73.22A1,1,0,0,1,82,.86a.53.53,0,0,1,.45-.13h0a.45.45,0,0,1,.26.35.84.84,0,0,1,.22.61l.47.24a5.21,5.21,0,0,1,1.4,1.16l.36-.48A.77.77,0,0,0,85.27,2a7.08,7.08,0,0,0,1.1-.64,9.59,9.59,0,0,0-.29,1.25.78.78,0,0,0-.52.26s-.19.23-.47.6c.82,1.19,1.77,3.61,1.73,7.93,0,.35.17,4.19-1.06,6.73ZM76.06,3.36l.23.09.15-.18-.23-.1-.15.19Zm4.24-.81a.26.26,0,0,0-.1.11s.09.07.18.08h.05c0-.09-.05-.22-.13-.19Zm1.87.51a.73.73,0,0,1-.19.28A7.56,7.56,0,0,0,80.56,3a1,1,0,0,1-.43.31,2,2,0,0,1-.57-.17h.19A1.33,1.33,0,0,0,80.36,3c-.34-.05-.42-.15-.25-.36s.19-.28.38-.23.17.24.15.39a7.13,7.13,0,0,1,1.29.31c0-.11,0-.16-.09-.24a1.24,1.24,0,0,1,.22-.18.42.42,0,0,1,.11.4Zm-1.55.18c0,.06.1.1.16.16L81,3.28l-.17-.16a1.05,1.05,0,0,0-.21.12Zm1.74-.08a4.67,4.67,0,0,1-.23.51c.05,0,.12,0,.17-.06a1.67,1.67,0,0,0,.49-.76.88.88,0,0,0-.21.06.35.35,0,0,0-.22.25Zm.11-.35c.18,0,.36,0,.44-.06-.12,0-.24-.06-.28-.12s.12,0,.16.05a.46.46,0,0,1,.07-.07.24.24,0,0,0-.35.06.36.36,0,0,1,.1.07.61.61,0,0,0-.14.07Zm-7,.7-.17,0a2,2,0,0,0-.11.2l.23.07.08-.14.17.06a2.26,2.26,0,0,1,.13-.2l-.24-.07-.09.13Zm3.92-1c-.11-.19-.55,0-.83.1h.84a.09.09,0,0,0,0-.1Zm.2.36A14.61,14.61,0,0,0,76,3.14a1.66,1.66,0,0,0-.18-.32c-.24-.25-.34,0-.34.06.3,0,.35.17.35.17a.73.73,0,0,1-.29.29,1,1,0,0,1-.51.18c-.57,0-.42-.56-.07-.81,0,.06-.25.37-.12.53s.66,0,.79-.13C75.52,3,75.39,3,75.21,3a.76.76,0,0,1,.32-.56.8.8,0,0,1,.47.4,14.22,14.22,0,0,1,2.43-.28c0-.15-.07-.69-.07-.72s0-.13.11-.17a.4.4,0,0,0,.26.21,1,1,0,0,1-.17.14c0,.11,0,.31,0,.39a2.77,2.77,0,0,1,.56-.19.72.72,0,0,1,.25,0,.49.49,0,0,1,.22.09.26.26,0,0,1,.09.17,1.16,1.16,0,0,1-.06.35ZM78,5.65s-.12,0-.13,0,.07,0,.09.06a0,0,0,0,0,0,0s0,0,0-.06Zm.07,0a.23.23,0,0,1,0,.12A.18.18,0,0,1,78,6a.2.2,0,0,1-.26-.18.36.36,0,0,1,0-.1s0,0-.08.08-.06,0-.12.07a.31.31,0,0,1,.18-.24,1.47,1.47,0,0,1,1,.09,2,2,0,0,0-.34,0Zm1.22-3.74-.2-.15-.19.15.19.14a1.43,1.43,0,0,1,.2-.14Zm-2,3.9s0,.08,0,.09.07-.07.07-.07a.23.23,0,0,0-.11,0Zm2.07.57a.49.49,0,0,0-.35-.24.75.75,0,0,1,.12.2.84.84,0,0,1-.2,0,.46.46,0,0,0,.43,0ZM78.92,6a.76.76,0,0,0-.4-.23c.11.13.22.25.4.23Zm-.12-.22c.07.07.3.16.43.28,0-.19-.19-.3-.43-.28Zm-.09,2.79a.77.77,0,0,0,0,.8s.18-.54,0-.8Zm.44,1.56a1.25,1.25,0,0,0,.32-.84,1.6,1.6,0,0,1-.35.43,1.43,1.43,0,0,1-.28-.26,1.1,1.1,0,0,0,.31.67ZM78.8,7.69a.37.37,0,0,0-.09.46s.29-.31.09-.46Zm.33-1c.08.08.32.14.46.26a.33.33,0,0,0-.46-.26Zm.37.62a.42.42,0,0,0-.38-.45c0,.17.27.28.38.45Zm-.14.47c-.15.17,0,.5.08.79.08-.14.18-.63-.08-.79Zm.82.76a1.08,1.08,0,0,1-.26.56,1.61,1.61,0,0,1-.26-.27,1,1,0,0,0,.27.64,1,1,0,0,0,.25-.93Zm-.43-1.41c0,.19.26.47.26.47a.46.46,0,0,0-.26-.47Zm.52.86a2.23,2.23,0,0,0,.23.74A.7.7,0,0,0,80.27,8Zm-2,2.53a1.2,1.2,0,0,0,.15-.87.68.68,0,0,1-.25.49A.58.58,0,0,1,78,9.92a.77.77,0,0,0,.32.65ZM78.09,8A.48.48,0,0,0,78,8.7,2.43,2.43,0,0,0,78.09,8Zm-.19.88c-.26.32.14.72.14.73s0-.61-.14-.73Zm-1,1.26a2.14,2.14,0,0,0-.19-.83,1.6,1.6,0,0,0,.19.83Zm.33-1.68a6.33,6.33,0,0,1,.4-.82.84.84,0,0,0-.4.82Zm.17,1a2.11,2.11,0,0,1,0,.49c-.11,0-.16-.1-.24-.17a1.81,1.81,0,0,0,.38.53,1.26,1.26,0,0,0-.1-.85Zm-.27.72a.94.94,0,0,0,.3.76,1.19,1.19,0,0,0-.3-.76Zm.12,1a1.73,1.73,0,0,0,.33.43c-.16-.25-.29-.71-.45-.83a.72.72,0,0,0,.12.4ZM76.81,9c0-.19.21-.36.13-.66a.61.61,0,0,0-.13.66Zm1.37,2.59a1.19,1.19,0,0,1-.34-.36,1.49,1.49,0,0,0,.47.72,1.3,1.3,0,0,0,.07-1,2,2,0,0,1-.2.6Zm1-1a1.14,1.14,0,0,1-.34.55,1.25,1.25,0,0,1-.24-.34.71.71,0,0,0,.3.68,1.1,1.1,0,0,0,.28-.89Zm.5,1a1,1,0,0,0,.26-.95,2.06,2.06,0,0,0-.26.95Zm-.56.51a1.51,1.51,0,0,0,.2-.8,1.33,1.33,0,0,0-.2.8Zm1.22-1.85c.11-.17.25-.41.13-.57a4.47,4.47,0,0,0-.13.57Zm-.77.54A1.35,1.35,0,0,0,80,9.93a.87.87,0,0,1-.38.45.64.64,0,0,1-.22-.3.8.8,0,0,0,.22.7Zm.72-1.07s.25-.44.11-.68c-.17,0-.1.68-.11.68Zm0,.74a3.07,3.07,0,0,0-.24.82s.33-.7.24-.82Zm-1.75,2.23a.78.78,0,0,0,0-.68.88.88,0,0,0,0,.68Zm.25.66a.74.74,0,0,0,0-.61.75.75,0,0,0,0,.61Zm.32-.22a1.53,1.53,0,0,0,.21-.87,1.48,1.48,0,0,0-.21.87Zm-1-.4a2.3,2.3,0,0,0-.26-.71.8.8,0,0,0,.26.71Zm2,.36s0-.12,0-.16a2,2,0,0,0-.19.83c.09-.33.35-.39.41-.7a.29.29,0,0,0,.16.06,2.23,2.23,0,0,1-.15-.49,1.12,1.12,0,0,1-.19.46Zm-2.65.65a2,2,0,0,0-.19-.83s0,.16,0,.16a1.15,1.15,0,0,1-.19-.47,2.36,2.36,0,0,1-.15.5A.4.4,0,0,0,77,13c.06.3.32.37.41.7Zm-2-3.42a.4.4,0,0,1-.2-.12.58.58,0,0,0,.3.37,1.28,1.28,0,0,0-.25-1.13c.24.7.15.88.15.88Zm-.27.7a.39.39,0,0,1-.17-.13.54.54,0,0,0,.27.38c.09-.28.14-.5-.25-1.32.27.81.15,1.07.15,1.07Zm-1.62-.39a1.49,1.49,0,0,1-.14-.65,1.1,1.1,0,0,0,.1.8.27.27,0,0,0,.12-.23s-.08.08-.08.08Zm.24-.24a1.66,1.66,0,0,1-.16-.72,1.34,1.34,0,0,0,.14.91.35.35,0,0,0,.13-.27s-.11.08-.11.08ZM74.87,9A1.79,1.79,0,0,1,74.42,8a1.91,1.91,0,0,0,.5,1.24,1.1,1.1,0,0,0,0-.85,2.2,2.2,0,0,1,0,.55Zm-.29.46a2.4,2.4,0,0,1-.39-1.07,2,2,0,0,0,.42,1.33.72.72,0,0,0,0-.69,1.1,1.1,0,0,1-.06.43Zm-.27.34A2.43,2.43,0,0,1,74,8.64,2,2,0,0,0,74.32,10a.57.57,0,0,0,.12-.48.64.64,0,0,1-.13.24Zm-.26.34a2.33,2.33,0,0,1-.2-1,1.79,1.79,0,0,0,.2,1.22.52.52,0,0,0,.12-.43s0,.15-.12.19Zm9.68.43a.27.27,0,0,0,.13.23A1.15,1.15,0,0,0,84,10a1.56,1.56,0,0,1-.14.65s-.07,0-.08-.08Zm-.27-.25a.33.33,0,0,0,.13.27,1.3,1.3,0,0,0,.14-.9,1.73,1.73,0,0,1-.16.72s-.1,0-.11-.09Zm-1-1.34a2.2,2.2,0,0,1,0-.55,1,1,0,0,0,0,.84A1.91,1.91,0,0,0,82.94,8a1.9,1.9,0,0,1-.45.94Zm.29.46A1.14,1.14,0,0,1,82.72,9a.77.77,0,0,0,0,.7,2.05,2.05,0,0,0,.42-1.33,2.4,2.4,0,0,1-.39,1.07Zm.59-.77a2.34,2.34,0,0,1-.32,1.11.66.66,0,0,1-.13-.25A.58.58,0,0,0,83,10a2,2,0,0,0,.33-1.35Zm.14.47a2.33,2.33,0,0,1-.2,1,.55.55,0,0,1-.12-.19.52.52,0,0,0,.12.43,1.81,1.81,0,0,0,.2-1.22Zm-1.59,1.2s-.09-.18.15-.89a1.3,1.3,0,0,0-.25,1.14.62.62,0,0,0,.3-.37.4.4,0,0,1-.2.12Zm.44.56a.54.54,0,0,1-.27.39c-.09-.28-.14-.5.25-1.33-.27.81-.15,1.08-.15,1.08a.37.37,0,0,0,.17-.14Z"/><path class="cls-1" d="M1.25,10.92h0L.75,12.61h1l-.51-1.69ZM1,10.55h.52l1,3.17H2.1L1.87,13H.64l-.23.76H0l1-3.17Z"/><path class="cls-1" d="M3.41,13.37H4a.54.54,0,0,0,.58-.54c0-.51-.31-.6-.73-.6H3.41v1.14Zm0-1.49H4a.44.44,0,0,0,.47-.5A.45.45,0,0,0,4,10.9H3.41v1ZM3,13.72V10.55H4a.73.73,0,0,1,.71.32.82.82,0,0,1,.12.43.66.66,0,0,1-.54.75v0a.67.67,0,0,1,.65.76c0,.81-.59.89-1,.89Z"/><path class="cls-1" d="M5.64,10.55H6v2c0,.69.21.87.6.87s.59-.18.59-.87v-2h.4v2c0,.88-.32,1.22-1,1.22s-1-.34-1-1.22v-2Z"/><path class="cls-1" d="M9.72,13.37h.38c.56,0,.77-.21.77-.95v-.64c0-.64-.2-.88-.62-.88H9.72v2.47Zm-.41-2.82h1a.84.84,0,0,1,.85.48,3.19,3.19,0,0,1,.14,1,2.68,2.68,0,0,1-.19,1.28c-.17.27-.49.41-1.05.41H9.31V10.55Z"/><polygon class="cls-1" points="12.01 13.72 12.01 10.55 12.42 10.55 12.42 11.92 13.53 11.92 13.53 10.55 13.93 10.55 13.93 13.72 13.53 13.72 13.53 12.27 12.42 12.27 12.42 13.72 12.01 13.72 12.01 13.72"/><path class="cls-1" d="M15.63,10.92h0l-.5,1.69h1l-.51-1.69Zm-.25-.37h.52l1,3.17h-.45L16.25,13H15l-.23.76h-.41l1-3.17Z"/><path class="cls-1" d="M17.79,13.37h.57a.54.54,0,0,0,.59-.54c0-.51-.32-.6-.73-.6h-.43v1.14Zm0-1.49h.59a.44.44,0,0,0,.47-.5.45.45,0,0,0-.49-.48h-.57v1Zm-.4,1.84V10.55h1a.73.73,0,0,1,.71.32.82.82,0,0,1,.12.43.66.66,0,0,1-.54.75v0a.67.67,0,0,1,.65.76c0,.81-.59.89-.95.89Z"/><polygon class="cls-1" points="20.49 13.72 20.08 13.72 20.08 10.55 20.49 10.55 20.49 13.72 20.49 13.72"/><path class="cls-1" d="M23.19,10.92h0l-.5,1.69h1l-.5-1.69Zm-.25-.37h.51l1,3.17H24L23.8,13H22.58l-.24.76h-.4l1-3.17Z"/><path class="cls-1" d="M26.42,11.4c0-.38-.15-.58-.56-.58-.13,0-.58,0-.58.69v1.07c0,.69.2.87.58.87a1,1,0,0,0,.57-.14v-1h-.59V12h1v1.54a2,2,0,0,1-1,.23c-.67,0-1-.34-1-1.22v-1a.92.92,0,0,1,1-1c.68,0,1,.25,1,.92Z"/><path class="cls-1" d="M28,11.91h.61c.29,0,.43-.25.43-.53a.44.44,0,0,0-.43-.48H28v1Zm0,.35v1.46h-.4V10.55h1.09a.71.71,0,0,1,.76.79.68.68,0,0,1-.58.72h0c.36.06.5.18.52.82a4.63,4.63,0,0,0,.11.83h-.42a3.57,3.57,0,0,1-.13-1.06.42.42,0,0,0-.48-.4Z"/><polygon class="cls-1" points="30.48 13.72 30.08 13.72 30.08 10.55 30.48 10.55 30.48 13.72 30.48 13.72"/><path class="cls-1" d="M32.64,11.42a.79.79,0,0,0-.09-.46.53.53,0,0,0-.36-.13.52.52,0,0,0-.48.24,1.35,1.35,0,0,0-.09.66v.85c0,.77.26.87.57.87.12,0,.5,0,.5-.67h.42c0,1-.69,1-.9,1-.39,0-1,0-1-1.25v-.9c0-.89.4-1.15,1-1.15s.87.33.83.94Z"/><path class="cls-1" d="M33.67,10.55h.41v2c0,.69.21.87.59.87s.59-.18.59-.87v-2h.4v2c0,.88-.32,1.22-1,1.22s-1-.34-1-1.22v-2Z"/><polygon class="cls-1" points="36.37 13.72 36.37 10.55 36.77 10.55 36.77 13.37 37.93 13.37 37.93 13.72 36.37 13.72 36.37 13.72"/><polygon class="cls-1" points="39.83 10.55 39.83 10.9 38.99 10.9 38.99 13.72 38.59 13.72 38.59 10.9 37.76 10.9 37.76 10.55 39.83 10.55 39.83 10.55"/><path class="cls-1" d="M40.23,10.55h.41v2c0,.69.21.87.59.87s.59-.18.59-.87v-2h.4v2c0,.88-.32,1.22-1,1.22s-1-.34-1-1.22v-2Z"/><path class="cls-1" d="M43.32,11.91h.61c.29,0,.43-.25.43-.53a.44.44,0,0,0-.43-.48h-.61v1Zm0,.35v1.46h-.4V10.55H44a.71.71,0,0,1,.76.79.68.68,0,0,1-.58.72h0c.36.06.5.18.52.82a3.87,3.87,0,0,0,.11.83H44.4a3.57,3.57,0,0,1-.13-1.06.42.42,0,0,0-.48-.4Z"/><polygon class="cls-1" points="45.37 13.72 45.37 10.55 47 10.55 47 10.9 45.77 10.9 45.77 11.92 46.91 11.92 46.91 12.27 45.77 12.27 45.77 13.37 47.02 13.37 47.02 13.72 45.37 13.72 45.37 13.72"/><path class="cls-1" d="M49.5,10.92h0L49,12.61h1l-.5-1.69Zm-.25-.37h.51l1,3.17h-.45L50.11,13H48.89l-.24.76h-.41l1-3.17Z"/><polygon class="cls-1" points="53.41 10.55 53.41 13.72 52.86 13.72 51.6 10.97 51.6 10.97 51.6 13.72 51.24 13.72 51.24 10.55 51.81 10.55 53.04 13.26 53.05 13.26 53.05 10.55 53.41 10.55 53.41 10.55"/><path class="cls-1" d="M54.55,13.37h.39c.56,0,.76-.21.76-.95v-.64c0-.64-.19-.88-.61-.88h-.54v2.47Zm-.4-2.82h1A.85.85,0,0,1,56,11a3.52,3.52,0,0,1,.14,1,2.64,2.64,0,0,1-.2,1.28c-.17.27-.49.41-1,.41h-.73V10.55Z"/><polygon class="cls-1" points="57.77 13.72 57.77 10.55 59.34 10.55 59.34 10.9 58.17 10.9 58.17 11.92 59.28 11.92 59.28 12.27 58.17 12.27 58.17 13.72 57.77 13.72 57.77 13.72"/><path class="cls-1" d="M61.31,12.58V11.51c0-.67-.45-.69-.58-.69s-.59,0-.59.69v1.07c0,.69.21.87.59.87s.58-.18.58-.87Zm-1.58,0v-1a1,1,0,1,1,2,0v1c0,.88-.32,1.22-1,1.22s-1-.34-1-1.22Z"/><path class="cls-1" d="M64,12.58V11.51c0-.67-.45-.69-.58-.69s-.58,0-.58.69v1.07c0,.69.2.87.58.87s.58-.18.58-.87Zm-1.58,0v-1a1,1,0,1,1,2,0v1c0,.88-.33,1.22-1,1.22s-1-.34-1-1.22Z"/><path class="cls-1" d="M65.52,13.37h.38c.56,0,.77-.21.77-.95v-.64c0-.64-.2-.88-.62-.88h-.53v2.47Zm-.4-2.82h1a.84.84,0,0,1,.85.48,3.19,3.19,0,0,1,.14,1,2.68,2.68,0,0,1-.19,1.28c-.17.27-.49.41-1,.41h-.73V10.55Z"/><path class="cls-1" d="M32.51,17.84v.09a.5.5,0,0,0,.53.57c.32,0,.57-.14.57-.52,0-.7-1.43-.62-1.43-1.57a.84.84,0,0,1,.93-.86.78.78,0,0,1,.88.92h-.42c0-.34-.1-.57-.49-.57a.43.43,0,0,0-.48.46c0,.7,1.42.6,1.42,1.6,0,.67-.46.89-1,.89a.84.84,0,0,1-.93-1Z"/><path class="cls-1" d="M35.6,16h0l-.5,1.68h1L35.6,16Zm-.25-.38h.52l1,3.17h-.45L36.22,18H35l-.23.75h-.41l1-3.17Z"/><polygon class="cls-1" points="37.29 18.78 37.29 15.61 38.86 15.61 38.86 15.96 37.69 15.96 37.69 16.98 38.8 16.98 38.8 17.33 37.69 17.33 37.69 18.78 37.29 18.78 37.29 18.78"/><polygon class="cls-1" points="39.27 18.78 39.27 15.61 40.9 15.61 40.9 15.96 39.67 15.96 39.67 16.98 40.81 16.98 40.81 17.33 39.67 17.33 39.67 18.43 40.92 18.43 40.92 18.78 39.27 18.78 39.27 18.78"/><polygon class="cls-1" points="43.24 15.61 43.24 15.96 42.4 15.96 42.4 18.78 42 18.78 42 15.96 41.17 15.96 41.17 15.61 43.24 15.61 43.24 15.61"/><polygon class="cls-1" points="45.05 15.61 45.45 15.61 44.59 17.57 44.59 18.78 44.19 18.78 44.19 17.57 43.34 15.61 43.79 15.61 44.41 17.14 45.05 15.61 45.05 15.61"/><path class="cls-1" d="M47.78,16h0l-.49,1.68h1L47.78,16Zm-.24-.38h.51l1,3.17h-.45L48.4,18H47.18l-.24.75h-.41l1-3.17Z"/><path class="cls-1" d="M49.49,15.61h.4v2c0,.69.22.87.6.87s.59-.18.59-.87v-2h.4v2c0,.88-.32,1.23-1,1.23s-1-.35-1-1.23v-2Z"/><polygon class="cls-1" points="53.96 15.61 53.96 15.96 53.13 15.96 53.13 18.78 52.72 18.78 52.72 15.96 51.89 15.96 51.89 15.61 53.96 15.61 53.96 15.61"/><polygon class="cls-1" points="54.41 18.78 54.41 15.61 54.81 15.61 54.81 16.98 55.92 16.98 55.92 15.61 56.32 15.61 56.32 18.78 55.92 18.78 55.92 17.33 54.81 17.33 54.81 18.78 54.41 18.78 54.41 18.78"/><path class="cls-1" d="M58.63,17.64V16.57c0-.66-.46-.69-.59-.69s-.58,0-.58.69v1.07c0,.69.2.87.58.87s.59-.18.59-.87Zm-1.58,0v-1a1,1,0,1,1,2,0v1c0,.88-.33,1.23-1,1.23s-1-.35-1-1.23Z"/><path class="cls-1" d="M60.14,17h.6c.29,0,.43-.25.43-.52a.43.43,0,0,0-.42-.49h-.61v1Zm0,.35v1.46h-.41V15.61h1.09a.71.71,0,0,1,.76.79.68.68,0,0,1-.58.73h0c.37.06.5.19.52.82a5.59,5.59,0,0,0,.11.83h-.42a3.6,3.6,0,0,1-.12-1.05.42.42,0,0,0-.48-.41Z"/><polygon class="cls-1" points="62.64 18.78 62.23 18.78 62.23 15.61 62.64 15.61 62.64 18.78 62.64 18.78"/><polygon class="cls-1" points="65.18 15.61 65.18 15.96 64.34 15.96 64.34 18.78 63.94 18.78 63.94 15.96 63.1 15.96 63.1 15.61 65.18 15.61 65.18 15.61"/><polygon class="cls-1" points="66.98 15.61 67.39 15.61 66.53 17.57 66.53 18.78 66.13 18.78 66.13 17.57 65.27 15.61 65.73 15.61 66.34 17.14 66.98 15.61 66.98 15.61"/><path class="cls-1" d="M2,4.19a.25.25,0,0,1-.08.18.24.24,0,0,1-.18.07.24.24,0,0,1-.18-.07.24.24,0,0,1,0-.36.24.24,0,0,1,.18-.07A.24.24,0,0,1,1.9,4,.25.25,0,0,1,2,4.19Zm-.87,0A.24.24,0,0,1,1,4.37a.26.26,0,0,1-.18.07.25.25,0,1,1,0-.5A.26.26,0,0,1,1,4a.24.24,0,0,1,.07.18ZM2,7c0,.07,0,.1.1.1h.25V7.5H2a.42.42,0,0,1-.31-.13A.51.51,0,0,1,1.6,7V5.38l-.32.17a1.36,1.36,0,0,0-.35.24,1.43,1.43,0,0,0-.28.32.8.8,0,0,0-.12.43A.47.47,0,0,0,.73,7a1.42,1.42,0,0,0,.65.17l0,.39a2,2,0,0,1-.63-.13,1,1,0,0,1-.37-.25.7.7,0,0,1-.18-.31,1.22,1.22,0,0,1,0-.32,1.15,1.15,0,0,1,.22-.71,2.29,2.29,0,0,1,.52-.51A3.11,3.11,0,0,1,1.49,5L2,4.81V7Z"/><path class="cls-1" d="M3.56,8.55a.24.24,0,0,1-.18-.07A.26.26,0,0,1,3.56,8a.29.29,0,0,1,.19.08.27.27,0,0,1,0,.36.28.28,0,0,1-.19.07Zm-.78,0a.24.24,0,0,1-.18-.07A.25.25,0,1,1,3,8.12a.24.24,0,0,1,0,.36.24.24,0,0,1-.18.07ZM2.34,7.5a.29.29,0,0,1-.19-.07s-.08-.09-.08-.13a.17.17,0,0,1,.08-.12.25.25,0,0,1,.19-.07h1V5.22h.4V7.11h.34V7.5Z"/><path class="cls-1" d="M5.37,4.29A.85.85,0,0,0,5,4.22a.35.35,0,0,0-.16,0,.16.16,0,0,0-.06.14.23.23,0,0,0,.11.21.61.61,0,0,0,.28.06h.2v.19h-1V4.66h.33s0,0-.06-.1a.47.47,0,0,1,0-.17.31.31,0,0,1,.13-.29A.54.54,0,0,1,5,4a1.19,1.19,0,0,1,.41.08l-.07.19Zm-.49.92h.4V7.5H4.12a.29.29,0,0,1-.19-.07c-.05,0-.08-.09-.08-.13a.17.17,0,0,1,.08-.12.25.25,0,0,1,.19-.07h.76V5.21Z"/><polygon class="cls-1" points="5.9 3.6 6.3 3.6 6.3 7.5 5.9 7.5 5.9 3.6 5.9 3.6"/><path class="cls-1" d="M8,4.26A.25.25,0,0,1,8,4.44a.21.21,0,0,1-.18.07.26.26,0,0,1-.18-.07.27.27,0,0,1,0-.36A.26.26,0,0,1,7.77,4,.21.21,0,0,1,8,4.08.25.25,0,0,1,8,4.26Zm-1.21,1A2.21,2.21,0,0,1,7.21,5a1.4,1.4,0,0,1,.56-.11,1,1,0,0,1,.54.13,1.18,1.18,0,0,1,.38.32,1.42,1.42,0,0,1,.23.46A1.81,1.81,0,0,1,9,6.36a1.84,1.84,0,0,1,0,.41,1.53,1.53,0,0,1-.09.34h.43V7.5H6.8V7.11H8.44c0-.07.06-.17.1-.3a1.47,1.47,0,0,0,.05-.45A1.33,1.33,0,0,0,8.54,6a1.26,1.26,0,0,0-.16-.33.78.78,0,0,0-.26-.22.73.73,0,0,0-.35-.09,1,1,0,0,0-.33.06,1.28,1.28,0,0,0-.38.2l-.24-.3Z"/><path class="cls-1" d="M11.22,4.17a.24.24,0,0,1-.07.18.25.25,0,0,1-.19.07.25.25,0,1,1,0-.5.25.25,0,0,1,.19.07.24.24,0,0,1,.07.18ZM10,5.81l.22.16a1.74,1.74,0,0,1,.27.22,3.44,3.44,0,0,1,.27.27,2,2,0,0,1,.24.33,2.43,2.43,0,0,1,.24-.32,3.63,3.63,0,0,1,.27-.28L11.79,6c.09-.06.16-.12.22-.15l-.13-.18a1.29,1.29,0,0,0-.21-.19l-.28-.14A1.06,1.06,0,0,0,11,5.26a1.21,1.21,0,0,0-.6.15,1,1,0,0,0-.41.4ZM12.52,6l-.3.18a2.88,2.88,0,0,0-.35.26,2.57,2.57,0,0,0-.33.33,1.56,1.56,0,0,0-.25.36h1.43V7.5H9.29a.29.29,0,0,1-.19-.07S9,7.34,9,7.3a.17.17,0,0,1,.08-.12.25.25,0,0,1,.19-.07h1.45a1.44,1.44,0,0,0-.27-.39,2.54,2.54,0,0,0-.34-.32,2.19,2.19,0,0,0-.35-.24L9.51,6a1.43,1.43,0,0,1,.22-.5,1.33,1.33,0,0,1,.36-.35A1.19,1.19,0,0,1,10.53,5,1.67,1.67,0,0,1,11,4.87a1.6,1.6,0,0,1,.56.09A1.37,1.37,0,0,1,12,5.2a1.78,1.78,0,0,1,.32.35,1.82,1.82,0,0,1,.19.43Z"/><path class="cls-1" d="M13.06,3.58h.4V7.5h-.74a.35.35,0,0,1-.2-.07.19.19,0,0,1-.07-.13.15.15,0,0,1,.07-.12.29.29,0,0,1,.2-.07h.34V3.58Z"/><polygon class="cls-1" points="14.07 3.6 14.47 3.6 14.47 7.5 14.07 7.5 14.07 3.6 14.07 3.6"/><path class="cls-1" d="M18.07,4.19a.25.25,0,0,1-.08.18.27.27,0,0,1-.36,0,.24.24,0,0,1,0-.36A.27.27,0,0,1,18,4a.25.25,0,0,1,.08.18Zm-.86,0a.25.25,0,0,1-.08.18.24.24,0,0,1-.18.07.25.25,0,0,1-.19-.07.27.27,0,0,1,0-.36A.25.25,0,0,1,17,3.94a.24.24,0,0,1,.18.07.25.25,0,0,1,.08.18ZM18.08,7a.09.09,0,0,0,.1.1h.25V7.5h-.31a.42.42,0,0,1-.31-.13A.51.51,0,0,1,17.69,7V5.38l-.32.17a1.36,1.36,0,0,0-.35.24,1.43,1.43,0,0,0-.28.32.89.89,0,0,0-.11.43.49.49,0,0,0,.2.45,1.42,1.42,0,0,0,.65.17l0,.39a2,2,0,0,1-.63-.13,1,1,0,0,1-.37-.25.7.7,0,0,1-.18-.31,1.22,1.22,0,0,1,0-.32,1.15,1.15,0,0,1,.22-.71A2.29,2.29,0,0,1,17,5.32,3.11,3.11,0,0,1,17.58,5l.5-.18V7Z"/><path class="cls-1" d="M20.17,5.45a1.74,1.74,0,0,0-.32.11,2.31,2.31,0,0,0-.35.18,1.44,1.44,0,0,0-.28.27.64.64,0,0,0-.11.36.56.56,0,0,0,.28.56,1.75,1.75,0,0,0,.78.16V5.45ZM20.56,5V7.5H18.42a.32.32,0,0,1-.19-.07.19.19,0,0,1-.07-.13.15.15,0,0,1,.07-.12.26.26,0,0,1,.19-.07H19a1,1,0,0,1-.19-.3,1.35,1.35,0,0,1-.07-.44,1,1,0,0,1,.23-.65,1.82,1.82,0,0,1,.53-.42,2.42,2.42,0,0,1,.61-.24L20.56,5Z"/><path class="cls-1" d="M23.72,7.11V7.5H23V7.11a1.48,1.48,0,0,1-.39.28,2.45,2.45,0,0,1-.43.15,2.07,2.07,0,0,1-.41.07l-.37,0h-.21V7.24h.32l.29,0c.1,0,.21,0,.31-.06a1.21,1.21,0,0,0,.3-.11c-.12-.37-.25-.7-.38-1a8.16,8.16,0,0,0-.44-.84,7.8,7.8,0,0,0-.44-.67,5.8,5.8,0,0,0-.41-.5L21,3.78c.13.14.26.31.41.5a7.78,7.78,0,0,1,.45.67,8.16,8.16,0,0,1,.44.84,8.86,8.86,0,0,1,.4,1A1.16,1.16,0,0,0,23,6V3.58h.4V7.11Z"/><path class="cls-1" d="M26.94,7.11V7.5H23.72a.32.32,0,0,1-.19-.07c-.05,0-.08-.09-.08-.13a.17.17,0,0,1,.08-.12.26.26,0,0,1,.19-.07h.11q.26,0,.3-.06a.26.26,0,0,0,.05-.18V5.19h.4V7.11h.63V5.19h.4V7.11h.57V5.19h.42V7.11Z"/><path class="cls-1" d="M27.29,3.58h.39V7.5h-.74a.32.32,0,0,1-.19-.07c-.05,0-.08-.09-.08-.13a.17.17,0,0,1,.08-.12.26.26,0,0,1,.19-.07h.35V3.58Z"/><polygon class="cls-1" points="28.3 3.6 28.69 3.6 28.69 7.5 28.3 7.5 28.3 3.6 28.3 3.6"/><path class="cls-1" d="M30.73,7.11V5.39a1.83,1.83,0,0,0-.81.42.92.92,0,0,0-.31.69.53.53,0,0,0,.23.45,1.39,1.39,0,0,0,.73.16Zm.4.58a4.38,4.38,0,0,1,0,.52,1.49,1.49,0,0,1-.15.45.79.79,0,0,1-.31.32,1,1,0,0,1-.54.12V8.71a.65.65,0,0,0,.37-.09.53.53,0,0,0,.19-.25A1,1,0,0,0,30.72,8c0-.14,0-.28,0-.43V7.5h-.22a1.52,1.52,0,0,1-1-.27.87.87,0,0,1-.35-.71,1.31,1.31,0,0,1,.14-.59,1.69,1.69,0,0,1,.4-.49,2.1,2.1,0,0,1,.61-.34,2.63,2.63,0,0,1,.77-.17V7.69Z"/><path class="cls-1" d="M34.74,4.19a.25.25,0,0,1-.08.18.24.24,0,0,1-.18.07.25.25,0,1,1,0-.5.24.24,0,0,1,.18.07.25.25,0,0,1,.08.18Zm-.87,0a.25.25,0,0,1-.08.18.27.27,0,0,1-.36,0,.24.24,0,0,1,0-.36.27.27,0,0,1,.36,0,.25.25,0,0,1,.08.18ZM34.75,7c0,.07,0,.1.09.1h.25V7.5h-.3a.44.44,0,0,1-.32-.13A.51.51,0,0,1,34.35,7V5.38a2.62,2.62,0,0,0-.33.17,1.56,1.56,0,0,0-.35.24,1.39,1.39,0,0,0-.27.32.8.8,0,0,0-.12.43.47.47,0,0,0,.21.45,1.38,1.38,0,0,0,.65.17l0,.39a2,2,0,0,1-.63-.13,1,1,0,0,1-.37-.25.7.7,0,0,1-.18-.31,1.25,1.25,0,0,1,0-.32,1.16,1.16,0,0,1,.23-.71,2.1,2.1,0,0,1,.52-.51A2.86,2.86,0,0,1,34.25,5l.5-.18V7Z"/><path class="cls-1" d="M37.35,7.11V7.5H35.09a.32.32,0,0,1-.19-.07.19.19,0,0,1-.07-.13.15.15,0,0,1,.07-.12.26.26,0,0,1,.19-.07h.68a1.27,1.27,0,0,1-.26-.26.74.74,0,0,1-.13-.48,1.2,1.2,0,0,1,.12-.52,1.31,1.31,0,0,1,.38-.44,2.11,2.11,0,0,1,.6-.31,3.28,3.28,0,0,1,.84-.17v.84h-.4V5.38a1.54,1.54,0,0,0-.84.36.9.9,0,0,0-.31.66s0,.07,0,.15a.51.51,0,0,0,.17.24,1.18,1.18,0,0,0,.45.22,2.84,2.84,0,0,0,.87.1Z"/><polygon class="cls-1" points="37.93 3.6 38.33 3.6 38.33 7.5 37.93 7.5 37.93 3.6 37.93 3.6"/><path class="cls-1" d="M39.42,7.67a2.7,2.7,0,0,1,0,.49,1.3,1.3,0,0,1-.13.46.87.87,0,0,1-.32.34,1,1,0,0,1-.55.13V8.71a.63.63,0,0,0,.35-.09.57.57,0,0,0,.19-.24A1,1,0,0,0,39,8.05c0-.12,0-.25,0-.38V5.21h.4V7.67Z"/><path class="cls-1" d="M40.63,4.34a.25.25,0,0,1-.43.18.24.24,0,0,1,0-.36.25.25,0,0,1,.43.18Zm-.05,3.33a4,4,0,0,1,0,.49,1.31,1.31,0,0,1-.14.46A.85.85,0,0,1,40.1,9a1,1,0,0,1-.56.13V8.71a.61.61,0,0,0,.35-.09.5.5,0,0,0,.19-.24.8.8,0,0,0,.09-.33c0-.12,0-.25,0-.38V5.21h.4v1.9h.34V7.5h-.34v.17Z"/><path class="cls-1" d="M41.27,3.58h.39V7.11H42V7.5H40.92a.32.32,0,0,1-.19-.07.19.19,0,0,1-.07-.13.15.15,0,0,1,.07-.12.26.26,0,0,1,.19-.07h.35V3.58Z"/><path class="cls-1" d="M42.35,3.58h.4V7.5H42a.29.29,0,0,1-.19-.07s-.08-.09-.08-.13a.17.17,0,0,1,.08-.12A.25.25,0,0,1,42,7.11h.34V3.58Z"/><path class="cls-1" d="M46.21,9.29a.24.24,0,0,1-.07.18.25.25,0,0,1-.19.07.24.24,0,0,1-.18-.07.24.24,0,0,1,0-.36A.24.24,0,0,1,46,9a.25.25,0,0,1,.19.07.24.24,0,0,1,.07.18Zm-.86,0a.22.22,0,0,1-.08.18.27.27,0,0,1-.36,0,.24.24,0,0,1,0-.36.27.27,0,0,1,.36,0,.22.22,0,0,1,.08.18Zm2.36-2.18V7.5h-.37l-.72-2.22a.87.87,0,0,0-.27.14,1.3,1.3,0,0,0-.19.22A.68.68,0,0,0,46,5.9a.88.88,0,0,0,0,.27.79.79,0,0,0,.21.55,2.76,2.76,0,0,0,.47.43l.11.07.07.07.1.16a1.18,1.18,0,0,1-.08.38,1.15,1.15,0,0,1-.24.39,1.31,1.31,0,0,1-.43.32,1.62,1.62,0,0,1-.66.12,1.43,1.43,0,0,1-.39-.06,1.09,1.09,0,0,1-.37-.19.87.87,0,0,1-.28-.32.92.92,0,0,1-.12-.48V7.12h.4v.49a.56.56,0,0,0,.08.3.61.61,0,0,0,.18.21,1.15,1.15,0,0,0,.25.12l.25,0A1.09,1.09,0,0,0,46,8.19a.88.88,0,0,0,.3-.21.67.67,0,0,0,.16-.24c0-.08,0-.15,0-.2l0,0-.26-.19A2,2,0,0,1,46,7a1.45,1.45,0,0,1-.24-.38,1.06,1.06,0,0,1-.11-.48,1.51,1.51,0,0,1,.08-.48,1.58,1.58,0,0,1,.24-.42A1.64,1.64,0,0,1,46.33,5a1.76,1.76,0,0,1,.56-.16l.74,2.3Z"/><path class="cls-1" d="M48.1,8.3a.23.23,0,0,1,.07-.17.27.27,0,0,1,.19-.08.25.25,0,0,1,.18.08.25.25,0,0,1,.08.17.27.27,0,0,1-.26.26.27.27,0,0,1-.19-.08.24.24,0,0,1-.07-.18Zm.07-1.19V5.22h.39V7.11h.35V7.5h-1.2a.35.35,0,0,1-.2-.07.19.19,0,0,1-.07-.13.15.15,0,0,1,.07-.12.29.29,0,0,1,.2-.07Z"/><path class="cls-1" d="M50.8,4.43a.25.25,0,0,1-.08.18.24.24,0,0,1-.18.07.25.25,0,1,1,0-.5.24.24,0,0,1,.18.07.25.25,0,0,1,.08.18Zm1.35,1A3.41,3.41,0,0,0,51,5.66a2.91,2.91,0,0,0-.72.48,2.09,2.09,0,0,0-.4.54,4.08,4.08,0,0,0-.17.43h2.43V5.39ZM48.91,7.5a.32.32,0,0,1-.19-.07.19.19,0,0,1-.07-.13.15.15,0,0,1,.07-.12.26.26,0,0,1,.19-.07h.39V3.58h.4V6.26a2.44,2.44,0,0,1,.37-.45,2.32,2.32,0,0,1,.54-.41A3.48,3.48,0,0,1,52.34,5h.21V7.5Z"/><path class="cls-1" d="M54.58,7.11V5.39a1.83,1.83,0,0,0-.81.42,1,1,0,0,0-.3.69A.51.51,0,0,0,53.7,7a1.34,1.34,0,0,0,.73.16Zm.4.58a3,3,0,0,1,0,.52,1.25,1.25,0,0,1-.14.45,1,1,0,0,1-.31.32A1.08,1.08,0,0,1,54,9.1V8.71a.62.62,0,0,0,.36-.09.53.53,0,0,0,.19-.25A1,1,0,0,0,54.58,8c0-.14,0-.28,0-.43V7.5h-.14a1.67,1.67,0,0,1-1-.27.87.87,0,0,1-.35-.71,1.31,1.31,0,0,1,.14-.59,1.54,1.54,0,0,1,.4-.49,2,2,0,0,1,.6-.34A2.63,2.63,0,0,1,55,4.93V7.11h.34V7.5H55v.19Z"/><path class="cls-1" d="M55.72,8.3a.25.25,0,0,1,.08-.17A.25.25,0,0,1,56,8.05a.29.29,0,0,1,.19.08.23.23,0,0,1,.07.17.24.24,0,0,1-.07.18.29.29,0,0,1-.19.08.27.27,0,0,1-.26-.26Zm.07-1.19V5.22h.4V7.5h-.86a.29.29,0,0,1-.19-.07s-.08-.09-.08-.13a.17.17,0,0,1,.08-.12.25.25,0,0,1,.19-.07Z"/><path class="cls-1" d="M56.85,3.89h.39V7.5h-.39V3.89ZM57.52,3a.79.79,0,0,0-.32-.08A.25.25,0,0,0,57,3,.14.14,0,0,0,57,3.1a.21.21,0,0,0,.11.21.61.61,0,0,0,.28.06h.19v.2h-1v-.2h.33s0,0-.06-.09a.57.57,0,0,1,0-.18.3.3,0,0,1,.13-.28.46.46,0,0,1,.28-.08,1,1,0,0,1,.41.08L57.52,3Z"/><path class="cls-1" d="M60.89,4.19a.22.22,0,0,1-.08.18.27.27,0,0,1-.36,0,.24.24,0,0,1,0-.36.27.27,0,0,1,.36,0,.22.22,0,0,1,.08.18Zm-.86,0a.25.25,0,0,1-.08.18.24.24,0,0,1-.18.07.26.26,0,0,1-.19-.07.27.27,0,0,1,0-.36.26.26,0,0,1,.19-.07A.24.24,0,0,1,60,4a.25.25,0,0,1,.08.18ZM60.91,7c0,.07,0,.1.09.1h.25V7.5H61a.43.43,0,0,1-.32-.13A.51.51,0,0,1,60.51,7V5.38l-.32.17a1.36,1.36,0,0,0-.35.24,1.43,1.43,0,0,0-.28.32.89.89,0,0,0-.11.43.49.49,0,0,0,.2.45,1.42,1.42,0,0,0,.65.17l0,.39a2,2,0,0,1-.63-.13,1,1,0,0,1-.37-.25.68.68,0,0,1-.17-.31A1.25,1.25,0,0,1,59,6.54a1.15,1.15,0,0,1,.22-.71,2.14,2.14,0,0,1,.53-.51A2.8,2.8,0,0,1,60.4,5l.51-.18V7Z"/><path class="cls-1" d="M62.51,4.29a.78.78,0,0,0-.33-.07.38.38,0,0,0-.16,0,.16.16,0,0,0-.06.14.24.24,0,0,0,.12.21.58.58,0,0,0,.28.06h.19v.19h-1V4.66h.33s0,0-.07-.1a.47.47,0,0,1,0-.17.34.34,0,0,1,.13-.29A.57.57,0,0,1,62.17,4a1.25,1.25,0,0,1,.42.08l-.08.19ZM61.25,7.5a.29.29,0,0,1-.19-.07C61,7.38,61,7.34,61,7.3a.17.17,0,0,1,.08-.12.25.25,0,0,1,.19-.07H62V5.22h.4V7.11h.35V7.5Z"/><path class="cls-1" d="M64,8.55a.24.24,0,0,1-.18-.07.24.24,0,0,1,0-.36.25.25,0,1,1,.36.36.24.24,0,0,1-.18.07Zm-.78,0A.28.28,0,0,1,63,8.48a.27.27,0,0,1,0-.36A.29.29,0,0,1,63.21,8a.25.25,0,0,1,.18.44.24.24,0,0,1-.18.07ZM62.77,7.5a.35.35,0,0,1-.2-.07.19.19,0,0,1-.07-.13.15.15,0,0,1,.07-.12.29.29,0,0,1,.2-.07h1V5.22h.4V7.11h.34V7.5Z"/><path class="cls-1" d="M65.29,6.55a.41.41,0,0,0,.22.41,1.92,1.92,0,0,0,.74.14v-1L66.1,6h-.18a.65.65,0,0,0-.47.15.5.5,0,0,0-.16.39Zm-.74,1a.29.29,0,0,1-.19-.07.17.17,0,0,1-.08-.13.14.14,0,0,1,.08-.12.25.25,0,0,1,.19-.07h.55a.77.77,0,0,1-.21-.57A.93.93,0,0,1,65,6.2a1,1,0,0,1,.19-.3.92.92,0,0,1,.32-.2,1.22,1.22,0,0,1,.46-.08l.21,0a.88.88,0,0,1,.24,0,.47.47,0,0,1,.19.07c.06,0,.08.06.08.11V7.11H67V5.22l-.26,0-.32,0a1.74,1.74,0,0,0-.59.1.78.78,0,0,0-.45.37L65,5.44a1.29,1.29,0,0,1,.27-.33,1.37,1.37,0,0,1,.35-.2,2,2,0,0,1,.38-.1l.38,0h.24l.26,0,.26,0,.21.06V7.5Z"/></g></g></svg>