<svg id="Group_5" data-name="Group 5" xmlns="http://www.w3.org/2000/svg" width="58" height="60" viewBox="0 0 58 60">
  <g id="Group_2" data-name="Group 2">
    <g id="Group">
      <path id="Fill_204" data-name="Fill 204" d="M0,0,2.661,3.291l-.444,7.99a3.989,3.989,0,0,0-1.773,3.29H3.991s.448-2.7,1.331-3.29C5.769,10.46,6.06,3,6.06,3,5.173,2.527,0,0,0,0" transform="translate(45.881 43.714)" fill="#61c4f2"/>
      <path id="Fill_205" data-name="Fill 205" d="M1.017,0,2.034,10.4A3.9,3.9,0,0,0,0,13.714H3.56s1.342-2.668,2.354-3.26c.514-.827-.5-9.316-.5-9.316A32.75,32.75,0,0,0,1.017,0" transform="translate(16.448 44.571)" fill="#61c4f2"/>
      <path id="Fill_206" data-name="Fill 206" d="M.795,17.143a.8.8,0,0,1-.794-.8,5.108,5.108,0,0,1,1.851-3.605c-.087-1.34-.391-5.991-.444-6.7A17.042,17.042,0,0,0,.073,1.133.8.8,0,1,1,1.517.465,18.54,18.54,0,0,1,2.992,5.921c.063.83.452,6.819.469,7.074a.8.8,0,0,1-.231.617c-.88.886-1.64,1.65-1.64,2.732a.8.8,0,0,1-.794.8" transform="translate(19.91 42)" fill="#263357"/>
      <path id="Fill_207" data-name="Fill 207" d="M.795,15.429A.794.794,0,0,1,0,14.634a5.065,5.065,0,0,1,1.852-3.583C1.764,9.721,1.461,5.1,1.407,4.4A20,20,0,0,0,.861,1.024.794.794,0,1,1,2.382.565a21.687,21.687,0,0,1,.61,3.71c.063.832.469,7.03.469,7.03a.8.8,0,0,1-.232.614c-.88.881-1.64,1.64-1.64,2.715a.794.794,0,0,1-.795.794" transform="translate(16.448 43.714)" fill="#263357"/>
      <path id="Fill_208" data-name="Fill 208" d="M.794,13.714A.822.822,0,0,1,0,12.878a6,6,0,0,1,1.866-3.3C1.843,8.146,1.773,3.393,1.812.806A.806.806,0,0,1,2.606,0,.811.811,0,0,1,3.4.831c-.046,3.027.06,9.077.061,9.138a.825.825,0,0,1-.372.708,4.886,4.886,0,0,0-1.5,2.238.79.79,0,0,1-.794.8" transform="translate(23.373 46.286)" fill="#263357"/>
      <path id="Fill_209" data-name="Fill 209" d="M6.955,18a.792.792,0,0,1-.795-.764,4.364,4.364,0,0,1,1.573-3.347c.069-1.4.294-6.293.154-7.867A6.874,6.874,0,0,0,6.2,5.263C4.338,4.581,1.789,3.646.137,1.229A.783.783,0,0,1,.35.135a.8.8,0,0,1,1.1.211c1.366,2,3.638,2.831,5.3,3.439,1.459.535,2.611.957,2.716,2.038.184,1.885-.15,8.256-.164,8.526a.786.786,0,0,1-.366.623A2.762,2.762,0,0,0,7.75,17.189.791.791,0,0,1,6.98,18H6.955" transform="translate(43.284 41.143)" fill="#263357"/>
      <path id="Fill_210" data-name="Fill 210" d="M.724,12.857A.77.77,0,0,1,0,12.067,4.83,4.83,0,0,1,1.46,8.578,65.045,65.045,0,0,0,1.995.894.8.8,0,0,1,2.646,0a.761.761,0,0,1,.791.733,72.55,72.55,0,0,1-.581,8.407.832.832,0,0,1-.328.58,3.023,3.023,0,0,0-1.079,2.294.781.781,0,0,1-.7.84H.724" transform="translate(45.881 46.286)" fill="#263357"/>
      <path id="Fill_211" data-name="Fill 211" d="M3.781,23.143a.8.8,0,0,1-.789-.7,4.779,4.779,0,0,1,1.12-3.531c.024-1.6.14-8.456.348-10.052a5.357,5.357,0,0,0-1.035-.808A10.4,10.4,0,0,1,1.212,6.2,5.512,5.512,0,0,1,.424.54a.8.8,0,1,1,1.505.517c-.767,2.245-.083,3.422.5,4.113a9.03,9.03,0,0,0,1.89,1.556c.964.654,1.876,1.272,1.727,2.3-.178,1.229-.3,7.228-.344,10.228a.8.8,0,0,1-.26.58,3.118,3.118,0,0,0-.867,2.412.8.8,0,0,1-.694.889.839.839,0,0,1-.1.006" transform="translate(50.209 36.857)" fill="#263357"/>
      <path id="Fill_212" data-name="Fill 212" d="M10.716,18A4.711,4.711,0,0,1,6.2,14.386a4,4,0,0,1-2.316-1.6,3.946,3.946,0,0,1-.74-2.59A4.445,4.445,0,0,1,1.439,7.7a4.539,4.539,0,0,1,.1-2.762,3.269,3.269,0,0,1-.635-.657A4.556,4.556,0,0,1,.123.587.8.8,0,0,1,1.1.024a.78.78,0,0,1,.576.951,2.973,2.973,0,0,0,.417,2.233c.284.449.536.582.589.593a.792.792,0,0,1,.659.433.766.766,0,0,1-.056.778,2.8,2.8,0,0,0-.3,2.291,2.78,2.78,0,0,0,1.4,1.806.775.775,0,0,1,.41.916A2.308,2.308,0,0,0,5.208,11.9a2.352,2.352,0,0,0,1.723,1.024.792.792,0,0,1,.72.648c.059.324.663,3.184,3.569,2.831a.8.8,0,0,1,.893.678.784.784,0,0,1-.695.872,5.8,5.8,0,0,1-.7.044" transform="translate(9.522 28.286)" fill="#263357"/>
      <path id="Fill_213" data-name="Fill 213" d="M8.809,5.143a5.044,5.044,0,0,1-2.588-.716,3.713,3.713,0,0,1-2.783.255A5.473,5.473,0,0,1,.083,2.308.9.9,0,0,1,.435,1.156a.759.759,0,0,1,1.056.384A4.233,4.233,0,0,0,3.8,3.011a2.191,2.191,0,0,0,1.95-.28.737.737,0,0,1,.927-.015A3.559,3.559,0,0,0,9.5,3.355a2.8,2.8,0,0,0,1.876-1.327.79.79,0,0,1,.5-.372.733.733,0,0,1,.593.12,2.534,2.534,0,0,0,2.248.352A3.244,3.244,0,0,0,16.688.474.759.759,0,0,1,17.744.091.9.9,0,0,1,18.1,1.243,4.851,4.851,0,0,1,15.13,3.784a4.018,4.018,0,0,1-2.878-.195A4.375,4.375,0,0,1,9.8,5.041a4.823,4.823,0,0,1-.992.1" transform="translate(25.97 45.429)" fill="#263357"/>
      <path id="Fill_214" data-name="Fill 214" d="M9.561,5.143a5.948,5.948,0,0,1-.843-.059,4.235,4.235,0,0,1-2.667-1.3,5.2,5.2,0,0,1-4.639-.371A2.618,2.618,0,0,1,.044.669.81.81,0,0,1,.99.015a.826.826,0,0,1,.637.97c-.087.459.293.805.627,1.015A3.437,3.437,0,0,0,5.835,2a.79.79,0,0,1,.735-.14.82.82,0,0,1,.53.54c.147.477.905.9,1.842,1.039a3.135,3.135,0,0,0,2.978-.932.793.793,0,0,1,1.023-.286A4.036,4.036,0,0,0,18.4.527.794.794,0,0,1,19.5.211a.838.838,0,0,1,.308,1.126,5.538,5.538,0,0,1-6.979,2.628A4.617,4.617,0,0,1,9.561,5.143" transform="translate(24.239 37.714)" fill="#263357"/>
      <path id="Fill_215" data-name="Fill 215" d="M10.486,15.429a.838.838,0,0,1-.522-.181.773.773,0,0,1-.109-1.113,5.336,5.336,0,0,0,1.4-4.606,3.631,3.631,0,0,0-1.1-2.148.814.814,0,0,1-.4-.984c.3-.78-.335-1.7-.974-2.258a2.633,2.633,0,0,0-2.486-.779.85.85,0,0,1-.8-.035.787.787,0,0,1-.389-.673c0-.015-.036-.1-.2-.24A5.9,5.9,0,0,0,.955,1.645.819.819,0,0,1,.011.994.794.794,0,0,1,.686.085,7.5,7.5,0,0,1,5.967,1.2a2.463,2.463,0,0,1,.464.491A4.626,4.626,0,0,1,9.877,2.962a3.928,3.928,0,0,1,1.565,3.407,5.631,5.631,0,0,1,1.4,2.714,6.932,6.932,0,0,1-1.718,6.058.833.833,0,0,1-.633.287" transform="translate(44.149 24)" fill="#263357"/>
      <path id="Fill_216" data-name="Fill 216" d="M5.284,3.429a.782.782,0,0,1-.675-.376A3.752,3.752,0,0,0,1.021,1.56a.784.784,0,0,1-.982-.47A.737.737,0,0,1,.531.151,5.289,5.289,0,0,1,5.959,2.319a.726.726,0,0,1-.292,1.012.8.8,0,0,1-.382.1" transform="translate(19.91 22.286)" fill="#263357"/>
      <path id="Fill_217" data-name="Fill 217" d="M48.547,1.714H.8A.828.828,0,0,1,0,.857.829.829,0,0,1,.8,0H48.547a.829.829,0,0,1,.8.857.828.828,0,0,1-.8.857" transform="translate(8.657 58.286)" fill="#263357"/>
      <path id="Fill_218" data-name="Fill 218" d="M4.01,17.143l-.155,0a2.975,2.975,0,0,1-2.231-1.075A4.863,4.863,0,0,1,.6,12.253,10.02,10.02,0,0,0,.351,8.6,11.09,11.09,0,0,1,.08,4.707C.775,0,5.013,0,6.608,0c3.578,0,5.348,3.275,5.422,3.415a.779.779,0,0,1-.355,1.064.828.828,0,0,1-1.1-.342c-.017-.03-1.4-2.555-3.969-2.555-2.727,0-4.5.56-4.911,3.35A9.708,9.708,0,0,0,1.955,8.3a11.385,11.385,0,0,1,.26,4.191,3.348,3.348,0,0,0,.659,2.554,1.349,1.349,0,0,0,1.013.512,2.37,2.37,0,0,0,2.3-.932,3.609,3.609,0,0,1,1.076-.935l.154-.081a3.171,3.171,0,0,0,2.043-2.438.818.818,0,0,1,.99-.575.789.789,0,0,1,.594.959,4.683,4.683,0,0,1-2.852,3.446l-.15.079a2.2,2.2,0,0,0-.6.557,3.861,3.861,0,0,1-3.428,1.5" transform="translate(3.463 14.571)" fill="#263357"/>
      <path id="Fill_219" data-name="Fill 219" d="M4.375,6H4.345A4.84,4.84,0,0,1,.008,1.661.81.81,0,0,1,.45.823,5.606,5.606,0,0,1,3.952.05.813.813,0,1,1,3.7,1.657a3.377,3.377,0,0,0-1.951.354A3.149,3.149,0,0,0,4.4,4.375.813.813,0,0,1,4.375,6" transform="translate(0 17.143)" fill="#263357"/>
      <path id="Fill_220" data-name="Fill 220" d="M1.046,6c-.09,0-.18,0-.268-.006A.841.841,0,0,1,.847,4.315c.5.023,2.816,0,3.469-2.144a5.286,5.286,0,0,0-3.277-.393.812.812,0,0,1-1-.579A.843.843,0,0,1,.587.163,7.08,7.08,0,0,1,5.614.938a.849.849,0,0,1,.438.867A4.733,4.733,0,0,1,1.046,6" transform="translate(13.851 17.143)" fill="#263357"/>
      <path id="Fill_221" data-name="Fill 221" d="M1.768,2.571a.687.687,0,0,1-.459-.18L.277,1.469A.892.892,0,0,1,.161.31.684.684,0,0,1,1.2.18l.7.623L3.318.164a.712.712,0,0,1,.957.458.861.861,0,0,1-.41,1.072l-1.824.817a.663.663,0,0,1-.274.059" transform="translate(5.194 25.714)" fill="#263357"/>
      <path id="Fill_222" data-name="Fill 222" d="M.8,1.714a.836.836,0,0,1-.716-.362A.6.6,0,0,1,.443.475l1-.406A.893.893,0,0,1,2.513.361a.6.6,0,0,1-.358.877l-1,.406A.952.952,0,0,1,.8,1.714" transform="translate(9.522 20.571)" fill="#263357"/>
      <path id="Fill_223" data-name="Fill 223" d="M1.8,1.714a.954.954,0,0,1-.358-.069L.443,1.239A.6.6,0,0,1,.085.361.893.893,0,0,1,1.159.069l1,.406a.6.6,0,0,1,.358.878.837.837,0,0,1-.717.362" transform="translate(4.328 20.571)" fill="#263357"/>
      <path id="Fill_224" data-name="Fill 224" d="M5.427,6.857a3.739,3.739,0,0,1-2.215-.649A2.76,2.76,0,0,1,2.135,4.685,2.433,2.433,0,0,1,.958,4,4.738,4.738,0,0,1,.011.708.8.8,0,0,1,.854,0,.772.772,0,0,1,1.58.821,3.356,3.356,0,0,0,2.112,2.96a.93.93,0,0,0,.72.278A.776.776,0,0,1,3.618,4a1.2,1.2,0,0,0,.526.974,3.053,3.053,0,0,0,2.627.132.791.791,0,0,1,.984.506.762.762,0,0,1-.519.957,6.329,6.329,0,0,1-1.81.286" transform="translate(14.716 29.143)" fill="#263357"/>
      <path id="Fill_225" data-name="Fill 225" d="M11.687,33.429h0a98.435,98.435,0,0,1-5.842-7.991,55.613,55.613,0,0,1-4.017-7.114A16.89,16.89,0,0,1,0,11.686,11.687,11.687,0,0,1,19.95,3.423a11.61,11.61,0,0,1,3.423,8.264,16.89,16.89,0,0,1-1.826,6.637,55.613,55.613,0,0,1-4.017,7.114,98.435,98.435,0,0,1-5.842,7.991Zm0-26.006a3.946,3.946,0,0,0-4.125,4.125,3.941,3.941,0,0,0,4.125,4.114,3.941,3.941,0,0,0,4.125-4.114A3.946,3.946,0,0,0,11.687,7.423Z" transform="translate(23.373 0.857)" fill="#f86464"/>
      <path id="Fill_226" data-name="Fill 226" d="M12.552,35.143a.79.79,0,0,1-.611-.287C11.454,34.271,0,20.445,0,12.524a12.552,12.552,0,0,1,25.1,0c0,7.92-11.454,21.747-11.941,22.332A.79.79,0,0,1,12.552,35.143Zm0-33.556A10.962,10.962,0,0,0,1.59,12.524c0,2.7,1.542,6.584,4.585,11.533a97.34,97.34,0,0,0,6.377,9.028c2.57-3.229,10.962-14.256,10.962-20.561A10.962,10.962,0,0,0,12.552,1.587Z" transform="translate(22.507)" fill="#263357"/>
    </g>
    <path id="Combined_Shape" data-name="Combined Shape" d="M5.8,12.662a.862.862,0,0,1,.508-.785v-.741A4.422,4.422,0,0,1,3.664,9.981l-.691.576v.019a.869.869,0,1,1-.454-.759l.572-.477a4.345,4.345,0,0,1-.822-2.146H1.661a.863.863,0,1,1,0-.72h.6a4.343,4.343,0,0,1,.785-2.222L2.375,3.7a.878.878,0,0,1-.273.043.864.864,0,1,1,.87-.864.883.883,0,0,1-.02.184L3.6,3.6a4.422,4.422,0,0,1,2.7-1.213V1.648a.87.87,0,1,1,.725,0v.741A4.423,4.423,0,0,1,9.85,3.713l.535-.446a.849.849,0,0,1-.018-.174.87.87,0,1,1,.87.863.88.88,0,0,1-.282-.046l-.569.473a4.341,4.341,0,0,1,.7,2.091h.668a.863.863,0,1,1,0,.72h-.68a4.341,4.341,0,0,1-.731,2.017l.811.675a.891.891,0,0,1,.231-.031.864.864,0,1,1-.869.863.858.858,0,0,1,.029-.221l-.751-.625a4.423,4.423,0,0,1-2.758,1.264v.741a.865.865,0,1,1-1.233.785Z" transform="translate(28.42 5.612)" fill="#e6eeea"/>
  </g>
</svg>
