<svg xmlns="http://www.w3.org/2000/svg" width="69.25" height="69.25" viewBox="0 0 69.25 69.25">
  <g id="Group_514" data-name="Group 514" transform="translate(248 -10938)">
    <rect id="Rectangle_3" data-name="Rectangle 3" width="69.25" height="69.25" transform="translate(-248 10938)" fill="#4267b2"/>
    <g id="facebook" transform="translate(-248 10938)">
      <path id="Path_884" data-name="Path 884" d="M65.427,0H3.819A3.822,3.822,0,0,0,0,3.822V65.43A3.822,3.822,0,0,0,3.822,69.25h61.6a3.822,3.822,0,0,0,3.822-3.821V3.819A3.822,3.822,0,0,0,65.427,0Zm0,0" transform="translate(0)" fill="#4267b2"/>
      <path id="Path_885" data-name="Path 885" d="M226.815,136.115v-26.78h9.028L237.2,98.853H226.815V92.177c0-3.028.841-5.091,5.182-5.091h5.5v-9.35a73.967,73.967,0,0,0-8.064-.412c-7.98,0-13.441,4.869-13.441,13.815v7.714H207v10.482h8.994v26.78Zm0,0" transform="translate(-179.003 -66.866)" fill="#fff"/>
    </g>
  </g>
</svg>
