<svg id="Group_21" data-name="Group 21" xmlns="http://www.w3.org/2000/svg" xmlns:xlink="http://www.w3.org/1999/xlink" width="138" height="138" viewBox="0 0 138 138">
  <defs>
    <clipPath id="clip-path">
      <path id="Clip_79" data-name="Clip 79" d="M0,0H57V96H0Z" fill="none"/>
    </clipPath>
  </defs>
  <rect id="Rectangle" width="138" height="138" rx="51" fill="#e5e7e6"/>
  <g id="Group_81" data-name="Group 81" transform="translate(40 19)">
    <path id="Clip_79-2" data-name="Clip 79" d="M0,0H57V96H0Z" fill="none"/>
    <g id="Group_81-2" data-name="Group 81" clip-path="url(#clip-path)">
      <path id="Fill_78" data-name="Fill 78" d="M0,44.891C0,62.687,14.9,66.5,19.465,67.243a8.293,8.293,0,0,1,4.889,2.67,8.293,8.293,0,0,1,4.889-2.67c4.566-.743,19.465-4.556,19.465-22.352C48.709,31.267,29.946,6.943,24.355,0,18.763,6.943,0,31.267,0,44.891" transform="translate(4.145 5.217)" fill="#fff"/>
      <path id="Fill_80" data-name="Fill 80" d="M28.5,93.913a2.035,2.035,0,0,1-2.036-2.03V80.636a4.11,4.11,0,0,0-3.524-4.023C11.85,74.8,0,66.917,0,50.2c0-3.986,1.364-9,4.055-14.911a120.742,120.742,0,0,1,9-15.9A213.9,213.9,0,0,1,26.942.685a2.113,2.113,0,0,1,3.115,0A213.9,213.9,0,0,1,43.941,19.391a120.742,120.742,0,0,1,9,15.9C55.635,41.2,57,46.215,57,50.2c0,16.716-11.85,24.6-22.94,26.411a4.11,4.11,0,0,0-3.524,4.023V91.884A2.035,2.035,0,0,1,28.5,93.913ZM46.818,46.631a2.037,2.037,0,0,1,1.612.783,2.027,2.027,0,0,1-.358,2.849L33.862,61.276a8.577,8.577,0,0,0-3.326,6.781V73.64A8.383,8.383,0,0,1,33.4,72.608c4.58-.745,19.525-4.563,19.525-22.406,0-13.621-18.7-37.883-24.428-45-5.732,7.111-24.429,31.365-24.429,45,0,17.844,14.944,21.661,19.525,22.406a8.376,8.376,0,0,1,2.868,1.032V68.056a8.58,8.58,0,0,0-3.326-6.781L8.929,50.262a2.032,2.032,0,0,1,2.5-3.206L26.464,58.713V52.095a8.594,8.594,0,0,0-3.607-6.988l-9.79-6.97a2.024,2.024,0,0,1-.474-2.831,2.041,2.041,0,0,1,2.84-.472l11.031,7.853V37.735a8.614,8.614,0,0,0-3.447-6.87l-3.882-2.9a2.031,2.031,0,0,1,2.443-3.246l4.886,3.652V20.254a2.036,2.036,0,0,1,4.072,0V28.37l4.885-3.652a2.031,2.031,0,1,1,2.443,3.246l-3.882,2.9a8.619,8.619,0,0,0-3.446,6.87v4.953l11.031-7.853a2.018,2.018,0,0,1,1.179-.378,2.046,2.046,0,0,1,1.66.85,2.024,2.024,0,0,1-.474,2.831l-9.788,6.97a8.589,8.589,0,0,0-3.609,6.988v6.619L45.571,47.056A2.018,2.018,0,0,1,46.818,46.631Z" transform="translate(0 0)" fill="#003c51"/>
    </g>
  </g>
  <circle id="Oval" cx="2" cy="2" r="2" transform="translate(68 118)" fill="#003c51"/>
</svg>
