<svg xmlns="http://www.w3.org/2000/svg" width="327" height="202" viewBox="0 0 327 202">
  <g id="Group_6" data-name="Group 6" transform="translate(-3918 3356)">
    <rect id="Rectangle_3" data-name="Rectangle 3" width="327" height="202" transform="translate(3918 -3356)" fill="#AEC28D" opacity="0.2"/>
    <g id="image-gallery" transform="translate(4049.292 -3286.523)">
      <g id="Group_2" data-name="Group 2" transform="translate(0 22.669)">
        <path id="Path_1" data-name="Path 1" d="M46.842,48.078a5.354,5.354,0,0,1-1.369-.177L3.971,36.787a5.417,5.417,0,0,1-3.8-6.576L5.413,10.694a1.342,1.342,0,0,1,2.593.692L2.772,30.9a2.724,2.724,0,0,0,1.906,3.3L46.163,45.306a2.672,2.672,0,0,0,3.266-1.889l2.1-7.767a1.342,1.342,0,0,1,2.593.7L52.024,44.1a5.361,5.361,0,0,1-5.183,3.975Z" transform="translate(0 -9.701)" fill="#fff"/>
      </g>
      <g id="Group_3" data-name="Group 3" transform="translate(10.735 2)">
        <path id="Path_2" data-name="Path 2" d="M52.311,44.943H9.368A5.373,5.373,0,0,1,4,39.575V7.368A5.373,5.373,0,0,1,9.368,2H52.311a5.373,5.373,0,0,1,5.368,5.368V39.575A5.373,5.373,0,0,1,52.311,44.943ZM9.368,4.684A2.688,2.688,0,0,0,6.684,7.368V39.575a2.688,2.688,0,0,0,2.684,2.684H52.311a2.688,2.688,0,0,0,2.684-2.684V7.368a2.688,2.688,0,0,0-2.684-2.684Z" transform="translate(-4 -2)" fill="#fff"/>
      </g>
      <g id="Group_4" data-name="Group 4" transform="translate(18.787 10.052)">
        <path id="Path_3" data-name="Path 3" d="M12.368,15.736a5.368,5.368,0,1,1,5.368-5.368A5.373,5.373,0,0,1,12.368,15.736Zm0-8.052a2.684,2.684,0,1,0,2.684,2.684A2.688,2.688,0,0,0,12.368,7.684Z" transform="translate(-7 -5)" fill="#fff"/>
      </g>
      <g id="Group_5" data-name="Group 5" transform="translate(10.922 16.896)">
        <path id="Path_4" data-name="Path 4" d="M5.412,32.725a1.341,1.341,0,0,1-.95-2.289L17.138,17.76a4.125,4.125,0,0,1,5.693,0L26.6,21.533,37.051,9A4.032,4.032,0,0,1,40.116,7.55h.03a4.023,4.023,0,0,1,3.057,1.4L57.239,25.331A1.342,1.342,0,0,1,55.2,27.078L41.165,10.7a1.328,1.328,0,0,0-1.02-.467,1.425,1.425,0,0,0-1.031.483L27.727,24.381a1.337,1.337,0,0,1-.972.48,1.292,1.292,0,0,1-1.009-.392l-4.812-4.812a1.379,1.379,0,0,0-1.9,0L6.36,32.333a1.337,1.337,0,0,1-.947.392Z" transform="translate(-4.07 -7.55)" fill="#fff"/>
      </g>
    </g>
  </g>
</svg>
